<?xml version="1.0" encoding="UTF-8" standalone="no"?>
<!DOCTYPE svg PUBLIC "-//W3C//DTD SVG 1.1//EN"
 "http://www.w3.org/Graphics/SVG/1.1/DTD/svg11.dtd">
<!-- Generated by graphviz version 2.48.0 (0)
 -->
<!-- Title: imdf_net_1720701024.4762533 Pages: 1 -->
<svg width="3202pt" height="720pt"
 viewBox="0.00 0.00 3201.88 720.00" xmlns="http://www.w3.org/2000/svg" xmlns:xlink="http://www.w3.org/1999/xlink">
<g id="graph0" class="graph" transform="scale(1 1) rotate(0) translate(4 716)">
<title>imdf_net_1720701024.4762533</title>
<polygon fill="white" stroke="transparent" points="-4,4 -4,-716 3197.88,-716 3197.88,4 -4,4"/>
<!-- 140434678130560 -->
<g id="node1" class="node">
<title>140434678130560</title>
<polygon fill="white" stroke="black" points="122.42,-587 -0.14,-587 -0.14,-551 122.42,-551 122.42,-587"/>
<text text-anchor="middle" x="61.14" y="-565.4" font-family="Times,serif" font-size="12.00">W_Beoordelen fraude</text>
</g>
<!-- 140434678129600 -->
<g id="node72" class="node">
<title>140434678129600</title>
<ellipse fill="white" stroke="black" cx="185.28" cy="-416" rx="27" ry="27"/>
</g>
<!-- 140434678130560&#45;&gt;140434678129600 -->
<g id="edge14" class="edge">
<title>140434678130560&#45;&gt;140434678129600</title>
<path fill="none" stroke="black" d="M76.63,-550.85C97.52,-524.69 136.29,-476.12 161.16,-444.97"/>
<polygon fill="black" stroke="black" points="163.96,-447.06 167.47,-437.06 158.49,-442.69 163.96,-447.06"/>
</g>
<!-- 140434678132864 -->
<g id="node2" class="node">
<title>140434678132864</title>
<polygon fill="white" stroke="black" points="3193.86,-329 3076.95,-329 3076.95,-293 3193.86,-293 3193.86,-329"/>
<text text-anchor="middle" x="3135.4" y="-307.4" font-family="Times,serif" font-size="12.00">W_Afhandelen leads</text>
</g>
<!-- 140434678132864&#45;&gt;140434678129600 -->
<g id="edge18" class="edge">
<title>140434678132864&#45;&gt;140434678129600</title>
<path fill="none" stroke="black" d="M3130.06,-292.94C3112.94,-226.56 3043.57,0 2894.59,0 400.92,0 400.92,0 400.92,0 231.19,0 195.54,-276.9 188.17,-378.88"/>
<polygon fill="black" stroke="black" points="184.67,-378.81 187.49,-389.03 191.65,-379.28 184.67,-378.81"/>
</g>
<!-- 140434677491968 -->
<g id="node3" class="node">
<title>140434677491968</title>
<polygon fill="white" stroke="black" points="1005.99,-451 912.38,-451 912.38,-415 1005.99,-415 1005.99,-451"/>
<text text-anchor="middle" x="959.19" y="-429.4" font-family="Times,serif" font-size="12.00">A_FINALIZED</text>
</g>
<!-- 140434677491056 -->
<g id="node49" class="node">
<title>140434677491056</title>
<ellipse fill="white" stroke="black" cx="1068.84" cy="-433" rx="27" ry="27"/>
</g>
<!-- 140434677491968&#45;&gt;140434677491056 -->
<g id="edge2" class="edge">
<title>140434677491968&#45;&gt;140434677491056</title>
<path fill="none" stroke="black" d="M1005.84,-433C1014.46,-433 1023.37,-433 1031.66,-433"/>
<polygon fill="black" stroke="black" points="1031.74,-436.5 1041.74,-433 1031.74,-429.5 1031.74,-436.5"/>
</g>
<!-- 140434677494656 -->
<g id="node4" class="node">
<title>140434677494656</title>
<polygon fill="white" stroke="black" points="1238.29,-478 1152.32,-478 1152.32,-442 1238.29,-442 1238.29,-478"/>
<text text-anchor="middle" x="1195.31" y="-456.4" font-family="Times,serif" font-size="12.00">O_CREATED</text>
</g>
<!-- 140434677495088 -->
<g id="node52" class="node">
<title>140434677495088</title>
<ellipse fill="white" stroke="black" cx="1321.78" cy="-460" rx="27" ry="27"/>
</g>
<!-- 140434677494656&#45;&gt;140434677495088 -->
<g id="edge17" class="edge">
<title>140434677494656&#45;&gt;140434677495088</title>
<path fill="none" stroke="black" d="M1238.45,-460C1253.43,-460 1270.15,-460 1284.59,-460"/>
<polygon fill="black" stroke="black" points="1284.65,-463.5 1294.65,-460 1284.65,-456.5 1284.65,-463.5"/>
</g>
<!-- 140434677567744 -->
<g id="node5" class="node">
<title>140434677567744</title>
<polygon fill="white" stroke="black" points="2205.11,-491 2088.55,-491 2088.55,-455 2205.11,-455 2205.11,-491"/>
<text text-anchor="middle" x="2146.83" y="-469.4" font-family="Times,serif" font-size="12.00">W_Nabellen offertes</text>
</g>
<!-- 140434677566928 -->
<g id="node55" class="node">
<title>140434677566928</title>
<ellipse fill="white" stroke="black" cx="2267.97" cy="-468" rx="27" ry="27"/>
</g>
<!-- 140434677567744&#45;&gt;140434677566928 -->
<g id="edge16" class="edge">
<title>140434677567744&#45;&gt;140434677566928</title>
<path fill="none" stroke="black" d="M2205.31,-470.59C2213.99,-470.22 2222.74,-469.86 2230.81,-469.52"/>
<polygon fill="black" stroke="black" points="2231.12,-473.01 2240.96,-469.09 2230.82,-466.01 2231.12,-473.01"/>
</g>
<!-- 140434677714432 -->
<g id="node6" class="node">
<title>140434677714432</title>
<polygon fill="black" stroke="black" points="986.19,-341 932.19,-341 932.19,-305 986.19,-305 986.19,-341"/>
</g>
<!-- 140434677714000 -->
<g id="node66" class="node">
<title>140434677714000</title>
<ellipse fill="white" stroke="black" cx="1068.84" cy="-323" rx="27" ry="27"/>
</g>
<!-- 140434677714432&#45;&gt;140434677714000 -->
<g id="edge23" class="edge">
<title>140434677714432&#45;&gt;140434677714000</title>
<path fill="none" stroke="black" d="M986.25,-323C999.77,-323 1016.5,-323 1031.29,-323"/>
<polygon fill="black" stroke="black" points="1031.65,-326.5 1041.65,-323 1031.65,-319.5 1031.65,-326.5"/>
</g>
<!-- 140434677724800 -->
<g id="node7" class="node">
<title>140434677724800</title>
<polygon fill="black" stroke="black" points="2656.27,-571 2602.27,-571 2602.27,-535 2656.27,-535 2656.27,-571"/>
</g>
<!-- 140434678128112 -->
<g id="node70" class="node">
<title>140434678128112</title>
<ellipse fill="white" stroke="black" cx="2769.26" cy="-619" rx="27" ry="27"/>
</g>
<!-- 140434677724800&#45;&gt;140434678128112 -->
<g id="edge78" class="edge">
<title>140434677724800&#45;&gt;140434678128112</title>
<path fill="none" stroke="black" d="M2656.55,-565.57C2678.92,-576.27 2711.16,-591.69 2735.26,-603.22"/>
<polygon fill="black" stroke="black" points="2733.86,-606.42 2744.39,-607.58 2736.88,-600.11 2733.86,-606.42"/>
</g>
<!-- 140434678133392 -->
<g id="node8" class="node">
<title>140434678133392</title>
<polygon fill="black" stroke="black" points="2407.63,-482 2353.63,-482 2353.63,-446 2407.63,-446 2407.63,-482"/>
</g>
<!-- 140434678128928 -->
<g id="node71" class="node">
<title>140434678128928</title>
<ellipse fill="white" stroke="black" cx="2493.29" cy="-476" rx="27" ry="27"/>
</g>
<!-- 140434678133392&#45;&gt;140434678128928 -->
<g id="edge84" class="edge">
<title>140434678133392&#45;&gt;140434678128928</title>
<path fill="none" stroke="black" d="M2407.85,-466.84C2422.32,-468.41 2440.51,-470.38 2456.29,-472.1"/>
<polygon fill="black" stroke="black" points="2455.93,-475.58 2466.25,-473.18 2456.69,-468.62 2455.93,-475.58"/>
</g>
<!-- 140434677497104 -->
<g id="node9" class="node">
<title>140434677497104</title>
<polygon fill="white" stroke="black" points="1445.26,-503 1384.95,-503 1384.95,-467 1445.26,-467 1445.26,-503"/>
<text text-anchor="middle" x="1415.1" y="-481.4" font-family="Times,serif" font-size="12.00">O_SENT</text>
</g>
<!-- 140434677496144 -->
<g id="node53" class="node">
<title>140434677496144</title>
<ellipse fill="white" stroke="black" cx="1508.43" cy="-489" rx="27" ry="27"/>
</g>
<!-- 140434677497104&#45;&gt;140434677496144 -->
<g id="edge7" class="edge">
<title>140434677497104&#45;&gt;140434677496144</title>
<path fill="none" stroke="black" d="M1445.5,-486.29C1453.66,-486.64 1462.61,-487.04 1471.11,-487.41"/>
<polygon fill="black" stroke="black" points="1471.03,-490.91 1481.17,-487.85 1471.34,-483.92 1471.03,-490.91"/>
</g>
<!-- 140434677564816 -->
<g id="node10" class="node">
<title>140434677564816</title>
<polygon fill="black" stroke="black" points="1685.74,-514 1631.74,-514 1631.74,-478 1685.74,-478 1685.74,-514"/>
</g>
<!-- 140434677486976 -->
<g id="node47" class="node">
<title>140434677486976</title>
<ellipse fill="white" stroke="black" cx="1809.05" cy="-534" rx="27" ry="27"/>
</g>
<!-- 140434677564816&#45;&gt;140434677486976 -->
<g id="edge71" class="edge">
<title>140434677564816&#45;&gt;140434677486976</title>
<path fill="none" stroke="black" d="M1685.91,-502.71C1710.1,-508.9 1746.22,-518.16 1772.91,-525"/>
<polygon fill="black" stroke="black" points="1772.08,-528.4 1782.63,-527.49 1773.82,-521.62 1772.08,-528.4"/>
</g>
<!-- 140434677713424 -->
<g id="node11" class="node">
<title>140434677713424</title>
<polygon fill="white" stroke="black" points="585.53,-289 485.93,-289 485.93,-253 585.53,-253 585.53,-289"/>
<text text-anchor="middle" x="535.73" y="-267.4" font-family="Times,serif" font-size="12.00">A_ACTIVATED</text>
</g>
<!-- 140434677712368 -->
<g id="node64" class="node">
<title>140434677712368</title>
<ellipse fill="white" stroke="black" cx="669.54" cy="-271" rx="27" ry="27"/>
</g>
<!-- 140434677713424&#45;&gt;140434677712368 -->
<g id="edge1" class="edge">
<title>140434677713424&#45;&gt;140434677712368</title>
<path fill="none" stroke="black" d="M585.43,-271C600.9,-271 617.71,-271 632.15,-271"/>
<polygon fill="black" stroke="black" points="632.19,-274.5 642.19,-271 632.19,-267.5 632.19,-274.5"/>
</g>
<!-- 140434677493792 -->
<g id="node12" class="node">
<title>140434677493792</title>
<polygon fill="white" stroke="black" points="1004.34,-523 914.03,-523 914.03,-487 1004.34,-487 1004.34,-523"/>
<text text-anchor="middle" x="959.19" y="-501.4" font-family="Times,serif" font-size="12.00">O_SELECTED</text>
</g>
<!-- 140434677492976 -->
<g id="node51" class="node">
<title>140434677492976</title>
<ellipse fill="white" stroke="black" cx="1068.84" cy="-505" rx="27" ry="27"/>
</g>
<!-- 140434677493792&#45;&gt;140434677492976 -->
<g id="edge19" class="edge">
<title>140434677493792&#45;&gt;140434677492976</title>
<path fill="none" stroke="black" d="M1004.59,-505C1013.57,-505 1022.91,-505 1031.57,-505"/>
<polygon fill="black" stroke="black" points="1031.72,-508.5 1041.72,-505 1031.72,-501.5 1031.72,-508.5"/>
</g>
<!-- 140434677482416 -->
<g id="node13" class="node">
<title>140434677482416</title>
<polygon fill="black" stroke="black" points="786.54,-428 732.54,-428 732.54,-392 786.54,-392 786.54,-428"/>
</g>
<!-- 140434678134736 -->
<g id="node43" class="node">
<title>140434678134736</title>
<ellipse fill="white" stroke="black" cx="401.92" cy="-444" rx="27" ry="27"/>
</g>
<!-- 140434677482416&#45;&gt;140434678134736 -->
<g id="edge81" class="edge">
<title>140434677482416&#45;&gt;140434678134736</title>
<path fill="none" stroke="black" d="M732.39,-409.44C680.83,-408.77 562.56,-409.39 464.92,-426 455.85,-427.54 446.22,-429.95 437.33,-432.5"/>
<polygon fill="black" stroke="black" points="436.23,-429.18 427.66,-435.41 438.24,-435.88 436.23,-429.18"/>
</g>
<!-- 140434677488560 -->
<g id="node14" class="node">
<title>140434677488560</title>
<polygon fill="white" stroke="black" points="1246.29,-566 1144.33,-566 1144.33,-530 1246.29,-530 1246.29,-566"/>
<text text-anchor="middle" x="1195.31" y="-544.4" font-family="Times,serif" font-size="12.00">A_CANCELLED</text>
</g>
<!-- 140434677488560&#45;&gt;140434677486976 -->
<g id="edge13" class="edge">
<title>140434677488560&#45;&gt;140434677486976</title>
<path fill="none" stroke="black" d="M1246.48,-546.56C1290.62,-545.41 1356.62,-544 1414.1,-544 1414.1,-544 1414.1,-544 1509.43,-544 1603.97,-544 1715.25,-538.93 1771.52,-536.01"/>
<polygon fill="black" stroke="black" points="1771.89,-539.5 1781.7,-535.48 1771.53,-532.51 1771.89,-539.5"/>
</g>
<!-- 140434677572400 -->
<g id="node15" class="node">
<title>140434677572400</title>
<polygon fill="white" stroke="black" points="338.75,-347 248.46,-347 248.46,-311 338.75,-311 338.75,-347"/>
<text text-anchor="middle" x="293.6" y="-325.4" font-family="Times,serif" font-size="12.00">O_DECLINED</text>
</g>
<!-- 140434678133680 -->
<g id="node56" class="node">
<title>140434678133680</title>
<ellipse fill="white" stroke="black" cx="849.54" cy="-323" rx="27" ry="27"/>
</g>
<!-- 140434677572400&#45;&gt;140434678133680 -->
<g id="edge5" class="edge">
<title>140434677572400&#45;&gt;140434678133680</title>
<path fill="none" stroke="black" d="M338.86,-328.12C387.04,-327.23 466.35,-326 534.73,-326 534.73,-326 534.73,-326 670.54,-326 719.62,-326 776.31,-324.85 812.28,-323.97"/>
<polygon fill="black" stroke="black" points="812.39,-327.47 822.3,-323.72 812.21,-320.47 812.39,-327.47"/>
</g>
<!-- 140434677722544 -->
<g id="node16" class="node">
<title>140434677722544</title>
<polygon fill="black" stroke="black" points="1926.05,-293 1872.05,-293 1872.05,-257 1926.05,-257 1926.05,-293"/>
</g>
<!-- 140434677719232 -->
<g id="node68" class="node">
<title>140434677719232</title>
<ellipse fill="white" stroke="black" cx="1508.43" cy="-323" rx="27" ry="27"/>
</g>
<!-- 140434677722544&#45;&gt;140434677719232 -->
<g id="edge76" class="edge">
<title>140434677722544&#45;&gt;140434677719232</title>
<path fill="none" stroke="black" d="M1871.76,-273.65C1815.68,-271.44 1680.51,-269.6 1571.43,-296 1561.52,-298.4 1551.2,-302.28 1541.89,-306.35"/>
<polygon fill="black" stroke="black" points="1540.23,-303.26 1532.61,-310.62 1543.16,-309.62 1540.23,-303.26"/>
</g>
<!-- 140434677723312 -->
<g id="node17" class="node">
<title>140434677723312</title>
<polygon fill="black" stroke="black" points="2173.83,-347 2119.83,-347 2119.83,-311 2173.83,-311 2173.83,-347"/>
</g>
<!-- 140434677723312&#45;&gt;140434678128928 -->
<g id="edge77" class="edge">
<title>140434677723312&#45;&gt;140434678128928</title>
<path fill="none" stroke="black" d="M2173.96,-333.09C2203.86,-338.25 2253.99,-348.38 2294.97,-364 2358.82,-388.34 2371.26,-402.57 2430.29,-437 2440.55,-442.99 2451.57,-449.79 2461.44,-456.03"/>
<polygon fill="black" stroke="black" points="2459.81,-459.14 2470.12,-461.56 2463.57,-453.23 2459.81,-459.14"/>
</g>
<!-- 140434678131520 -->
<g id="node18" class="node">
<title>140434678131520</title>
<polygon fill="white" stroke="black" points="2950.76,-637 2836.43,-637 2836.43,-601 2950.76,-601 2950.76,-637"/>
<text text-anchor="middle" x="2893.59" y="-615.4" font-family="Times,serif" font-size="12.00">A_PREACCEPTED</text>
</g>
<!-- 140434678130704 -->
<g id="node73" class="node">
<title>140434678130704</title>
<ellipse fill="white" stroke="black" cx="3013.92" cy="-619" rx="27" ry="27"/>
</g>
<!-- 140434678131520&#45;&gt;140434678130704 -->
<g id="edge12" class="edge">
<title>140434678131520&#45;&gt;140434678130704</title>
<path fill="none" stroke="black" d="M2950.99,-619C2959.68,-619 2968.45,-619 2976.55,-619"/>
<polygon fill="black" stroke="black" points="2976.75,-622.5 2986.75,-619 2976.75,-615.5 2976.75,-622.5"/>
</g>
<!-- 140434678136512 -->
<g id="node19" class="node">
<title>140434678136512</title>
<polygon fill="white" stroke="black" points="606.34,-471 465.12,-471 465.12,-435 606.34,-435 606.34,-471"/>
<text text-anchor="middle" x="535.73" y="-449.4" font-family="Times,serif" font-size="12.00">W_Completeren aanvraag</text>
</g>
<!-- 140434678135552 -->
<g id="node44" class="node">
<title>140434678135552</title>
<ellipse fill="white" stroke="black" cx="669.54" cy="-457" rx="27" ry="27"/>
</g>
<!-- 140434678136512&#45;&gt;140434678135552 -->
<g id="edge3" class="edge">
<title>140434678136512&#45;&gt;140434678135552</title>
<path fill="none" stroke="black" d="M606.49,-455.12C615.42,-455.39 624.26,-455.66 632.34,-455.9"/>
<polygon fill="black" stroke="black" points="632.37,-459.4 642.47,-456.21 632.59,-452.41 632.37,-459.4"/>
</g>
<!-- 140434677487552 -->
<g id="node20" class="node">
<title>140434677487552</title>
<polygon fill="black" stroke="black" points="1348.78,-608 1294.78,-608 1294.78,-572 1348.78,-572 1348.78,-608"/>
</g>
<!-- 140434677487552&#45;&gt;140434677486976 -->
<g id="edge69" class="edge">
<title>140434677487552&#45;&gt;140434677486976</title>
<path fill="none" stroke="black" d="M1348.93,-590.66C1415.91,-591.8 1598.7,-591.32 1746.05,-558 1755.56,-555.85 1765.54,-552.51 1774.65,-548.99"/>
<polygon fill="black" stroke="black" points="1776.17,-552.15 1784.13,-545.16 1773.54,-545.66 1776.17,-552.15"/>
</g>
<!-- 140434677572928 -->
<g id="node21" class="node">
<title>140434677572928</title>
<polygon fill="black" stroke="black" points="320.6,-217 266.6,-217 266.6,-181 320.6,-181 320.6,-217"/>
</g>
<!-- 140434677573888 -->
<g id="node57" class="node">
<title>140434677573888</title>
<ellipse fill="white" stroke="black" cx="401.92" cy="-199" rx="27" ry="27"/>
</g>
<!-- 140434677572928&#45;&gt;140434677573888 -->
<g id="edge87" class="edge">
<title>140434677572928&#45;&gt;140434677573888</title>
<path fill="none" stroke="black" d="M320.61,-199C333.87,-199 350.21,-199 364.68,-199"/>
<polygon fill="black" stroke="black" points="364.82,-202.5 374.82,-199 364.82,-195.5 364.82,-202.5"/>
</g>
<!-- 140434677576048 -->
<g id="node59" class="node">
<title>140434677576048</title>
<ellipse fill="white" stroke="black" cx="401.92" cy="-127" rx="27" ry="27"/>
</g>
<!-- 140434677572928&#45;&gt;140434677576048 -->
<g id="edge88" class="edge">
<title>140434677572928&#45;&gt;140434677576048</title>
<path fill="none" stroke="black" d="M320.61,-181.39C335.76,-171.13 354.92,-158.15 370.73,-147.44"/>
<polygon fill="black" stroke="black" points="372.81,-150.27 379.13,-141.76 368.88,-144.47 372.81,-150.27"/>
</g>
<!-- 140434677578352 -->
<g id="node61" class="node">
<title>140434677578352</title>
<ellipse fill="white" stroke="black" cx="401.92" cy="-55" rx="27" ry="27"/>
</g>
<!-- 140434677572928&#45;&gt;140434677578352 -->
<g id="edge89" class="edge">
<title>140434677572928&#45;&gt;140434677578352</title>
<path fill="none" stroke="black" d="M308.07,-180.76C325.97,-156.52 357.83,-113.37 379.16,-84.47"/>
<polygon fill="black" stroke="black" points="382.03,-86.49 385.15,-76.36 376.39,-82.33 382.03,-86.49"/>
</g>
<!-- 140434677711600 -->
<g id="node63" class="node">
<title>140434677711600</title>
<ellipse fill="white" stroke="black" cx="401.92" cy="-271" rx="27" ry="27"/>
</g>
<!-- 140434677572928&#45;&gt;140434677711600 -->
<g id="edge90" class="edge">
<title>140434677572928&#45;&gt;140434677711600</title>
<path fill="none" stroke="black" d="M320.61,-216.61C335.76,-226.87 354.92,-239.85 370.73,-250.56"/>
<polygon fill="black" stroke="black" points="368.88,-253.53 379.13,-256.24 372.81,-247.73 368.88,-253.53"/>
</g>
<!-- 140434677573312 -->
<g id="node22" class="node">
<title>140434677573312</title>
<polygon fill="black" stroke="black" points="786.54,-217 732.54,-217 732.54,-181 786.54,-181 786.54,-217"/>
</g>
<!-- 140434677573312&#45;&gt;140434678133680 -->
<g id="edge83" class="edge">
<title>140434677573312&#45;&gt;140434678133680</title>
<path fill="none" stroke="black" d="M773.33,-217.03C787.43,-236.89 810.32,-269.16 827.15,-292.87"/>
<polygon fill="black" stroke="black" points="824.41,-295.06 833.05,-301.19 830.12,-291 824.41,-295.06"/>
</g>
<!-- 140434677575616 -->
<g id="node23" class="node">
<title>140434677575616</title>
<polygon fill="white" stroke="black" points="581.89,-217 489.57,-217 489.57,-181 581.89,-181 581.89,-217"/>
<text text-anchor="middle" x="535.73" y="-195.4" font-family="Times,serif" font-size="12.00">O_ACCEPTED</text>
</g>
<!-- 140434677574608 -->
<g id="node58" class="node">
<title>140434677574608</title>
<ellipse fill="white" stroke="black" cx="669.54" cy="-199" rx="27" ry="27"/>
</g>
<!-- 140434677575616&#45;&gt;140434677574608 -->
<g id="edge15" class="edge">
<title>140434677575616&#45;&gt;140434677574608</title>
<path fill="none" stroke="black" d="M582.09,-199C598.43,-199 616.63,-199 632.11,-199"/>
<polygon fill="black" stroke="black" points="632.33,-202.5 642.33,-199 632.33,-195.5 632.33,-202.5"/>
</g>
<!-- 140434677577920 -->
<g id="node24" class="node">
<title>140434677577920</title>
<polygon fill="white" stroke="black" points="582.72,-145 488.74,-145 488.74,-109 582.72,-109 582.72,-145"/>
<text text-anchor="middle" x="535.73" y="-123.4" font-family="Times,serif" font-size="12.00">A_APPROVED</text>
</g>
<!-- 140434677576864 -->
<g id="node60" class="node">
<title>140434677576864</title>
<ellipse fill="white" stroke="black" cx="669.54" cy="-127" rx="27" ry="27"/>
</g>
<!-- 140434677577920&#45;&gt;140434677576864 -->
<g id="edge20" class="edge">
<title>140434677577920&#45;&gt;140434677576864</title>
<path fill="none" stroke="black" d="M582.83,-127C598.99,-127 616.91,-127 632.17,-127"/>
<polygon fill="black" stroke="black" points="632.25,-130.5 642.25,-127 632.25,-123.5 632.25,-130.5"/>
</g>
<!-- 140434677725760 -->
<g id="node25" class="node">
<title>140434677725760</title>
<polygon fill="black" stroke="black" points="2656.27,-494 2602.27,-494 2602.27,-458 2656.27,-458 2656.27,-494"/>
</g>
<!-- 140434689358784 -->
<g id="node74" class="node">
<title>140434689358784</title>
<ellipse fill="white" stroke="black" cx="2769.26" cy="-476" rx="27" ry="27"/>
<ellipse fill="none" stroke="black" cx="2769.26" cy="-476" rx="31" ry="31"/>
<text text-anchor="start" x="2757.26" y="-466.4" font-family="Times,serif" font-size="32.00">■</text>
</g>
<!-- 140434677725760&#45;&gt;140434689358784 -->
<g id="edge79" class="edge">
<title>140434677725760&#45;&gt;140434689358784</title>
<path fill="none" stroke="black" d="M2656.55,-476C2676.76,-476 2705.03,-476 2728.07,-476"/>
<polygon fill="black" stroke="black" points="2728.24,-479.5 2738.24,-476 2728.24,-472.5 2728.24,-479.5"/>
</g>
<!-- 140434678132048 -->
<g id="node26" class="node">
<title>140434678132048</title>
<polygon fill="black" stroke="black" points="3162.4,-664 3108.4,-664 3108.4,-628 3162.4,-628 3162.4,-664"/>
</g>
<!-- 140434678132048&#45;&gt;140434678129600 -->
<g id="edge80" class="edge">
<title>140434678132048&#45;&gt;140434678129600</title>
<path fill="none" stroke="black" d="M3108.26,-651.07C3064.31,-659.14 2972.77,-674 2894.59,-674 400.92,-674 400.92,-674 400.92,-674 324.12,-674 298.34,-651.25 248.28,-593 213.66,-552.71 197.98,-491.88 191.17,-453.06"/>
<polygon fill="black" stroke="black" points="194.55,-452.03 189.47,-442.72 187.64,-453.16 194.55,-452.03"/>
</g>
<!-- 140434677563856 -->
<g id="node27" class="node">
<title>140434677563856</title>
<polygon fill="black" stroke="black" points="1685.74,-455 1631.74,-455 1631.74,-419 1685.74,-419 1685.74,-455"/>
</g>
<!-- 140434677563856&#45;&gt;140434677495088 -->
<g id="edge70" class="edge">
<title>140434677563856&#45;&gt;140434677495088</title>
<path fill="none" stroke="black" d="M1631.52,-438.8C1572.08,-442.88 1426.96,-452.85 1359,-457.51"/>
<polygon fill="black" stroke="black" points="1358.52,-454.04 1348.78,-458.21 1359,-461.02 1358.52,-454.04"/>
</g>
<!-- 140434677716304 -->
<g id="node28" class="node">
<title>140434677716304</title>
<polygon fill="white" stroke="black" points="1258.74,-341 1131.87,-341 1131.87,-305 1258.74,-305 1258.74,-341"/>
<text text-anchor="middle" x="1195.31" y="-319.4" font-family="Times,serif" font-size="12.00">W_Valideren aanvraag</text>
</g>
<!-- 140434677715248 -->
<g id="node67" class="node">
<title>140434677715248</title>
<ellipse fill="white" stroke="black" cx="1321.78" cy="-323" rx="27" ry="27"/>
</g>
<!-- 140434677716304&#45;&gt;140434677715248 -->
<g id="edge8" class="edge">
<title>140434677716304&#45;&gt;140434677715248</title>
<path fill="none" stroke="black" d="M1258.91,-323C1267.66,-323 1276.41,-323 1284.45,-323"/>
<polygon fill="black" stroke="black" points="1284.56,-326.5 1294.56,-323 1284.56,-319.5 1284.56,-326.5"/>
</g>
<!-- 140434677718224 -->
<g id="node29" class="node">
<title>140434677718224</title>
<polygon fill="black" stroke="black" points="1442.1,-341 1388.1,-341 1388.1,-305 1442.1,-305 1442.1,-341"/>
</g>
<!-- 140434677718224&#45;&gt;140434677719232 -->
<g id="edge75" class="edge">
<title>140434677718224&#45;&gt;140434677719232</title>
<path fill="none" stroke="black" d="M1442.52,-323C1451.5,-323 1461.69,-323 1471.29,-323"/>
<polygon fill="black" stroke="black" points="1471.39,-326.5 1481.39,-323 1471.39,-319.5 1471.39,-326.5"/>
</g>
<!-- 140434677721296 -->
<g id="node30" class="node">
<title>140434677721296</title>
<polygon fill="white" stroke="black" points="1745.86,-341 1571.63,-341 1571.63,-305 1745.86,-305 1745.86,-341"/>
<text text-anchor="middle" x="1658.74" y="-319.4" font-family="Times,serif" font-size="12.00">W_Nabellen incomplete dossiers</text>
</g>
<!-- 140434677720336 -->
<g id="node69" class="node">
<title>140434677720336</title>
<ellipse fill="white" stroke="black" cx="1809.05" cy="-323" rx="27" ry="27"/>
</g>
<!-- 140434677721296&#45;&gt;140434677720336 -->
<g id="edge9" class="edge">
<title>140434677721296&#45;&gt;140434677720336</title>
<path fill="none" stroke="black" d="M1746.01,-323C1754.95,-323 1763.65,-323 1771.56,-323"/>
<polygon fill="black" stroke="black" points="1771.82,-326.5 1781.82,-323 1771.82,-319.5 1771.82,-326.5"/>
</g>
<!-- 140434678127968 -->
<g id="node31" class="node">
<title>140434678127968</title>
<polygon fill="white" stroke="black" points="2702.25,-637 2556.3,-637 2556.3,-601 2702.25,-601 2702.25,-637"/>
<text text-anchor="middle" x="2629.27" y="-615.4" font-family="Times,serif" font-size="12.00">A_PARTLYSUBMITTED</text>
</g>
<!-- 140434678127968&#45;&gt;140434678128112 -->
<g id="edge21" class="edge">
<title>140434678127968&#45;&gt;140434678128112</title>
<path fill="none" stroke="black" d="M2702.5,-619C2712.72,-619 2722.84,-619 2731.97,-619"/>
<polygon fill="black" stroke="black" points="2732.18,-622.5 2742.18,-619 2732.18,-615.5 2732.18,-622.5"/>
</g>
<!-- 140434678132960 -->
<g id="node32" class="node">
<title>140434678132960</title>
<polygon fill="white" stroke="black" points="2052.51,-625 1962.23,-625 1962.23,-589 2052.51,-589 2052.51,-625"/>
<text text-anchor="middle" x="2007.37" y="-603.4" font-family="Times,serif" font-size="12.00">A_DECLINED</text>
</g>
<!-- 140434678132960&#45;&gt;140434678128928 -->
<g id="edge11" class="edge">
<title>140434678132960&#45;&gt;140434678128928</title>
<path fill="none" stroke="black" d="M2052.75,-602.21C2154.3,-590.99 2397.38,-562.65 2430.29,-545 2446.86,-536.11 2461.21,-520.98 2471.92,-507.14"/>
<polygon fill="black" stroke="black" points="2474.98,-508.89 2478.11,-498.76 2469.35,-504.73 2474.98,-508.89"/>
</g>
<!-- 140434677566304 -->
<g id="node33" class="node">
<title>140434677566304</title>
<polygon fill="black" stroke="black" points="1926.05,-547 1872.05,-547 1872.05,-511 1926.05,-511 1926.05,-547"/>
</g>
<!-- 140434677487264 -->
<g id="node54" class="node">
<title>140434677487264</title>
<ellipse fill="white" stroke="black" cx="2007.37" cy="-523" rx="27" ry="27"/>
</g>
<!-- 140434677566304&#45;&gt;140434677487264 -->
<g id="edge22" class="edge">
<title>140434677566304&#45;&gt;140434677487264</title>
<path fill="none" stroke="black" d="M1926.06,-527.53C1939.32,-526.78 1955.65,-525.86 1970.12,-525.05"/>
<polygon fill="black" stroke="black" points="1970.47,-528.53 1980.26,-524.47 1970.08,-521.54 1970.47,-528.53"/>
</g>
<!-- 140434677568992 -->
<g id="node34" class="node">
<title>140434677568992</title>
<polygon fill="black" stroke="black" points="2407.63,-536 2353.63,-536 2353.63,-500 2407.63,-500 2407.63,-536"/>
</g>
<!-- 140434677568992&#45;&gt;140434677487264 -->
<g id="edge72" class="edge">
<title>140434677568992&#45;&gt;140434677487264</title>
<path fill="none" stroke="black" d="M2353.55,-518.35C2288.61,-519.23 2119.53,-521.5 2044.79,-522.51"/>
<polygon fill="black" stroke="black" points="2044.43,-519.01 2034.48,-522.65 2044.52,-526.01 2044.43,-519.01"/>
</g>
<!-- 140434677579744 -->
<g id="node35" class="node">
<title>140434677579744</title>
<polygon fill="white" stroke="black" points="587.71,-73 483.75,-73 483.75,-37 587.71,-37 587.71,-73"/>
<text text-anchor="middle" x="535.73" y="-51.4" font-family="Times,serif" font-size="12.00">A_REGISTERED</text>
</g>
<!-- 140434677578976 -->
<g id="node62" class="node">
<title>140434677578976</title>
<ellipse fill="white" stroke="black" cx="669.54" cy="-55" rx="27" ry="27"/>
</g>
<!-- 140434677579744&#45;&gt;140434677578976 -->
<g id="edge10" class="edge">
<title>140434677579744&#45;&gt;140434677578976</title>
<path fill="none" stroke="black" d="M588.07,-55C602.67,-55 618.27,-55 631.82,-55"/>
<polygon fill="black" stroke="black" points="632.18,-58.5 642.18,-55 632.18,-51.5 632.18,-58.5"/>
</g>
<!-- 140434677486448 -->
<g id="node36" class="node">
<title>140434677486448</title>
<polygon fill="white" stroke="black" points="581.89,-556 489.57,-556 489.57,-520 581.89,-520 581.89,-556"/>
<text text-anchor="middle" x="535.73" y="-534.4" font-family="Times,serif" font-size="12.00">A_ACCEPTED</text>
</g>
<!-- 140434677485728 -->
<g id="node46" class="node">
<title>140434677485728</title>
<ellipse fill="white" stroke="black" cx="669.54" cy="-545" rx="27" ry="27"/>
</g>
<!-- 140434677486448&#45;&gt;140434677485728 -->
<g id="edge6" class="edge">
<title>140434677486448&#45;&gt;140434677485728</title>
<path fill="none" stroke="black" d="M582.09,-540.41C598.43,-541.28 616.63,-542.24 632.11,-543.07"/>
<polygon fill="black" stroke="black" points="632.16,-546.57 642.33,-543.61 632.53,-539.58 632.16,-546.57"/>
</g>
<!-- 140434688173808 -->
<g id="node37" class="node">
<title>140434688173808</title>
<polygon fill="white" stroke="black" points="2430.44,-637 2330.81,-637 2330.81,-601 2430.44,-601 2430.44,-637"/>
<text text-anchor="middle" x="2380.63" y="-615.4" font-family="Times,serif" font-size="12.00">A_SUBMITTED</text>
</g>
<!-- 140434678126624 -->
<g id="node65" class="node">
<title>140434678126624</title>
<ellipse fill="white" stroke="black" cx="2493.29" cy="-619" rx="27" ry="27"/>
</g>
<!-- 140434688173808&#45;&gt;140434678126624 -->
<g id="edge4" class="edge">
<title>140434688173808&#45;&gt;140434678126624</title>
<path fill="none" stroke="black" d="M2430.49,-619C2439.02,-619 2447.76,-619 2455.89,-619"/>
<polygon fill="black" stroke="black" points="2456.14,-622.5 2466.14,-619 2456.14,-615.5 2456.14,-622.5"/>
</g>
<!-- 140434678133104 -->
<g id="node38" class="node">
<title>140434678133104</title>
<polygon fill="black" stroke="black" points="320.6,-462 266.6,-462 266.6,-426 320.6,-426 320.6,-462"/>
</g>
<!-- 140434678133104&#45;&gt;140434678134736 -->
<g id="edge91" class="edge">
<title>140434678133104&#45;&gt;140434678134736</title>
<path fill="none" stroke="black" d="M320.61,-444C333.87,-444 350.21,-444 364.68,-444"/>
<polygon fill="black" stroke="black" points="364.82,-447.5 374.82,-444 364.82,-440.5 364.82,-447.5"/>
</g>
<!-- 140434677484480 -->
<g id="node45" class="node">
<title>140434677484480</title>
<ellipse fill="white" stroke="black" cx="401.92" cy="-530" rx="27" ry="27"/>
</g>
<!-- 140434678133104&#45;&gt;140434677484480 -->
<g id="edge92" class="edge">
<title>140434678133104&#45;&gt;140434677484480</title>
<path fill="none" stroke="black" d="M316.89,-462.03C333.01,-475.07 354.92,-492.79 372.33,-506.87"/>
<polygon fill="black" stroke="black" points="370.49,-509.88 380.47,-513.45 374.89,-504.44 370.49,-509.88"/>
</g>
<!-- 140434677489520 -->
<g id="node39" class="node">
<title>140434677489520</title>
<polygon fill="black" stroke="black" points="786.54,-523 732.54,-523 732.54,-487 786.54,-487 786.54,-523"/>
</g>
<!-- 140434677490528 -->
<g id="node48" class="node">
<title>140434677490528</title>
<ellipse fill="white" stroke="black" cx="849.54" cy="-433" rx="27" ry="27"/>
</g>
<!-- 140434677489520&#45;&gt;140434677490528 -->
<g id="edge85" class="edge">
<title>140434677489520&#45;&gt;140434677490528</title>
<path fill="none" stroke="black" d="M782.74,-486.83C794.08,-477.56 807.99,-466.17 820.1,-456.26"/>
<polygon fill="black" stroke="black" points="822.62,-458.72 828.15,-449.68 818.19,-453.31 822.62,-458.72"/>
</g>
<!-- 140434677492448 -->
<g id="node50" class="node">
<title>140434677492448</title>
<ellipse fill="white" stroke="black" cx="849.54" cy="-505" rx="27" ry="27"/>
</g>
<!-- 140434677489520&#45;&gt;140434677492448 -->
<g id="edge86" class="edge">
<title>140434677489520&#45;&gt;140434677492448</title>
<path fill="none" stroke="black" d="M786.94,-505C794.93,-505 803.85,-505 812.36,-505"/>
<polygon fill="black" stroke="black" points="812.45,-508.5 822.45,-505 812.45,-501.5 812.45,-508.5"/>
</g>
<!-- 140434677571440 -->
<g id="node40" class="node">
<title>140434677571440</title>
<polygon fill="black" stroke="black" points="320.6,-406 266.6,-406 266.6,-370 320.6,-370 320.6,-406"/>
</g>
<!-- 140434677571440&#45;&gt;140434678133680 -->
<g id="edge73" class="edge">
<title>140434677571440&#45;&gt;140434678133680</title>
<path fill="none" stroke="black" d="M320.81,-383.65C364.86,-376.74 456.59,-364 534.73,-364 534.73,-364 534.73,-364 670.54,-364 721.62,-364 778.9,-347.76 814.35,-335.73"/>
<polygon fill="black" stroke="black" points="815.89,-338.9 824.18,-332.3 813.59,-332.29 815.89,-338.9"/>
</g>
<!-- 140434677717360 -->
<g id="node41" class="node">
<title>140434677717360</title>
<polygon fill="black" stroke="black" points="1442.1,-287 1388.1,-287 1388.1,-251 1442.1,-251 1442.1,-287"/>
</g>
<!-- 140434677717360&#45;&gt;140434677714000 -->
<g id="edge74" class="edge">
<title>140434677717360&#45;&gt;140434677714000</title>
<path fill="none" stroke="black" d="M1387.95,-268.78C1337.55,-268.95 1223.82,-272.21 1131.84,-296 1121.97,-298.55 1111.66,-302.48 1102.35,-306.56"/>
<polygon fill="black" stroke="black" points="1100.7,-303.46 1093.06,-310.81 1103.61,-309.83 1100.7,-303.46"/>
</g>
<!-- 140440298647680 -->
<g id="node42" class="node">
<title>140440298647680</title>
<ellipse fill="white" stroke="black" cx="2267.97" cy="-619" rx="27" ry="27"/>
<text text-anchor="start" x="2255.22" y="-608.8" font-family="Times,serif" font-size="34.00">●</text>
</g>
<!-- 140440298647680&#45;&gt;140434688173808 -->
<g id="edge82" class="edge">
<title>140440298647680&#45;&gt;140434688173808</title>
<path fill="none" stroke="black" d="M2295.19,-619C2302.9,-619 2311.66,-619 2320.56,-619"/>
<polygon fill="black" stroke="black" points="2320.6,-622.5 2330.6,-619 2320.6,-615.5 2320.6,-622.5"/>
</g>
<!-- 140434678134736&#45;&gt;140434678136512 -->
<g id="edge24" class="edge">
<title>140434678134736&#45;&gt;140434678136512</title>
<path fill="none" stroke="black" d="M428.96,-445.78C436.68,-446.3 445.56,-446.91 454.83,-447.54"/>
<polygon fill="black" stroke="black" points="454.78,-451.05 465,-448.24 455.26,-444.07 454.78,-451.05"/>
</g>
<!-- 140434678135552&#45;&gt;140434678133392 -->
<g id="edge26" class="edge">
<title>140434678135552&#45;&gt;140434678133392</title>
<path fill="none" stroke="black" d="M696.56,-457.3C721.18,-456.51 758.45,-452.5 786.54,-437 807.47,-425.44 801.42,-408.23 822.54,-397 876.29,-368.43 897.31,-378 958.19,-378 958.19,-378 958.19,-378 2147.83,-378 2221.36,-378 2300.29,-416.51 2344.45,-441.99"/>
<polygon fill="black" stroke="black" points="2342.94,-445.16 2353.34,-447.21 2346.49,-439.13 2342.94,-445.16"/>
</g>
<!-- 140434678135552&#45;&gt;140434677482416 -->
<g id="edge25" class="edge">
<title>140434678135552&#45;&gt;140434677482416</title>
<path fill="none" stroke="black" d="M693.66,-444.65C702.78,-439.78 713.46,-434.07 723.5,-428.71"/>
<polygon fill="black" stroke="black" points="725.29,-431.72 732.46,-423.92 721.99,-425.55 725.29,-431.72"/>
</g>
<!-- 140434677484480&#45;&gt;140434677486448 -->
<g id="edge27" class="edge">
<title>140434677484480&#45;&gt;140434677486448</title>
<path fill="none" stroke="black" d="M428.96,-531.58C443.39,-532.46 461.89,-533.58 479.38,-534.64"/>
<polygon fill="black" stroke="black" points="479.33,-538.14 489.52,-535.26 479.75,-531.16 479.33,-538.14"/>
</g>
<!-- 140434677485728&#45;&gt;140434677488560 -->
<g id="edge28" class="edge">
<title>140434677485728&#45;&gt;140434677488560</title>
<path fill="none" stroke="black" d="M696.42,-548.55C731.01,-552.99 794.26,-560 848.54,-560 848.54,-560 848.54,-560 960.19,-560 1019.34,-560 1086.78,-556.13 1134.04,-552.79"/>
<polygon fill="black" stroke="black" points="1134.39,-556.27 1144.11,-552.06 1133.88,-549.29 1134.39,-556.27"/>
</g>
<!-- 140434677485728&#45;&gt;140434677487552 -->
<g id="edge29" class="edge">
<title>140434677485728&#45;&gt;140434677487552</title>
<path fill="none" stroke="black" d="M694.05,-556.76C727.51,-572.38 791.14,-598 848.54,-598 848.54,-598 848.54,-598 1069.84,-598 1146.39,-598 1236,-594.24 1284.73,-591.87"/>
<polygon fill="black" stroke="black" points="1284.96,-595.36 1294.77,-591.38 1284.61,-588.37 1284.96,-595.36"/>
</g>
<!-- 140434677485728&#45;&gt;140434677489520 -->
<g id="edge30" class="edge">
<title>140434677485728&#45;&gt;140434677489520</title>
<path fill="none" stroke="black" d="M694.58,-534.07C703.36,-530.08 713.48,-525.48 723.05,-521.13"/>
<polygon fill="black" stroke="black" points="724.7,-524.22 732.36,-516.9 721.8,-517.85 724.7,-524.22"/>
</g>
<!-- 140434677486976&#45;&gt;140434677566304 -->
<g id="edge31" class="edge">
<title>140434677486976&#45;&gt;140434677566304</title>
<path fill="none" stroke="black" d="M1836.45,-532.5C1844.44,-532.05 1853.36,-531.54 1861.87,-531.06"/>
<polygon fill="black" stroke="black" points="1862.18,-534.54 1871.97,-530.48 1861.79,-527.55 1862.18,-534.54"/>
</g>
<!-- 140434677490528&#45;&gt;140434677491968 -->
<g id="edge32" class="edge">
<title>140434677490528&#45;&gt;140434677491968</title>
<path fill="none" stroke="black" d="M876.59,-433C884.37,-433 893.21,-433 902.14,-433"/>
<polygon fill="black" stroke="black" points="902.19,-436.5 912.19,-433 902.19,-429.5 902.19,-436.5"/>
</g>
<!-- 140434677491056&#45;&gt;140434677494656 -->
<g id="edge33" class="edge">
<title>140434677491056&#45;&gt;140434677494656</title>
<path fill="none" stroke="black" d="M1095.33,-438.53C1108.87,-441.47 1126.04,-445.19 1142.26,-448.71"/>
<polygon fill="black" stroke="black" points="1141.68,-452.16 1152.19,-450.86 1143.16,-445.32 1141.68,-452.16"/>
</g>
<!-- 140434677492448&#45;&gt;140434677493792 -->
<g id="edge34" class="edge">
<title>140434677492448&#45;&gt;140434677493792</title>
<path fill="none" stroke="black" d="M876.59,-505C884.82,-505 894.24,-505 903.68,-505"/>
<polygon fill="black" stroke="black" points="903.89,-508.5 913.89,-505 903.89,-501.5 903.89,-508.5"/>
</g>
<!-- 140434677492976&#45;&gt;140434677494656 -->
<g id="edge35" class="edge">
<title>140434677492976&#45;&gt;140434677494656</title>
<path fill="none" stroke="black" d="M1094.43,-496.11C1108.17,-491.14 1125.83,-484.76 1142.47,-478.74"/>
<polygon fill="black" stroke="black" points="1143.9,-481.95 1152.11,-475.25 1141.52,-475.36 1143.9,-481.95"/>
</g>
<!-- 140434677495088&#45;&gt;140434677497104 -->
<g id="edge36" class="edge">
<title>140434677495088&#45;&gt;140434677497104</title>
<path fill="none" stroke="black" d="M1348.22,-466.96C1356.59,-469.26 1366.1,-471.86 1375.23,-474.36"/>
<polygon fill="black" stroke="black" points="1374.36,-477.75 1384.93,-477.01 1376.21,-471 1374.36,-477.75"/>
</g>
<!-- 140434677496144&#45;&gt;140434677564816 -->
<g id="edge38" class="edge">
<title>140434677496144&#45;&gt;140434677564816</title>
<path fill="none" stroke="black" d="M1535.61,-490.24C1559.39,-491.36 1594.72,-493.03 1621.27,-494.28"/>
<polygon fill="black" stroke="black" points="1621.18,-497.78 1631.33,-494.75 1621.51,-490.79 1621.18,-497.78"/>
</g>
<!-- 140434677496144&#45;&gt;140434677563856 -->
<g id="edge37" class="edge">
<title>140434677496144&#45;&gt;140434677563856</title>
<path fill="none" stroke="black" d="M1534.26,-480.3C1558.27,-471.88 1594.92,-459.03 1622.06,-449.51"/>
<polygon fill="black" stroke="black" points="1623.31,-452.78 1631.59,-446.17 1620.99,-446.18 1623.31,-452.78"/>
</g>
<!-- 140434677487264&#45;&gt;140434677567744 -->
<g id="edge39" class="edge">
<title>140434677487264&#45;&gt;140434677567744</title>
<path fill="none" stroke="black" d="M2032.95,-514.06C2047.94,-508.61 2067.8,-501.38 2086.68,-494.52"/>
<polygon fill="black" stroke="black" points="2087.93,-497.78 2096.13,-491.08 2085.54,-491.21 2087.93,-497.78"/>
</g>
<!-- 140434677566928&#45;&gt;140434678133392 -->
<g id="edge41" class="edge">
<title>140434677566928&#45;&gt;140434678133392</title>
<path fill="none" stroke="black" d="M2295.19,-467.05C2309.53,-466.53 2327.5,-465.88 2343.18,-465.32"/>
<polygon fill="black" stroke="black" points="2343.72,-468.8 2353.59,-464.94 2343.47,-461.8 2343.72,-468.8"/>
</g>
<!-- 140434677566928&#45;&gt;140434677568992 -->
<g id="edge40" class="edge">
<title>140434677566928&#45;&gt;140434677568992</title>
<path fill="none" stroke="black" d="M2292.98,-478.85C2307.86,-485.57 2327.24,-494.33 2343.9,-501.86"/>
<polygon fill="black" stroke="black" points="2342.79,-505.19 2353.34,-506.12 2345.67,-498.82 2342.79,-505.19"/>
</g>
<!-- 140434678133680&#45;&gt;140434677714432 -->
<g id="edge42" class="edge">
<title>140434678133680&#45;&gt;140434677714432</title>
<path fill="none" stroke="black" d="M876.59,-323C890.11,-323 906.85,-323 921.64,-323"/>
<polygon fill="black" stroke="black" points="921.99,-326.5 931.99,-323 921.99,-319.5 921.99,-326.5"/>
</g>
<!-- 140434677573888&#45;&gt;140434677575616 -->
<g id="edge43" class="edge">
<title>140434677573888&#45;&gt;140434677575616</title>
<path fill="none" stroke="black" d="M428.96,-199C443.39,-199 461.89,-199 479.38,-199"/>
<polygon fill="black" stroke="black" points="479.52,-202.5 489.52,-199 479.52,-195.5 479.52,-202.5"/>
</g>
<!-- 140434677574608&#45;&gt;140434677573312 -->
<g id="edge44" class="edge">
<title>140434677574608&#45;&gt;140434677573312</title>
<path fill="none" stroke="black" d="M696.94,-199C704.93,-199 713.85,-199 722.36,-199"/>
<polygon fill="black" stroke="black" points="722.45,-202.5 732.45,-199 722.45,-195.5 722.45,-202.5"/>
</g>
<!-- 140434677576048&#45;&gt;140434677577920 -->
<g id="edge45" class="edge">
<title>140434677576048&#45;&gt;140434677577920</title>
<path fill="none" stroke="black" d="M428.96,-127C443.2,-127 461.41,-127 478.7,-127"/>
<polygon fill="black" stroke="black" points="478.73,-130.5 488.73,-127 478.73,-123.5 478.73,-130.5"/>
</g>
<!-- 140434677576864&#45;&gt;140434677573312 -->
<g id="edge46" class="edge">
<title>140434677576864&#45;&gt;140434677573312</title>
<path fill="none" stroke="black" d="M690.95,-143.7C702.11,-152.83 716.15,-164.32 728.53,-174.45"/>
<polygon fill="black" stroke="black" points="726.43,-177.25 736.39,-180.88 730.86,-171.84 726.43,-177.25"/>
</g>
<!-- 140434677578352&#45;&gt;140434677579744 -->
<g id="edge47" class="edge">
<title>140434677578352&#45;&gt;140434677579744</title>
<path fill="none" stroke="black" d="M428.96,-55C441.77,-55 457.78,-55 473.45,-55"/>
<polygon fill="black" stroke="black" points="473.65,-58.5 483.65,-55 473.65,-51.5 473.65,-58.5"/>
</g>
<!-- 140434677578976&#45;&gt;140434677573312 -->
<g id="edge48" class="edge">
<title>140434677578976&#45;&gt;140434677573312</title>
<path fill="none" stroke="black" d="M686.58,-76.45C689.96,-81.18 693.44,-86.21 696.54,-91 713.88,-117.86 731.87,-149.72 743.98,-171.85"/>
<polygon fill="black" stroke="black" points="740.93,-173.58 748.79,-180.69 747.08,-170.24 740.93,-173.58"/>
</g>
<!-- 140434677711600&#45;&gt;140434677713424 -->
<g id="edge49" class="edge">
<title>140434677711600&#45;&gt;140434677713424</title>
<path fill="none" stroke="black" d="M428.96,-271C442.45,-271 459.49,-271 475.94,-271"/>
<polygon fill="black" stroke="black" points="476.07,-274.5 486.07,-271 476.07,-267.5 476.07,-274.5"/>
</g>
<!-- 140434677712368&#45;&gt;140434677573312 -->
<g id="edge50" class="edge">
<title>140434677712368&#45;&gt;140434677573312</title>
<path fill="none" stroke="black" d="M690.95,-254.3C702.11,-245.17 716.15,-233.68 728.53,-223.55"/>
<polygon fill="black" stroke="black" points="730.86,-226.16 736.39,-217.12 726.43,-220.75 730.86,-226.16"/>
</g>
<!-- 140434678126624&#45;&gt;140434678127968 -->
<g id="edge51" class="edge">
<title>140434678126624&#45;&gt;140434678127968</title>
<path fill="none" stroke="black" d="M2520.44,-619C2528.1,-619 2536.92,-619 2546.13,-619"/>
<polygon fill="black" stroke="black" points="2546.26,-622.5 2556.26,-619 2546.26,-615.5 2546.26,-622.5"/>
</g>
<!-- 140434677714000&#45;&gt;140434677716304 -->
<g id="edge52" class="edge">
<title>140434677714000&#45;&gt;140434677716304</title>
<path fill="none" stroke="black" d="M1095.93,-323C1103.68,-323 1112.57,-323 1121.77,-323"/>
<polygon fill="black" stroke="black" points="1121.84,-326.5 1131.84,-323 1121.84,-319.5 1121.84,-326.5"/>
</g>
<!-- 140434677715248&#45;&gt;140434677718224 -->
<g id="edge54" class="edge">
<title>140434677715248&#45;&gt;140434677718224</title>
<path fill="none" stroke="black" d="M1349.19,-323C1358.17,-323 1368.36,-323 1377.96,-323"/>
<polygon fill="black" stroke="black" points="1378.06,-326.5 1388.06,-323 1378.06,-319.5 1378.06,-326.5"/>
</g>
<!-- 140434677715248&#45;&gt;140434677717360 -->
<g id="edge53" class="edge">
<title>140434677715248&#45;&gt;140434677717360</title>
<path fill="none" stroke="black" d="M1345.35,-309.65C1355.52,-303.64 1367.76,-296.4 1379.08,-289.71"/>
<polygon fill="black" stroke="black" points="1381.08,-292.59 1387.91,-284.49 1377.52,-286.57 1381.08,-292.59"/>
</g>
<!-- 140434677719232&#45;&gt;140434677721296 -->
<g id="edge55" class="edge">
<title>140434677719232&#45;&gt;140434677721296</title>
<path fill="none" stroke="black" d="M1535.61,-323C1543.18,-323 1551.92,-323 1561.18,-323"/>
<polygon fill="black" stroke="black" points="1561.39,-326.5 1571.39,-323 1561.39,-319.5 1561.39,-326.5"/>
</g>
<!-- 140434677720336&#45;&gt;140434677722544 -->
<g id="edge56" class="edge">
<title>140434677720336&#45;&gt;140434677722544</title>
<path fill="none" stroke="black" d="M1833.17,-310.39C1842.29,-305.41 1852.98,-299.59 1863.01,-294.11"/>
<polygon fill="black" stroke="black" points="1864.87,-297.08 1871.98,-289.22 1861.52,-290.94 1864.87,-297.08"/>
</g>
<!-- 140434677720336&#45;&gt;140434677723312 -->
<g id="edge57" class="edge">
<title>140434677720336&#45;&gt;140434677723312</title>
<path fill="none" stroke="black" d="M1836.12,-323.47C1895.5,-324.53 2040.96,-327.13 2109.27,-328.35"/>
<polygon fill="black" stroke="black" points="2109.49,-331.85 2119.55,-328.53 2109.61,-324.85 2109.49,-331.85"/>
</g>
<!-- 140434678128112&#45;&gt;140434678130560 -->
<g id="edge59" class="edge">
<title>140434678128112&#45;&gt;140434678130560</title>
<path fill="none" stroke="black" d="M2745.69,-632.32C2699.93,-658.04 2592.24,-712 2494.29,-712 292.6,-712 292.6,-712 292.6,-712 204.57,-712 122.21,-635.74 84.18,-594.6"/>
<polygon fill="black" stroke="black" points="86.7,-592.17 77.39,-587.11 81.52,-596.87 86.7,-592.17"/>
</g>
<!-- 140434678128112&#45;&gt;140434678131520 -->
<g id="edge58" class="edge">
<title>140434678128112&#45;&gt;140434678131520</title>
<path fill="none" stroke="black" d="M2796.51,-619C2805.34,-619 2815.63,-619 2826.13,-619"/>
<polygon fill="black" stroke="black" points="2826.22,-622.5 2836.22,-619 2826.22,-615.5 2826.22,-622.5"/>
</g>
<!-- 140434678128928&#45;&gt;140434677724800 -->
<g id="edge60" class="edge">
<title>140434678128928&#45;&gt;140434677724800</title>
<path fill="none" stroke="black" d="M2517.02,-489.06C2537.94,-501.08 2569.28,-519.1 2593.37,-532.94"/>
<polygon fill="black" stroke="black" points="2591.8,-536.08 2602.22,-538.03 2595.29,-530.01 2591.8,-536.08"/>
</g>
<!-- 140434678128928&#45;&gt;140434677725760 -->
<g id="edge61" class="edge">
<title>140434678128928&#45;&gt;140434677725760</title>
<path fill="none" stroke="black" d="M2520.44,-476C2540.82,-476 2569.36,-476 2591.95,-476"/>
<polygon fill="black" stroke="black" points="2592.19,-479.5 2602.19,-476 2592.19,-472.5 2592.19,-479.5"/>
</g>
<!-- 140434678129600&#45;&gt;140434677572400 -->
<g id="edge62" class="edge">
<title>140434678129600&#45;&gt;140434677572400</title>
<path fill="none" stroke="black" d="M205.67,-397.9C217.68,-386.91 233.57,-372.79 248.28,-361 251.53,-358.4 254.97,-355.75 258.44,-353.14"/>
<polygon fill="black" stroke="black" points="260.53,-355.94 266.5,-347.18 256.37,-350.31 260.53,-355.94"/>
</g>
<!-- 140434678129600&#45;&gt;140434677572928 -->
<g id="edge65" class="edge">
<title>140434678129600&#45;&gt;140434677572928</title>
<path fill="none" stroke="black" d="M198.07,-391.95C218.02,-351.22 258.33,-268.94 279.28,-226.19"/>
<polygon fill="black" stroke="black" points="282.43,-227.72 283.69,-217.2 276.14,-224.64 282.43,-227.72"/>
</g>
<!-- 140434678129600&#45;&gt;140434678132960 -->
<g id="edge63" class="edge">
<title>140434678129600&#45;&gt;140434678132960</title>
<path fill="none" stroke="black" d="M196.33,-440.81C221.46,-498.34 292.87,-636 400.92,-636 400.92,-636 400.92,-636 1810.05,-636 1858.54,-636 1913.06,-627.23 1952.31,-619.34"/>
<polygon fill="black" stroke="black" points="1953.11,-622.75 1962.2,-617.31 1951.7,-615.89 1953.11,-622.75"/>
</g>
<!-- 140434678129600&#45;&gt;140434678133104 -->
<g id="edge66" class="edge">
<title>140434678129600&#45;&gt;140434678133104</title>
<path fill="none" stroke="black" d="M211.48,-422.64C224.95,-426.18 241.77,-430.61 256.6,-434.52"/>
<polygon fill="black" stroke="black" points="255.92,-437.96 266.48,-437.12 257.7,-431.19 255.92,-437.96"/>
</g>
<!-- 140434678129600&#45;&gt;140434677571440 -->
<g id="edge64" class="edge">
<title>140434678129600&#45;&gt;140434677571440</title>
<path fill="none" stroke="black" d="M211.48,-409.36C224.95,-405.82 241.77,-401.39 256.6,-397.48"/>
<polygon fill="black" stroke="black" points="257.7,-400.81 266.48,-394.88 255.92,-394.04 257.7,-400.81"/>
</g>
<!-- 140434678130704&#45;&gt;140434678132864 -->
<g id="edge67" class="edge">
<title>140434678130704&#45;&gt;140434678132864</title>
<path fill="none" stroke="black" d="M3024.6,-594.06C3046.66,-537.2 3100.53,-398.31 3123.62,-338.81"/>
<polygon fill="black" stroke="black" points="3126.95,-339.9 3127.3,-329.31 3120.42,-337.36 3126.95,-339.9"/>
</g>
<!-- 140434678130704&#45;&gt;140434678132048 -->
<g id="edge68" class="edge">
<title>140434678130704&#45;&gt;140434678132048</title>
<path fill="none" stroke="black" d="M3040.56,-624.79C3057.45,-628.61 3079.81,-633.66 3098.47,-637.88"/>
<polygon fill="black" stroke="black" points="3097.88,-641.33 3108.4,-640.12 3099.42,-634.51 3097.88,-641.33"/>
</g>
</g>
</svg>
