<?xml version="1.0" encoding="UTF-8" standalone="no"?>
<!DOCTYPE svg PUBLIC "-//W3C//DTD SVG 1.1//EN"
 "http://www.w3.org/Graphics/SVG/1.1/DTD/svg11.dtd">
<!-- Generated by graphviz version 2.48.0 (0)
 -->
<!-- Title: imdf_net_1720701024.2419908 Pages: 1 -->
<svg width="3099pt" height="752pt"
 viewBox="0.00 0.00 3099.20 752.00" xmlns="http://www.w3.org/2000/svg" xmlns:xlink="http://www.w3.org/1999/xlink">
<g id="graph0" class="graph" transform="scale(1 1) rotate(0) translate(4 748)">
<title>imdf_net_1720701024.2419908</title>
<polygon fill="white" stroke="transparent" points="-4,4 -4,-748 3095.2,-748 3095.2,4 -4,4"/>
<!-- 140434678130944 -->
<g id="node1" class="node">
<title>140434678130944</title>
<polygon fill="white" stroke="black" points="116.93,-252 0.02,-252 0.02,-216 116.93,-216 116.93,-252"/>
<text text-anchor="middle" x="58.48" y="-230.4" font-family="Times,serif" font-size="12.00">W_Afhandelen leads</text>
</g>
<!-- 140434678128496 -->
<g id="node71" class="node">
<title>140434678128496</title>
<ellipse fill="white" stroke="black" cx="179.95" cy="-505" rx="27" ry="27"/>
</g>
<!-- 140434678130944&#45;&gt;140434678128496 -->
<g id="edge10" class="edge">
<title>140434678130944&#45;&gt;140434678128496</title>
<path fill="none" stroke="black" d="M67.5,-252.2C87.24,-296.96 138.38,-412.97 163.95,-470.96"/>
<polygon fill="black" stroke="black" points="160.88,-472.68 168.12,-480.41 167.28,-469.85 160.88,-472.68"/>
</g>
<!-- 140434678131328 -->
<g id="node2" class="node">
<title>140434678131328</title>
<polygon fill="white" stroke="black" points="2095.16,-629 2004.88,-629 2004.88,-593 2095.16,-593 2095.16,-629"/>
<text text-anchor="middle" x="2050.02" y="-607.4" font-family="Times,serif" font-size="12.00">A_DECLINED</text>
</g>
<!-- 140434678127920 -->
<g id="node70" class="node">
<title>140434678127920</title>
<ellipse fill="white" stroke="black" cx="2535.94" cy="-281" rx="27" ry="27"/>
</g>
<!-- 140434678131328&#45;&gt;140434678127920 -->
<g id="edge6" class="edge">
<title>140434678131328&#45;&gt;140434678127920</title>
<path fill="none" stroke="black" d="M2077.73,-592.79C2161.15,-535.9 2416.56,-361.73 2504.67,-301.64"/>
<polygon fill="black" stroke="black" points="2506.86,-304.39 2513.15,-295.86 2502.91,-298.6 2506.86,-304.39"/>
</g>
<!-- 140434677497344 -->
<g id="node3" class="node">
<title>140434677497344</title>
<polygon fill="black" stroke="black" points="1728.39,-166 1674.39,-166 1674.39,-130 1728.39,-130 1728.39,-166"/>
</g>
<!-- 140434677485008 -->
<g id="node46" class="node">
<title>140434677485008</title>
<ellipse fill="white" stroke="black" cx="1851.7" cy="-148" rx="27" ry="27"/>
</g>
<!-- 140434677497344&#45;&gt;140434677485008 -->
<g id="edge70" class="edge">
<title>140434677497344&#45;&gt;140434677485008</title>
<path fill="none" stroke="black" d="M1728.57,-148C1752.35,-148 1787.68,-148 1814.23,-148"/>
<polygon fill="black" stroke="black" points="1814.29,-151.5 1824.29,-148 1814.29,-144.5 1814.29,-151.5"/>
</g>
<!-- 140434677570816 -->
<g id="node4" class="node">
<title>140434677570816</title>
<polygon fill="white" stroke="black" points="333.42,-628 243.13,-628 243.13,-592 333.42,-592 333.42,-628"/>
<text text-anchor="middle" x="288.28" y="-606.4" font-family="Times,serif" font-size="12.00">O_DECLINED</text>
</g>
<!-- 140434678132144 -->
<g id="node55" class="node">
<title>140434678132144</title>
<ellipse fill="white" stroke="black" cx="844.21" cy="-463" rx="27" ry="27"/>
</g>
<!-- 140434677570816&#45;&gt;140434678132144 -->
<g id="edge17" class="edge">
<title>140434677570816&#45;&gt;140434678132144</title>
<path fill="none" stroke="black" d="M320.35,-628.1C334.86,-635.75 352.64,-644.03 369.6,-649 438.23,-669.12 457.88,-668 529.4,-668 529.4,-668 529.4,-668 665.21,-668 754.1,-668 808.62,-556.75 831.17,-498.16"/>
<polygon fill="black" stroke="black" points="834.54,-499.14 834.76,-488.55 827.98,-496.69 834.54,-499.14"/>
</g>
<!-- 140434678131472 -->
<g id="node5" class="node">
<title>140434678131472</title>
<polygon fill="black" stroke="black" points="315.28,-296 261.28,-296 261.28,-260 315.28,-260 315.28,-296"/>
</g>
<!-- 140434678133200 -->
<g id="node42" class="node">
<title>140434678133200</title>
<ellipse fill="white" stroke="black" cx="396.6" cy="-278" rx="27" ry="27"/>
</g>
<!-- 140434678131472&#45;&gt;140434678133200 -->
<g id="edge89" class="edge">
<title>140434678131472&#45;&gt;140434678133200</title>
<path fill="none" stroke="black" d="M315.28,-278C328.54,-278 344.88,-278 359.35,-278"/>
<polygon fill="black" stroke="black" points="359.49,-281.5 369.49,-278 359.49,-274.5 359.49,-281.5"/>
</g>
<!-- 140434677482656 -->
<g id="node44" class="node">
<title>140434677482656</title>
<ellipse fill="white" stroke="black" cx="396.6" cy="-187" rx="27" ry="27"/>
</g>
<!-- 140434678131472&#45;&gt;140434677482656 -->
<g id="edge90" class="edge">
<title>140434678131472&#45;&gt;140434677482656</title>
<path fill="none" stroke="black" d="M310.54,-259.8C326.93,-245.77 349.75,-226.24 367.63,-210.94"/>
<polygon fill="black" stroke="black" points="370.13,-213.4 375.45,-204.24 365.58,-208.08 370.13,-213.4"/>
</g>
<!-- 140434678131856 -->
<g id="node6" class="node">
<title>140434678131856</title>
<polygon fill="black" stroke="black" points="2450.28,-276 2396.28,-276 2396.28,-240 2450.28,-240 2450.28,-276"/>
</g>
<!-- 140434678131856&#45;&gt;140434678127920 -->
<g id="edge82" class="edge">
<title>140434678131856&#45;&gt;140434678127920</title>
<path fill="none" stroke="black" d="M2450.5,-263.45C2465.08,-266.48 2483.42,-270.29 2499.28,-273.59"/>
<polygon fill="black" stroke="black" points="2498.78,-277.06 2509.28,-275.67 2500.21,-270.21 2498.78,-277.06"/>
</g>
<!-- 140434677485584 -->
<g id="node7" class="node">
<title>140434677485584</title>
<polygon fill="black" stroke="black" points="1216.98,-65 1162.98,-65 1162.98,-29 1216.98,-29 1216.98,-65"/>
</g>
<!-- 140434677485584&#45;&gt;140434677485008 -->
<g id="edge68" class="edge">
<title>140434677485584&#45;&gt;140434677485008</title>
<path fill="none" stroke="black" d="M1217.01,-47.16C1264.6,-47.45 1368.86,-48 1456.76,-48 1456.76,-48 1456.76,-48 1552.09,-48 1657.59,-48 1696.06,-16.53 1788.7,-67 1808.3,-77.68 1823.63,-97.47 1834.14,-114.82"/>
<polygon fill="black" stroke="black" points="1831.18,-116.69 1839.2,-123.61 1837.24,-113.2 1831.18,-116.69"/>
</g>
<!-- 140434677715728 -->
<g id="node8" class="node">
<title>140434677715728</title>
<polygon fill="black" stroke="black" points="1484.76,-445 1430.76,-445 1430.76,-409 1484.76,-409 1484.76,-445"/>
</g>
<!-- 140434677712176 -->
<g id="node65" class="node">
<title>140434677712176</title>
<ellipse fill="white" stroke="black" cx="1063.51" cy="-429" rx="27" ry="27"/>
</g>
<!-- 140434677715728&#45;&gt;140434677712176 -->
<g id="edge73" class="edge">
<title>140434677715728&#45;&gt;140434677712176</title>
<path fill="none" stroke="black" d="M1430.73,-427.13C1362.67,-427.48 1179.32,-428.41 1100.9,-428.81"/>
<polygon fill="black" stroke="black" points="1100.53,-425.32 1090.55,-428.87 1100.57,-432.32 1100.53,-425.32"/>
</g>
<!-- 140434677720720 -->
<g id="node9" class="node">
<title>140434677720720</title>
<polygon fill="black" stroke="black" points="1968.7,-384 1914.7,-384 1914.7,-348 1968.7,-348 1968.7,-384"/>
</g>
<!-- 140434677717600 -->
<g id="node67" class="node">
<title>140434677717600</title>
<ellipse fill="white" stroke="black" cx="1551.09" cy="-370" rx="27" ry="27"/>
</g>
<!-- 140434677720720&#45;&gt;140434677717600 -->
<g id="edge75" class="edge">
<title>140434677720720&#45;&gt;140434677717600</title>
<path fill="none" stroke="black" d="M1914.46,-366.27C1846.77,-366.97 1666.14,-368.83 1588.44,-369.63"/>
<polygon fill="black" stroke="black" points="1588.15,-366.13 1578.19,-369.73 1588.22,-373.13 1588.15,-366.13"/>
</g>
<!-- 140434677723024 -->
<g id="node10" class="node">
<title>140434677723024</title>
<polygon fill="black" stroke="black" points="2698.93,-245 2644.93,-245 2644.93,-209 2698.93,-209 2698.93,-245"/>
</g>
<!-- 140434678127200 -->
<g id="node69" class="node">
<title>140434678127200</title>
<ellipse fill="white" stroke="black" cx="2811.91" cy="-189" rx="27" ry="27"/>
</g>
<!-- 140434677723024&#45;&gt;140434678127200 -->
<g id="edge77" class="edge">
<title>140434677723024&#45;&gt;140434678127200</title>
<path fill="none" stroke="black" d="M2699.21,-219.76C2720.96,-213.77 2752.07,-205.21 2775.93,-198.63"/>
<polygon fill="black" stroke="black" points="2776.95,-201.98 2785.66,-195.95 2775.09,-195.23 2776.95,-201.98"/>
</g>
<!-- 140434677723792 -->
<g id="node11" class="node">
<title>140434677723792</title>
<polygon fill="black" stroke="black" points="2698.93,-299 2644.93,-299 2644.93,-263 2698.93,-263 2698.93,-299"/>
</g>
<!-- 140434690528256 -->
<g id="node73" class="node">
<title>140434690528256</title>
<ellipse fill="white" stroke="black" cx="2811.91" cy="-281" rx="27" ry="27"/>
<ellipse fill="none" stroke="black" cx="2811.91" cy="-281" rx="31" ry="31"/>
<text text-anchor="start" x="2799.91" y="-271.4" font-family="Times,serif" font-size="32.00">■</text>
</g>
<!-- 140434677723792&#45;&gt;140434690528256 -->
<g id="edge78" class="edge">
<title>140434677723792&#45;&gt;140434690528256</title>
<path fill="none" stroke="black" d="M2699.21,-281C2719.41,-281 2747.68,-281 2770.72,-281"/>
<polygon fill="black" stroke="black" points="2770.89,-284.5 2780.89,-281 2770.89,-277.5 2770.89,-284.5"/>
</g>
<!-- 140434677484576 -->
<g id="node12" class="node">
<title>140434677484576</title>
<polygon fill="white" stroke="black" points="576.56,-194 484.24,-194 484.24,-158 576.56,-158 576.56,-194"/>
<text text-anchor="middle" x="530.4" y="-172.4" font-family="Times,serif" font-size="12.00">A_ACCEPTED</text>
</g>
<!-- 140434677483952 -->
<g id="node45" class="node">
<title>140434677483952</title>
<ellipse fill="white" stroke="black" cx="664.21" cy="-171" rx="27" ry="27"/>
</g>
<!-- 140434677484576&#45;&gt;140434677483952 -->
<g id="edge21" class="edge">
<title>140434677484576&#45;&gt;140434677483952</title>
<path fill="none" stroke="black" d="M576.76,-174.28C593.1,-173.66 611.3,-172.97 626.78,-172.38"/>
<polygon fill="black" stroke="black" points="627.14,-175.87 637,-171.99 626.88,-168.88 627.14,-175.87"/>
</g>
<!-- 140434677487648 -->
<g id="node13" class="node">
<title>140434677487648</title>
<polygon fill="black" stroke="black" points="781.21,-183 727.21,-183 727.21,-147 781.21,-147 781.21,-183"/>
</g>
<!-- 140434677488656 -->
<g id="node47" class="node">
<title>140434677488656</title>
<ellipse fill="white" stroke="black" cx="844.21" cy="-93" rx="27" ry="27"/>
</g>
<!-- 140434677487648&#45;&gt;140434677488656 -->
<g id="edge83" class="edge">
<title>140434677487648&#45;&gt;140434677488656</title>
<path fill="none" stroke="black" d="M777.41,-146.83C788.75,-137.56 802.67,-126.17 814.78,-116.26"/>
<polygon fill="black" stroke="black" points="817.29,-118.72 822.82,-109.68 812.86,-113.31 817.29,-118.72"/>
</g>
<!-- 140434677490624 -->
<g id="node49" class="node">
<title>140434677490624</title>
<ellipse fill="white" stroke="black" cx="844.21" cy="-165" rx="27" ry="27"/>
</g>
<!-- 140434677487648&#45;&gt;140434677490624 -->
<g id="edge84" class="edge">
<title>140434677487648&#45;&gt;140434677490624</title>
<path fill="none" stroke="black" d="M781.61,-165C789.6,-165 798.52,-165 807.03,-165"/>
<polygon fill="black" stroke="black" points="807.13,-168.5 817.13,-165 807.13,-161.5 807.13,-168.5"/>
</g>
<!-- 140434678129456 -->
<g id="node14" class="node">
<title>140434678129456</title>
<polygon fill="white" stroke="black" points="3001.34,-250 2878.77,-250 2878.77,-214 3001.34,-214 3001.34,-250"/>
<text text-anchor="middle" x="2940.06" y="-228.4" font-family="Times,serif" font-size="12.00">W_Beoordelen fraude</text>
</g>
<!-- 140434678129456&#45;&gt;140434678128496 -->
<g id="edge15" class="edge">
<title>140434678129456&#45;&gt;140434678128496</title>
<path fill="none" stroke="black" d="M2938.34,-250.22C2933.7,-341.43 2900.33,-744 2672.93,-744 395.6,-744 395.6,-744 395.6,-744 322.2,-744 293.46,-734.25 242.95,-681 206.32,-642.38 191.17,-580.83 185.02,-541.69"/>
<polygon fill="black" stroke="black" points="188.48,-541.16 183.58,-531.77 181.55,-542.17 188.48,-541.16"/>
</g>
<!-- 140434678134832 -->
<g id="node15" class="node">
<title>140434678134832</title>
<polygon fill="white" stroke="black" points="601.01,-272 459.79,-272 459.79,-236 601.01,-236 601.01,-272"/>
<text text-anchor="middle" x="530.4" y="-250.4" font-family="Times,serif" font-size="12.00">W_Completeren aanvraag</text>
</g>
<!-- 140434678133968 -->
<g id="node43" class="node">
<title>140434678133968</title>
<ellipse fill="white" stroke="black" cx="664.21" cy="-249" rx="27" ry="27"/>
</g>
<!-- 140434678134832&#45;&gt;140434678133968 -->
<g id="edge2" class="edge">
<title>140434678134832&#45;&gt;140434678133968</title>
<path fill="none" stroke="black" d="M601.16,-251.35C610.09,-251.01 618.93,-250.68 627.01,-250.37"/>
<polygon fill="black" stroke="black" points="627.29,-253.87 637.15,-249.99 627.02,-246.87 627.29,-253.87"/>
</g>
<!-- 140434677490096 -->
<g id="node16" class="node">
<title>140434677490096</title>
<polygon fill="white" stroke="black" points="1000.66,-111 907.05,-111 907.05,-75 1000.66,-75 1000.66,-111"/>
<text text-anchor="middle" x="953.86" y="-89.4" font-family="Times,serif" font-size="12.00">A_FINALIZED</text>
</g>
<!-- 140434677489328 -->
<g id="node48" class="node">
<title>140434677489328</title>
<ellipse fill="white" stroke="black" cx="1063.51" cy="-93" rx="27" ry="27"/>
</g>
<!-- 140434677490096&#45;&gt;140434677489328 -->
<g id="edge12" class="edge">
<title>140434677490096&#45;&gt;140434677489328</title>
<path fill="none" stroke="black" d="M1000.51,-93C1009.14,-93 1018.05,-93 1026.33,-93"/>
<polygon fill="black" stroke="black" points="1026.42,-96.5 1036.42,-93 1026.42,-89.5 1026.42,-96.5"/>
</g>
<!-- 140434677495472 -->
<g id="node17" class="node">
<title>140434677495472</title>
<polygon fill="white" stroke="black" points="1487.92,-162 1427.6,-162 1427.6,-126 1487.92,-126 1487.92,-162"/>
<text text-anchor="middle" x="1457.76" y="-140.4" font-family="Times,serif" font-size="12.00">O_SENT</text>
</g>
<!-- 140434677494464 -->
<g id="node52" class="node">
<title>140434677494464</title>
<ellipse fill="white" stroke="black" cx="1551.09" cy="-148" rx="27" ry="27"/>
</g>
<!-- 140434677495472&#45;&gt;140434677494464 -->
<g id="edge5" class="edge">
<title>140434677495472&#45;&gt;140434677494464</title>
<path fill="none" stroke="black" d="M1488.16,-145.29C1496.31,-145.64 1505.26,-146.04 1513.77,-146.41"/>
<polygon fill="black" stroke="black" points="1513.68,-149.91 1523.83,-146.85 1513.99,-142.92 1513.68,-149.91"/>
</g>
<!-- 140434677576000 -->
<g id="node18" class="node">
<title>140434677576000</title>
<polygon fill="white" stroke="black" points="577.39,-415 483.41,-415 483.41,-379 577.39,-379 577.39,-415"/>
<text text-anchor="middle" x="530.4" y="-393.4" font-family="Times,serif" font-size="12.00">A_APPROVED</text>
</g>
<!-- 140434677575040 -->
<g id="node59" class="node">
<title>140434677575040</title>
<ellipse fill="white" stroke="black" cx="664.21" cy="-397" rx="27" ry="27"/>
</g>
<!-- 140434677576000&#45;&gt;140434677575040 -->
<g id="edge3" class="edge">
<title>140434677576000&#45;&gt;140434677575040</title>
<path fill="none" stroke="black" d="M577.5,-397C593.67,-397 611.58,-397 626.84,-397"/>
<polygon fill="black" stroke="black" points="626.92,-400.5 636.92,-397 626.92,-393.5 626.92,-400.5"/>
</g>
<!-- 140434677578304 -->
<g id="node19" class="node">
<title>140434677578304</title>
<polygon fill="white" stroke="black" points="582.38,-631 478.42,-631 478.42,-595 582.38,-595 582.38,-631"/>
<text text-anchor="middle" x="530.4" y="-609.4" font-family="Times,serif" font-size="12.00">A_REGISTERED</text>
</g>
<!-- 140434677577248 -->
<g id="node61" class="node">
<title>140434677577248</title>
<ellipse fill="white" stroke="black" cx="664.21" cy="-613" rx="27" ry="27"/>
</g>
<!-- 140434677578304&#45;&gt;140434677577248 -->
<g id="edge19" class="edge">
<title>140434677578304&#45;&gt;140434677577248</title>
<path fill="none" stroke="black" d="M582.74,-613C597.34,-613 612.94,-613 626.49,-613"/>
<polygon fill="black" stroke="black" points="626.85,-616.5 636.85,-613 626.85,-609.5 626.85,-616.5"/>
</g>
<!-- 140434677711552 -->
<g id="node20" class="node">
<title>140434677711552</title>
<polygon fill="white" stroke="black" points="580.21,-559 480.6,-559 480.6,-523 580.21,-523 580.21,-559"/>
<text text-anchor="middle" x="530.4" y="-537.4" font-family="Times,serif" font-size="12.00">A_ACTIVATED</text>
</g>
<!-- 140434677579456 -->
<g id="node63" class="node">
<title>140434677579456</title>
<ellipse fill="white" stroke="black" cx="664.21" cy="-541" rx="27" ry="27"/>
</g>
<!-- 140434677711552&#45;&gt;140434677579456 -->
<g id="edge1" class="edge">
<title>140434677711552&#45;&gt;140434677579456</title>
<path fill="none" stroke="black" d="M580.11,-541C595.57,-541 612.39,-541 626.82,-541"/>
<polygon fill="black" stroke="black" points="626.86,-544.5 636.86,-541 626.86,-537.5 626.86,-544.5"/>
</g>
<!-- 140434677716544 -->
<g id="node21" class="node">
<title>140434677716544</title>
<polygon fill="black" stroke="black" points="1484.76,-389 1430.76,-389 1430.76,-353 1484.76,-353 1484.76,-389"/>
</g>
<!-- 140434677716544&#45;&gt;140434677717600 -->
<g id="edge74" class="edge">
<title>140434677716544&#45;&gt;140434677717600</title>
<path fill="none" stroke="black" d="M1485.17,-370.71C1494.15,-370.61 1504.34,-370.5 1513.94,-370.4"/>
<polygon fill="black" stroke="black" points="1514.08,-373.89 1524.04,-370.29 1514.01,-366.89 1514.08,-373.89"/>
</g>
<!-- 140434677719616 -->
<g id="node22" class="node">
<title>140434677719616</title>
<polygon fill="white" stroke="black" points="1788.51,-337 1614.28,-337 1614.28,-301 1788.51,-301 1788.51,-337"/>
<text text-anchor="middle" x="1701.39" y="-315.4" font-family="Times,serif" font-size="12.00">W_Nabellen incomplete dossiers</text>
</g>
<!-- 140434677718656 -->
<g id="node68" class="node">
<title>140434677718656</title>
<ellipse fill="white" stroke="black" cx="1851.7" cy="-315" rx="27" ry="27"/>
</g>
<!-- 140434677719616&#45;&gt;140434677718656 -->
<g id="edge20" class="edge">
<title>140434677719616&#45;&gt;140434677718656</title>
<path fill="none" stroke="black" d="M1788.66,-316.67C1797.6,-316.43 1806.3,-316.2 1814.21,-315.98"/>
<polygon fill="black" stroke="black" points="1814.57,-319.48 1824.48,-315.71 1814.38,-312.48 1814.57,-319.48"/>
</g>
<!-- 140434677721536 -->
<g id="node23" class="node">
<title>140434677721536</title>
<polygon fill="black" stroke="black" points="2216.48,-327 2162.48,-327 2162.48,-291 2216.48,-291 2216.48,-327"/>
</g>
<!-- 140434677721536&#45;&gt;140434678127920 -->
<g id="edge76" class="edge">
<title>140434677721536&#45;&gt;140434678127920</title>
<path fill="none" stroke="black" d="M2216.66,-306.87C2277.58,-301.92 2429.01,-289.61 2498.74,-283.94"/>
<polygon fill="black" stroke="black" points="2499.12,-287.42 2508.8,-283.12 2498.55,-280.45 2499.12,-287.42"/>
</g>
<!-- 140434678127056 -->
<g id="node24" class="node">
<title>140434678127056</title>
<polygon fill="white" stroke="black" points="2744.9,-191 2598.95,-191 2598.95,-155 2744.9,-155 2744.9,-191"/>
<text text-anchor="middle" x="2671.93" y="-169.4" font-family="Times,serif" font-size="12.00">A_PARTLYSUBMITTED</text>
</g>
<!-- 140434678127056&#45;&gt;140434678127200 -->
<g id="edge7" class="edge">
<title>140434678127056&#45;&gt;140434678127200</title>
<path fill="none" stroke="black" d="M2745.15,-181.37C2755.37,-182.56 2765.49,-183.73 2774.62,-184.79"/>
<polygon fill="black" stroke="black" points="2774.49,-188.3 2784.83,-185.98 2775.3,-181.35 2774.49,-188.3"/>
</g>
<!-- 140434678130512 -->
<g id="node25" class="node">
<title>140434678130512</title>
<polygon fill="white" stroke="black" points="2997.22,-164 2882.89,-164 2882.89,-128 2997.22,-128 2997.22,-164"/>
<text text-anchor="middle" x="2940.06" y="-142.4" font-family="Times,serif" font-size="12.00">A_PREACCEPTED</text>
</g>
<!-- 140434678129696 -->
<g id="node72" class="node">
<title>140434678129696</title>
<ellipse fill="white" stroke="black" cx="3064.2" cy="-64" rx="27" ry="27"/>
</g>
<!-- 140434678130512&#45;&gt;140434678129696 -->
<g id="edge8" class="edge">
<title>140434678130512&#45;&gt;140434678129696</title>
<path fill="none" stroke="black" d="M2968.16,-127.8C2987.39,-114.9 3013.19,-97.57 3033.06,-84.23"/>
<polygon fill="black" stroke="black" points="3035.1,-87.08 3041.45,-78.6 3031.2,-81.27 3035.1,-87.08"/>
</g>
<!-- 140434677496528 -->
<g id="node26" class="node">
<title>140434677496528</title>
<polygon fill="black" stroke="black" points="1728.39,-112 1674.39,-112 1674.39,-76 1728.39,-76 1728.39,-112"/>
</g>
<!-- 140434677493360 -->
<g id="node51" class="node">
<title>140434677493360</title>
<ellipse fill="white" stroke="black" cx="1340.44" cy="-122" rx="27" ry="27"/>
</g>
<!-- 140434677496528&#45;&gt;140434677493360 -->
<g id="edge69" class="edge">
<title>140434677496528&#45;&gt;140434677493360</title>
<path fill="none" stroke="black" d="M1674.39,-96.03C1611.29,-100.95 1449.96,-113.54 1377.56,-119.18"/>
<polygon fill="black" stroke="black" points="1377.24,-115.7 1367.54,-119.96 1377.78,-122.68 1377.24,-115.7"/>
</g>
<!-- 140434677564240 -->
<g id="node27" class="node">
<title>140434677564240</title>
<polygon fill="black" stroke="black" points="1968.7,-166 1914.7,-166 1914.7,-130 1968.7,-130 1968.7,-166"/>
</g>
<!-- 140434677485296 -->
<g id="node53" class="node">
<title>140434677485296</title>
<ellipse fill="white" stroke="black" cx="2050.02" cy="-148" rx="27" ry="27"/>
</g>
<!-- 140434677564240&#45;&gt;140434677485296 -->
<g id="edge22" class="edge">
<title>140434677564240&#45;&gt;140434677485296</title>
<path fill="none" stroke="black" d="M1968.71,-148C1981.97,-148 1998.31,-148 2012.78,-148"/>
<polygon fill="black" stroke="black" points="2012.91,-151.5 2022.91,-148 2012.91,-144.5 2012.91,-151.5"/>
</g>
<!-- 140434677566160 -->
<g id="node28" class="node">
<title>140434677566160</title>
<polygon fill="white" stroke="black" points="2247.76,-216 2131.2,-216 2131.2,-180 2247.76,-180 2247.76,-216"/>
<text text-anchor="middle" x="2189.48" y="-194.4" font-family="Times,serif" font-size="12.00">W_Nabellen offertes</text>
</g>
<!-- 140434677565056 -->
<g id="node54" class="node">
<title>140434677565056</title>
<ellipse fill="white" stroke="black" cx="2310.62" cy="-203" rx="27" ry="27"/>
</g>
<!-- 140434677566160&#45;&gt;140434677565056 -->
<g id="edge13" class="edge">
<title>140434677566160&#45;&gt;140434677565056</title>
<path fill="none" stroke="black" d="M2247.96,-200.41C2256.65,-200.78 2265.39,-201.14 2273.46,-201.48"/>
<polygon fill="black" stroke="black" points="2273.47,-204.99 2283.61,-201.91 2273.77,-197.99 2273.47,-204.99"/>
</g>
<!-- 140434677567312 -->
<g id="node29" class="node">
<title>140434677567312</title>
<polygon fill="black" stroke="black" points="2450.28,-194 2396.28,-194 2396.28,-158 2450.28,-158 2450.28,-194"/>
</g>
<!-- 140434677567312&#45;&gt;140434677485296 -->
<g id="edge71" class="edge">
<title>140434677567312&#45;&gt;140434677485296</title>
<path fill="none" stroke="black" d="M2395.99,-172.93C2379.29,-171.05 2357.21,-168.69 2337.62,-167 2247.73,-159.25 2141.74,-152.96 2087.31,-149.94"/>
<polygon fill="black" stroke="black" points="2087.31,-146.44 2077.13,-149.38 2086.92,-153.43 2087.31,-146.44"/>
</g>
<!-- 140434677571152 -->
<g id="node30" class="node">
<title>140434677571152</title>
<polygon fill="black" stroke="black" points="315.28,-523 261.28,-523 261.28,-487 315.28,-487 315.28,-523"/>
</g>
<!-- 140434677572064 -->
<g id="node56" class="node">
<title>140434677572064</title>
<ellipse fill="white" stroke="black" cx="396.6" cy="-469" rx="27" ry="27"/>
</g>
<!-- 140434677571152&#45;&gt;140434677572064 -->
<g id="edge85" class="edge">
<title>140434677571152&#45;&gt;140434677572064</title>
<path fill="none" stroke="black" d="M315.28,-496.19C328.97,-491.56 345.94,-485.81 360.75,-480.8"/>
<polygon fill="black" stroke="black" points="362.24,-483.99 370.59,-477.47 359.99,-477.36 362.24,-483.99"/>
</g>
<!-- 140434677574272 -->
<g id="node58" class="node">
<title>140434677574272</title>
<ellipse fill="white" stroke="black" cx="396.6" cy="-397" rx="27" ry="27"/>
</g>
<!-- 140434677571152&#45;&gt;140434677574272 -->
<g id="edge86" class="edge">
<title>140434677571152&#45;&gt;140434677574272</title>
<path fill="none" stroke="black" d="M307.31,-486.68C324.54,-469.18 350.69,-442.62 370.06,-422.94"/>
<polygon fill="black" stroke="black" points="372.59,-425.36 377.11,-415.77 367.6,-420.44 372.59,-425.36"/>
</g>
<!-- 140434677576432 -->
<g id="node60" class="node">
<title>140434677576432</title>
<ellipse fill="white" stroke="black" cx="396.6" cy="-613" rx="27" ry="27"/>
</g>
<!-- 140434677571152&#45;&gt;140434677576432 -->
<g id="edge87" class="edge">
<title>140434677571152&#45;&gt;140434677576432</title>
<path fill="none" stroke="black" d="M307.31,-523.32C324.54,-540.82 350.69,-567.38 370.06,-587.06"/>
<polygon fill="black" stroke="black" points="367.6,-589.56 377.11,-594.23 372.59,-584.64 367.6,-589.56"/>
</g>
<!-- 140434677578640 -->
<g id="node62" class="node">
<title>140434677578640</title>
<ellipse fill="white" stroke="black" cx="396.6" cy="-541" rx="27" ry="27"/>
</g>
<!-- 140434677571152&#45;&gt;140434677578640 -->
<g id="edge88" class="edge">
<title>140434677571152&#45;&gt;140434677578640</title>
<path fill="none" stroke="black" d="M315.28,-513.81C328.97,-518.44 345.94,-524.19 360.75,-529.2"/>
<polygon fill="black" stroke="black" points="359.99,-532.64 370.59,-532.53 362.24,-526.01 359.99,-532.64"/>
</g>
<!-- 140434677571536 -->
<g id="node31" class="node">
<title>140434677571536</title>
<polygon fill="black" stroke="black" points="781.21,-487 727.21,-487 727.21,-451 781.21,-451 781.21,-487"/>
</g>
<!-- 140434677571536&#45;&gt;140434678132144 -->
<g id="edge81" class="edge">
<title>140434677571536&#45;&gt;140434678132144</title>
<path fill="none" stroke="black" d="M781.61,-467.2C789.6,-466.66 798.52,-466.05 807.03,-465.47"/>
<polygon fill="black" stroke="black" points="807.39,-468.95 817.13,-464.78 806.91,-461.97 807.39,-468.95"/>
</g>
<!-- 140434677573840 -->
<g id="node32" class="node">
<title>140434677573840</title>
<polygon fill="white" stroke="black" points="576.56,-487 484.24,-487 484.24,-451 576.56,-451 576.56,-487"/>
<text text-anchor="middle" x="530.4" y="-465.4" font-family="Times,serif" font-size="12.00">O_ACCEPTED</text>
</g>
<!-- 140434677572880 -->
<g id="node57" class="node">
<title>140434677572880</title>
<ellipse fill="white" stroke="black" cx="664.21" cy="-469" rx="27" ry="27"/>
</g>
<!-- 140434677573840&#45;&gt;140434677572880 -->
<g id="edge11" class="edge">
<title>140434677573840&#45;&gt;140434677572880</title>
<path fill="none" stroke="black" d="M576.76,-469C593.1,-469 611.3,-469 626.78,-469"/>
<polygon fill="black" stroke="black" points="627,-472.5 637,-469 627,-465.5 627,-472.5"/>
</g>
<!-- 140434678135648 -->
<g id="node33" class="node">
<title>140434678135648</title>
<polygon fill="black" stroke="black" points="781.21,-322 727.21,-322 727.21,-286 781.21,-286 781.21,-322"/>
</g>
<!-- 140434678135648&#45;&gt;140434678133200 -->
<g id="edge79" class="edge">
<title>140434678135648&#45;&gt;140434678133200</title>
<path fill="none" stroke="black" d="M727.02,-302.09C664.43,-297.51 506.02,-285.93 434.11,-280.67"/>
<polygon fill="black" stroke="black" points="433.97,-277.15 423.74,-279.91 433.46,-284.13 433.97,-277.15"/>
</g>
<!-- 140434677486688 -->
<g id="node34" class="node">
<title>140434677486688</title>
<polygon fill="white" stroke="black" points="1391.42,-228 1289.46,-228 1289.46,-192 1391.42,-192 1391.42,-228"/>
<text text-anchor="middle" x="1340.44" y="-206.4" font-family="Times,serif" font-size="12.00">A_CANCELLED</text>
</g>
<!-- 140434677486688&#45;&gt;140434677485008 -->
<g id="edge9" class="edge">
<title>140434677486688&#45;&gt;140434677485008</title>
<path fill="none" stroke="black" d="M1391.61,-211.44C1475.26,-212.65 1647.95,-210.1 1788.7,-175 1798.59,-172.53 1808.91,-168.63 1818.22,-164.56"/>
<polygon fill="black" stroke="black" points="1819.87,-167.65 1827.5,-160.3 1816.95,-161.29 1819.87,-167.65"/>
</g>
<!-- 140434677492064 -->
<g id="node35" class="node">
<title>140434677492064</title>
<polygon fill="white" stroke="black" points="999.01,-183 908.71,-183 908.71,-147 999.01,-147 999.01,-183"/>
<text text-anchor="middle" x="953.86" y="-161.4" font-family="Times,serif" font-size="12.00">O_SELECTED</text>
</g>
<!-- 140434677491152 -->
<g id="node50" class="node">
<title>140434677491152</title>
<ellipse fill="white" stroke="black" cx="1063.51" cy="-165" rx="27" ry="27"/>
</g>
<!-- 140434677492064&#45;&gt;140434677491152 -->
<g id="edge14" class="edge">
<title>140434677492064&#45;&gt;140434677491152</title>
<path fill="none" stroke="black" d="M999.27,-165C1008.24,-165 1017.58,-165 1026.24,-165"/>
<polygon fill="black" stroke="black" points="1026.39,-168.5 1036.39,-165 1026.39,-161.5 1026.39,-168.5"/>
</g>
<!-- 140434677569760 -->
<g id="node36" class="node">
<title>140434677569760</title>
<polygon fill="black" stroke="black" points="315.28,-396 261.28,-396 261.28,-360 315.28,-360 315.28,-396"/>
</g>
<!-- 140434677569760&#45;&gt;140434678132144 -->
<g id="edge72" class="edge">
<title>140434677569760&#45;&gt;140434678132144</title>
<path fill="none" stroke="black" d="M315.42,-371.04C380.6,-354.94 554.91,-319.51 691.21,-361 740.39,-375.97 788.12,-412.76 816.59,-437.81"/>
<polygon fill="black" stroke="black" points="814.31,-440.47 824.09,-444.53 818.98,-435.25 814.31,-440.47"/>
</g>
<!-- 140434677712608 -->
<g id="node37" class="node">
<title>140434677712608</title>
<polygon fill="black" stroke="black" points="980.86,-470 926.86,-470 926.86,-434 980.86,-434 980.86,-470"/>
</g>
<!-- 140434677712608&#45;&gt;140434677712176 -->
<g id="edge23" class="edge">
<title>140434677712608&#45;&gt;140434677712176</title>
<path fill="none" stroke="black" d="M980.92,-446.43C994.77,-443.47 1012,-439.79 1027.06,-436.57"/>
<polygon fill="black" stroke="black" points="1028.02,-439.95 1037.06,-434.44 1026.55,-433.1 1028.02,-439.95"/>
</g>
<!-- 140434688173808 -->
<g id="node38" class="node">
<title>140434688173808</title>
<polygon fill="white" stroke="black" points="2473.1,-126 2373.46,-126 2373.46,-90 2473.1,-90 2473.1,-126"/>
<text text-anchor="middle" x="2423.28" y="-104.4" font-family="Times,serif" font-size="12.00">A_SUBMITTED</text>
</g>
<!-- 140434678125760 -->
<g id="node64" class="node">
<title>140434678125760</title>
<ellipse fill="white" stroke="black" cx="2535.94" cy="-173" rx="27" ry="27"/>
</g>
<!-- 140434688173808&#45;&gt;140434678125760 -->
<g id="edge16" class="edge">
<title>140434688173808&#45;&gt;140434678125760</title>
<path fill="none" stroke="black" d="M2455.1,-126.11C2470.14,-134.94 2488.21,-145.55 2503.35,-154.45"/>
<polygon fill="black" stroke="black" points="2501.95,-157.68 2512.35,-159.73 2505.5,-151.65 2501.95,-157.68"/>
</g>
<!-- 140434677492976 -->
<g id="node39" class="node">
<title>140434677492976</title>
<polygon fill="white" stroke="black" points="1232.97,-140 1146.99,-140 1146.99,-104 1232.97,-104 1232.97,-140"/>
<text text-anchor="middle" x="1189.98" y="-118.4" font-family="Times,serif" font-size="12.00">O_CREATED</text>
</g>
<!-- 140434677492976&#45;&gt;140434677493360 -->
<g id="edge4" class="edge">
<title>140434677492976&#45;&gt;140434677493360</title>
<path fill="none" stroke="black" d="M1233.12,-122C1255.12,-122 1281.78,-122 1302.9,-122"/>
<polygon fill="black" stroke="black" points="1303.08,-125.5 1313.08,-122 1303.08,-118.5 1303.08,-125.5"/>
</g>
<!-- 140434677714384 -->
<g id="node40" class="node">
<title>140434677714384</title>
<polygon fill="white" stroke="black" points="1253.42,-397 1126.54,-397 1126.54,-361 1253.42,-361 1253.42,-397"/>
<text text-anchor="middle" x="1189.98" y="-375.4" font-family="Times,serif" font-size="12.00">W_Valideren aanvraag</text>
</g>
<!-- 140434677713376 -->
<g id="node66" class="node">
<title>140434677713376</title>
<ellipse fill="white" stroke="black" cx="1340.44" cy="-374" rx="27" ry="27"/>
</g>
<!-- 140434677714384&#45;&gt;140434677713376 -->
<g id="edge18" class="edge">
<title>140434677714384&#45;&gt;140434677713376</title>
<path fill="none" stroke="black" d="M1253.51,-376.89C1270.34,-376.33 1288,-375.73 1302.9,-375.23"/>
<polygon fill="black" stroke="black" points="1303.33,-378.72 1313.21,-374.88 1303.1,-371.72 1303.33,-378.72"/>
</g>
<!-- 140440298647680 -->
<g id="node41" class="node">
<title>140440298647680</title>
<ellipse fill="white" stroke="black" cx="2310.62" cy="-93" rx="27" ry="27"/>
<text text-anchor="start" x="2297.87" y="-82.8" font-family="Times,serif" font-size="34.00">●</text>
</g>
<!-- 140440298647680&#45;&gt;140434688173808 -->
<g id="edge80" class="edge">
<title>140440298647680&#45;&gt;140434688173808</title>
<path fill="none" stroke="black" d="M2337.57,-96.52C2345.36,-97.57 2354.26,-98.78 2363.28,-100"/>
<polygon fill="black" stroke="black" points="2363.1,-103.51 2373.48,-101.38 2364.04,-96.57 2363.1,-103.51"/>
</g>
<!-- 140434678133200&#45;&gt;140434678134832 -->
<g id="edge24" class="edge">
<title>140434678133200&#45;&gt;140434678134832</title>
<path fill="none" stroke="black" d="M423.32,-273.32C431.16,-271.89 440.23,-270.24 449.69,-268.51"/>
<polygon fill="black" stroke="black" points="450.45,-271.93 459.67,-266.7 449.2,-265.05 450.45,-271.93"/>
</g>
<!-- 140434678133968&#45;&gt;140434678131856 -->
<g id="edge26" class="edge">
<title>140434678133968&#45;&gt;140434678131856</title>
<path fill="none" stroke="black" d="M691.13,-251.13C725.76,-253.79 789.06,-258 843.21,-258 843.21,-258 843.21,-258 2190.48,-258 2259.59,-258 2340.29,-258 2385.93,-258"/>
<polygon fill="black" stroke="black" points="2386.21,-261.5 2396.21,-258 2386.21,-254.5 2386.21,-261.5"/>
</g>
<!-- 140434678133968&#45;&gt;140434678135648 -->
<g id="edge25" class="edge">
<title>140434678133968&#45;&gt;140434678135648</title>
<path fill="none" stroke="black" d="M687.41,-262.88C696.8,-268.75 707.96,-275.72 718.4,-282.24"/>
<polygon fill="black" stroke="black" points="716.6,-285.25 726.94,-287.58 720.31,-279.31 716.6,-285.25"/>
</g>
<!-- 140434677482656&#45;&gt;140434677484576 -->
<g id="edge27" class="edge">
<title>140434677482656&#45;&gt;140434677484576</title>
<path fill="none" stroke="black" d="M423.64,-184.83C438.06,-183.62 456.57,-182.08 474.05,-180.62"/>
<polygon fill="black" stroke="black" points="474.52,-184.09 484.19,-179.77 473.94,-177.12 474.52,-184.09"/>
</g>
<!-- 140434677483952&#45;&gt;140434677485584 -->
<g id="edge29" class="edge">
<title>140434677483952&#45;&gt;140434677485584</title>
<path fill="none" stroke="black" d="M679.99,-149.04C707.36,-111.26 769.91,-38 843.21,-38 843.21,-38 843.21,-38 954.86,-38 1024.86,-38 1106.55,-42.07 1152.57,-44.73"/>
<polygon fill="black" stroke="black" points="1152.47,-48.23 1162.66,-45.33 1152.88,-41.25 1152.47,-48.23"/>
</g>
<!-- 140434677483952&#45;&gt;140434677487648 -->
<g id="edge30" class="edge">
<title>140434677483952&#45;&gt;140434677487648</title>
<path fill="none" stroke="black" d="M691.61,-169.2C699.6,-168.66 708.52,-168.05 717.03,-167.47"/>
<polygon fill="black" stroke="black" points="717.39,-170.95 727.13,-166.78 716.91,-163.97 717.39,-170.95"/>
</g>
<!-- 140434677483952&#45;&gt;140434677486688 -->
<g id="edge28" class="edge">
<title>140434677483952&#45;&gt;140434677486688</title>
<path fill="none" stroke="black" d="M689.11,-182C722.74,-196.44 786.31,-220 843.21,-220 843.21,-220 843.21,-220 1064.51,-220 1138.48,-220 1223.56,-216.34 1279.24,-213.45"/>
<polygon fill="black" stroke="black" points="1279.49,-216.94 1289.29,-212.92 1279.12,-209.95 1279.49,-216.94"/>
</g>
<!-- 140434677485008&#45;&gt;140434677564240 -->
<g id="edge31" class="edge">
<title>140434677485008&#45;&gt;140434677564240</title>
<path fill="none" stroke="black" d="M1879.1,-148C1887.09,-148 1896.01,-148 1904.53,-148"/>
<polygon fill="black" stroke="black" points="1904.62,-151.5 1914.62,-148 1904.62,-144.5 1904.62,-151.5"/>
</g>
<!-- 140434677488656&#45;&gt;140434677490096 -->
<g id="edge32" class="edge">
<title>140434677488656&#45;&gt;140434677490096</title>
<path fill="none" stroke="black" d="M871.27,-93C879.04,-93 887.88,-93 896.81,-93"/>
<polygon fill="black" stroke="black" points="896.86,-96.5 906.86,-93 896.86,-89.5 896.86,-96.5"/>
</g>
<!-- 140434677489328&#45;&gt;140434677492976 -->
<g id="edge33" class="edge">
<title>140434677489328&#45;&gt;140434677492976</title>
<path fill="none" stroke="black" d="M1090,-98.94C1103.55,-102.09 1120.71,-106.09 1136.93,-109.87"/>
<polygon fill="black" stroke="black" points="1136.33,-113.33 1146.86,-112.19 1137.92,-106.51 1136.33,-113.33"/>
</g>
<!-- 140434677490624&#45;&gt;140434677492064 -->
<g id="edge34" class="edge">
<title>140434677490624&#45;&gt;140434677492064</title>
<path fill="none" stroke="black" d="M871.27,-165C879.49,-165 888.91,-165 898.35,-165"/>
<polygon fill="black" stroke="black" points="898.56,-168.5 908.56,-165 898.56,-161.5 898.56,-168.5"/>
</g>
<!-- 140434677491152&#45;&gt;140434677492976 -->
<g id="edge35" class="edge">
<title>140434677491152&#45;&gt;140434677492976</title>
<path fill="none" stroke="black" d="M1089.4,-156.4C1103.16,-151.65 1120.78,-145.56 1137.37,-139.83"/>
<polygon fill="black" stroke="black" points="1138.67,-143.08 1146.98,-136.51 1136.38,-136.47 1138.67,-143.08"/>
</g>
<!-- 140434677493360&#45;&gt;140434677495472 -->
<g id="edge36" class="edge">
<title>140434677493360&#45;&gt;140434677495472</title>
<path fill="none" stroke="black" d="M1367.03,-126.88C1381.87,-129.71 1400.86,-133.34 1417.54,-136.52"/>
<polygon fill="black" stroke="black" points="1417.1,-140 1427.58,-138.43 1418.41,-133.12 1417.1,-140"/>
</g>
<!-- 140434677494464&#45;&gt;140434677497344 -->
<g id="edge38" class="edge">
<title>140434677494464&#45;&gt;140434677497344</title>
<path fill="none" stroke="black" d="M1578.26,-148C1602.04,-148 1637.37,-148 1663.92,-148"/>
<polygon fill="black" stroke="black" points="1663.98,-151.5 1673.98,-148 1663.98,-144.5 1663.98,-151.5"/>
</g>
<!-- 140434677494464&#45;&gt;140434677496528 -->
<g id="edge37" class="edge">
<title>140434677494464&#45;&gt;140434677496528</title>
<path fill="none" stroke="black" d="M1575.98,-136.88C1587.4,-131.75 1601.33,-125.76 1614.09,-121 1630.38,-114.92 1648.72,-109.05 1664.3,-104.35"/>
<polygon fill="black" stroke="black" points="1665.5,-107.64 1674.09,-101.43 1663.5,-100.93 1665.5,-107.64"/>
</g>
<!-- 140434677485296&#45;&gt;140434677566160 -->
<g id="edge39" class="edge">
<title>140434677485296&#45;&gt;140434677566160</title>
<path fill="none" stroke="black" d="M2075.6,-156.94C2090.59,-162.39 2110.45,-169.62 2129.33,-176.48"/>
<polygon fill="black" stroke="black" points="2128.19,-179.79 2138.78,-179.92 2130.58,-173.22 2128.19,-179.79"/>
</g>
<!-- 140434677565056&#45;&gt;140434678131856 -->
<g id="edge41" class="edge">
<title>140434677565056&#45;&gt;140434678131856</title>
<path fill="none" stroke="black" d="M2335.09,-214.66C2350.19,-222.17 2370.08,-232.06 2387.05,-240.49"/>
<polygon fill="black" stroke="black" points="2385.62,-243.69 2396.13,-245 2388.74,-237.42 2385.62,-243.69"/>
</g>
<!-- 140434677565056&#45;&gt;140434677567312 -->
<g id="edge40" class="edge">
<title>140434677565056&#45;&gt;140434677567312</title>
<path fill="none" stroke="black" d="M2337.01,-196.81C2351.56,-193.26 2370.07,-188.74 2386.12,-184.82"/>
<polygon fill="black" stroke="black" points="2387.36,-188.12 2396.24,-182.35 2385.7,-181.32 2387.36,-188.12"/>
</g>
<!-- 140434678132144&#45;&gt;140434677712608 -->
<g id="edge42" class="edge">
<title>140434678132144&#45;&gt;140434677712608</title>
<path fill="none" stroke="black" d="M871.27,-460.34C884.79,-458.96 901.52,-457.25 916.31,-455.73"/>
<polygon fill="black" stroke="black" points="917.07,-459.17 926.67,-454.68 916.36,-452.21 917.07,-459.17"/>
</g>
<!-- 140434677572064&#45;&gt;140434677573840 -->
<g id="edge43" class="edge">
<title>140434677572064&#45;&gt;140434677573840</title>
<path fill="none" stroke="black" d="M423.64,-469C438.06,-469 456.57,-469 474.05,-469"/>
<polygon fill="black" stroke="black" points="474.19,-472.5 484.19,-469 474.19,-465.5 474.19,-472.5"/>
</g>
<!-- 140434677572880&#45;&gt;140434677571536 -->
<g id="edge44" class="edge">
<title>140434677572880&#45;&gt;140434677571536</title>
<path fill="none" stroke="black" d="M691.61,-469C699.6,-469 708.52,-469 717.03,-469"/>
<polygon fill="black" stroke="black" points="717.13,-472.5 727.13,-469 717.13,-465.5 717.13,-472.5"/>
</g>
<!-- 140434677574272&#45;&gt;140434677576000 -->
<g id="edge45" class="edge">
<title>140434677574272&#45;&gt;140434677576000</title>
<path fill="none" stroke="black" d="M423.64,-397C437.87,-397 456.08,-397 473.37,-397"/>
<polygon fill="black" stroke="black" points="473.4,-400.5 483.4,-397 473.4,-393.5 473.4,-400.5"/>
</g>
<!-- 140434677575040&#45;&gt;140434677571536 -->
<g id="edge46" class="edge">
<title>140434677575040&#45;&gt;140434677571536</title>
<path fill="none" stroke="black" d="M685.62,-413.7C696.78,-422.83 710.82,-434.32 723.2,-444.45"/>
<polygon fill="black" stroke="black" points="721.1,-447.25 731.06,-450.88 725.53,-441.84 721.1,-447.25"/>
</g>
<!-- 140434677576432&#45;&gt;140434677578304 -->
<g id="edge47" class="edge">
<title>140434677576432&#45;&gt;140434677578304</title>
<path fill="none" stroke="black" d="M423.64,-613C436.44,-613 452.45,-613 468.12,-613"/>
<polygon fill="black" stroke="black" points="468.32,-616.5 478.32,-613 468.32,-609.5 468.32,-616.5"/>
</g>
<!-- 140434677577248&#45;&gt;140434677571536 -->
<g id="edge48" class="edge">
<title>140434677577248&#45;&gt;140434677571536</title>
<path fill="none" stroke="black" d="M681.25,-591.55C684.63,-586.82 688.11,-581.79 691.21,-577 708.55,-550.14 726.54,-518.28 738.65,-496.15"/>
<polygon fill="black" stroke="black" points="741.76,-497.76 743.46,-487.31 735.61,-494.42 741.76,-497.76"/>
</g>
<!-- 140434677578640&#45;&gt;140434677711552 -->
<g id="edge49" class="edge">
<title>140434677578640&#45;&gt;140434677711552</title>
<path fill="none" stroke="black" d="M423.64,-541C437.12,-541 454.17,-541 470.61,-541"/>
<polygon fill="black" stroke="black" points="470.74,-544.5 480.74,-541 470.74,-537.5 470.74,-544.5"/>
</g>
<!-- 140434677579456&#45;&gt;140434677571536 -->
<g id="edge50" class="edge">
<title>140434677579456&#45;&gt;140434677571536</title>
<path fill="none" stroke="black" d="M685.62,-524.3C696.78,-515.17 710.82,-503.68 723.2,-493.55"/>
<polygon fill="black" stroke="black" points="725.53,-496.16 731.06,-487.12 721.1,-490.75 725.53,-496.16"/>
</g>
<!-- 140434678125760&#45;&gt;140434678127056 -->
<g id="edge51" class="edge">
<title>140434678125760&#45;&gt;140434678127056</title>
<path fill="none" stroke="black" d="M2563.09,-173C2570.75,-173 2579.57,-173 2588.79,-173"/>
<polygon fill="black" stroke="black" points="2588.91,-176.5 2598.91,-173 2588.91,-169.5 2588.91,-176.5"/>
</g>
<!-- 140434677712176&#45;&gt;140434677714384 -->
<g id="edge52" class="edge">
<title>140434677712176&#45;&gt;140434677714384</title>
<path fill="none" stroke="black" d="M1088.81,-419.24C1101.93,-413.97 1118.71,-407.23 1134.76,-400.78"/>
<polygon fill="black" stroke="black" points="1136.11,-404.01 1144.09,-397.03 1133.5,-397.51 1136.11,-404.01"/>
</g>
<!-- 140434677713376&#45;&gt;140434677715728 -->
<g id="edge53" class="edge">
<title>140434677713376&#45;&gt;140434677715728</title>
<path fill="none" stroke="black" d="M1365.33,-384.98C1381.51,-392.42 1403.17,-402.37 1421.34,-410.72"/>
<polygon fill="black" stroke="black" points="1419.93,-413.93 1430.48,-414.92 1422.86,-407.57 1419.93,-413.93"/>
</g>
<!-- 140434677713376&#45;&gt;140434677716544 -->
<g id="edge54" class="edge">
<title>140434677713376&#45;&gt;140434677716544</title>
<path fill="none" stroke="black" d="M1367.61,-373.32C1383.23,-372.91 1403.32,-372.39 1420.46,-371.94"/>
<polygon fill="black" stroke="black" points="1420.79,-375.44 1430.69,-371.68 1420.6,-368.44 1420.79,-375.44"/>
</g>
<!-- 140434677717600&#45;&gt;140434677719616 -->
<g id="edge55" class="edge">
<title>140434677717600&#45;&gt;140434677719616</title>
<path fill="none" stroke="black" d="M1576.91,-361.46C1593.72,-355.68 1616.71,-347.78 1638.31,-340.35"/>
<polygon fill="black" stroke="black" points="1639.46,-343.66 1647.78,-337.09 1637.18,-337.04 1639.46,-343.66"/>
</g>
<!-- 140434677718656&#45;&gt;140434677720720 -->
<g id="edge56" class="edge">
<title>140434677718656&#45;&gt;140434677720720</title>
<path fill="none" stroke="black" d="M1875.36,-328.13C1884.66,-333.52 1895.63,-339.88 1905.9,-345.83"/>
<polygon fill="black" stroke="black" points="1904.28,-348.94 1914.69,-350.92 1907.79,-342.88 1904.28,-348.94"/>
</g>
<!-- 140434677718656&#45;&gt;140434677721536 -->
<g id="edge57" class="edge">
<title>140434677718656&#45;&gt;140434677721536</title>
<path fill="none" stroke="black" d="M1878.77,-314.53C1938.15,-313.47 2083.61,-310.87 2151.92,-309.65"/>
<polygon fill="black" stroke="black" points="2152.26,-313.15 2162.2,-309.47 2152.14,-306.15 2152.26,-313.15"/>
</g>
<!-- 140434678127200&#45;&gt;140434678129456 -->
<g id="edge59" class="edge">
<title>140434678127200&#45;&gt;140434678129456</title>
<path fill="none" stroke="black" d="M2837.84,-197.5C2849.04,-201.31 2862.81,-206.01 2876.55,-210.69"/>
<polygon fill="black" stroke="black" points="2875.42,-214.01 2886.02,-213.92 2877.68,-207.38 2875.42,-214.01"/>
</g>
<!-- 140434678127200&#45;&gt;140434678130512 -->
<g id="edge58" class="edge">
<title>140434678127200&#45;&gt;140434678130512</title>
<path fill="none" stroke="black" d="M2837.84,-180.5C2849.04,-176.69 2862.81,-171.99 2876.55,-167.31"/>
<polygon fill="black" stroke="black" points="2877.68,-170.62 2886.02,-164.08 2875.42,-163.99 2877.68,-170.62"/>
</g>
<!-- 140434678127920&#45;&gt;140434677723024 -->
<g id="edge60" class="edge">
<title>140434678127920&#45;&gt;140434677723024</title>
<path fill="none" stroke="black" d="M2560.96,-270.19C2572.4,-265.13 2586.32,-259.11 2598.94,-254 2610.73,-249.22 2623.72,-244.26 2635.38,-239.91"/>
<polygon fill="black" stroke="black" points="2636.65,-243.18 2644.81,-236.42 2634.22,-236.61 2636.65,-243.18"/>
</g>
<!-- 140434678127920&#45;&gt;140434677723792 -->
<g id="edge61" class="edge">
<title>140434678127920&#45;&gt;140434677723792</title>
<path fill="none" stroke="black" d="M2563.09,-281C2583.47,-281 2612.01,-281 2634.61,-281"/>
<polygon fill="black" stroke="black" points="2634.84,-284.5 2644.84,-281 2634.84,-277.5 2634.84,-284.5"/>
</g>
<!-- 140434678128496&#45;&gt;140434678131328 -->
<g id="edge62" class="edge">
<title>140434678128496&#45;&gt;140434678131328</title>
<path fill="none" stroke="black" d="M187.31,-531.01C195.63,-560.19 212.84,-607.32 242.95,-637 295.98,-689.26 321.15,-706 395.6,-706 395.6,-706 395.6,-706 1852.7,-706 1917.38,-706 1983.14,-663.71 2019.75,-635.56"/>
<polygon fill="black" stroke="black" points="2022.28,-638.02 2027.98,-629.09 2017.96,-632.52 2022.28,-638.02"/>
</g>
<!-- 140434678128496&#45;&gt;140434677570816 -->
<g id="edge63" class="edge">
<title>140434678128496&#45;&gt;140434677570816</title>
<path fill="none" stroke="black" d="M199.96,-523.77C217.15,-540.75 242.6,-565.88 261.6,-584.64"/>
<polygon fill="black" stroke="black" points="259.21,-587.21 268.79,-591.74 264.13,-582.23 259.21,-587.21"/>
</g>
<!-- 140434678128496&#45;&gt;140434678131472 -->
<g id="edge66" class="edge">
<title>140434678128496&#45;&gt;140434678131472</title>
<path fill="none" stroke="black" d="M189.72,-479.64C200.76,-448.66 220.95,-394.94 242.95,-351 250.83,-335.27 260.92,-318.45 269.49,-304.92"/>
<polygon fill="black" stroke="black" points="272.67,-306.44 275.13,-296.13 266.78,-302.66 272.67,-306.44"/>
</g>
<!-- 140434678128496&#45;&gt;140434677571152 -->
<g id="edge65" class="edge">
<title>140434678128496&#45;&gt;140434677571152</title>
<path fill="none" stroke="black" d="M206.96,-505C220.22,-505 236.56,-505 251.03,-505"/>
<polygon fill="black" stroke="black" points="251.17,-508.5 261.17,-505 251.17,-501.5 251.17,-508.5"/>
</g>
<!-- 140434678128496&#45;&gt;140434677569760 -->
<g id="edge64" class="edge">
<title>140434678128496&#45;&gt;140434677569760</title>
<path fill="none" stroke="black" d="M198.04,-484.6C216.31,-462.77 245.35,-428.08 265.31,-404.24"/>
<polygon fill="black" stroke="black" points="268.23,-406.21 271.96,-396.29 262.86,-401.71 268.23,-406.21"/>
</g>
<!-- 140434678129696&#45;&gt;140434678130944 -->
<g id="edge67" class="edge">
<title>140434678129696&#45;&gt;140434678130944</title>
<path fill="none" stroke="black" d="M3039.21,-53.57C2995.23,-35.44 2898.35,0 2812.91,0 287.28,0 287.28,0 287.28,0 173.42,0 98.01,-144 70.8,-206.07"/>
<polygon fill="black" stroke="black" points="67.42,-205.07 66.7,-215.64 73.85,-207.82 67.42,-205.07"/>
</g>
</g>
</svg>
