<?xml version="1.0" encoding="UTF-8" standalone="no"?>
<!DOCTYPE svg PUBLIC "-//W3C//DTD SVG 1.1//EN"
 "http://www.w3.org/Graphics/SVG/1.1/DTD/svg11.dtd">
<!-- Generated by graphviz version 2.48.0 (0)
 -->
<!-- Title: imdf_net_1720947011.4767559 Pages: 1 -->
<svg width="2564pt" height="264pt"
 viewBox="0.00 0.00 2564.00 264.00" xmlns="http://www.w3.org/2000/svg" xmlns:xlink="http://www.w3.org/1999/xlink">
<g id="graph0" class="graph" transform="scale(1 1) rotate(0) translate(4 260)">
<title>imdf_net_1720947011.4767559</title>
<polygon fill="white" stroke="transparent" points="-4,4 -4,-260 2560,-260 2560,4 -4,4"/>
<!-- 140325813986048 -->
<g id="node1" class="node">
<title>140325813986048</title>
<polygon fill="white" stroke="black" points="560,-231 483,-231 483,-195 560,-195 560,-231"/>
<text text-anchor="middle" x="521.5" y="-209.9" font-family="Times,serif" font-size="12.00">Send Fine</text>
</g>
<!-- 140325813984992 -->
<g id="node21" class="node">
<title>140325813984992</title>
<ellipse fill="white" stroke="black" cx="623" cy="-218" rx="27" ry="27"/>
</g>
<!-- 140325813986048&#45;&gt;140325813984992 -->
<g id="edge9" class="edge">
<title>140325813986048&#45;&gt;140325813984992</title>
<path fill="none" stroke="black" d="M560.12,-214.89C568.47,-215.31 577.32,-215.75 585.63,-216.17"/>
<polygon fill="black" stroke="black" points="585.62,-219.68 595.78,-216.68 585.97,-212.69 585.62,-219.68"/>
</g>
<!-- 140325813988736 -->
<g id="node2" class="node">
<title>140325813988736</title>
<polygon fill="black" stroke="black" points="2398,-139 2344,-139 2344,-103 2398,-103 2398,-139"/>
</g>
<!-- 140326895302560 -->
<g id="node32" class="node">
<title>140326895302560</title>
<ellipse fill="white" stroke="black" cx="2525" cy="-67" rx="27" ry="27"/>
<ellipse fill="none" stroke="black" cx="2525" cy="-67" rx="31" ry="31"/>
<text text-anchor="start" x="2509.5" y="-58.9" font-family="Times,serif" font-size="32.00">■</text>
</g>
<!-- 140325813988736&#45;&gt;140326895302560 -->
<g id="edge31" class="edge">
<title>140325813988736&#45;&gt;140326895302560</title>
<path fill="none" stroke="black" d="M2398.16,-113.41C2415.3,-108.29 2438.13,-101.17 2458,-94 2467.42,-90.6 2477.48,-86.65 2486.83,-82.84"/>
<polygon fill="black" stroke="black" points="2488.35,-86 2496.26,-78.95 2485.68,-79.53 2488.35,-86"/>
</g>
<!-- 140325814090256 -->
<g id="node3" class="node">
<title>140325814090256</title>
<polygon fill="white" stroke="black" points="177,-65 90,-65 90,-29 177,-29 177,-65"/>
<text text-anchor="middle" x="133.5" y="-43.9" font-family="Times,serif" font-size="12.00">Create Fine</text>
</g>
<!-- 140325816379456 -->
<g id="node28" class="node">
<title>140325816379456</title>
<ellipse fill="white" stroke="black" cx="240" cy="-47" rx="27" ry="27"/>
</g>
<!-- 140325814090256&#45;&gt;140325816379456 -->
<g id="edge10" class="edge">
<title>140325814090256&#45;&gt;140325816379456</title>
<path fill="none" stroke="black" d="M177,-47C185.51,-47 194.37,-47 202.64,-47"/>
<polygon fill="black" stroke="black" points="202.73,-50.5 212.73,-47 202.73,-43.5 202.73,-50.5"/>
</g>
<!-- 140325814089104 -->
<g id="node4" class="node">
<title>140325814089104</title>
<polygon fill="black" stroke="black" points="2158,-139 2104,-139 2104,-103 2158,-103 2158,-139"/>
</g>
<!-- 140325814086128 -->
<g id="node29" class="node">
<title>140325814086128</title>
<ellipse fill="white" stroke="black" cx="2221" cy="-121" rx="27" ry="27"/>
</g>
<!-- 140325814089104&#45;&gt;140325814086128 -->
<g id="edge34" class="edge">
<title>140325814089104&#45;&gt;140325814086128</title>
<path fill="none" stroke="black" d="M2158.4,-121C2166.39,-121 2175.31,-121 2183.82,-121"/>
<polygon fill="black" stroke="black" points="2183.92,-124.5 2193.92,-121 2183.92,-117.5 2183.92,-124.5"/>
</g>
<!-- 140325813984656 -->
<g id="node5" class="node">
<title>140325813984656</title>
<polygon fill="white" stroke="black" points="1082,-181 970,-181 970,-145 1082,-145 1082,-181"/>
<text text-anchor="middle" x="1026" y="-159.9" font-family="Times,serif" font-size="12.00">Appeal to Judge</text>
</g>
<!-- 140325813983792 -->
<g id="node20" class="node">
<title>140325813983792</title>
<ellipse fill="white" stroke="black" cx="1145" cy="-178" rx="27" ry="27"/>
</g>
<!-- 140325813984656&#45;&gt;140325813983792 -->
<g id="edge1" class="edge">
<title>140325813984656&#45;&gt;140325813983792</title>
<path fill="none" stroke="black" d="M1082.07,-170.06C1090.91,-171.19 1099.85,-172.34 1108.08,-173.4"/>
<polygon fill="black" stroke="black" points="1107.71,-176.88 1118.07,-174.68 1108.6,-169.93 1107.71,-176.88"/>
</g>
<!-- 140325814277648 -->
<g id="node6" class="node">
<title>140325814277648</title>
<polygon fill="white" stroke="black" points="2458,-85 2284,-85 2284,-49 2458,-49 2458,-85"/>
<text text-anchor="middle" x="2371" y="-63.9" font-family="Times,serif" font-size="12.00">Send for Credit Collection</text>
</g>
<!-- 140325814277648&#45;&gt;140326895302560 -->
<g id="edge2" class="edge">
<title>140325814277648&#45;&gt;140326895302560</title>
<path fill="none" stroke="black" d="M2458.21,-67C2467.07,-67 2475.73,-67 2483.71,-67"/>
<polygon fill="black" stroke="black" points="2483.78,-70.5 2493.78,-67 2483.78,-63.5 2483.78,-70.5"/>
</g>
<!-- 140325813980192 -->
<g id="node7" class="node">
<title>140325813980192</title>
<polygon fill="white" stroke="black" points="555.5,-93 487.5,-93 487.5,-57 555.5,-57 555.5,-93"/>
<text text-anchor="middle" x="521.5" y="-71.9" font-family="Times,serif" font-size="12.00">Payment</text>
</g>
<!-- 140325813979136 -->
<g id="node31" class="node">
<title>140325813979136</title>
<ellipse fill="white" stroke="black" cx="623" cy="-70" rx="27" ry="27"/>
</g>
<!-- 140325813980192&#45;&gt;140325813979136 -->
<g id="edge7" class="edge">
<title>140325813980192&#45;&gt;140325813979136</title>
<path fill="none" stroke="black" d="M555.63,-73.34C565.26,-72.85 575.83,-72.32 585.65,-71.83"/>
<polygon fill="black" stroke="black" points="586.12,-75.31 595.93,-71.31 585.77,-68.32 586.12,-75.31"/>
</g>
<!-- 140325814090928 -->
<g id="node8" class="node">
<title>140325814090928</title>
<polygon fill="black" stroke="black" points="357,-99 303,-99 303,-63 357,-63 357,-99"/>
</g>
<!-- 140325813982736 -->
<g id="node19" class="node">
<title>140325813982736</title>
<ellipse fill="white" stroke="black" cx="420" cy="-163" rx="27" ry="27"/>
</g>
<!-- 140325814090928&#45;&gt;140325813982736 -->
<g id="edge35" class="edge">
<title>140325814090928&#45;&gt;140325813982736</title>
<path fill="none" stroke="black" d="M350.53,-99.2C362.72,-110.56 378.59,-125.34 391.97,-137.82"/>
<polygon fill="black" stroke="black" points="389.82,-140.6 399.52,-144.85 394.59,-135.47 389.82,-140.6"/>
</g>
<!-- 140325813978368 -->
<g id="node30" class="node">
<title>140325813978368</title>
<ellipse fill="white" stroke="black" cx="420" cy="-81" rx="27" ry="27"/>
</g>
<!-- 140325814090928&#45;&gt;140325813978368 -->
<g id="edge36" class="edge">
<title>140325814090928&#45;&gt;140325813978368</title>
<path fill="none" stroke="black" d="M357.4,-81C365.39,-81 374.31,-81 382.82,-81"/>
<polygon fill="black" stroke="black" points="382.92,-84.5 392.92,-81 382.92,-77.5 382.92,-84.5"/>
</g>
<!-- 140325814274096 -->
<g id="node9" class="node">
<title>140325814274096</title>
<polygon fill="white" stroke="black" points="1978,-139 1765,-139 1765,-103 1978,-103 1978,-139"/>
<text text-anchor="middle" x="1871.5" y="-117.9" font-family="Times,serif" font-size="12.00">Notify Result Appeal to Offender</text>
</g>
<!-- 140325813992864 -->
<g id="node26" class="node">
<title>140325813992864</title>
<ellipse fill="white" stroke="black" cx="2041" cy="-121" rx="27" ry="27"/>
</g>
<!-- 140325814274096&#45;&gt;140325813992864 -->
<g id="edge6" class="edge">
<title>140325814274096&#45;&gt;140325813992864</title>
<path fill="none" stroke="black" d="M1978.11,-121C1987.18,-121 1995.88,-121 2003.75,-121"/>
<polygon fill="black" stroke="black" points="2003.92,-124.5 2013.92,-121 2003.92,-117.5 2003.92,-124.5"/>
</g>
<!-- 140325813990848 -->
<g id="node10" class="node">
<title>140325813990848</title>
<polygon fill="black" stroke="black" points="1540.5,-256 1486.5,-256 1486.5,-220 1540.5,-220 1540.5,-256"/>
</g>
<!-- 140325813989504 -->
<g id="node24" class="node">
<title>140325813989504</title>
<ellipse fill="white" stroke="black" cx="1702" cy="-193" rx="27" ry="27"/>
</g>
<!-- 140325813990848&#45;&gt;140325813989504 -->
<g id="edge30" class="edge">
<title>140325813990848&#45;&gt;140325813989504</title>
<path fill="none" stroke="black" d="M1540.85,-232.83C1566.14,-227.75 1605.34,-219.53 1639,-211 1647.92,-208.74 1657.5,-206.08 1666.39,-203.51"/>
<polygon fill="black" stroke="black" points="1667.46,-206.84 1676.07,-200.66 1665.49,-200.12 1667.46,-206.84"/>
</g>
<!-- 140325814277072 -->
<g id="node11" class="node">
<title>140325814277072</title>
<polygon fill="white" stroke="black" points="1620,-139 1407,-139 1407,-103 1620,-103 1620,-139"/>
<text text-anchor="middle" x="1513.5" y="-117.9" font-family="Times,serif" font-size="12.00">Insert Date Appeal to Prefecture</text>
</g>
<!-- 140325814272992 -->
<g id="node27" class="node">
<title>140325814272992</title>
<ellipse fill="white" stroke="black" cx="1702" cy="-121" rx="27" ry="27"/>
</g>
<!-- 140325814277072&#45;&gt;140325814272992 -->
<g id="edge3" class="edge">
<title>140325814277072&#45;&gt;140325814272992</title>
<path fill="none" stroke="black" d="M1620.01,-121C1635.98,-121 1651.46,-121 1664.54,-121"/>
<polygon fill="black" stroke="black" points="1664.91,-124.5 1674.91,-121 1664.91,-117.5 1664.91,-124.5"/>
</g>
<!-- 140325813986768 -->
<g id="node12" class="node">
<title>140325813986768</title>
<polygon fill="white" stroke="black" points="844,-236 686,-236 686,-200 844,-200 844,-236"/>
<text text-anchor="middle" x="765" y="-214.9" font-family="Times,serif" font-size="12.00">Insert Fine Notification</text>
</g>
<!-- 140325813986144 -->
<g id="node22" class="node">
<title>140325813986144</title>
<ellipse fill="white" stroke="black" cx="907" cy="-218" rx="27" ry="27"/>
</g>
<!-- 140325813986768&#45;&gt;140325813986144 -->
<g id="edge5" class="edge">
<title>140325813986768&#45;&gt;140325813986144</title>
<path fill="none" stroke="black" d="M844.19,-218C853.16,-218 861.95,-218 869.95,-218"/>
<polygon fill="black" stroke="black" points="869.98,-221.5 879.98,-218 869.98,-214.5 869.98,-221.5"/>
</g>
<!-- 140325813987536 -->
<g id="node13" class="node">
<title>140325813987536</title>
<polygon fill="white" stroke="black" points="1070.5,-235 981.5,-235 981.5,-199 1070.5,-199 1070.5,-235"/>
<text text-anchor="middle" x="1026" y="-213.9" font-family="Times,serif" font-size="12.00">Add penalty</text>
</g>
<!-- 140325813987536&#45;&gt;140325813983792 -->
<g id="edge8" class="edge">
<title>140325813987536&#45;&gt;140325813983792</title>
<path fill="none" stroke="black" d="M1070.57,-202.48C1083.36,-198.21 1097.17,-193.61 1109.33,-189.56"/>
<polygon fill="black" stroke="black" points="1110.71,-192.79 1119.09,-186.3 1108.5,-186.15 1110.71,-192.79"/>
</g>
<!-- 140325813991760 -->
<g id="node14" class="node">
<title>140325813991760</title>
<polygon fill="white" stroke="black" points="1639,-202 1388,-202 1388,-166 1639,-166 1639,-202"/>
<text text-anchor="middle" x="1513.5" y="-180.9" font-family="Times,serif" font-size="12.00">Receive Result Appeal from Prefecture</text>
</g>
<!-- 140325813991760&#45;&gt;140325813989504 -->
<g id="edge4" class="edge">
<title>140325813991760&#45;&gt;140325813989504</title>
<path fill="none" stroke="black" d="M1639.16,-190.02C1648.31,-190.46 1657.01,-190.88 1664.84,-191.25"/>
<polygon fill="black" stroke="black" points="1664.77,-194.76 1674.93,-191.74 1665.11,-187.76 1664.77,-194.76"/>
</g>
<!-- 140325814091744 -->
<g id="node15" class="node">
<title>140325814091744</title>
<polygon fill="black" stroke="black" points="934,-36 880,-36 880,0 934,0 934,-36"/>
</g>
<!-- 140325814091744&#45;&gt;140326895302560 -->
<g id="edge29" class="edge">
<title>140325814091744&#45;&gt;140326895302560</title>
<path fill="none" stroke="black" d="M934.19,-18.55C977.74,-19.42 1067.79,-21 1144,-21 1144,-21 1144,-21 2222,-21 2327.23,-21 2355.65,-15.57 2458,-40 2467.74,-42.33 2477.92,-45.88 2487.28,-49.65"/>
<polygon fill="black" stroke="black" points="2486.12,-52.96 2496.69,-53.62 2488.83,-46.51 2486.12,-52.96"/>
</g>
<!-- 140325813980912 -->
<g id="node16" class="node">
<title>140325813980912</title>
<polygon fill="black" stroke="black" points="792,-133 738,-133 738,-97 792,-97 792,-133"/>
</g>
<!-- 140325813980912&#45;&gt;140325813978368 -->
<g id="edge32" class="edge">
<title>140325813980912&#45;&gt;140325813978368</title>
<path fill="none" stroke="black" d="M737.76,-116.21C687.72,-117.99 575.38,-119.42 483,-102 473.65,-100.24 463.79,-97.38 454.74,-94.34"/>
<polygon fill="black" stroke="black" points="455.91,-91.04 445.31,-91 453.57,-97.64 455.91,-91.04"/>
</g>
<!-- 140325813984368 -->
<g id="node17" class="node">
<title>140325813984368</title>
<polygon fill="black" stroke="black" points="1262,-196 1208,-196 1208,-160 1262,-160 1262,-196"/>
</g>
<!-- 140325813989072 -->
<g id="node23" class="node">
<title>140325813989072</title>
<ellipse fill="white" stroke="black" cx="1325" cy="-193" rx="27" ry="27"/>
</g>
<!-- 140325813984368&#45;&gt;140325813989072 -->
<g id="edge37" class="edge">
<title>140325813984368&#45;&gt;140325813989072</title>
<path fill="none" stroke="black" d="M1262.4,-182.5C1270.55,-183.89 1279.67,-185.44 1288.34,-186.92"/>
<polygon fill="black" stroke="black" points="1287.78,-190.38 1298.22,-188.61 1288.95,-183.48 1287.78,-190.38"/>
</g>
<!-- 140325813990416 -->
<g id="node25" class="node">
<title>140325813990416</title>
<ellipse fill="white" stroke="black" cx="1325" cy="-121" rx="27" ry="27"/>
</g>
<!-- 140325813984368&#45;&gt;140325813990416 -->
<g id="edge38" class="edge">
<title>140325813984368&#45;&gt;140325813990416</title>
<path fill="none" stroke="black" d="M1262.4,-160.9C1272.11,-154.61 1283.19,-147.43 1293.25,-140.91"/>
<polygon fill="black" stroke="black" points="1295.28,-143.77 1301.77,-135.4 1291.48,-137.9 1295.28,-143.77"/>
</g>
<!-- 140326895302512 -->
<g id="node18" class="node">
<title>140326895302512</title>
<ellipse fill="white" stroke="black" cx="27" cy="-47" rx="27" ry="27"/>
<text text-anchor="start" x="11.5" y="-38.3" font-family="Times,serif" font-size="34.00">●</text>
</g>
<!-- 140326895302512&#45;&gt;140325814090256 -->
<g id="edge33" class="edge">
<title>140326895302512&#45;&gt;140325814090256</title>
<path fill="none" stroke="black" d="M54.1,-47C61.83,-47 70.6,-47 79.4,-47"/>
<polygon fill="black" stroke="black" points="79.68,-50.5 89.68,-47 79.68,-43.5 79.68,-50.5"/>
</g>
<!-- 140325813982736&#45;&gt;140325813986048 -->
<g id="edge12" class="edge">
<title>140325813982736&#45;&gt;140325813986048</title>
<path fill="none" stroke="black" d="M444.33,-174.72C453.66,-179.41 464.74,-184.98 475.52,-190.4"/>
<polygon fill="black" stroke="black" points="473.96,-193.53 484.46,-194.89 477.1,-187.27 473.96,-193.53"/>
</g>
<!-- 140325813982736&#45;&gt;140325813984656 -->
<g id="edge11" class="edge">
<title>140325813982736&#45;&gt;140325813984656</title>
<path fill="none" stroke="black" d="M447.02,-163C485.33,-163 559.19,-163 622,-163 622,-163 622,-163 766,-163 831.97,-163 907.4,-163 959.77,-163"/>
<polygon fill="black" stroke="black" points="959.93,-166.5 969.93,-163 959.93,-159.5 959.93,-166.5"/>
</g>
<!-- 140325813983792&#45;&gt;140325813984368 -->
<g id="edge13" class="edge">
<title>140325813983792&#45;&gt;140325813984368</title>
<path fill="none" stroke="black" d="M1172.4,-178C1180.39,-178 1189.31,-178 1197.82,-178"/>
<polygon fill="black" stroke="black" points="1197.92,-181.5 1207.92,-178 1197.92,-174.5 1197.92,-181.5"/>
</g>
<!-- 140325813984992&#45;&gt;140325813986768 -->
<g id="edge14" class="edge">
<title>140325813984992&#45;&gt;140325813986768</title>
<path fill="none" stroke="black" d="M650,-218C657.61,-218 666.39,-218 675.62,-218"/>
<polygon fill="black" stroke="black" points="675.78,-221.5 685.78,-218 675.78,-214.5 675.78,-221.5"/>
</g>
<!-- 140325813986144&#45;&gt;140325813987536 -->
<g id="edge15" class="edge">
<title>140325813986144&#45;&gt;140325813987536</title>
<path fill="none" stroke="black" d="M934.26,-217.78C945.21,-217.68 958.35,-217.57 971.19,-217.46"/>
<polygon fill="black" stroke="black" points="971.41,-220.96 981.38,-217.37 971.35,-213.96 971.41,-220.96"/>
</g>
<!-- 140325813989072&#45;&gt;140325813990848 -->
<g id="edge17" class="edge">
<title>140325813989072&#45;&gt;140325813990848</title>
<path fill="none" stroke="black" d="M1350.93,-200.66C1362.2,-204.02 1375.72,-207.89 1388,-211 1417.45,-218.46 1451.15,-225.69 1476.05,-230.79"/>
<polygon fill="black" stroke="black" points="1475.65,-234.28 1486.15,-232.83 1477.04,-227.42 1475.65,-234.28"/>
</g>
<!-- 140325813989072&#45;&gt;140325813991760 -->
<g id="edge16" class="edge">
<title>140325813989072&#45;&gt;140325813991760</title>
<path fill="none" stroke="black" d="M1352.33,-191.73C1359.7,-191.37 1368.25,-190.96 1377.5,-190.51"/>
<polygon fill="black" stroke="black" points="1377.95,-194 1387.77,-190.02 1377.62,-187.01 1377.95,-194"/>
</g>
<!-- 140325813989504&#45;&gt;140325814089104 -->
<g id="edge18" class="edge">
<title>140325813989504&#45;&gt;140325814089104</title>
<path fill="none" stroke="black" d="M1728.98,-194.16C1789.88,-196.08 1945.9,-196.41 2068,-157 2077.49,-153.94 2087.12,-149.26 2095.87,-144.28"/>
<polygon fill="black" stroke="black" points="2097.84,-147.18 2104.62,-139.04 2094.24,-141.18 2097.84,-147.18"/>
</g>
<!-- 140325813990416&#45;&gt;140325814277072 -->
<g id="edge19" class="edge">
<title>140325813990416&#45;&gt;140325814277072</title>
<path fill="none" stroke="black" d="M1352.33,-121C1364.55,-121 1380.01,-121 1396.49,-121"/>
<polygon fill="black" stroke="black" points="1396.86,-124.5 1406.86,-121 1396.86,-117.5 1396.86,-124.5"/>
</g>
<!-- 140325813992864&#45;&gt;140325814089104 -->
<g id="edge20" class="edge">
<title>140325813992864&#45;&gt;140325814089104</title>
<path fill="none" stroke="black" d="M2068.4,-121C2076.39,-121 2085.31,-121 2093.82,-121"/>
<polygon fill="black" stroke="black" points="2093.92,-124.5 2103.92,-121 2093.92,-117.5 2093.92,-124.5"/>
</g>
<!-- 140325814272992&#45;&gt;140325814274096 -->
<g id="edge21" class="edge">
<title>140325814272992&#45;&gt;140325814274096</title>
<path fill="none" stroke="black" d="M1729.17,-121C1736.6,-121 1745.21,-121 1754.43,-121"/>
<polygon fill="black" stroke="black" points="1754.66,-124.5 1764.66,-121 1754.66,-117.5 1754.66,-124.5"/>
</g>
<!-- 140325816379456&#45;&gt;140325814090928 -->
<g id="edge23" class="edge">
<title>140325816379456&#45;&gt;140325814090928</title>
<path fill="none" stroke="black" d="M265.51,-56.47C274.12,-59.8 283.97,-63.6 293.31,-67.21"/>
<polygon fill="black" stroke="black" points="292.18,-70.53 302.77,-70.87 294.71,-64 292.18,-70.53"/>
</g>
<!-- 140325816379456&#45;&gt;140325814091744 -->
<g id="edge22" class="edge">
<title>140325816379456&#45;&gt;140325814091744</title>
<path fill="none" stroke="black" d="M266.09,-39.58C300.33,-30.13 363.74,-15 419,-15 419,-15 419,-15 624,-15 712.36,-15 816.28,-16.49 869.92,-17.37"/>
<polygon fill="black" stroke="black" points="869.9,-20.87 879.95,-17.54 870.01,-13.87 869.9,-20.87"/>
</g>
<!-- 140325814086128&#45;&gt;140325813988736 -->
<g id="edge25" class="edge">
<title>140325814086128&#45;&gt;140325813988736</title>
<path fill="none" stroke="black" d="M2248.12,-121C2271.85,-121 2307.11,-121 2333.6,-121"/>
<polygon fill="black" stroke="black" points="2333.64,-124.5 2343.64,-121 2333.64,-117.5 2333.64,-124.5"/>
</g>
<!-- 140325814086128&#45;&gt;140325814277648 -->
<g id="edge24" class="edge">
<title>140325814086128&#45;&gt;140325814277648</title>
<path fill="none" stroke="black" d="M2245.9,-109.88C2257.32,-104.76 2271.24,-98.77 2284,-94 2289.13,-92.08 2294.47,-90.19 2299.85,-88.34"/>
<polygon fill="black" stroke="black" points="2301.21,-91.58 2309.58,-85.07 2298.98,-84.94 2301.21,-91.58"/>
</g>
<!-- 140325813978368&#45;&gt;140325813980192 -->
<g id="edge26" class="edge">
<title>140325813978368&#45;&gt;140325813980192</title>
<path fill="none" stroke="black" d="M447.14,-79.42C456.38,-78.87 467.04,-78.22 477.32,-77.6"/>
<polygon fill="black" stroke="black" points="477.63,-81.09 487.4,-77 477.21,-74.1 477.63,-81.09"/>
</g>
<!-- 140325813979136&#45;&gt;140325814089104 -->
<g id="edge28" class="edge">
<title>140325813979136&#45;&gt;140325814089104</title>
<path fill="none" stroke="black" d="M650.05,-69.38C699.79,-68.26 811.75,-66 906,-66 906,-66 906,-66 1872.5,-66 1959.8,-66 1984.9,-58.25 2068,-85 2077.5,-88.06 2087.12,-92.73 2095.87,-97.71"/>
<polygon fill="black" stroke="black" points="2094.25,-100.81 2104.62,-102.95 2097.84,-94.81 2094.25,-100.81"/>
</g>
<!-- 140325813979136&#45;&gt;140325813980912 -->
<g id="edge27" class="edge">
<title>140325813979136&#45;&gt;140325813980912</title>
<path fill="none" stroke="black" d="M649.03,-78.05C671.01,-85.11 703.25,-95.47 728,-103.43"/>
<polygon fill="black" stroke="black" points="727.17,-106.84 737.76,-106.57 729.31,-100.17 727.17,-106.84"/>
</g>
</g>
</svg>
