<?xml version="1.0" encoding="UTF-8" standalone="no"?>
<!DOCTYPE svg PUBLIC "-//W3C//DTD SVG 1.1//EN"
 "http://www.w3.org/Graphics/SVG/1.1/DTD/svg11.dtd">
<!-- Generated by graphviz version 2.48.0 (0)
 -->
<!-- Title: imdf_net_1720947016.0190094 Pages: 1 -->
<svg width="1659pt" height="653pt"
 viewBox="0.00 0.00 1659.00 653.00" xmlns="http://www.w3.org/2000/svg" xmlns:xlink="http://www.w3.org/1999/xlink">
<g id="graph0" class="graph" transform="scale(1 1) rotate(0) translate(4 649)">
<title>imdf_net_1720947016.0190094</title>
<polygon fill="white" stroke="transparent" points="-4,4 -4,-649 1655,-649 1655,4 -4,4"/>
<!-- 140325814429184 -->
<g id="node1" class="node">
<title>140325814429184</title>
<polygon fill="white" stroke="black" points="497.5,-204 321.5,-204 321.5,-168 497.5,-168 497.5,-204"/>
<text text-anchor="middle" x="409.5" y="-182.9" font-family="Times,serif" font-size="12.00">Send Appeal to Prefecture</text>
</g>
<!-- 140325814427264 -->
<g id="node38" class="node">
<title>140325814427264</title>
<ellipse fill="white" stroke="black" cx="579" cy="-114" rx="27" ry="27"/>
</g>
<!-- 140325814429184&#45;&gt;140325814427264 -->
<g id="edge17" class="edge">
<title>140325814429184&#45;&gt;140325814427264</title>
<path fill="none" stroke="black" d="M493.62,-167.93C501.33,-165.3 508.9,-162.34 516,-159 527.85,-153.43 539.75,-145.49 549.92,-137.83"/>
<polygon fill="black" stroke="black" points="552.28,-140.43 558.01,-131.51 547.97,-134.91 552.28,-140.43"/>
</g>
<!-- 140325788482304 -->
<g id="node2" class="node">
<title>140325788482304</title>
<polygon fill="white" stroke="black" points="823.5,-507 711.5,-507 711.5,-471 823.5,-471 823.5,-507"/>
<text text-anchor="middle" x="767.5" y="-485.9" font-family="Times,serif" font-size="12.00">Appeal to Judge</text>
</g>
<!-- 140325788480240 -->
<g id="node30" class="node">
<title>140325788480240</title>
<ellipse fill="white" stroke="black" cx="956" cy="-435" rx="27" ry="27"/>
</g>
<!-- 140325788482304&#45;&gt;140325788480240 -->
<g id="edge2" class="edge">
<title>140325788482304&#45;&gt;140325788480240</title>
<path fill="none" stroke="black" d="M823.66,-479.47C845.51,-475.07 870.69,-469.2 893,-462 902.62,-458.9 912.78,-454.83 922.03,-450.79"/>
<polygon fill="black" stroke="black" points="923.59,-453.93 931.28,-446.64 920.73,-447.54 923.59,-453.93"/>
</g>
<!-- 140325788653312 -->
<g id="node3" class="node">
<title>140325788653312</title>
<polygon fill="white" stroke="black" points="893,-291 642,-291 642,-255 893,-255 893,-291"/>
<text text-anchor="middle" x="767.5" y="-269.9" font-family="Times,serif" font-size="12.00">Receive Result Appeal from Prefecture</text>
</g>
<!-- 140325788650624 -->
<g id="node34" class="node">
<title>140325788650624</title>
<ellipse fill="white" stroke="black" cx="956" cy="-273" rx="27" ry="27"/>
</g>
<!-- 140325788653312&#45;&gt;140325788650624 -->
<g id="edge13" class="edge">
<title>140325788653312&#45;&gt;140325788650624</title>
<path fill="none" stroke="black" d="M893.16,-273C902.31,-273 911.01,-273 918.84,-273"/>
<polygon fill="black" stroke="black" points="918.93,-276.5 928.93,-273 918.93,-269.5 918.93,-276.5"/>
</g>
<!-- 140325788471696 -->
<g id="node4" class="node">
<title>140325788471696</title>
<polygon fill="white" stroke="black" points="443.5,-544 375.5,-544 375.5,-508 443.5,-508 443.5,-544"/>
<text text-anchor="middle" x="409.5" y="-522.9" font-family="Times,serif" font-size="12.00">Payment</text>
</g>
<!-- 140325788470640 -->
<g id="node27" class="node">
<title>140325788470640</title>
<ellipse fill="white" stroke="black" cx="579" cy="-526" rx="27" ry="27"/>
</g>
<!-- 140325788471696&#45;&gt;140325788470640 -->
<g id="edge15" class="edge">
<title>140325788471696&#45;&gt;140325788470640</title>
<path fill="none" stroke="black" d="M443.59,-526C471.87,-526 512.49,-526 541.66,-526"/>
<polygon fill="black" stroke="black" points="541.84,-529.5 551.84,-526 541.84,-522.5 541.84,-529.5"/>
</g>
<!-- 140325788478992 -->
<g id="node5" class="node">
<title>140325788478992</title>
<polygon fill="black" stroke="black" points="1313,-282 1259,-282 1259,-246 1313,-246 1313,-282"/>
</g>
<!-- 140325814431968 -->
<g id="node41" class="node">
<title>140325814431968</title>
<ellipse fill="white" stroke="black" cx="1436" cy="-210" rx="27" ry="27"/>
</g>
<!-- 140325788478992&#45;&gt;140325814431968 -->
<g id="edge50" class="edge">
<title>140325788478992&#45;&gt;140325814431968</title>
<path fill="none" stroke="black" d="M1313.21,-256.56C1330.38,-251.5 1353.21,-244.39 1373,-237 1382.47,-233.46 1392.58,-229.25 1401.83,-225.22"/>
<polygon fill="black" stroke="black" points="1403.37,-228.37 1411.1,-221.12 1400.54,-221.96 1403.37,-228.37"/>
</g>
<!-- 140325814426400 -->
<g id="node6" class="node">
<title>140325814426400</title>
<polygon fill="black" stroke="black" points="1553,-83 1499,-83 1499,-47 1553,-47 1553,-83"/>
</g>
<!-- 140325816379456 -->
<g id="node42" class="node">
<title>140325816379456</title>
<ellipse fill="white" stroke="black" cx="1620" cy="-65" rx="27" ry="27"/>
<ellipse fill="none" stroke="black" cx="1620" cy="-65" rx="31" ry="31"/>
<text text-anchor="start" x="1604.5" y="-56.9" font-family="Times,serif" font-size="32.00">■</text>
</g>
<!-- 140325814426400&#45;&gt;140325816379456 -->
<g id="edge55" class="edge">
<title>140325814426400&#45;&gt;140325816379456</title>
<path fill="none" stroke="black" d="M1553.12,-65C1561.14,-65 1570.15,-65 1578.88,-65"/>
<polygon fill="black" stroke="black" points="1578.92,-68.5 1588.92,-65 1578.92,-61.5 1578.92,-68.5"/>
</g>
<!-- 140325788648224 -->
<g id="node7" class="node">
<title>140325788648224</title>
<polygon fill="black" stroke="black" points="794.5,-399 740.5,-399 740.5,-363 794.5,-363 794.5,-399"/>
</g>
<!-- 140325788483168 -->
<g id="node32" class="node">
<title>140325788483168</title>
<ellipse fill="white" stroke="black" cx="956" cy="-354" rx="27" ry="27"/>
</g>
<!-- 140325788648224&#45;&gt;140325788483168 -->
<g id="edge47" class="edge">
<title>140325788648224&#45;&gt;140325788483168</title>
<path fill="none" stroke="black" d="M794.83,-377.19C827.27,-372.49 882.55,-364.49 918.93,-359.22"/>
<polygon fill="black" stroke="black" points="919.71,-362.65 929.11,-357.75 918.71,-355.72 919.71,-362.65"/>
</g>
<!-- 140325788658208 -->
<g id="node8" class="node">
<title>140325788658208</title>
<polygon fill="white" stroke="black" points="1373,-228 1199,-228 1199,-192 1373,-192 1373,-228"/>
<text text-anchor="middle" x="1286" y="-206.9" font-family="Times,serif" font-size="12.00">Send for Credit Collection</text>
</g>
<!-- 140325788658208&#45;&gt;140325814431968 -->
<g id="edge14" class="edge">
<title>140325788658208&#45;&gt;140325814431968</title>
<path fill="none" stroke="black" d="M1373.09,-210C1382.01,-210 1390.69,-210 1398.59,-210"/>
<polygon fill="black" stroke="black" points="1398.83,-213.5 1408.83,-210 1398.83,-206.5 1398.83,-213.5"/>
</g>
<!-- 140325814431152 -->
<g id="node9" class="node">
<title>140325814431152</title>
<polygon fill="white" stroke="black" points="516,-96 303,-96 303,-60 516,-60 516,-96"/>
<text text-anchor="middle" x="409.5" y="-74.9" font-family="Times,serif" font-size="12.00">Insert Date Appeal to Prefecture</text>
</g>
<!-- 140325814429472 -->
<g id="node40" class="node">
<title>140325814429472</title>
<ellipse fill="white" stroke="black" cx="579" cy="-27" rx="27" ry="27"/>
</g>
<!-- 140325814431152&#45;&gt;140325814429472 -->
<g id="edge18" class="edge">
<title>140325814431152&#45;&gt;140325814429472</title>
<path fill="none" stroke="black" d="M485.45,-59.99C495.77,-57.17 506.19,-54.14 516,-51 525.28,-48.03 535.19,-44.4 544.3,-40.88"/>
<polygon fill="black" stroke="black" points="545.78,-44.06 553.8,-37.14 543.21,-37.55 545.78,-44.06"/>
</g>
<!-- 140325788651824 -->
<g id="node10" class="node">
<title>140325788651824</title>
<polygon fill="black" stroke="black" points="794.5,-237 740.5,-237 740.5,-201 794.5,-201 794.5,-237"/>
</g>
<!-- 140325788651824&#45;&gt;140325788650624 -->
<g id="edge48" class="edge">
<title>140325788651824&#45;&gt;140325788650624</title>
<path fill="none" stroke="black" d="M794.65,-223.12C820.11,-227.5 859.74,-235.27 893,-246 902.62,-249.1 912.78,-253.17 922.03,-257.21"/>
<polygon fill="black" stroke="black" points="920.73,-260.46 931.28,-261.36 923.59,-254.07 920.73,-260.46"/>
</g>
<!-- 140325814425920 -->
<g id="node11" class="node">
<title>140325814425920</title>
<polygon fill="white" stroke="black" points="177,-284 90,-284 90,-248 177,-248 177,-284"/>
<text text-anchor="middle" x="133.5" y="-262.9" font-family="Times,serif" font-size="12.00">Create Fine</text>
</g>
<!-- 140325814434080 -->
<g id="node24" class="node">
<title>140325814434080</title>
<ellipse fill="white" stroke="black" cx="240" cy="-612" rx="27" ry="27"/>
</g>
<!-- 140325814425920&#45;&gt;140325814434080 -->
<g id="edge8" class="edge">
<title>140325814425920&#45;&gt;140325814434080</title>
<path fill="none" stroke="black" d="M137.85,-284.12C146.85,-331.07 173.56,-460.11 213,-562 215.29,-567.93 218.1,-574.07 221.01,-579.93"/>
<polygon fill="black" stroke="black" points="217.91,-581.56 225.6,-588.84 224.13,-578.35 217.91,-581.56"/>
</g>
<!-- 140325788469392 -->
<g id="node26" class="node">
<title>140325788469392</title>
<ellipse fill="white" stroke="black" cx="240" cy="-526" rx="27" ry="27"/>
</g>
<!-- 140325814425920&#45;&gt;140325788469392 -->
<g id="edge9" class="edge">
<title>140325814425920&#45;&gt;140325788469392</title>
<path fill="none" stroke="black" d="M141.85,-284.28C159.16,-327.35 202.73,-435.76 225.17,-491.59"/>
<polygon fill="black" stroke="black" points="222,-493.08 228.97,-501.05 228.49,-490.47 222,-493.08"/>
</g>
<!-- 140325788475248 -->
<g id="node28" class="node">
<title>140325788475248</title>
<ellipse fill="white" stroke="black" cx="240" cy="-266" rx="27" ry="27"/>
</g>
<!-- 140325814425920&#45;&gt;140325788475248 -->
<g id="edge10" class="edge">
<title>140325814425920&#45;&gt;140325788475248</title>
<path fill="none" stroke="black" d="M177,-266C185.51,-266 194.37,-266 202.64,-266"/>
<polygon fill="black" stroke="black" points="202.73,-269.5 212.73,-266 202.73,-262.5 202.73,-269.5"/>
</g>
<!-- 140325814426688 -->
<g id="node37" class="node">
<title>140325814426688</title>
<ellipse fill="white" stroke="black" cx="240" cy="-186" rx="27" ry="27"/>
</g>
<!-- 140325814425920&#45;&gt;140325814426688 -->
<g id="edge11" class="edge">
<title>140325814425920&#45;&gt;140325814426688</title>
<path fill="none" stroke="black" d="M158.21,-247.85C173.49,-236.15 193.47,-220.85 209.74,-208.4"/>
<polygon fill="black" stroke="black" points="212.05,-211.04 217.86,-202.18 207.79,-205.48 212.05,-211.04"/>
</g>
<!-- 140325814428032 -->
<g id="node39" class="node">
<title>140325814428032</title>
<ellipse fill="white" stroke="black" cx="240" cy="-78" rx="27" ry="27"/>
</g>
<!-- 140325814425920&#45;&gt;140325814428032 -->
<g id="edge12" class="edge">
<title>140325814425920&#45;&gt;140325814428032</title>
<path fill="none" stroke="black" d="M144.52,-247.97C162.2,-216.17 199.14,-149.71 221.23,-109.97"/>
<polygon fill="black" stroke="black" points="224.3,-111.64 226.1,-101.2 218.19,-108.24 224.3,-111.64"/>
</g>
<!-- 140325814428224 -->
<g id="node12" class="node">
<title>140325814428224</title>
<polygon fill="black" stroke="black" points="436.5,-150 382.5,-150 382.5,-114 436.5,-114 436.5,-150"/>
</g>
<!-- 140325814428224&#45;&gt;140325814427264 -->
<g id="edge51" class="edge">
<title>140325814428224&#45;&gt;140325814427264</title>
<path fill="none" stroke="black" d="M436.67,-129.19C464.94,-126.15 510.18,-121.29 541.84,-117.89"/>
<polygon fill="black" stroke="black" points="542.44,-121.34 552.01,-116.79 541.7,-114.38 542.44,-121.34"/>
</g>
<!-- 140325788477888 -->
<g id="node13" class="node">
<title>140325788477888</title>
<polygon fill="white" stroke="black" points="488.5,-284 330.5,-284 330.5,-248 488.5,-248 488.5,-284"/>
<text text-anchor="middle" x="409.5" y="-262.9" font-family="Times,serif" font-size="12.00">Insert Fine Notification</text>
</g>
<!-- 140325788479328 -->
<g id="node29" class="node">
<title>140325788479328</title>
<ellipse fill="white" stroke="black" cx="579" cy="-435" rx="27" ry="27"/>
</g>
<!-- 140325788477888&#45;&gt;140325788479328 -->
<g id="edge4" class="edge">
<title>140325788477888&#45;&gt;140325788479328</title>
<path fill="none" stroke="black" d="M428.43,-284.09C458.16,-314.09 517.81,-374.27 552.11,-408.88"/>
<polygon fill="black" stroke="black" points="549.91,-411.63 559.44,-416.27 554.89,-406.71 549.91,-411.63"/>
</g>
<!-- 140325788480912 -->
<g id="node31" class="node">
<title>140325788480912</title>
<ellipse fill="white" stroke="black" cx="579" cy="-337" rx="27" ry="27"/>
</g>
<!-- 140325788477888&#45;&gt;140325788480912 -->
<g id="edge5" class="edge">
<title>140325788477888&#45;&gt;140325788480912</title>
<path fill="none" stroke="black" d="M453.2,-284.1C481.39,-296.05 517.83,-311.49 544.04,-322.61"/>
<polygon fill="black" stroke="black" points="542.98,-325.96 553.55,-326.64 545.71,-319.51 542.98,-325.96"/>
</g>
<!-- 140325788647744 -->
<g id="node33" class="node">
<title>140325788647744</title>
<ellipse fill="white" stroke="black" cx="579" cy="-265" rx="27" ry="27"/>
</g>
<!-- 140325788477888&#45;&gt;140325788647744 -->
<g id="edge6" class="edge">
<title>140325788477888&#45;&gt;140325788647744</title>
<path fill="none" stroke="black" d="M488.86,-265.53C507.26,-265.42 526.01,-265.31 541.53,-265.22"/>
<polygon fill="black" stroke="black" points="541.74,-268.72 551.72,-265.16 541.7,-261.72 541.74,-268.72"/>
</g>
<!-- 140325788651632 -->
<g id="node35" class="node">
<title>140325788651632</title>
<ellipse fill="white" stroke="black" cx="579" cy="-186" rx="27" ry="27"/>
</g>
<!-- 140325788477888&#45;&gt;140325788651632 -->
<g id="edge7" class="edge">
<title>140325788477888&#45;&gt;140325788651632</title>
<path fill="none" stroke="black" d="M448.51,-247.85C477.52,-233.99 517.09,-215.09 544.83,-201.84"/>
<polygon fill="black" stroke="black" points="546.6,-204.88 554.11,-197.41 543.58,-198.56 546.6,-204.88"/>
</g>
<!-- 140325788655808 -->
<g id="node14" class="node">
<title>140325788655808</title>
<polygon fill="black" stroke="black" points="794.5,-183 740.5,-183 740.5,-147 794.5,-147 794.5,-183"/>
</g>
<!-- 140325788654320 -->
<g id="node36" class="node">
<title>140325788654320</title>
<ellipse fill="white" stroke="black" cx="956" cy="-165" rx="27" ry="27"/>
</g>
<!-- 140325788655808&#45;&gt;140325788654320 -->
<g id="edge49" class="edge">
<title>140325788655808&#45;&gt;140325788654320</title>
<path fill="none" stroke="black" d="M794.83,-165C827.18,-165 882.24,-165 918.62,-165"/>
<polygon fill="black" stroke="black" points="918.81,-168.5 928.81,-165 918.81,-161.5 918.81,-168.5"/>
</g>
<!-- 140325788656960 -->
<g id="node15" class="node">
<title>140325788656960</title>
<polygon fill="white" stroke="black" points="812,-129 723,-129 723,-93 812,-93 812,-129"/>
<text text-anchor="middle" x="767.5" y="-107.9" font-family="Times,serif" font-size="12.00">Add penalty</text>
</g>
<!-- 140325788656960&#45;&gt;140325788654320 -->
<g id="edge1" class="edge">
<title>140325788656960&#45;&gt;140325788654320</title>
<path fill="none" stroke="black" d="M812.27,-118.31C836.39,-122.87 866.69,-129.51 893,-138 902.62,-141.1 912.78,-145.17 922.03,-149.21"/>
<polygon fill="black" stroke="black" points="920.73,-152.46 931.28,-153.36 923.59,-146.07 920.73,-152.46"/>
</g>
<!-- 140325788481104 -->
<g id="node16" class="node">
<title>140325788481104</title>
<polygon fill="black" stroke="black" points="794.5,-453 740.5,-453 740.5,-417 794.5,-417 794.5,-453"/>
</g>
<!-- 140325788481104&#45;&gt;140325788480240 -->
<g id="edge46" class="edge">
<title>140325788481104&#45;&gt;140325788480240</title>
<path fill="none" stroke="black" d="M794.83,-435C827.18,-435 882.24,-435 918.62,-435"/>
<polygon fill="black" stroke="black" points="918.81,-438.5 928.81,-435 918.81,-431.5 918.81,-438.5"/>
</g>
<!-- 140325788649424 -->
<g id="node17" class="node">
<title>140325788649424</title>
<polygon fill="white" stroke="black" points="874,-345 661,-345 661,-309 874,-309 874,-345"/>
<text text-anchor="middle" x="767.5" y="-323.9" font-family="Times,serif" font-size="12.00">Notify Result Appeal to Offender</text>
</g>
<!-- 140325788649424&#45;&gt;140325788483168 -->
<g id="edge16" class="edge">
<title>140325788649424&#45;&gt;140325788483168</title>
<path fill="none" stroke="black" d="M874.01,-342.28C890.14,-344.61 905.77,-346.87 918.93,-348.78"/>
<polygon fill="black" stroke="black" points="918.51,-352.25 928.91,-350.22 919.52,-345.33 918.51,-352.25"/>
</g>
<!-- 140325814430432 -->
<g id="node18" class="node">
<title>140325814430432</title>
<polygon fill="black" stroke="black" points="436.5,-42 382.5,-42 382.5,-6 436.5,-6 436.5,-42"/>
</g>
<!-- 140325814430432&#45;&gt;140325814429472 -->
<g id="edge52" class="edge">
<title>140325814430432&#45;&gt;140325814429472</title>
<path fill="none" stroke="black" d="M436.67,-24.47C464.86,-24.97 509.92,-25.78 541.56,-26.35"/>
<polygon fill="black" stroke="black" points="541.67,-29.85 551.74,-26.53 541.8,-22.85 541.67,-29.85"/>
</g>
<!-- 140325788473184 -->
<g id="node19" class="node">
<title>140325788473184</title>
<polygon fill="black" stroke="black" points="794.5,-599 740.5,-599 740.5,-563 794.5,-563 794.5,-599"/>
</g>
<!-- 140325788473184&#45;&gt;140325788469392 -->
<g id="edge53" class="edge">
<title>140325788473184&#45;&gt;140325788469392</title>
<path fill="none" stroke="black" d="M740.41,-582.57C669.15,-586.19 465.66,-592.03 303,-553 293.09,-550.62 282.76,-546.75 273.45,-542.67"/>
<polygon fill="black" stroke="black" points="274.72,-539.4 264.17,-538.4 271.79,-545.76 274.72,-539.4"/>
</g>
<!-- 140325814433264 -->
<g id="node20" class="node">
<title>140325814433264</title>
<polygon fill="black" stroke="black" points="1073,-372 1019,-372 1019,-336 1073,-336 1073,-372"/>
</g>
<!-- 140325814432544 -->
<g id="node23" class="node">
<title>140325814432544</title>
<ellipse fill="white" stroke="black" cx="1136" cy="-264" rx="27" ry="27"/>
</g>
<!-- 140325814433264&#45;&gt;140325814432544 -->
<g id="edge56" class="edge">
<title>140325814433264&#45;&gt;140325814432544</title>
<path fill="none" stroke="black" d="M1064.81,-335.79C1077.64,-322.67 1095.14,-304.77 1109.46,-290.12"/>
<polygon fill="black" stroke="black" points="1112.12,-292.4 1116.61,-282.81 1107.12,-287.51 1112.12,-292.4"/>
</g>
<!-- 140325814435568 -->
<g id="node21" class="node">
<title>140325814435568</title>
<polygon fill="white" stroke="black" points="448,-645 371,-645 371,-609 448,-609 448,-645"/>
<text text-anchor="middle" x="409.5" y="-623.9" font-family="Times,serif" font-size="12.00">Send Fine</text>
</g>
<!-- 140325814434608 -->
<g id="node25" class="node">
<title>140325814434608</title>
<ellipse fill="white" stroke="black" cx="956" cy="-608" rx="27" ry="27"/>
</g>
<!-- 140325814435568&#45;&gt;140325814434608 -->
<g id="edge3" class="edge">
<title>140325814435568&#45;&gt;140325814434608</title>
<path fill="none" stroke="black" d="M448.36,-625.68C548.65,-622.18 820.24,-612.7 918.72,-609.27"/>
<polygon fill="black" stroke="black" points="918.9,-612.76 928.78,-608.92 918.66,-605.77 918.9,-612.76"/>
</g>
<!-- 140325814280912 -->
<g id="node22" class="node">
<title>140325814280912</title>
<ellipse fill="white" stroke="black" cx="27" cy="-266" rx="27" ry="27"/>
<text text-anchor="start" x="11.5" y="-257.3" font-family="Times,serif" font-size="34.00">●</text>
</g>
<!-- 140325814280912&#45;&gt;140325814425920 -->
<g id="edge54" class="edge">
<title>140325814280912&#45;&gt;140325814425920</title>
<path fill="none" stroke="black" d="M54.1,-266C61.83,-266 70.6,-266 79.4,-266"/>
<polygon fill="black" stroke="black" points="79.68,-269.5 89.68,-266 79.68,-262.5 79.68,-269.5"/>
</g>
<!-- 140325814432544&#45;&gt;140325788478992 -->
<g id="edge20" class="edge">
<title>140325814432544&#45;&gt;140325788478992</title>
<path fill="none" stroke="black" d="M1163.12,-264C1186.85,-264 1222.11,-264 1248.6,-264"/>
<polygon fill="black" stroke="black" points="1248.64,-267.5 1258.64,-264 1248.64,-260.5 1248.64,-267.5"/>
</g>
<!-- 140325814432544&#45;&gt;140325788658208 -->
<g id="edge19" class="edge">
<title>140325814432544&#45;&gt;140325788658208</title>
<path fill="none" stroke="black" d="M1160.9,-252.88C1172.32,-247.76 1186.24,-241.77 1199,-237 1204.13,-235.08 1209.47,-233.19 1214.85,-231.34"/>
<polygon fill="black" stroke="black" points="1216.21,-234.58 1224.58,-228.07 1213.98,-227.94 1216.21,-234.58"/>
</g>
<!-- 140325814434080&#45;&gt;140325814435568 -->
<g id="edge21" class="edge">
<title>140325814434080&#45;&gt;140325814435568</title>
<path fill="none" stroke="black" d="M267.17,-614.34C292.14,-616.58 330.33,-620 360.72,-622.72"/>
<polygon fill="black" stroke="black" points="360.43,-626.21 370.7,-623.62 361.05,-619.24 360.43,-626.21"/>
</g>
<!-- 140325814434608&#45;&gt;140325814433264 -->
<g id="edge22" class="edge">
<title>140325814434608&#45;&gt;140325814433264</title>
<path fill="none" stroke="black" d="M968.35,-583.84C973.13,-573.26 978.61,-560.62 983,-549 1005.1,-490.53 1026.11,-420.31 1037.09,-382.12"/>
<polygon fill="black" stroke="black" points="1040.53,-382.81 1039.91,-372.23 1033.8,-380.89 1040.53,-382.81"/>
</g>
<!-- 140325788469392&#45;&gt;140325788471696 -->
<g id="edge23" class="edge">
<title>140325788469392&#45;&gt;140325788471696</title>
<path fill="none" stroke="black" d="M267.17,-526C293.38,-526 334.16,-526 365.19,-526"/>
<polygon fill="black" stroke="black" points="365.31,-529.5 375.31,-526 365.31,-522.5 365.31,-529.5"/>
</g>
<!-- 140325788470640&#45;&gt;140325788473184 -->
<g id="edge24" class="edge">
<title>140325788470640&#45;&gt;140325788473184</title>
<path fill="none" stroke="black" d="M604.24,-535.66C615.61,-540.01 629.4,-545.06 642,-549 671.39,-558.2 705.27,-566.78 730.26,-572.73"/>
<polygon fill="black" stroke="black" points="729.51,-576.15 740.05,-575.04 731.11,-569.34 729.51,-576.15"/>
</g>
<!-- 140325788470640&#45;&gt;140325814433264 -->
<g id="edge25" class="edge">
<title>140325788470640&#45;&gt;140325814433264</title>
<path fill="none" stroke="black" d="M606.08,-528.88C660.44,-534.07 789.43,-542.2 893,-516 936.36,-505.03 951.01,-502.25 983,-471 1008.84,-445.76 1026.32,-407.42 1035.97,-381.58"/>
<polygon fill="black" stroke="black" points="1039.32,-382.6 1039.39,-372 1032.73,-380.24 1039.32,-382.6"/>
</g>
<!-- 140325788475248&#45;&gt;140325788477888 -->
<g id="edge26" class="edge">
<title>140325788475248&#45;&gt;140325788477888</title>
<path fill="none" stroke="black" d="M267.17,-266C281.75,-266 300.83,-266 320.23,-266"/>
<polygon fill="black" stroke="black" points="320.39,-269.5 330.39,-266 320.39,-262.5 320.39,-269.5"/>
</g>
<!-- 140325788479328&#45;&gt;140325788482304 -->
<g id="edge27" class="edge">
<title>140325788479328&#45;&gt;140325788482304</title>
<path fill="none" stroke="black" d="M603.72,-446.64C615.09,-451.88 629.04,-457.82 642,-462 661,-468.13 682.08,-473.3 701.41,-477.41"/>
<polygon fill="black" stroke="black" points="700.84,-480.87 711.34,-479.47 702.26,-474.01 700.84,-480.87"/>
</g>
<!-- 140325788479328&#45;&gt;140325788481104 -->
<g id="edge28" class="edge">
<title>140325788479328&#45;&gt;140325788481104</title>
<path fill="none" stroke="black" d="M606.33,-435C638.68,-435 693.74,-435 730.12,-435"/>
<polygon fill="black" stroke="black" points="730.31,-438.5 740.31,-435 730.31,-431.5 730.31,-438.5"/>
</g>
<!-- 140325788480240&#45;&gt;140325814433264 -->
<g id="edge29" class="edge">
<title>140325788480240&#45;&gt;140325814433264</title>
<path fill="none" stroke="black" d="M976.53,-417.02C988.64,-405.88 1004.37,-391.4 1017.69,-379.13"/>
<polygon fill="black" stroke="black" points="1020.23,-381.55 1025.22,-372.21 1015.49,-376.4 1020.23,-381.55"/>
</g>
<!-- 140325788480912&#45;&gt;140325788648224 -->
<g id="edge31" class="edge">
<title>140325788480912&#45;&gt;140325788648224</title>
<path fill="none" stroke="black" d="M605.26,-344.26C616.47,-347.4 629.86,-351.02 642,-354 671.51,-361.24 705.2,-368.48 730.08,-373.64"/>
<polygon fill="black" stroke="black" points="729.67,-377.13 740.17,-375.72 731.08,-370.28 729.67,-377.13"/>
</g>
<!-- 140325788480912&#45;&gt;140325788649424 -->
<g id="edge30" class="edge">
<title>140325788480912&#45;&gt;140325788649424</title>
<path fill="none" stroke="black" d="M606.33,-335.59C618.55,-334.93 634.01,-334.1 650.49,-333.22"/>
<polygon fill="black" stroke="black" points="651.06,-336.69 660.86,-332.66 650.68,-329.71 651.06,-336.69"/>
</g>
<!-- 140325788483168&#45;&gt;140325814433264 -->
<g id="edge32" class="edge">
<title>140325788483168&#45;&gt;140325814433264</title>
<path fill="none" stroke="black" d="M983.4,-354C991.39,-354 1000.31,-354 1008.82,-354"/>
<polygon fill="black" stroke="black" points="1008.92,-357.5 1018.92,-354 1008.92,-350.5 1008.92,-357.5"/>
</g>
<!-- 140325788647744&#45;&gt;140325788653312 -->
<g id="edge33" class="edge">
<title>140325788647744&#45;&gt;140325788653312</title>
<path fill="none" stroke="black" d="M606.33,-266.13C613.7,-266.45 622.25,-266.81 631.5,-267.21"/>
<polygon fill="black" stroke="black" points="631.63,-270.72 641.77,-267.65 631.93,-263.72 631.63,-270.72"/>
</g>
<!-- 140325788647744&#45;&gt;140325788651824 -->
<g id="edge34" class="edge">
<title>140325788647744&#45;&gt;140325788651824</title>
<path fill="none" stroke="black" d="M604.9,-256.85C616.17,-253.29 629.69,-249.21 642,-246 671.4,-238.32 705.1,-231.11 730.01,-226.07"/>
<polygon fill="black" stroke="black" points="731,-229.45 740.12,-224.05 729.62,-222.58 731,-229.45"/>
</g>
<!-- 140325788650624&#45;&gt;140325814433264 -->
<g id="edge35" class="edge">
<title>140325788650624&#45;&gt;140325814433264</title>
<path fill="none" stroke="black" d="M976.53,-290.98C988.64,-302.12 1004.37,-316.6 1017.69,-328.87"/>
<polygon fill="black" stroke="black" points="1015.49,-331.6 1025.22,-335.79 1020.23,-326.45 1015.49,-331.6"/>
</g>
<!-- 140325788651632&#45;&gt;140325788655808 -->
<g id="edge37" class="edge">
<title>140325788651632&#45;&gt;140325788655808</title>
<path fill="none" stroke="black" d="M605.93,-183.08C638.27,-179.44 693.74,-173.19 730.27,-169.08"/>
<polygon fill="black" stroke="black" points="730.94,-172.53 740.49,-167.93 730.16,-165.57 730.94,-172.53"/>
</g>
<!-- 140325788651632&#45;&gt;140325788656960 -->
<g id="edge36" class="edge">
<title>140325788651632&#45;&gt;140325788656960</title>
<path fill="none" stroke="black" d="M599.16,-167.52C610.71,-157.36 626.21,-145.36 642,-138 664.08,-127.71 690.2,-121.28 712.8,-117.29"/>
<polygon fill="black" stroke="black" points="713.62,-120.7 722.91,-115.62 712.48,-113.79 713.62,-120.7"/>
</g>
<!-- 140325788654320&#45;&gt;140325814433264 -->
<g id="edge38" class="edge">
<title>140325788654320&#45;&gt;140325814433264</title>
<path fill="none" stroke="black" d="M968.32,-189.32C984.77,-224.65 1015.18,-289.95 1032.34,-326.82"/>
<polygon fill="black" stroke="black" points="1029.22,-328.39 1036.61,-335.98 1035.56,-325.44 1029.22,-328.39"/>
</g>
<!-- 140325814426688&#45;&gt;140325814429184 -->
<g id="edge39" class="edge">
<title>140325814426688&#45;&gt;140325814429184</title>
<path fill="none" stroke="black" d="M267.17,-186C279.44,-186 294.9,-186 311.06,-186"/>
<polygon fill="black" stroke="black" points="311.19,-189.5 321.19,-186 311.19,-182.5 311.19,-189.5"/>
</g>
<!-- 140325814426688&#45;&gt;140325814428224 -->
<g id="edge40" class="edge">
<title>140325814426688&#45;&gt;140325814428224</title>
<path fill="none" stroke="black" d="M264.79,-174.57C276.18,-169.38 290.12,-163.42 303,-159 325.64,-151.23 351.69,-144.54 372.24,-139.76"/>
<polygon fill="black" stroke="black" points="373.17,-143.14 382.14,-137.51 371.62,-136.32 373.17,-143.14"/>
</g>
<!-- 140325814427264&#45;&gt;140325814426400 -->
<g id="edge41" class="edge">
<title>140325814427264&#45;&gt;140325814426400</title>
<path fill="none" stroke="black" d="M602.44,-100.51C613.87,-94.33 628.23,-87.6 642,-84 776.84,-48.76 815.63,-65 955,-65 955,-65 955,-65 1287,-65 1358.49,-65 1442.06,-65 1488.73,-65"/>
<polygon fill="black" stroke="black" points="1488.94,-68.5 1498.94,-65 1488.94,-61.5 1488.94,-68.5"/>
</g>
<!-- 140325814428032&#45;&gt;140325814431152 -->
<g id="edge42" class="edge">
<title>140325814428032&#45;&gt;140325814431152</title>
<path fill="none" stroke="black" d="M267.17,-78C274.6,-78 283.21,-78 292.43,-78"/>
<polygon fill="black" stroke="black" points="292.66,-81.5 302.66,-78 292.66,-74.5 292.66,-81.5"/>
</g>
<!-- 140325814428032&#45;&gt;140325814430432 -->
<g id="edge43" class="edge">
<title>140325814428032&#45;&gt;140325814430432</title>
<path fill="none" stroke="black" d="M264.79,-66.57C276.18,-61.38 290.12,-55.42 303,-51 325.64,-43.23 351.69,-36.54 372.24,-31.76"/>
<polygon fill="black" stroke="black" points="373.17,-35.14 382.14,-29.51 371.62,-28.32 373.17,-35.14"/>
</g>
<!-- 140325814429472&#45;&gt;140325814426400 -->
<g id="edge44" class="edge">
<title>140325814429472&#45;&gt;140325814426400</title>
<path fill="none" stroke="black" d="M606.37,-27C667.59,-27 824.14,-27 955,-27 955,-27 955,-27 1287,-27 1359.36,-27 1442.55,-44.34 1488.93,-55.59"/>
<polygon fill="black" stroke="black" points="1488.26,-59.03 1498.8,-58.03 1489.94,-52.23 1488.26,-59.03"/>
</g>
<!-- 140325814431968&#45;&gt;140325814426400 -->
<g id="edge45" class="edge">
<title>140325814431968&#45;&gt;140325814426400</title>
<path fill="none" stroke="black" d="M1450.75,-187.34C1466.38,-161.58 1491.9,-119.55 1508.57,-92.08"/>
<polygon fill="black" stroke="black" points="1511.66,-93.73 1513.85,-83.36 1505.67,-90.1 1511.66,-93.73"/>
</g>
</g>
</svg>
