<?xml version="1.0" encoding="UTF-8" standalone="no"?>
<!DOCTYPE svg PUBLIC "-//W3C//DTD SVG 1.1//EN"
 "http://www.w3.org/Graphics/SVG/1.1/DTD/svg11.dtd">
<!-- Generated by graphviz version 2.48.0 (0)
 -->
<!-- Title: imdf_net_1720370178.0125427 Pages: 1 -->
<svg width="2012pt" height="677pt"
 viewBox="0.00 0.00 2011.91 677.00" xmlns="http://www.w3.org/2000/svg" xmlns:xlink="http://www.w3.org/1999/xlink">
<g id="graph0" class="graph" transform="scale(1 1) rotate(0) translate(4 673)">
<title>imdf_net_1720370178.0125427</title>
<polygon fill="white" stroke="transparent" points="-4,4 -4,-673 2007.91,-673 2007.91,4 -4,4"/>
<!-- 139662241449216 -->
<g id="node1" class="node">
<title>139662241449216</title>
<polygon fill="white" stroke="black" points="160.46,-669 90.18,-669 90.18,-633 160.46,-633 160.46,-669"/>
<text text-anchor="middle" x="125.32" y="-647.4" font-family="Times,serif" font-size="12.00">Leucocytes</text>
</g>
<!-- 139662217088272 -->
<g id="node45" class="node">
<title>139662217088272</title>
<ellipse fill="white" stroke="black" cx="223.64" cy="-624" rx="27" ry="27"/>
</g>
<!-- 139662241449216&#45;&gt;139662217088272 -->
<g id="edge2" class="edge">
<title>139662241449216&#45;&gt;139662217088272</title>
<path fill="none" stroke="black" d="M160.55,-641.4C169.35,-638.94 178.83,-636.28 187.67,-633.8"/>
<polygon fill="black" stroke="black" points="188.62,-637.17 197.3,-631.1 186.73,-630.43 188.62,-637.17"/>
</g>
<!-- 139662217090432 -->
<g id="node2" class="node">
<title>139662217090432</title>
<polygon fill="white" stroke="black" points="528.29,-500 474.29,-500 474.29,-464 528.29,-464 528.29,-500"/>
<text text-anchor="middle" x="501.29" y="-478.4" font-family="Times,serif" font-size="12.00">CRP</text>
</g>
<!-- 139662217085056 -->
<g id="node26" class="node">
<title>139662217085056</title>
<ellipse fill="white" stroke="black" cx="598.94" cy="-486" rx="27" ry="27"/>
</g>
<!-- 139662217090432&#45;&gt;139662217085056 -->
<g id="edge1" class="edge">
<title>139662217090432&#45;&gt;139662217085056</title>
<path fill="none" stroke="black" d="M528.43,-483.09C538.66,-483.52 550.56,-484.02 561.6,-484.48"/>
<polygon fill="black" stroke="black" points="561.7,-487.99 571.84,-484.91 561.99,-480.99 561.7,-487.99"/>
</g>
<!-- 139662217098112 -->
<g id="node3" class="node">
<title>139662217098112</title>
<polygon fill="white" stroke="black" points="532.95,-557 469.63,-557 469.63,-521 532.95,-521 532.95,-557"/>
<text text-anchor="middle" x="501.29" y="-535.4" font-family="Times,serif" font-size="12.00">IV Liquid</text>
</g>
<!-- 139662217088800 -->
<g id="node30" class="node">
<title>139662217088800</title>
<ellipse fill="white" stroke="black" cx="1215.25" cy="-532" rx="27" ry="27"/>
</g>
<!-- 139662217098112&#45;&gt;139662217088800 -->
<g id="edge6" class="edge">
<title>139662217098112&#45;&gt;139662217088800</title>
<path fill="none" stroke="black" d="M533,-539.48C573.63,-540.07 647.49,-541 710.6,-541 710.6,-541 710.6,-541 1036.25,-541 1085.53,-541 1142.39,-537.52 1178.32,-534.88"/>
<polygon fill="black" stroke="black" points="1178.62,-538.37 1188.33,-534.13 1178.09,-531.39 1178.62,-538.37"/>
</g>
<!-- 139662217173888 -->
<g id="node4" class="node">
<title>139662217173888</title>
<polygon fill="white" stroke="black" points="744.25,-242 678.95,-242 678.95,-206 744.25,-206 744.25,-242"/>
<text text-anchor="middle" x="711.6" y="-220.4" font-family="Times,serif" font-size="12.00">ER Triage</text>
</g>
<!-- 139662217167072 -->
<g id="node34" class="node">
<title>139662217167072</title>
<ellipse fill="white" stroke="black" cx="824.26" cy="-228" rx="27" ry="27"/>
</g>
<!-- 139662217173888&#45;&gt;139662217167072 -->
<g id="edge5" class="edge">
<title>139662217173888&#45;&gt;139662217167072</title>
<path fill="none" stroke="black" d="M744.31,-225.15C757.65,-225.63 773.23,-226.19 787.02,-226.69"/>
<polygon fill="black" stroke="black" points="787.02,-230.19 797.14,-227.06 787.27,-223.2 787.02,-230.19"/>
</g>
<!-- 139662217173264 -->
<g id="node5" class="node">
<title>139662217173264</title>
<polygon fill="black" stroke="black" points="1152.25,-297 1098.25,-297 1098.25,-261 1152.25,-261 1152.25,-297"/>
</g>
<!-- 139662217168656 -->
<g id="node32" class="node">
<title>139662217168656</title>
<ellipse fill="white" stroke="black" cx="1215.25" cy="-277" rx="27" ry="27"/>
</g>
<!-- 139662217173264&#45;&gt;139662217168656 -->
<g id="edge41" class="edge">
<title>139662217173264&#45;&gt;139662217168656</title>
<path fill="none" stroke="black" d="M1152.65,-278.4C1160.64,-278.22 1169.56,-278.02 1178.07,-277.82"/>
<polygon fill="black" stroke="black" points="1178.25,-281.32 1188.17,-277.59 1178.09,-274.32 1178.25,-281.32"/>
</g>
<!-- 139662217179024 -->
<g id="node6" class="node">
<title>139662217179024</title>
<polygon fill="black" stroke="black" points="956.75,-200 902.75,-200 902.75,-164 956.75,-164 956.75,-200"/>
</g>
<!-- 139662217175664 -->
<g id="node33" class="node">
<title>139662217175664</title>
<ellipse fill="white" stroke="black" cx="598.94" cy="-209" rx="27" ry="27"/>
</g>
<!-- 139662217179024&#45;&gt;139662217175664 -->
<g id="edge42" class="edge">
<title>139662217179024&#45;&gt;139662217175664</title>
<path fill="none" stroke="black" d="M902.52,-182.3C854.57,-183.11 749.65,-186.1 661.94,-197 653.26,-198.08 643.97,-199.65 635.29,-201.3"/>
<polygon fill="black" stroke="black" points="634.59,-197.88 625.46,-203.26 635.95,-204.74 634.59,-197.88"/>
</g>
<!-- 139662217097248 -->
<g id="node7" class="node">
<title>139662217097248</title>
<polygon fill="black" stroke="black" points="738.6,-352 684.6,-352 684.6,-316 738.6,-316 738.6,-352"/>
</g>
<!-- 139662217095520 -->
<g id="node27" class="node">
<title>139662217095520</title>
<ellipse fill="white" stroke="black" cx="403.64" cy="-366" rx="27" ry="27"/>
</g>
<!-- 139662217097248&#45;&gt;139662217095520 -->
<g id="edge40" class="edge">
<title>139662217097248&#45;&gt;139662217095520</title>
<path fill="none" stroke="black" d="M684.33,-332.77C639.31,-331.19 544.75,-330.22 466.64,-345 457.29,-346.77 447.43,-349.63 438.38,-352.67"/>
<polygon fill="black" stroke="black" points="437.22,-349.37 428.96,-356.01 439.55,-355.97 437.22,-349.37"/>
</g>
<!-- 139662217092400 -->
<g id="node8" class="node">
<title>139662217092400</title>
<polygon fill="black" stroke="black" points="340.64,-651 286.64,-651 286.64,-615 340.64,-615 340.64,-651"/>
</g>
<!-- 139662217085152 -->
<g id="node44" class="node">
<title>139662217085152</title>
<ellipse fill="white" stroke="black" cx="403.64" cy="-642" rx="27" ry="27"/>
</g>
<!-- 139662217092400&#45;&gt;139662217085152 -->
<g id="edge45" class="edge">
<title>139662217092400&#45;&gt;139662217085152</title>
<path fill="none" stroke="black" d="M341.04,-635.7C349.03,-636.52 357.95,-637.43 366.46,-638.3"/>
<polygon fill="black" stroke="black" points="366.25,-641.8 376.56,-639.33 366.97,-634.83 366.25,-641.8"/>
</g>
<!-- 139662217095472 -->
<g id="node9" class="node">
<title>139662217095472</title>
<polygon fill="white" stroke="black" points="536.1,-390 466.49,-390 466.49,-354 536.1,-354 536.1,-390"/>
<text text-anchor="middle" x="501.29" y="-368.4" font-family="Times,serif" font-size="12.00">LacticAcid</text>
</g>
<!-- 139662217086400 -->
<g id="node28" class="node">
<title>139662217086400</title>
<ellipse fill="white" stroke="black" cx="598.94" cy="-376" rx="27" ry="27"/>
</g>
<!-- 139662217095472&#45;&gt;139662217086400 -->
<g id="edge4" class="edge">
<title>139662217095472&#45;&gt;139662217086400</title>
<path fill="none" stroke="black" d="M536.02,-373.41C544.26,-373.76 553.12,-374.13 561.48,-374.48"/>
<polygon fill="black" stroke="black" points="561.6,-377.98 571.74,-374.9 561.89,-370.99 561.6,-377.98"/>
</g>
<!-- 139662217097152 -->
<g id="node10" class="node">
<title>139662217097152</title>
<polygon fill="black" stroke="black" points="340.64,-420 286.64,-420 286.64,-384 340.64,-384 340.64,-420"/>
</g>
<!-- 139662217086640 -->
<g id="node25" class="node">
<title>139662217086640</title>
<ellipse fill="white" stroke="black" cx="403.64" cy="-438" rx="27" ry="27"/>
</g>
<!-- 139662217097152&#45;&gt;139662217086640 -->
<g id="edge52" class="edge">
<title>139662217097152&#45;&gt;139662217086640</title>
<path fill="none" stroke="black" d="M341.04,-412.8C349.83,-416.4 359.75,-420.45 369.01,-424.24"/>
<polygon fill="black" stroke="black" points="367.78,-427.52 378.36,-428.07 370.43,-421.04 367.78,-427.52"/>
</g>
<!-- 139662217097152&#45;&gt;139662217095520 -->
<g id="edge53" class="edge">
<title>139662217097152&#45;&gt;139662217095520</title>
<path fill="none" stroke="black" d="M341.04,-391.2C349.83,-387.6 359.75,-383.55 369.01,-379.76"/>
<polygon fill="black" stroke="black" points="370.43,-382.96 378.36,-375.93 367.78,-376.48 370.43,-382.96"/>
</g>
<!-- 139662217100704 -->
<g id="node29" class="node">
<title>139662217100704</title>
<ellipse fill="white" stroke="black" cx="403.64" cy="-521" rx="27" ry="27"/>
</g>
<!-- 139662217097152&#45;&gt;139662217100704 -->
<g id="edge54" class="edge">
<title>139662217097152&#45;&gt;139662217100704</title>
<path fill="none" stroke="black" d="M328,-420.07C341.99,-438.98 364.17,-468.98 380.72,-491.36"/>
<polygon fill="black" stroke="black" points="378,-493.57 386.76,-499.53 383.63,-489.41 378,-493.57"/>
</g>
<!-- 139662217100608 -->
<g id="node31" class="node">
<title>139662217100608</title>
<ellipse fill="white" stroke="black" cx="403.64" cy="-283" rx="27" ry="27"/>
</g>
<!-- 139662217097152&#45;&gt;139662217100608 -->
<g id="edge55" class="edge">
<title>139662217097152&#45;&gt;139662217100608</title>
<path fill="none" stroke="black" d="M328,-383.93C341.99,-365.02 364.17,-335.02 380.72,-312.64"/>
<polygon fill="black" stroke="black" points="383.63,-314.59 386.76,-304.47 378,-310.43 383.63,-314.59"/>
</g>
<!-- 139662217097152&#45;&gt;139662217085152 -->
<g id="edge56" class="edge">
<title>139662217097152&#45;&gt;139662217085152</title>
<path fill="none" stroke="black" d="M321.25,-420.04C335.82,-459.78 370.9,-555.43 389.9,-607.25"/>
<polygon fill="black" stroke="black" points="386.63,-608.51 393.36,-616.69 393.2,-606.1 386.63,-608.51"/>
</g>
<!-- 139662217096384 -->
<g id="node11" class="node">
<title>139662217096384</title>
<polygon fill="black" stroke="black" points="1062.25,-36 1008.25,-36 1008.25,0 1062.25,0 1062.25,-36"/>
</g>
<!-- 139662240659936 -->
<g id="node43" class="node">
<title>139662240659936</title>
<ellipse fill="white" stroke="black" cx="1788.91" cy="-225" rx="27" ry="27"/>
</g>
<!-- 139662217096384&#45;&gt;139662240659936 -->
<g id="edge44" class="edge">
<title>139662217096384&#45;&gt;139662240659936</title>
<path fill="none" stroke="black" d="M1052.94,-36.46C1082.33,-66.83 1146.63,-124 1214.25,-124 1214.25,-124 1214.25,-124 1609.91,-124 1670.77,-124 1729.87,-169.21 1762.32,-199.13"/>
<polygon fill="black" stroke="black" points="1759.93,-201.68 1769.6,-206 1764.73,-196.59 1759.93,-201.68"/>
</g>
<!-- 139662217168704 -->
<g id="node12" class="node">
<title>139662217168704</title>
<polygon fill="black" stroke="black" points="528.29,-191 474.29,-191 474.29,-155 528.29,-155 528.29,-191"/>
</g>
<!-- 139662217168704&#45;&gt;139662217175664 -->
<g id="edge49" class="edge">
<title>139662217168704&#45;&gt;139662217175664</title>
<path fill="none" stroke="black" d="M528.43,-182.84C539.41,-186.97 552.32,-191.83 564.01,-196.23"/>
<polygon fill="black" stroke="black" points="562.89,-199.55 573.48,-199.79 565.36,-193 562.89,-199.55"/>
</g>
<!-- 139662217170480 -->
<g id="node36" class="node">
<title>139662217170480</title>
<ellipse fill="white" stroke="black" cx="598.94" cy="-137" rx="27" ry="27"/>
</g>
<!-- 139662217168704&#45;&gt;139662217170480 -->
<g id="edge50" class="edge">
<title>139662217168704&#45;&gt;139662217170480</title>
<path fill="none" stroke="black" d="M528.43,-163.16C539.41,-159.03 552.32,-154.17 564.01,-149.77"/>
<polygon fill="black" stroke="black" points="565.36,-153 573.48,-146.21 562.89,-146.45 565.36,-153"/>
</g>
<!-- 139662217179312 -->
<g id="node39" class="node">
<title>139662217179312</title>
<ellipse fill="white" stroke="black" cx="598.94" cy="-65" rx="27" ry="27"/>
</g>
<!-- 139662217168704&#45;&gt;139662217179312 -->
<g id="edge51" class="edge">
<title>139662217168704&#45;&gt;139662217179312</title>
<path fill="none" stroke="black" d="M518.52,-154.68C533.6,-137.65 556.28,-112.04 573.55,-92.55"/>
<polygon fill="black" stroke="black" points="576.33,-94.68 580.34,-84.88 571.09,-90.04 576.33,-94.68"/>
</g>
<!-- 139662240659792 -->
<g id="node13" class="node">
<title>139662240659792</title>
<polygon fill="black" stroke="black" points="1905.91,-243 1851.91,-243 1851.91,-207 1905.91,-207 1905.91,-243"/>
</g>
<!-- 139662238819456 -->
<g id="node46" class="node">
<title>139662238819456</title>
<ellipse fill="white" stroke="black" cx="1972.91" cy="-225" rx="27" ry="27"/>
<ellipse fill="none" stroke="black" cx="1972.91" cy="-225" rx="31" ry="31"/>
<text text-anchor="start" x="1960.91" y="-215.4" font-family="Times,serif" font-size="32.00">■</text>
</g>
<!-- 139662240659792&#45;&gt;139662238819456 -->
<g id="edge58" class="edge">
<title>139662240659792&#45;&gt;139662238819456</title>
<path fill="none" stroke="black" d="M1906.03,-225C1914.05,-225 1923.06,-225 1931.79,-225"/>
<polygon fill="black" stroke="black" points="1931.83,-228.5 1941.83,-225 1931.83,-221.5 1931.83,-228.5"/>
</g>
<!-- 139662217176144 -->
<g id="node14" class="node">
<title>139662217176144</title>
<polygon fill="white" stroke="black" points="972.24,-146 887.26,-146 887.26,-110 972.24,-110 972.24,-146"/>
<text text-anchor="middle" x="929.75" y="-124.4" font-family="Times,serif" font-size="12.00">IV Antibiotics</text>
</g>
<!-- 139662217175424 -->
<g id="node37" class="node">
<title>139662217175424</title>
<ellipse fill="white" stroke="black" cx="1035.25" cy="-165" rx="27" ry="27"/>
</g>
<!-- 139662217176144&#45;&gt;139662217175424 -->
<g id="edge7" class="edge">
<title>139662217176144&#45;&gt;139662217175424</title>
<path fill="none" stroke="black" d="M972.25,-142.84C981.4,-146.11 991,-149.54 999.84,-152.7"/>
<polygon fill="black" stroke="black" points="998.83,-156.06 1009.42,-156.13 1001.19,-149.46 998.83,-156.06"/>
</g>
<!-- 139662217174608 -->
<g id="node15" class="node">
<title>139662217174608</title>
<polygon fill="black" stroke="black" points="1332.25,-295 1278.25,-295 1278.25,-259 1332.25,-259 1332.25,-295"/>
</g>
<!-- 139662217179264 -->
<g id="node41" class="node">
<title>139662217179264</title>
<ellipse fill="white" stroke="black" cx="1395.25" cy="-277" rx="27" ry="27"/>
</g>
<!-- 139662217174608&#45;&gt;139662217179264 -->
<g id="edge10" class="edge">
<title>139662217174608&#45;&gt;139662217179264</title>
<path fill="none" stroke="black" d="M1332.65,-277C1340.64,-277 1349.56,-277 1358.07,-277"/>
<polygon fill="black" stroke="black" points="1358.17,-280.5 1368.17,-277 1358.17,-273.5 1358.17,-280.5"/>
</g>
<!-- 139662241462368 -->
<g id="node16" class="node">
<title>139662241462368</title>
<polygon fill="black" stroke="black" points="152.32,-224 98.32,-224 98.32,-188 152.32,-188 152.32,-224"/>
</g>
<!-- 139662238816912 -->
<g id="node35" class="node">
<title>139662238816912</title>
<ellipse fill="white" stroke="black" cx="223.64" cy="-206" rx="27" ry="27"/>
</g>
<!-- 139662241462368&#45;&gt;139662238816912 -->
<g id="edge57" class="edge">
<title>139662241462368&#45;&gt;139662238816912</title>
<path fill="none" stroke="black" d="M152.39,-206C162.88,-206 175.16,-206 186.49,-206"/>
<polygon fill="black" stroke="black" points="186.55,-209.5 196.55,-206 186.55,-202.5 186.55,-209.5"/>
</g>
<!-- 139662217170528 -->
<g id="node17" class="node">
<title>139662217170528</title>
<polygon fill="black" stroke="black" points="1152.25,-243 1098.25,-243 1098.25,-207 1152.25,-207 1152.25,-243"/>
</g>
<!-- 139662217170528&#45;&gt;139662217168656 -->
<g id="edge47" class="edge">
<title>139662217170528&#45;&gt;139662217168656</title>
<path fill="none" stroke="black" d="M1152.65,-240.6C1162.18,-246.24 1173.04,-252.65 1182.95,-258.51"/>
<polygon fill="black" stroke="black" points="1181.34,-261.62 1191.73,-263.69 1184.9,-255.59 1181.34,-261.62"/>
</g>
<!-- 139662217183200 -->
<g id="node18" class="node">
<title>139662217183200</title>
<polygon fill="white" stroke="black" points="761.42,-141 661.79,-141 661.79,-105 761.42,-105 761.42,-141"/>
<text text-anchor="middle" x="711.6" y="-119.4" font-family="Times,serif" font-size="12.00">ER Sepsis Triage</text>
</g>
<!-- 139662217179552 -->
<g id="node38" class="node">
<title>139662217179552</title>
<ellipse fill="white" stroke="black" cx="824.26" cy="-118" rx="27" ry="27"/>
</g>
<!-- 139662217183200&#45;&gt;139662217179552 -->
<g id="edge8" class="edge">
<title>139662217183200&#45;&gt;139662217179552</title>
<path fill="none" stroke="black" d="M761.46,-120.79C769.99,-120.41 778.74,-120.01 786.86,-119.64"/>
<polygon fill="black" stroke="black" points="787.28,-123.13 797.11,-119.18 786.97,-116.14 787.28,-123.13"/>
</g>
<!-- 139662217172064 -->
<g id="node19" class="node">
<title>139662217172064</title>
<polygon fill="white" stroke="black" points="758.09,-82 665.11,-82 665.11,-46 758.09,-46 758.09,-82"/>
<text text-anchor="middle" x="711.6" y="-60.4" font-family="Times,serif" font-size="12.00">ER Registration</text>
</g>
<!-- 139662217177248 -->
<g id="node40" class="node">
<title>139662217177248</title>
<ellipse fill="white" stroke="black" cx="929.75" cy="-65" rx="27" ry="27"/>
</g>
<!-- 139662217172064&#45;&gt;139662217177248 -->
<g id="edge3" class="edge">
<title>139662217172064&#45;&gt;139662217177248</title>
<path fill="none" stroke="black" d="M758.18,-64.21C798.08,-64.4 855.31,-64.66 892.26,-64.83"/>
<polygon fill="black" stroke="black" points="892.56,-68.33 902.57,-64.88 892.59,-61.33 892.56,-68.33"/>
</g>
<!-- 139662217097584 -->
<g id="node20" class="node">
<title>139662217097584</title>
<polygon fill="black" stroke="black" points="1725.91,-449 1671.91,-449 1671.91,-413 1725.91,-413 1725.91,-449"/>
</g>
<!-- 139662217097584&#45;&gt;139662240659936 -->
<g id="edge48" class="edge">
<title>139662217097584&#45;&gt;139662240659936</title>
<path fill="none" stroke="black" d="M1707.72,-412.72C1722.47,-378.21 1754.6,-302.98 1773.41,-258.95"/>
<polygon fill="black" stroke="black" points="1776.73,-260.1 1777.44,-249.53 1770.29,-257.35 1776.73,-260.1"/>
</g>
<!-- 139662217095280 -->
<g id="node21" class="node">
<title>139662217095280</title>
<polygon fill="black" stroke="black" points="738.6,-449 684.6,-449 684.6,-413 738.6,-413 738.6,-449"/>
</g>
<!-- 139662217095280&#45;&gt;139662217086640 -->
<g id="edge39" class="edge">
<title>139662217095280&#45;&gt;139662217086640</title>
<path fill="none" stroke="black" d="M684.58,-431.6C630,-432.84 503.42,-435.74 440.91,-437.17"/>
<polygon fill="black" stroke="black" points="440.64,-433.68 430.73,-437.4 440.8,-440.67 440.64,-433.68"/>
</g>
<!-- 139662217178736 -->
<g id="node22" class="node">
<title>139662217178736</title>
<polygon fill="white" stroke="black" points="1545.75,-343 1458.41,-343 1458.41,-307 1545.75,-307 1545.75,-343"/>
<text text-anchor="middle" x="1502.08" y="-321.4" font-family="Times,serif" font-size="12.00">Admission NC</text>
</g>
<!-- 139662217176528 -->
<g id="node42" class="node">
<title>139662217176528</title>
<ellipse fill="white" stroke="black" cx="1608.91" cy="-330" rx="27" ry="27"/>
</g>
<!-- 139662217178736&#45;&gt;139662217176528 -->
<g id="edge9" class="edge">
<title>139662217178736&#45;&gt;139662217176528</title>
<path fill="none" stroke="black" d="M1546.02,-327.05C1554.53,-327.45 1563.38,-327.88 1571.64,-328.27"/>
<polygon fill="black" stroke="black" points="1571.56,-331.77 1581.72,-328.75 1571.9,-324.78 1571.56,-331.77"/>
</g>
<!-- 139662217180656 -->
<g id="node23" class="node">
<title>139662217180656</title>
<polygon fill="black" stroke="black" points="1725.91,-321 1671.91,-321 1671.91,-285 1725.91,-285 1725.91,-321"/>
</g>
<!-- 139662217180656&#45;&gt;139662217179264 -->
<g id="edge43" class="edge">
<title>139662217180656&#45;&gt;139662217179264</title>
<path fill="none" stroke="black" d="M1671.72,-298.76C1660.69,-297.09 1647.7,-295.27 1635.91,-294 1564,-286.24 1479.56,-281.19 1432.55,-278.74"/>
<polygon fill="black" stroke="black" points="1432.71,-275.25 1422.55,-278.23 1432.35,-282.24 1432.71,-275.25"/>
</g>
<!-- 139662239254528 -->
<g id="node24" class="node">
<title>139662239254528</title>
<ellipse fill="white" stroke="black" cx="27" cy="-206" rx="27" ry="27"/>
<text text-anchor="start" x="14.25" y="-195.8" font-family="Times,serif" font-size="34.00">●</text>
</g>
<!-- 139662239254528&#45;&gt;139662241462368 -->
<g id="edge46" class="edge">
<title>139662239254528&#45;&gt;139662241462368</title>
<path fill="none" stroke="black" d="M54.07,-206C64.56,-206 76.84,-206 88.17,-206"/>
<polygon fill="black" stroke="black" points="88.23,-209.5 98.23,-206 88.23,-202.5 88.23,-209.5"/>
</g>
<!-- 139662217086640&#45;&gt;139662217090432 -->
<g id="edge11" class="edge">
<title>139662217086640&#45;&gt;139662217090432</title>
<path fill="none" stroke="black" d="M428.78,-449.1C439.69,-454.13 452.82,-460.16 464.82,-465.68"/>
<polygon fill="black" stroke="black" points="463.6,-468.97 474.15,-469.97 466.52,-462.61 463.6,-468.97"/>
</g>
<!-- 139662217085056&#45;&gt;139662217097584 -->
<g id="edge13" class="edge">
<title>139662217085056&#45;&gt;139662217097584</title>
<path fill="none" stroke="black" d="M626.06,-484.26C667.74,-481.65 751.86,-477 823.26,-477 823.26,-477 823.26,-477 1503.08,-477 1559.87,-477 1623.54,-458.26 1662.17,-444.7"/>
<polygon fill="black" stroke="black" points="1663.67,-447.88 1671.9,-441.21 1661.31,-441.29 1663.67,-447.88"/>
</g>
<!-- 139662217085056&#45;&gt;139662217095280 -->
<g id="edge12" class="edge">
<title>139662217085056&#45;&gt;139662217095280</title>
<path fill="none" stroke="black" d="M623.41,-474.34C638.51,-466.83 658.4,-456.94 675.38,-448.51"/>
<polygon fill="black" stroke="black" points="677.06,-451.58 684.46,-444 673.94,-445.31 677.06,-451.58"/>
</g>
<!-- 139662217095520&#45;&gt;139662217095472 -->
<g id="edge14" class="edge">
<title>139662217095520&#45;&gt;139662217095472</title>
<path fill="none" stroke="black" d="M430.78,-367.64C438.73,-368.14 447.69,-368.7 456.48,-369.25"/>
<polygon fill="black" stroke="black" points="456.44,-372.76 466.64,-369.89 456.87,-365.77 456.44,-372.76"/>
</g>
<!-- 139662217086400&#45;&gt;139662217097248 -->
<g id="edge15" class="edge">
<title>139662217086400&#45;&gt;139662217097248</title>
<path fill="none" stroke="black" d="M624.5,-366.68C639.41,-361.02 658.68,-353.71 675.21,-347.43"/>
<polygon fill="black" stroke="black" points="676.46,-350.7 684.57,-343.88 673.98,-344.16 676.46,-350.7"/>
</g>
<!-- 139662217086400&#45;&gt;139662217097584 -->
<g id="edge16" class="edge">
<title>139662217086400&#45;&gt;139662217097584</title>
<path fill="none" stroke="black" d="M626.06,-377.74C667.74,-380.35 751.86,-385 823.26,-385 823.26,-385 823.26,-385 1503.08,-385 1559.87,-385 1623.54,-403.74 1662.17,-417.3"/>
<polygon fill="black" stroke="black" points="1661.31,-420.71 1671.9,-420.79 1663.67,-414.12 1661.31,-420.71"/>
</g>
<!-- 139662217100704&#45;&gt;139662217098112 -->
<g id="edge17" class="edge">
<title>139662217100704&#45;&gt;139662217098112</title>
<path fill="none" stroke="black" d="M430.27,-525.82C439.23,-527.51 449.51,-529.44 459.4,-531.3"/>
<polygon fill="black" stroke="black" points="459,-534.79 469.48,-533.2 460.3,-527.91 459,-534.79"/>
</g>
<!-- 139662217088800&#45;&gt;139662217097584 -->
<g id="edge18" class="edge">
<title>139662217088800&#45;&gt;139662217097584</title>
<path fill="none" stroke="black" d="M1242.47,-530.08C1277.17,-527.72 1340.27,-524 1394.25,-524 1394.25,-524 1394.25,-524 1503.08,-524 1563.91,-524 1582.71,-520.5 1635.91,-491 1651.49,-482.36 1665.98,-468.8 1677.03,-456.75"/>
<polygon fill="black" stroke="black" points="1679.77,-458.93 1683.77,-449.12 1674.52,-454.3 1679.77,-458.93"/>
</g>
<!-- 139662217100608&#45;&gt;139662217173264 -->
<g id="edge19" class="edge">
<title>139662217100608&#45;&gt;139662217173264</title>
<path fill="none" stroke="black" d="M430.9,-283C468.09,-283 538.21,-283 597.94,-283 597.94,-283 597.94,-283 930.75,-283 985.42,-283 1048.76,-281.38 1087.66,-280.21"/>
<polygon fill="black" stroke="black" points="1088.07,-283.7 1097.96,-279.89 1087.86,-276.7 1088.07,-283.7"/>
</g>
<!-- 139662217100608&#45;&gt;139662217168704 -->
<g id="edge20" class="edge">
<title>139662217100608&#45;&gt;139662217168704</title>
<path fill="none" stroke="black" d="M421.96,-263.08C437.58,-245.12 460.64,-218.6 477.7,-198.99"/>
<polygon fill="black" stroke="black" points="480.45,-201.15 484.37,-191.31 475.17,-196.56 480.45,-201.15"/>
</g>
<!-- 139662217168656&#45;&gt;139662217174608 -->
<g id="edge21" class="edge">
<title>139662217168656&#45;&gt;139662217174608</title>
<path fill="none" stroke="black" d="M1242.65,-277C1250.64,-277 1259.56,-277 1268.07,-277"/>
<polygon fill="black" stroke="black" points="1268.17,-280.5 1278.17,-277 1268.17,-273.5 1268.17,-280.5"/>
</g>
<!-- 139662217175664&#45;&gt;139662217173888 -->
<g id="edge22" class="edge">
<title>139662217175664&#45;&gt;139662217173888</title>
<path fill="none" stroke="black" d="M625.89,-212.52C638.64,-214.24 654.32,-216.37 668.71,-218.32"/>
<polygon fill="black" stroke="black" points="668.52,-221.83 678.9,-219.7 669.46,-214.89 668.52,-221.83"/>
</g>
<!-- 139662217167072&#45;&gt;139662217179024 -->
<g id="edge23" class="edge">
<title>139662217167072&#45;&gt;139662217179024</title>
<path fill="none" stroke="black" d="M849.26,-217.33C862.39,-211.5 878.9,-204.16 893.47,-197.68"/>
<polygon fill="black" stroke="black" points="894.99,-200.84 902.7,-193.58 892.14,-194.44 894.99,-200.84"/>
</g>
<!-- 139662217167072&#45;&gt;139662217170528 -->
<g id="edge24" class="edge">
<title>139662217167072&#45;&gt;139662217170528</title>
<path fill="none" stroke="black" d="M851.27,-227.74C904.61,-227.2 1026.51,-225.98 1087.74,-225.37"/>
<polygon fill="black" stroke="black" points="1088.12,-228.86 1098.08,-225.26 1088.05,-221.86 1088.12,-228.86"/>
</g>
<!-- 139662238816912&#45;&gt;139662217097152 -->
<g id="edge26" class="edge">
<title>139662238816912&#45;&gt;139662217097152</title>
<path fill="none" stroke="black" d="M235.61,-230.43C252.06,-267.07 283.03,-336.06 300.27,-374.45"/>
<polygon fill="black" stroke="black" points="297.25,-376.27 304.54,-383.96 303.64,-373.41 297.25,-376.27"/>
</g>
<!-- 139662238816912&#45;&gt;139662217096384 -->
<g id="edge25" class="edge">
<title>139662238816912&#45;&gt;139662217096384</title>
<path fill="none" stroke="black" d="M233.74,-180.78C254.63,-127.84 311.4,-10 402.64,-10 402.64,-10 402.64,-10 825.26,-10 885.88,-10 956.33,-13.4 997.99,-15.77"/>
<polygon fill="black" stroke="black" points="998.01,-19.28 1008.19,-16.36 998.41,-12.29 998.01,-19.28"/>
</g>
<!-- 139662217170480&#45;&gt;139662217183200 -->
<g id="edge27" class="edge">
<title>139662217170480&#45;&gt;139662217183200</title>
<path fill="none" stroke="black" d="M625.89,-133.72C633.69,-132.73 642.58,-131.61 651.61,-130.46"/>
<polygon fill="black" stroke="black" points="652.32,-133.9 661.8,-129.17 651.44,-126.96 652.32,-133.9"/>
</g>
<!-- 139662217175424&#45;&gt;139662217170528 -->
<g id="edge28" class="edge">
<title>139662217175424&#45;&gt;139662217170528</title>
<path fill="none" stroke="black" d="M1058,-179.83C1067.56,-186.35 1079.02,-194.16 1089.7,-201.44"/>
<polygon fill="black" stroke="black" points="1087.81,-204.39 1098.04,-207.13 1091.75,-198.61 1087.81,-204.39"/>
</g>
<!-- 139662217179552&#45;&gt;139662217176144 -->
<g id="edge29" class="edge">
<title>139662217179552&#45;&gt;139662217176144</title>
<path fill="none" stroke="black" d="M851.37,-120.52C859.21,-121.28 868.08,-122.14 876.97,-123"/>
<polygon fill="black" stroke="black" points="876.65,-126.48 886.94,-123.96 877.32,-119.51 876.65,-126.48"/>
</g>
<!-- 139662217179312&#45;&gt;139662217172064 -->
<g id="edge30" class="edge">
<title>139662217179312&#45;&gt;139662217172064</title>
<path fill="none" stroke="black" d="M626.17,-64.76C634.89,-64.68 644.97,-64.59 655.05,-64.5"/>
<polygon fill="black" stroke="black" points="655.12,-68 665.09,-64.41 655.06,-61 655.12,-68"/>
</g>
<!-- 139662217177248&#45;&gt;139662217170528 -->
<g id="edge31" class="edge">
<title>139662217177248&#45;&gt;139662217170528</title>
<path fill="none" stroke="black" d="M955.88,-72.63C984.23,-82.21 1030.51,-100.88 1062.25,-129 1084.01,-148.29 1101.17,-176.95 1111.87,-197.94"/>
<polygon fill="black" stroke="black" points="1108.77,-199.56 1116.33,-206.98 1115.05,-196.46 1108.77,-199.56"/>
</g>
<!-- 139662217179264&#45;&gt;139662217178736 -->
<g id="edge32" class="edge">
<title>139662217179264&#45;&gt;139662217178736</title>
<path fill="none" stroke="black" d="M1420.03,-287.89C1429.66,-292.3 1441.15,-297.56 1452.4,-302.71"/>
<polygon fill="black" stroke="black" points="1451.21,-306.02 1461.76,-307 1454.12,-299.65 1451.21,-306.02"/>
</g>
<!-- 139662217176528&#45;&gt;139662217097584 -->
<g id="edge34" class="edge">
<title>139662217176528&#45;&gt;139662217097584</title>
<path fill="none" stroke="black" d="M1627.3,-349.95C1640.99,-365.67 1660.18,-387.69 1675.1,-404.82"/>
<polygon fill="black" stroke="black" points="1672.83,-407.54 1682.04,-412.78 1678.11,-402.95 1672.83,-407.54"/>
</g>
<!-- 139662217176528&#45;&gt;139662217180656 -->
<g id="edge33" class="edge">
<title>139662217176528&#45;&gt;139662217180656</title>
<path fill="none" stroke="black" d="M1634.89,-322.34C1643.33,-319.75 1652.92,-316.81 1662.02,-314.01"/>
<polygon fill="black" stroke="black" points="1663.11,-317.34 1671.64,-311.06 1661.05,-310.65 1663.11,-317.34"/>
</g>
<!-- 139662240659936&#45;&gt;139662240659792 -->
<g id="edge35" class="edge">
<title>139662240659936&#45;&gt;139662240659792</title>
<path fill="none" stroke="black" d="M1816.32,-225C1824.31,-225 1833.22,-225 1841.74,-225"/>
<polygon fill="black" stroke="black" points="1841.83,-228.5 1851.83,-225 1841.83,-221.5 1841.83,-228.5"/>
</g>
<!-- 139662217085152&#45;&gt;139662241449216 -->
<g id="edge36" class="edge">
<title>139662217085152&#45;&gt;139662241449216</title>
<path fill="none" stroke="black" d="M377.95,-650.91C366.73,-654.5 353.18,-658.22 340.64,-660 282.27,-668.3 214.13,-662.89 170.63,-657.56"/>
<polygon fill="black" stroke="black" points="171.02,-654.08 160.66,-656.28 170.14,-661.02 171.02,-654.08"/>
</g>
<!-- 139662217088272&#45;&gt;139662217092400 -->
<g id="edge37" class="edge">
<title>139662217088272&#45;&gt;139662217092400</title>
<path fill="none" stroke="black" d="M250.57,-626.65C258.73,-627.49 267.9,-628.42 276.63,-629.32"/>
<polygon fill="black" stroke="black" points="276.29,-632.8 286.59,-630.34 277,-625.84 276.29,-632.8"/>
</g>
<!-- 139662217088272&#45;&gt;139662217097584 -->
<g id="edge38" class="edge">
<title>139662217088272&#45;&gt;139662217097584</title>
<path fill="none" stroke="black" d="M249.36,-615.51C283.43,-604.59 346.93,-587 402.64,-587 402.64,-587 402.64,-587 1503.08,-587 1569.61,-587 1585.69,-561.63 1635.91,-518 1655.44,-501.04 1672.09,-476.74 1683.2,-458.13"/>
<polygon fill="black" stroke="black" points="1686.36,-459.66 1688.35,-449.25 1680.3,-456.15 1686.36,-459.66"/>
</g>
</g>
</svg>
