<?xml version="1.0" encoding="UTF-8" standalone="no"?>
<!DOCTYPE svg PUBLIC "-//W3C//DTD SVG 1.1//EN"
 "http://www.w3.org/Graphics/SVG/1.1/DTD/svg11.dtd">
<!-- Generated by graphviz version 2.48.0 (0)
 -->
<!-- Title: imdf_net_1720370178.0045865 Pages: 1 -->
<svg width="2012pt" height="604pt"
 viewBox="0.00 0.00 2011.91 604.00" xmlns="http://www.w3.org/2000/svg" xmlns:xlink="http://www.w3.org/1999/xlink">
<g id="graph0" class="graph" transform="scale(1 1) rotate(0) translate(4 600)">
<title>imdf_net_1720370178.0045865</title>
<polygon fill="white" stroke="transparent" points="-4,4 -4,-600 2007.91,-600 2007.91,4 -4,4"/>
<!-- 139662241449216 -->
<g id="node1" class="node">
<title>139662241449216</title>
<polygon fill="white" stroke="black" points="160.46,-549 90.18,-549 90.18,-513 160.46,-513 160.46,-549"/>
<text text-anchor="middle" x="125.32" y="-527.4" font-family="Times,serif" font-size="12.00">Leucocytes</text>
</g>
<!-- 139662217086496 -->
<g id="node45" class="node">
<title>139662217086496</title>
<ellipse fill="white" stroke="black" cx="223.64" cy="-559" rx="27" ry="27"/>
</g>
<!-- 139662241449216&#45;&gt;139662217086496 -->
<g id="edge3" class="edge">
<title>139662241449216&#45;&gt;139662217086496</title>
<path fill="none" stroke="black" d="M160.55,-540.95C169.43,-543.53 179,-546.31 187.9,-548.9"/>
<polygon fill="black" stroke="black" points="187.02,-552.29 197.6,-551.72 188.98,-545.57 187.02,-552.29"/>
</g>
<!-- 139662217088512 -->
<g id="node2" class="node">
<title>139662217088512</title>
<polygon fill="white" stroke="black" points="528.29,-496 474.29,-496 474.29,-460 528.29,-460 528.29,-496"/>
<text text-anchor="middle" x="501.29" y="-474.4" font-family="Times,serif" font-size="12.00">CRP</text>
</g>
<!-- 139662217088896 -->
<g id="node26" class="node">
<title>139662217088896</title>
<ellipse fill="white" stroke="black" cx="598.94" cy="-482" rx="27" ry="27"/>
</g>
<!-- 139662217088512&#45;&gt;139662217088896 -->
<g id="edge9" class="edge">
<title>139662217088512&#45;&gt;139662217088896</title>
<path fill="none" stroke="black" d="M528.43,-479.09C538.66,-479.52 550.56,-480.02 561.6,-480.48"/>
<polygon fill="black" stroke="black" points="561.7,-483.99 571.84,-480.91 561.99,-476.99 561.7,-483.99"/>
</g>
<!-- 139662217179264 -->
<g id="node3" class="node">
<title>139662217179264</title>
<polygon fill="black" stroke="black" points="1152.25,-276 1098.25,-276 1098.25,-240 1152.25,-240 1152.25,-276"/>
</g>
<!-- 139662217177152 -->
<g id="node32" class="node">
<title>139662217177152</title>
<ellipse fill="white" stroke="black" cx="1215.25" cy="-244" rx="27" ry="27"/>
</g>
<!-- 139662217179264&#45;&gt;139662217177152 -->
<g id="edge41" class="edge">
<title>139662217179264&#45;&gt;139662217177152</title>
<path fill="none" stroke="black" d="M1152.65,-253.8C1160.8,-252.5 1169.92,-251.05 1178.58,-249.67"/>
<polygon fill="black" stroke="black" points="1179.14,-253.13 1188.47,-248.1 1178.04,-246.22 1179.14,-253.13"/>
</g>
<!-- 139662217092640 -->
<g id="node4" class="node">
<title>139662217092640</title>
<polygon fill="white" stroke="black" points="536.1,-398 466.49,-398 466.49,-362 536.1,-362 536.1,-398"/>
<text text-anchor="middle" x="501.29" y="-376.4" font-family="Times,serif" font-size="12.00">LacticAcid</text>
</g>
<!-- 139662217100896 -->
<g id="node28" class="node">
<title>139662217100896</title>
<ellipse fill="white" stroke="black" cx="598.94" cy="-372" rx="27" ry="27"/>
</g>
<!-- 139662217092640&#45;&gt;139662217100896 -->
<g id="edge1" class="edge">
<title>139662217092640&#45;&gt;139662217100896</title>
<path fill="none" stroke="black" d="M536.02,-377.18C544.35,-376.48 553.32,-375.73 561.76,-375.03"/>
<polygon fill="black" stroke="black" points="562.06,-378.51 571.74,-374.19 561.48,-371.54 562.06,-378.51"/>
</g>
<!-- 139662217169184 -->
<g id="node5" class="node">
<title>139662217169184</title>
<polygon fill="black" stroke="black" points="1152.25,-177 1098.25,-177 1098.25,-141 1152.25,-141 1152.25,-177"/>
</g>
<!-- 139662217169184&#45;&gt;139662217177152 -->
<g id="edge47" class="edge">
<title>139662217169184&#45;&gt;139662217177152</title>
<path fill="none" stroke="black" d="M1144.91,-177.03C1157.42,-189.11 1174.09,-205.21 1187.94,-218.59"/>
<polygon fill="black" stroke="black" points="1185.68,-221.28 1195.31,-225.71 1190.55,-216.24 1185.68,-221.28"/>
</g>
<!-- 139662217171872 -->
<g id="node6" class="node">
<title>139662217171872</title>
<polygon fill="white" stroke="black" points="744.25,-208 678.95,-208 678.95,-172 744.25,-172 744.25,-208"/>
<text text-anchor="middle" x="711.6" y="-186.4" font-family="Times,serif" font-size="12.00">ER Triage</text>
</g>
<!-- 139662217168368 -->
<g id="node34" class="node">
<title>139662217168368</title>
<ellipse fill="white" stroke="black" cx="824.26" cy="-186" rx="27" ry="27"/>
</g>
<!-- 139662217171872&#45;&gt;139662217168368 -->
<g id="edge8" class="edge">
<title>139662217171872&#45;&gt;139662217168368</title>
<path fill="none" stroke="black" d="M744.31,-188.85C757.65,-188.37 773.23,-187.81 787.02,-187.31"/>
<polygon fill="black" stroke="black" points="787.27,-190.8 797.14,-186.94 787.02,-183.81 787.27,-190.8"/>
</g>
<!-- 139662217167648 -->
<g id="node7" class="node">
<title>139662217167648</title>
<polygon fill="white" stroke="black" points="758.09,-82 665.11,-82 665.11,-46 758.09,-46 758.09,-82"/>
<text text-anchor="middle" x="711.6" y="-60.4" font-family="Times,serif" font-size="12.00">ER Registration</text>
</g>
<!-- 139662217168752 -->
<g id="node40" class="node">
<title>139662217168752</title>
<ellipse fill="white" stroke="black" cx="929.75" cy="-68" rx="27" ry="27"/>
</g>
<!-- 139662217167648&#45;&gt;139662217168752 -->
<g id="edge5" class="edge">
<title>139662217167648&#45;&gt;139662217168752</title>
<path fill="none" stroke="black" d="M758.18,-64.84C798.08,-65.58 855.31,-66.64 892.26,-67.32"/>
<polygon fill="black" stroke="black" points="892.51,-70.83 902.57,-67.52 892.64,-63.83 892.51,-70.83"/>
</g>
<!-- 139662217181232 -->
<g id="node8" class="node">
<title>139662217181232</title>
<polygon fill="white" stroke="black" points="761.42,-149 661.79,-149 661.79,-113 761.42,-113 761.42,-149"/>
<text text-anchor="middle" x="711.6" y="-127.4" font-family="Times,serif" font-size="12.00">ER Sepsis Triage</text>
</g>
<!-- 139662217177440 -->
<g id="node38" class="node">
<title>139662217177440</title>
<ellipse fill="white" stroke="black" cx="824.26" cy="-114" rx="27" ry="27"/>
</g>
<!-- 139662217181232&#45;&gt;139662217177440 -->
<g id="edge7" class="edge">
<title>139662217181232&#45;&gt;139662217177440</title>
<path fill="none" stroke="black" d="M761.46,-123.49C770.17,-122.16 779.1,-120.78 787.37,-119.51"/>
<polygon fill="black" stroke="black" points="788.06,-122.95 797.41,-117.97 787,-116.03 788.06,-122.95"/>
</g>
<!-- 139662217089856 -->
<g id="node9" class="node">
<title>139662217089856</title>
<polygon fill="black" stroke="black" points="340.64,-379 286.64,-379 286.64,-343 340.64,-343 340.64,-379"/>
</g>
<!-- 139662217085776 -->
<g id="node25" class="node">
<title>139662217085776</title>
<ellipse fill="white" stroke="black" cx="403.64" cy="-469" rx="27" ry="27"/>
</g>
<!-- 139662217089856&#45;&gt;139662217085776 -->
<g id="edge52" class="edge">
<title>139662217089856&#45;&gt;139662217085776</title>
<path fill="none" stroke="black" d="M329.57,-379.32C343.21,-396.07 363.61,-421.1 379.39,-440.46"/>
<polygon fill="black" stroke="black" points="376.8,-442.83 385.83,-448.37 382.23,-438.41 376.8,-442.83"/>
</g>
<!-- 139662217093600 -->
<g id="node27" class="node">
<title>139662217093600</title>
<ellipse fill="white" stroke="black" cx="403.64" cy="-397" rx="27" ry="27"/>
</g>
<!-- 139662217089856&#45;&gt;139662217093600 -->
<g id="edge53" class="edge">
<title>139662217089856&#45;&gt;139662217093600</title>
<path fill="none" stroke="black" d="M341.04,-371.8C349.83,-375.4 359.75,-379.45 369.01,-383.24"/>
<polygon fill="black" stroke="black" points="367.78,-386.52 378.36,-387.07 370.43,-380.04 367.78,-386.52"/>
</g>
<!-- 139662217098976 -->
<g id="node29" class="node">
<title>139662217098976</title>
<ellipse fill="white" stroke="black" cx="403.64" cy="-325" rx="27" ry="27"/>
</g>
<!-- 139662217089856&#45;&gt;139662217098976 -->
<g id="edge54" class="edge">
<title>139662217089856&#45;&gt;139662217098976</title>
<path fill="none" stroke="black" d="M341.04,-350.2C349.83,-346.6 359.75,-342.55 369.01,-338.76"/>
<polygon fill="black" stroke="black" points="370.43,-341.96 378.36,-334.93 367.78,-335.48 370.43,-341.96"/>
</g>
<!-- 139662217095568 -->
<g id="node31" class="node">
<title>139662217095568</title>
<ellipse fill="white" stroke="black" cx="403.64" cy="-253" rx="27" ry="27"/>
</g>
<!-- 139662217089856&#45;&gt;139662217095568 -->
<g id="edge55" class="edge">
<title>139662217089856&#45;&gt;139662217095568</title>
<path fill="none" stroke="black" d="M329.57,-342.68C343.21,-325.93 363.61,-300.9 379.39,-281.54"/>
<polygon fill="black" stroke="black" points="382.23,-283.59 385.83,-273.63 376.8,-279.17 382.23,-283.59"/>
</g>
<!-- 139662217090672 -->
<g id="node44" class="node">
<title>139662217090672</title>
<ellipse fill="white" stroke="black" cx="403.64" cy="-541" rx="27" ry="27"/>
</g>
<!-- 139662217089856&#45;&gt;139662217090672 -->
<g id="edge56" class="edge">
<title>139662217089856&#45;&gt;139662217090672</title>
<path fill="none" stroke="black" d="M321.06,-379.34C331.17,-407.31 352.2,-461.91 376.64,-505 377.78,-507.02 379.02,-509.05 380.3,-511.08"/>
<polygon fill="black" stroke="black" points="377.69,-513.46 386.17,-519.81 383.49,-509.56 377.69,-513.46"/>
</g>
<!-- 139662240655808 -->
<g id="node10" class="node">
<title>139662240655808</title>
<polygon fill="black" stroke="black" points="1905.91,-173 1851.91,-173 1851.91,-137 1905.91,-137 1905.91,-173"/>
</g>
<!-- 139662238819840 -->
<g id="node46" class="node">
<title>139662238819840</title>
<ellipse fill="white" stroke="black" cx="1972.91" cy="-155" rx="27" ry="27"/>
<ellipse fill="none" stroke="black" cx="1972.91" cy="-155" rx="31" ry="31"/>
<text text-anchor="start" x="1960.91" y="-145.4" font-family="Times,serif" font-size="32.00">■</text>
</g>
<!-- 139662240655808&#45;&gt;139662238819840 -->
<g id="edge58" class="edge">
<title>139662240655808&#45;&gt;139662238819840</title>
<path fill="none" stroke="black" d="M1906.03,-155C1914.05,-155 1923.06,-155 1931.79,-155"/>
<polygon fill="black" stroke="black" points="1931.83,-158.5 1941.83,-155 1931.83,-151.5 1931.83,-158.5"/>
</g>
<!-- 139662217093312 -->
<g id="node11" class="node">
<title>139662217093312</title>
<polygon fill="black" stroke="black" points="738.6,-548 684.6,-548 684.6,-512 738.6,-512 738.6,-548"/>
</g>
<!-- 139662217093312&#45;&gt;139662217085776 -->
<g id="edge39" class="edge">
<title>139662217093312&#45;&gt;139662217085776</title>
<path fill="none" stroke="black" d="M684.53,-531.04C639.03,-532.05 542.71,-530.58 466.64,-505 455.62,-501.29 444.39,-495.5 434.57,-489.63"/>
<polygon fill="black" stroke="black" points="436.32,-486.61 425.99,-484.29 432.62,-492.55 436.32,-486.61"/>
</g>
<!-- 139662217177920 -->
<g id="node12" class="node">
<title>139662217177920</title>
<polygon fill="black" stroke="black" points="956.75,-251 902.75,-251 902.75,-215 956.75,-215 956.75,-251"/>
</g>
<!-- 139662217175184 -->
<g id="node33" class="node">
<title>139662217175184</title>
<ellipse fill="white" stroke="black" cx="598.94" cy="-212" rx="27" ry="27"/>
</g>
<!-- 139662217177920&#45;&gt;139662217175184 -->
<g id="edge42" class="edge">
<title>139662217177920&#45;&gt;139662217175184</title>
<path fill="none" stroke="black" d="M902.61,-231.61C854.81,-229.03 750.13,-223.2 661.94,-217 653.52,-216.41 644.46,-215.71 635.93,-215.03"/>
<polygon fill="black" stroke="black" points="636.13,-211.53 625.88,-214.21 635.56,-218.51 636.13,-211.53"/>
</g>
<!-- 139662217173696 -->
<g id="node13" class="node">
<title>139662217173696</title>
<polygon fill="black" stroke="black" points="1332.25,-262 1278.25,-262 1278.25,-226 1332.25,-226 1332.25,-262"/>
</g>
<!-- 139662217175808 -->
<g id="node41" class="node">
<title>139662217175808</title>
<ellipse fill="white" stroke="black" cx="1395.25" cy="-244" rx="27" ry="27"/>
</g>
<!-- 139662217173696&#45;&gt;139662217175808 -->
<g id="edge10" class="edge">
<title>139662217173696&#45;&gt;139662217175808</title>
<path fill="none" stroke="black" d="M1332.65,-244C1340.64,-244 1349.56,-244 1358.07,-244"/>
<polygon fill="black" stroke="black" points="1358.17,-247.5 1368.17,-244 1358.17,-240.5 1358.17,-247.5"/>
</g>
<!-- 139662217178304 -->
<g id="node14" class="node">
<title>139662217178304</title>
<polygon fill="white" stroke="black" points="1545.75,-260 1458.41,-260 1458.41,-224 1545.75,-224 1545.75,-260"/>
<text text-anchor="middle" x="1502.08" y="-238.4" font-family="Times,serif" font-size="12.00">Admission NC</text>
</g>
<!-- 139662217176000 -->
<g id="node42" class="node">
<title>139662217176000</title>
<ellipse fill="white" stroke="black" cx="1608.91" cy="-241" rx="27" ry="27"/>
</g>
<!-- 139662217178304&#45;&gt;139662217176000 -->
<g id="edge6" class="edge">
<title>139662217178304&#45;&gt;139662217176000</title>
<path fill="none" stroke="black" d="M1546.02,-241.59C1554.53,-241.51 1563.38,-241.42 1571.64,-241.35"/>
<polygon fill="black" stroke="black" points="1571.75,-244.85 1581.72,-241.25 1571.68,-237.85 1571.75,-244.85"/>
</g>
<!-- 139662217180224 -->
<g id="node15" class="node">
<title>139662217180224</title>
<polygon fill="black" stroke="black" points="1725.91,-296 1671.91,-296 1671.91,-260 1725.91,-260 1725.91,-296"/>
</g>
<!-- 139662217180224&#45;&gt;139662217175808 -->
<g id="edge43" class="edge">
<title>139662217180224&#45;&gt;139662217175808</title>
<path fill="none" stroke="black" d="M1671.61,-280.16C1627.05,-283.12 1534.17,-286.29 1458.25,-269 1448.5,-266.78 1438.3,-263.23 1429.05,-259.49"/>
<polygon fill="black" stroke="black" points="1430.39,-256.25 1419.82,-255.57 1427.66,-262.7 1430.39,-256.25"/>
</g>
<!-- 139662217091536 -->
<g id="node16" class="node">
<title>139662217091536</title>
<polygon fill="black" stroke="black" points="340.64,-568 286.64,-568 286.64,-532 340.64,-532 340.64,-568"/>
</g>
<!-- 139662217091536&#45;&gt;139662217090672 -->
<g id="edge45" class="edge">
<title>139662217091536&#45;&gt;139662217090672</title>
<path fill="none" stroke="black" d="M341.04,-547.3C349.03,-546.48 357.95,-545.57 366.46,-544.7"/>
<polygon fill="black" stroke="black" points="366.97,-548.17 376.56,-543.67 366.25,-541.2 366.97,-548.17"/>
</g>
<!-- 139662217088464 -->
<g id="node17" class="node">
<title>139662217088464</title>
<polygon fill="black" stroke="black" points="738.6,-441 684.6,-441 684.6,-405 738.6,-405 738.6,-441"/>
</g>
<!-- 139662217088464&#45;&gt;139662217093600 -->
<g id="edge40" class="edge">
<title>139662217088464&#45;&gt;139662217093600</title>
<path fill="none" stroke="black" d="M684.53,-422.1C639.83,-420.37 545.72,-415.95 466.64,-407 458.17,-406.04 449.09,-404.73 440.56,-403.38"/>
<polygon fill="black" stroke="black" points="440.94,-399.9 430.51,-401.73 439.81,-406.81 440.94,-399.9"/>
</g>
<!-- 139662217095760 -->
<g id="node18" class="node">
<title>139662217095760</title>
<polygon fill="white" stroke="black" points="532.95,-343 469.63,-343 469.63,-307 532.95,-307 532.95,-343"/>
<text text-anchor="middle" x="501.29" y="-321.4" font-family="Times,serif" font-size="12.00">IV Liquid</text>
</g>
<!-- 139662217099360 -->
<g id="node30" class="node">
<title>139662217099360</title>
<ellipse fill="white" stroke="black" cx="1215.25" cy="-317" rx="27" ry="27"/>
</g>
<!-- 139662217095760&#45;&gt;139662217099360 -->
<g id="edge4" class="edge">
<title>139662217095760&#45;&gt;139662217099360</title>
<path fill="none" stroke="black" d="M532.98,-323.08C573.6,-320.72 647.45,-317 710.6,-317 710.6,-317 710.6,-317 1036.25,-317 1085.33,-317 1142.02,-317 1177.99,-317"/>
<polygon fill="black" stroke="black" points="1178.01,-320.5 1188.01,-317 1178.01,-313.5 1178.01,-320.5"/>
</g>
<!-- 139662217171536 -->
<g id="node19" class="node">
<title>139662217171536</title>
<polygon fill="white" stroke="black" points="972.24,-149 887.26,-149 887.26,-113 972.24,-113 972.24,-149"/>
<text text-anchor="middle" x="929.75" y="-127.4" font-family="Times,serif" font-size="12.00">IV Antibiotics</text>
</g>
<!-- 139662217173792 -->
<g id="node37" class="node">
<title>139662217173792</title>
<ellipse fill="white" stroke="black" cx="1035.25" cy="-131" rx="27" ry="27"/>
</g>
<!-- 139662217171536&#45;&gt;139662217173792 -->
<g id="edge2" class="edge">
<title>139662217171536&#45;&gt;139662217173792</title>
<path fill="none" stroke="black" d="M972.25,-131C980.79,-131 989.72,-131 998.06,-131"/>
<polygon fill="black" stroke="black" points="998.22,-134.5 1008.22,-131 998.22,-127.5 998.22,-134.5"/>
</g>
<!-- 139662241462368 -->
<g id="node20" class="node">
<title>139662241462368</title>
<polygon fill="black" stroke="black" points="152.32,-205 98.32,-205 98.32,-169 152.32,-169 152.32,-205"/>
</g>
<!-- 139662238818352 -->
<g id="node35" class="node">
<title>139662238818352</title>
<ellipse fill="white" stroke="black" cx="223.64" cy="-187" rx="27" ry="27"/>
</g>
<!-- 139662241462368&#45;&gt;139662238818352 -->
<g id="edge57" class="edge">
<title>139662241462368&#45;&gt;139662238818352</title>
<path fill="none" stroke="black" d="M152.39,-187C162.88,-187 175.16,-187 186.49,-187"/>
<polygon fill="black" stroke="black" points="186.55,-190.5 196.55,-187 186.55,-183.5 186.55,-190.5"/>
</g>
<!-- 139662217099744 -->
<g id="node21" class="node">
<title>139662217099744</title>
<polygon fill="black" stroke="black" points="1725.91,-369 1671.91,-369 1671.91,-333 1725.91,-333 1725.91,-369"/>
</g>
<!-- 139662240660080 -->
<g id="node43" class="node">
<title>139662240660080</title>
<ellipse fill="white" stroke="black" cx="1788.91" cy="-155" rx="27" ry="27"/>
</g>
<!-- 139662217099744&#45;&gt;139662240660080 -->
<g id="edge48" class="edge">
<title>139662217099744&#45;&gt;139662240660080</title>
<path fill="none" stroke="black" d="M1710.81,-332.92C1715.68,-324.55 1721.33,-314.4 1725.91,-305 1744.78,-266.25 1763.24,-220.26 1775.03,-189.51"/>
<polygon fill="black" stroke="black" points="1778.33,-190.69 1778.62,-180.1 1771.79,-188.19 1778.33,-190.69"/>
</g>
<!-- 139662217093216 -->
<g id="node22" class="node">
<title>139662217093216</title>
<polygon fill="black" stroke="black" points="1062.25,-36 1008.25,-36 1008.25,0 1062.25,0 1062.25,-36"/>
</g>
<!-- 139662217093216&#45;&gt;139662240660080 -->
<g id="edge44" class="edge">
<title>139662217093216&#45;&gt;139662240660080</title>
<path fill="none" stroke="black" d="M1062.37,-27.68C1096.71,-39.52 1159.13,-58 1214.25,-58 1214.25,-58 1214.25,-58 1609.91,-58 1669.61,-58 1728.34,-100.59 1761.18,-129.32"/>
<polygon fill="black" stroke="black" points="1759.18,-132.23 1768.96,-136.3 1763.85,-127.02 1759.18,-132.23"/>
</g>
<!-- 139662217167840 -->
<g id="node23" class="node">
<title>139662217167840</title>
<polygon fill="black" stroke="black" points="528.29,-194 474.29,-194 474.29,-158 528.29,-158 528.29,-194"/>
</g>
<!-- 139662217167840&#45;&gt;139662217175184 -->
<g id="edge49" class="edge">
<title>139662217167840&#45;&gt;139662217175184</title>
<path fill="none" stroke="black" d="M528.43,-185.84C539.41,-189.97 552.32,-194.83 564.01,-199.23"/>
<polygon fill="black" stroke="black" points="562.89,-202.55 573.48,-202.79 565.36,-196 562.89,-202.55"/>
</g>
<!-- 139662217169712 -->
<g id="node36" class="node">
<title>139662217169712</title>
<ellipse fill="white" stroke="black" cx="598.94" cy="-140" rx="27" ry="27"/>
</g>
<!-- 139662217167840&#45;&gt;139662217169712 -->
<g id="edge50" class="edge">
<title>139662217167840&#45;&gt;139662217169712</title>
<path fill="none" stroke="black" d="M528.43,-166.16C539.41,-162.03 552.32,-157.17 564.01,-152.77"/>
<polygon fill="black" stroke="black" points="565.36,-156 573.48,-149.21 562.89,-149.45 565.36,-156"/>
</g>
<!-- 139662217178112 -->
<g id="node39" class="node">
<title>139662217178112</title>
<ellipse fill="white" stroke="black" cx="598.94" cy="-68" rx="27" ry="27"/>
</g>
<!-- 139662217167840&#45;&gt;139662217178112 -->
<g id="edge51" class="edge">
<title>139662217167840&#45;&gt;139662217178112</title>
<path fill="none" stroke="black" d="M518.52,-157.68C533.6,-140.65 556.28,-115.04 573.55,-95.55"/>
<polygon fill="black" stroke="black" points="576.33,-97.68 580.34,-87.88 571.09,-93.04 576.33,-97.68"/>
</g>
<!-- 139662239254528 -->
<g id="node24" class="node">
<title>139662239254528</title>
<ellipse fill="white" stroke="black" cx="27" cy="-187" rx="27" ry="27"/>
<text text-anchor="start" x="14.25" y="-176.8" font-family="Times,serif" font-size="34.00">●</text>
</g>
<!-- 139662239254528&#45;&gt;139662241462368 -->
<g id="edge46" class="edge">
<title>139662239254528&#45;&gt;139662241462368</title>
<path fill="none" stroke="black" d="M54.07,-187C64.56,-187 76.84,-187 88.17,-187"/>
<polygon fill="black" stroke="black" points="88.23,-190.5 98.23,-187 88.23,-183.5 88.23,-190.5"/>
</g>
<!-- 139662217085776&#45;&gt;139662217088512 -->
<g id="edge11" class="edge">
<title>139662217085776&#45;&gt;139662217088512</title>
<path fill="none" stroke="black" d="M430.78,-471.46C441.01,-472.42 452.91,-473.54 463.95,-474.58"/>
<polygon fill="black" stroke="black" points="463.9,-478.09 474.19,-475.54 464.56,-471.12 463.9,-478.09"/>
</g>
<!-- 139662217088896&#45;&gt;139662217093312 -->
<g id="edge12" class="edge">
<title>139662217088896&#45;&gt;139662217093312</title>
<path fill="none" stroke="black" d="M623.96,-492.42C638.83,-498.87 658.22,-507.28 674.88,-514.5"/>
<polygon fill="black" stroke="black" points="673.75,-517.83 684.32,-518.6 676.53,-511.41 673.75,-517.83"/>
</g>
<!-- 139662217088896&#45;&gt;139662217099744 -->
<g id="edge13" class="edge">
<title>139662217088896&#45;&gt;139662217099744</title>
<path fill="none" stroke="black" d="M626.07,-480.84C667.75,-479.1 751.9,-476 823.26,-476 823.26,-476 823.26,-476 1503.08,-476 1575.75,-476 1642.97,-413.63 1676.18,-377.01"/>
<polygon fill="black" stroke="black" points="1679.1,-378.98 1683.12,-369.18 1673.86,-374.34 1679.1,-378.98"/>
</g>
<!-- 139662217093600&#45;&gt;139662217092640 -->
<g id="edge14" class="edge">
<title>139662217093600&#45;&gt;139662217092640</title>
<path fill="none" stroke="black" d="M430.27,-392.44C438.31,-391.02 447.43,-389.39 456.37,-387.81"/>
<polygon fill="black" stroke="black" points="457.07,-391.24 466.31,-386.04 455.85,-384.34 457.07,-391.24"/>
</g>
<!-- 139662217100896&#45;&gt;139662217088464 -->
<g id="edge15" class="edge">
<title>139662217100896&#45;&gt;139662217088464</title>
<path fill="none" stroke="black" d="M623.68,-382.94C638.65,-389.84 658.26,-398.88 675.07,-406.62"/>
<polygon fill="black" stroke="black" points="674.04,-410 684.58,-411.01 676.97,-403.64 674.04,-410"/>
</g>
<!-- 139662217100896&#45;&gt;139662217099744 -->
<g id="edge16" class="edge">
<title>139662217100896&#45;&gt;139662217099744</title>
<path fill="none" stroke="black" d="M626.07,-372C667.77,-372 751.92,-372 823.26,-372 823.26,-372 823.26,-372 1503.08,-372 1558.59,-372 1622.48,-363.47 1661.53,-357.28"/>
<polygon fill="black" stroke="black" points="1662.54,-360.66 1671.85,-355.61 1661.42,-353.75 1662.54,-360.66"/>
</g>
<!-- 139662217098976&#45;&gt;139662217095760 -->
<g id="edge17" class="edge">
<title>139662217098976&#45;&gt;139662217095760</title>
<path fill="none" stroke="black" d="M430.78,-325C439.55,-325 449.56,-325 459.2,-325"/>
<polygon fill="black" stroke="black" points="459.43,-328.5 469.43,-325 459.43,-321.5 459.43,-328.5"/>
</g>
<!-- 139662217099360&#45;&gt;139662217099744 -->
<g id="edge18" class="edge">
<title>139662217099360&#45;&gt;139662217099744</title>
<path fill="none" stroke="black" d="M1242.11,-321.03C1276.69,-326.06 1339.92,-334 1394.25,-334 1394.25,-334 1394.25,-334 1503.08,-334 1558.48,-334 1622.4,-340.91 1661.48,-345.91"/>
<polygon fill="black" stroke="black" points="1661.45,-349.44 1671.82,-347.27 1662.36,-342.5 1661.45,-349.44"/>
</g>
<!-- 139662217095568&#45;&gt;139662217179264 -->
<g id="edge19" class="edge">
<title>139662217095568&#45;&gt;139662217179264</title>
<path fill="none" stroke="black" d="M430.13,-258.64C466.97,-266.29 537.33,-279 597.94,-279 597.94,-279 597.94,-279 930.75,-279 985.73,-279 1048.98,-270.52 1087.79,-264.33"/>
<polygon fill="black" stroke="black" points="1088.75,-267.72 1098.05,-262.66 1087.62,-260.82 1088.75,-267.72"/>
</g>
<!-- 139662217095568&#45;&gt;139662217167840 -->
<g id="edge20" class="edge">
<title>139662217095568&#45;&gt;139662217167840</title>
<path fill="none" stroke="black" d="M425.39,-236.29C438.35,-225.87 455.25,-212.26 469.72,-200.61"/>
<polygon fill="black" stroke="black" points="472.31,-203.02 477.91,-194.02 467.92,-197.56 472.31,-203.02"/>
</g>
<!-- 139662217177152&#45;&gt;139662217173696 -->
<g id="edge21" class="edge">
<title>139662217177152&#45;&gt;139662217173696</title>
<path fill="none" stroke="black" d="M1242.65,-244C1250.64,-244 1259.56,-244 1268.07,-244"/>
<polygon fill="black" stroke="black" points="1268.17,-247.5 1278.17,-244 1268.17,-240.5 1268.17,-247.5"/>
</g>
<!-- 139662217175184&#45;&gt;139662217171872 -->
<g id="edge22" class="edge">
<title>139662217175184&#45;&gt;139662217171872</title>
<path fill="none" stroke="black" d="M625.61,-206.9C638.47,-204.34 654.38,-201.18 668.93,-198.28"/>
<polygon fill="black" stroke="black" points="669.62,-201.72 678.74,-196.33 668.25,-194.85 669.62,-201.72"/>
</g>
<!-- 139662217168368&#45;&gt;139662217169184 -->
<g id="edge24" class="edge">
<title>139662217168368&#45;&gt;139662217169184</title>
<path fill="none" stroke="black" d="M851.25,-184.33C894.9,-181.43 985.68,-175 1062.25,-167 1070.61,-166.13 1079.59,-165.05 1088.05,-163.97"/>
<polygon fill="black" stroke="black" points="1088.57,-167.43 1098.03,-162.67 1087.66,-160.49 1088.57,-167.43"/>
</g>
<!-- 139662217168368&#45;&gt;139662217177920 -->
<g id="edge23" class="edge">
<title>139662217168368&#45;&gt;139662217177920</title>
<path fill="none" stroke="black" d="M849.26,-196.9C862.39,-202.86 878.9,-210.36 893.47,-216.98"/>
<polygon fill="black" stroke="black" points="892.15,-220.22 902.7,-221.17 895.05,-213.85 892.15,-220.22"/>
</g>
<!-- 139662238818352&#45;&gt;139662217089856 -->
<g id="edge26" class="edge">
<title>139662238818352&#45;&gt;139662217089856</title>
<path fill="none" stroke="black" d="M236.69,-210.83C252.89,-242.85 281.61,-299.64 298.71,-333.46"/>
<polygon fill="black" stroke="black" points="295.78,-335.41 303.41,-342.76 302.02,-332.25 295.78,-335.41"/>
</g>
<!-- 139662238818352&#45;&gt;139662217093216 -->
<g id="edge25" class="edge">
<title>139662238818352&#45;&gt;139662217093216</title>
<path fill="none" stroke="black" d="M235.61,-162.44C258.9,-114.48 318.15,-13 402.64,-13 402.64,-13 402.64,-13 825.26,-13 885.86,-13 956.31,-15.13 997.98,-16.61"/>
<polygon fill="black" stroke="black" points="998.07,-20.11 1008.19,-16.98 998.32,-13.12 998.07,-20.11"/>
</g>
<!-- 139662217169712&#45;&gt;139662217181232 -->
<g id="edge27" class="edge">
<title>139662217169712&#45;&gt;139662217181232</title>
<path fill="none" stroke="black" d="M625.89,-137.89C633.69,-137.26 642.58,-136.53 651.61,-135.8"/>
<polygon fill="black" stroke="black" points="652.12,-139.27 661.8,-134.97 651.55,-132.29 652.12,-139.27"/>
</g>
<!-- 139662217173792&#45;&gt;139662217169184 -->
<g id="edge28" class="edge">
<title>139662217173792&#45;&gt;139662217169184</title>
<path fill="none" stroke="black" d="M1061.23,-138.95C1069.66,-141.63 1079.25,-144.68 1088.36,-147.58"/>
<polygon fill="black" stroke="black" points="1087.38,-150.94 1097.97,-150.64 1089.51,-144.27 1087.38,-150.94"/>
</g>
<!-- 139662217177440&#45;&gt;139662217171536 -->
<g id="edge29" class="edge">
<title>139662217177440&#45;&gt;139662217171536</title>
<path fill="none" stroke="black" d="M851.11,-118.25C859.02,-119.55 868.03,-121.03 877.04,-122.51"/>
<polygon fill="black" stroke="black" points="876.71,-126 887.15,-124.17 877.85,-119.09 876.71,-126"/>
</g>
<!-- 139662217178112&#45;&gt;139662217167648 -->
<g id="edge30" class="edge">
<title>139662217178112&#45;&gt;139662217167648</title>
<path fill="none" stroke="black" d="M626.17,-67.05C634.89,-66.74 644.97,-66.37 655.05,-66.01"/>
<polygon fill="black" stroke="black" points="655.22,-69.5 665.09,-65.65 654.97,-62.51 655.22,-69.5"/>
</g>
<!-- 139662217168752&#45;&gt;139662217169184 -->
<g id="edge31" class="edge">
<title>139662217168752&#45;&gt;139662217169184</title>
<path fill="none" stroke="black" d="M956.77,-68.85C984.47,-70.74 1028.84,-76.67 1062.25,-95 1079.09,-104.24 1094.19,-119.59 1105.27,-132.93"/>
<polygon fill="black" stroke="black" points="1102.65,-135.27 1111.62,-140.91 1108.13,-130.91 1102.65,-135.27"/>
</g>
<!-- 139662217175808&#45;&gt;139662217178304 -->
<g id="edge32" class="edge">
<title>139662217175808&#45;&gt;139662217178304</title>
<path fill="none" stroke="black" d="M1422.43,-243.5C1430.27,-243.35 1439.17,-243.18 1448.09,-243.01"/>
<polygon fill="black" stroke="black" points="1448.19,-246.51 1458.12,-242.82 1448.05,-239.51 1448.19,-246.51"/>
</g>
<!-- 139662217176000&#45;&gt;139662217180224 -->
<g id="edge33" class="edge">
<title>139662217176000&#45;&gt;139662217180224</title>
<path fill="none" stroke="black" d="M1633.96,-251.11C1642.74,-254.8 1652.86,-259.06 1662.42,-263.08"/>
<polygon fill="black" stroke="black" points="1661.16,-266.34 1671.73,-266.99 1663.87,-259.89 1661.16,-266.34"/>
</g>
<!-- 139662217176000&#45;&gt;139662217099744 -->
<g id="edge34" class="edge">
<title>139662217176000&#45;&gt;139662217099744</title>
<path fill="none" stroke="black" d="M1626.46,-261.69C1640.84,-279.66 1661.73,-305.77 1677.21,-325.12"/>
<polygon fill="black" stroke="black" points="1674.5,-327.33 1683.48,-332.95 1679.96,-322.96 1674.5,-327.33"/>
</g>
<!-- 139662240660080&#45;&gt;139662240655808 -->
<g id="edge35" class="edge">
<title>139662240660080&#45;&gt;139662240655808</title>
<path fill="none" stroke="black" d="M1816.32,-155C1824.31,-155 1833.22,-155 1841.74,-155"/>
<polygon fill="black" stroke="black" points="1841.83,-158.5 1851.83,-155 1841.83,-151.5 1841.83,-158.5"/>
</g>
<!-- 139662217090672&#45;&gt;139662241449216 -->
<g id="edge36" class="edge">
<title>139662217090672&#45;&gt;139662241449216</title>
<path fill="none" stroke="black" d="M377.95,-532.09C366.73,-528.5 353.18,-524.78 340.64,-523 282.28,-514.7 214.14,-519.72 170.64,-524.77"/>
<polygon fill="black" stroke="black" points="170.17,-521.3 160.66,-525.97 171.01,-528.25 170.17,-521.3"/>
</g>
<!-- 139662217086496&#45;&gt;139662217091536 -->
<g id="edge37" class="edge">
<title>139662217086496&#45;&gt;139662217091536</title>
<path fill="none" stroke="black" d="M250.57,-556.35C258.73,-555.51 267.9,-554.58 276.63,-553.68"/>
<polygon fill="black" stroke="black" points="277,-557.16 286.59,-552.66 276.29,-550.2 277,-557.16"/>
</g>
<!-- 139662217086496&#45;&gt;139662217099744 -->
<g id="edge38" class="edge">
<title>139662217086496&#45;&gt;139662217099744</title>
<path fill="none" stroke="black" d="M249.36,-567.49C283.43,-578.41 346.93,-596 402.64,-596 402.64,-596 402.64,-596 1503.08,-596 1612.99,-596 1670.84,-443.09 1690.29,-378.87"/>
<polygon fill="black" stroke="black" points="1693.72,-379.6 1693.18,-369.02 1687.01,-377.63 1693.72,-379.6"/>
</g>
</g>
</svg>
