<?xml version="1.0" encoding="UTF-8" standalone="no"?>
<!DOCTYPE svg PUBLIC "-//W3C//DTD SVG 1.1//EN"
 "http://www.w3.org/Graphics/SVG/1.1/DTD/svg11.dtd">
<!-- Generated by graphviz version 2.48.0 (0)
 -->
<!-- Title: imdf_net_1720947016.1139693 Pages: 1 -->
<svg width="2036pt" height="298pt"
 viewBox="0.00 0.00 2036.00 298.00" xmlns="http://www.w3.org/2000/svg" xmlns:xlink="http://www.w3.org/1999/xlink">
<g id="graph0" class="graph" transform="scale(1 1) rotate(0) translate(4 294)">
<title>imdf_net_1720947016.1139693</title>
<polygon fill="white" stroke="transparent" points="-4,4 -4,-294 2032,-294 2032,4 -4,4"/>
<!-- 140325814079840 -->
<g id="node1" class="node">
<title>140325814079840</title>
<polygon fill="black" stroke="black" points="644,-290 590,-290 590,-254 644,-254 644,-290"/>
</g>
<!-- 140325814076912 -->
<g id="node26" class="node">
<title>140325814076912</title>
<ellipse fill="white" stroke="black" cx="956" cy="-232" rx="27" ry="27"/>
</g>
<!-- 140325814079840&#45;&gt;140325814076912 -->
<g id="edge29" class="edge">
<title>140325814079840&#45;&gt;140325814076912</title>
<path fill="none" stroke="black" d="M644.26,-270.12C693.3,-266.42 802.08,-257.4 893,-244 901.65,-242.72 910.93,-241.08 919.61,-239.42"/>
<polygon fill="black" stroke="black" points="920.31,-242.85 929.45,-237.48 918.96,-235.98 920.31,-242.85"/>
</g>
<!-- 140325814086944 -->
<g id="node2" class="node">
<title>140325814086944</title>
<polygon fill="white" stroke="black" points="893,-235 680,-235 680,-199 893,-199 893,-235"/>
<text text-anchor="middle" x="786.5" y="-213.9" font-family="Times,serif" font-size="12.00">Notify Result Appeal to Offender</text>
</g>
<!-- 140325814086944&#45;&gt;140325814076912 -->
<g id="edge8" class="edge">
<title>140325814086944&#45;&gt;140325814076912</title>
<path fill="none" stroke="black" d="M893.11,-226.46C902.18,-227.27 910.88,-228.05 918.75,-228.75"/>
<polygon fill="black" stroke="black" points="918.65,-232.26 928.92,-229.66 919.27,-225.29 918.65,-232.26"/>
</g>
<!-- 140325814088000 -->
<g id="node3" class="node">
<title>140325814088000</title>
<polygon fill="black" stroke="black" points="1125,-250 1071,-250 1071,-214 1125,-214 1125,-250"/>
</g>
<!-- 140325814077488 -->
<g id="node28" class="node">
<title>140325814077488</title>
<ellipse fill="white" stroke="black" cx="1240" cy="-232" rx="27" ry="27"/>
</g>
<!-- 140325814088000&#45;&gt;140325814077488 -->
<g id="edge11" class="edge">
<title>140325814088000&#45;&gt;140325814077488</title>
<path fill="none" stroke="black" d="M1125,-232C1146.77,-232 1178.08,-232 1202.38,-232"/>
<polygon fill="black" stroke="black" points="1202.66,-235.5 1212.66,-232 1202.66,-228.5 1202.66,-235.5"/>
</g>
<!-- 140325814076576 -->
<g id="node4" class="node">
<title>140325814076576</title>
<polygon fill="white" stroke="black" points="1381.5,-232 1313.5,-232 1313.5,-196 1381.5,-196 1381.5,-232"/>
<text text-anchor="middle" x="1347.5" y="-210.9" font-family="Times,serif" font-size="12.00">Payment</text>
</g>
<!-- 140325814089152 -->
<g id="node29" class="node">
<title>140325814089152</title>
<ellipse fill="white" stroke="black" cx="1455" cy="-209" rx="27" ry="27"/>
</g>
<!-- 140325814076576&#45;&gt;140325814089152 -->
<g id="edge9" class="edge">
<title>140325814076576&#45;&gt;140325814089152</title>
<path fill="none" stroke="black" d="M1381.59,-212.43C1392.97,-211.89 1405.78,-211.29 1417.42,-210.73"/>
<polygon fill="black" stroke="black" points="1417.89,-214.22 1427.71,-210.25 1417.56,-207.22 1417.89,-214.22"/>
</g>
<!-- 140325814084640 -->
<g id="node5" class="node">
<title>140325814084640</title>
<polygon fill="black" stroke="black" points="1601,-276 1547,-276 1547,-240 1601,-240 1601,-276"/>
</g>
<!-- 140325814084640&#45;&gt;140325814077488 -->
<g id="edge30" class="edge">
<title>140325814084640&#45;&gt;140325814077488</title>
<path fill="none" stroke="black" d="M1546.88,-257.06C1498.61,-255.17 1392.23,-250.27 1303,-241 1294.54,-240.12 1285.46,-238.94 1276.93,-237.72"/>
<polygon fill="black" stroke="black" points="1277.29,-234.24 1266.88,-236.24 1276.26,-241.16 1277.29,-234.24"/>
</g>
<!-- 140325814091744 -->
<g id="node6" class="node">
<title>140325814091744</title>
<polygon fill="white" stroke="black" points="893,-117 680,-117 680,-81 893,-81 893,-117"/>
<text text-anchor="middle" x="786.5" y="-95.9" font-family="Times,serif" font-size="12.00">Insert Date Appeal to Prefecture</text>
</g>
<!-- 140325814085696 -->
<g id="node19" class="node">
<title>140325814085696</title>
<ellipse fill="white" stroke="black" cx="1098" cy="-99" rx="27" ry="27"/>
</g>
<!-- 140325814091744&#45;&gt;140325814085696 -->
<g id="edge10" class="edge">
<title>140325814091744&#45;&gt;140325814085696</title>
<path fill="none" stroke="black" d="M893.15,-99C951.3,-99 1019.78,-99 1060.72,-99"/>
<polygon fill="black" stroke="black" points="1060.76,-102.5 1070.76,-99 1060.76,-95.5 1060.76,-102.5"/>
</g>
<!-- 140325813864544 -->
<g id="node7" class="node">
<title>140325813864544</title>
<polygon fill="white" stroke="black" points="1177,-52 1019,-52 1019,-16 1177,-16 1177,-52"/>
<text text-anchor="middle" x="1098" y="-30.9" font-family="Times,serif" font-size="12.00">Insert Fine Notification</text>
</g>
<!-- 140325813864112 -->
<g id="node23" class="node">
<title>140325813864112</title>
<ellipse fill="white" stroke="black" cx="1240" cy="-39" rx="27" ry="27"/>
</g>
<!-- 140325813864544&#45;&gt;140325813864112 -->
<g id="edge6" class="edge">
<title>140325813864544&#45;&gt;140325813864112</title>
<path fill="none" stroke="black" d="M1177.19,-36.79C1186.16,-37.11 1194.95,-37.43 1202.95,-37.71"/>
<polygon fill="black" stroke="black" points="1202.86,-41.21 1212.98,-38.07 1203.11,-34.22 1202.86,-41.21"/>
</g>
<!-- 140325813865696 -->
<g id="node8" class="node">
<title>140325813865696</title>
<polygon fill="white" stroke="black" points="1392,-57 1303,-57 1303,-21 1392,-21 1392,-57"/>
<text text-anchor="middle" x="1347.5" y="-35.9" font-family="Times,serif" font-size="12.00">Add penalty</text>
</g>
<!-- 140325813865072 -->
<g id="node24" class="node">
<title>140325813865072</title>
<ellipse fill="white" stroke="black" cx="1455" cy="-44" rx="27" ry="27"/>
</g>
<!-- 140325813865696&#45;&gt;140325813865072 -->
<g id="edge3" class="edge">
<title>140325813865696&#45;&gt;140325813865072</title>
<path fill="none" stroke="black" d="M1392.02,-41.06C1400.56,-41.47 1409.43,-41.89 1417.71,-42.28"/>
<polygon fill="black" stroke="black" points="1417.64,-45.78 1427.8,-42.76 1417.97,-38.79 1417.64,-45.78"/>
</g>
<!-- 140325813866656 -->
<g id="node9" class="node">
<title>140325813866656</title>
<polygon fill="white" stroke="black" points="1630,-62 1518,-62 1518,-26 1630,-26 1630,-62"/>
<text text-anchor="middle" x="1574" y="-40.9" font-family="Times,serif" font-size="12.00">Appeal to Judge</text>
</g>
<!-- 140325814088336 -->
<g id="node21" class="node">
<title>140325814088336</title>
<ellipse fill="white" stroke="black" cx="1693" cy="-44" rx="27" ry="27"/>
</g>
<!-- 140325813866656&#45;&gt;140325814088336 -->
<g id="edge4" class="edge">
<title>140325813866656&#45;&gt;140325814088336</title>
<path fill="none" stroke="black" d="M1630.07,-44C1638.73,-44 1647.48,-44 1655.58,-44"/>
<polygon fill="black" stroke="black" points="1655.77,-47.5 1665.77,-44 1655.77,-40.5 1655.77,-47.5"/>
</g>
<!-- 140325814081328 -->
<g id="node10" class="node">
<title>140325814081328</title>
<polygon fill="white" stroke="black" points="177,-195 90,-195 90,-159 177,-159 177,-195"/>
<text text-anchor="middle" x="133.5" y="-173.9" font-family="Times,serif" font-size="12.00">Create Fine</text>
</g>
<!-- 140325816379456 -->
<g id="node25" class="node">
<title>140325816379456</title>
<ellipse fill="white" stroke="black" cx="240" cy="-177" rx="27" ry="27"/>
</g>
<!-- 140325814081328&#45;&gt;140325816379456 -->
<g id="edge1" class="edge">
<title>140325814081328&#45;&gt;140325816379456</title>
<path fill="none" stroke="black" d="M177,-177C185.51,-177 194.37,-177 202.64,-177"/>
<polygon fill="black" stroke="black" points="202.73,-180.5 212.73,-177 202.73,-173.5 202.73,-180.5"/>
</g>
<!-- 140325814085360 -->
<g id="node11" class="node">
<title>140325814085360</title>
<polygon fill="white" stroke="black" points="554,-222 303,-222 303,-186 554,-186 554,-222"/>
<text text-anchor="middle" x="428.5" y="-200.9" font-family="Times,serif" font-size="12.00">Receive Result Appeal from Prefecture</text>
</g>
<!-- 140325814082672 -->
<g id="node27" class="node">
<title>140325814082672</title>
<ellipse fill="white" stroke="black" cx="617" cy="-209" rx="27" ry="27"/>
</g>
<!-- 140325814085360&#45;&gt;140325814082672 -->
<g id="edge5" class="edge">
<title>140325814085360&#45;&gt;140325814082672</title>
<path fill="none" stroke="black" d="M554.16,-207.34C563.31,-207.59 572.01,-207.82 579.84,-208.03"/>
<polygon fill="black" stroke="black" points="579.84,-211.53 589.93,-208.3 580.03,-204.53 579.84,-211.53"/>
</g>
<!-- 140325814082384 -->
<g id="node12" class="node">
<title>140325814082384</title>
<polygon fill="black" stroke="black" points="1720,-172 1666,-172 1666,-136 1720,-136 1720,-172"/>
</g>
<!-- 140325817686000 -->
<g id="node30" class="node">
<title>140325817686000</title>
<ellipse fill="white" stroke="black" cx="1997" cy="-154" rx="27" ry="27"/>
<ellipse fill="none" stroke="black" cx="1997" cy="-154" rx="31" ry="31"/>
<text text-anchor="start" x="1981.5" y="-145.9" font-family="Times,serif" font-size="32.00">■</text>
</g>
<!-- 140325814082384&#45;&gt;140325817686000 -->
<g id="edge28" class="edge">
<title>140325814082384&#45;&gt;140325817686000</title>
<path fill="none" stroke="black" d="M1720.01,-154C1772.76,-154 1892.64,-154 1955.63,-154"/>
<polygon fill="black" stroke="black" points="1955.96,-157.5 1965.96,-154 1955.96,-150.5 1955.96,-157.5"/>
</g>
<!-- 140325814088144 -->
<g id="node13" class="node">
<title>140325814088144</title>
<polygon fill="black" stroke="black" points="1870,-220 1816,-220 1816,-184 1870,-184 1870,-220"/>
</g>
<!-- 140325814088144&#45;&gt;140325817686000 -->
<g id="edge31" class="edge">
<title>140325814088144&#45;&gt;140325817686000</title>
<path fill="none" stroke="black" d="M1870.13,-193.75C1894.17,-186.16 1930.13,-174.8 1957.46,-166.17"/>
<polygon fill="black" stroke="black" points="1958.62,-169.47 1967.11,-163.12 1956.52,-162.8 1958.62,-169.47"/>
</g>
<!-- 140325814078064 -->
<g id="node14" class="node">
<title>140325814078064</title>
<polygon fill="black" stroke="black" points="455.5,-117 401.5,-117 401.5,-81 455.5,-81 455.5,-117"/>
</g>
<!-- 140325814090832 -->
<g id="node18" class="node">
<title>140325814090832</title>
<ellipse fill="white" stroke="black" cx="617" cy="-99" rx="27" ry="27"/>
</g>
<!-- 140325814078064&#45;&gt;140325814090832 -->
<g id="edge33" class="edge">
<title>140325814078064&#45;&gt;140325814090832</title>
<path fill="none" stroke="black" d="M455.83,-99C488.18,-99 543.24,-99 579.62,-99"/>
<polygon fill="black" stroke="black" points="579.81,-102.5 589.81,-99 579.81,-95.5 579.81,-102.5"/>
</g>
<!-- 140325814086128 -->
<g id="node20" class="node">
<title>140325814086128</title>
<ellipse fill="white" stroke="black" cx="617" cy="-27" rx="27" ry="27"/>
</g>
<!-- 140325814078064&#45;&gt;140325814086128 -->
<g id="edge34" class="edge">
<title>140325814078064&#45;&gt;140325814086128</title>
<path fill="none" stroke="black" d="M455.83,-88.84C488.87,-76.08 545.6,-54.18 581.92,-40.16"/>
<polygon fill="black" stroke="black" points="583.52,-43.29 591.59,-36.42 581,-36.76 583.52,-43.29"/>
</g>
<!-- 140325813863536 -->
<g id="node15" class="node">
<title>140325813863536</title>
<polygon fill="white" stroke="black" points="825,-46 748,-46 748,-10 825,-10 825,-46"/>
<text text-anchor="middle" x="786.5" y="-24.9" font-family="Times,serif" font-size="12.00">Send Fine</text>
</g>
<!-- 140325813862816 -->
<g id="node22" class="node">
<title>140325813862816</title>
<ellipse fill="white" stroke="black" cx="956" cy="-30" rx="27" ry="27"/>
</g>
<!-- 140325813863536&#45;&gt;140325813862816 -->
<g id="edge2" class="edge">
<title>140325813863536&#45;&gt;140325813862816</title>
<path fill="none" stroke="black" d="M825.09,-28.45C853.14,-28.78 891.25,-29.24 918.93,-29.57"/>
<polygon fill="black" stroke="black" points="918.94,-33.07 928.98,-29.69 919.03,-26.07 918.94,-33.07"/>
</g>
<!-- 140325814087664 -->
<g id="node16" class="node">
<title>140325814087664</title>
<polygon fill="white" stroke="black" points="1930,-117 1756,-117 1756,-81 1930,-81 1930,-117"/>
<text text-anchor="middle" x="1843" y="-95.9" font-family="Times,serif" font-size="12.00">Send for Credit Collection</text>
</g>
<!-- 140325814087664&#45;&gt;140325817686000 -->
<g id="edge7" class="edge">
<title>140325814087664&#45;&gt;140325817686000</title>
<path fill="none" stroke="black" d="M1893.77,-117.01C1914.66,-124.57 1938.56,-133.21 1957.99,-140.25"/>
<polygon fill="black" stroke="black" points="1956.83,-143.55 1967.43,-143.66 1959.21,-136.97 1956.83,-143.55"/>
</g>
<!-- 140326895302560 -->
<g id="node17" class="node">
<title>140326895302560</title>
<ellipse fill="white" stroke="black" cx="27" cy="-177" rx="27" ry="27"/>
<text text-anchor="start" x="11.5" y="-168.3" font-family="Times,serif" font-size="34.00">●</text>
</g>
<!-- 140326895302560&#45;&gt;140325814081328 -->
<g id="edge32" class="edge">
<title>140326895302560&#45;&gt;140325814081328</title>
<path fill="none" stroke="black" d="M54.1,-177C61.83,-177 70.6,-177 79.4,-177"/>
<polygon fill="black" stroke="black" points="79.68,-180.5 89.68,-177 79.68,-173.5 79.68,-180.5"/>
</g>
<!-- 140325814090832&#45;&gt;140325814091744 -->
<g id="edge12" class="edge">
<title>140325814090832&#45;&gt;140325814091744</title>
<path fill="none" stroke="black" d="M644.17,-99C651.6,-99 660.21,-99 669.43,-99"/>
<polygon fill="black" stroke="black" points="669.66,-102.5 679.66,-99 669.66,-95.5 669.66,-102.5"/>
</g>
<!-- 140325814085696&#45;&gt;140325814087664 -->
<g id="edge13" class="edge">
<title>140325814085696&#45;&gt;140325814087664</title>
<path fill="none" stroke="black" d="M1125.01,-99C1170.11,-99 1265.72,-99 1346.5,-99 1346.5,-99 1346.5,-99 1575,-99 1631.48,-99 1694.69,-99 1745.42,-99"/>
<polygon fill="black" stroke="black" points="1745.72,-102.5 1755.72,-99 1745.72,-95.5 1745.72,-102.5"/>
</g>
<!-- 140325814086128&#45;&gt;140325813863536 -->
<g id="edge14" class="edge">
<title>140325814086128&#45;&gt;140325813863536</title>
<path fill="none" stroke="black" d="M644.17,-27.16C669.03,-27.3 707,-27.53 737.33,-27.71"/>
<polygon fill="black" stroke="black" points="737.68,-31.21 747.7,-27.77 737.72,-24.21 737.68,-31.21"/>
</g>
<!-- 140325814088336&#45;&gt;140325814087664 -->
<g id="edge15" class="edge">
<title>140325814088336&#45;&gt;140325814087664</title>
<path fill="none" stroke="black" d="M1718.44,-53.08C1736.18,-59.68 1760.96,-68.89 1783.68,-77.33"/>
<polygon fill="black" stroke="black" points="1782.67,-80.68 1793.26,-80.89 1785.11,-74.12 1782.67,-80.68"/>
</g>
<!-- 140325813862816&#45;&gt;140325813864544 -->
<g id="edge16" class="edge">
<title>140325813862816&#45;&gt;140325813864544</title>
<path fill="none" stroke="black" d="M983,-30.74C990.61,-30.96 999.39,-31.21 1008.62,-31.47"/>
<polygon fill="black" stroke="black" points="1008.69,-34.98 1018.78,-31.77 1008.89,-27.98 1008.69,-34.98"/>
</g>
<!-- 140325813864112&#45;&gt;140325813865696 -->
<g id="edge17" class="edge">
<title>140325813864112&#45;&gt;140325813865696</title>
<path fill="none" stroke="black" d="M1267.08,-39C1274.88,-39 1283.74,-39 1292.64,-39"/>
<polygon fill="black" stroke="black" points="1292.66,-42.5 1302.66,-39 1292.66,-35.5 1292.66,-42.5"/>
</g>
<!-- 140325813865072&#45;&gt;140325813866656 -->
<g id="edge18" class="edge">
<title>140325813865072&#45;&gt;140325813866656</title>
<path fill="none" stroke="black" d="M1482.26,-44C1489.89,-44 1498.6,-44 1507.52,-44"/>
<polygon fill="black" stroke="black" points="1507.64,-47.5 1517.64,-44 1507.64,-40.5 1507.64,-47.5"/>
</g>
<!-- 140325816379456&#45;&gt;140325814079840 -->
<g id="edge21" class="edge">
<title>140325816379456&#45;&gt;140325814079840</title>
<path fill="none" stroke="black" d="M258.2,-197.02C269.63,-208.93 285.69,-223.2 303,-231 396.09,-272.95 519.47,-275.56 579.74,-273.87"/>
<polygon fill="black" stroke="black" points="580.02,-277.36 589.9,-273.52 579.78,-270.36 580.02,-277.36"/>
</g>
<!-- 140325816379456&#45;&gt;140325814085360 -->
<g id="edge19" class="edge">
<title>140325816379456&#45;&gt;140325814085360</title>
<path fill="none" stroke="black" d="M266.93,-180.75C274.59,-181.86 283.54,-183.16 293.23,-184.56"/>
<polygon fill="black" stroke="black" points="292.75,-188.03 303.15,-186 293.76,-181.1 292.75,-188.03"/>
</g>
<!-- 140325816379456&#45;&gt;140325814082384 -->
<g id="edge20" class="edge">
<title>140325816379456&#45;&gt;140325814082384</title>
<path fill="none" stroke="black" d="M266.88,-174.32C327.71,-168.25 484.57,-154 616,-154 616,-154 616,-154 1456,-154 1526.7,-154 1609.32,-154 1655.66,-154"/>
<polygon fill="black" stroke="black" points="1655.81,-157.5 1665.81,-154 1655.81,-150.5 1655.81,-157.5"/>
</g>
<!-- 140325816379456&#45;&gt;140325814078064 -->
<g id="edge22" class="edge">
<title>140325816379456&#45;&gt;140325814078064</title>
<path fill="none" stroke="black" d="M262.74,-162.42C274.35,-155.05 289.09,-146.35 303,-140 331.75,-126.88 365.94,-115.93 391.21,-108.66"/>
<polygon fill="black" stroke="black" points="392.44,-111.95 401.11,-105.86 390.54,-105.21 392.44,-111.95"/>
</g>
<!-- 140325814076912&#45;&gt;140325814088000 -->
<g id="edge23" class="edge">
<title>140325814076912&#45;&gt;140325814088000</title>
<path fill="none" stroke="black" d="M983,-232C1004.77,-232 1036.08,-232 1060.38,-232"/>
<polygon fill="black" stroke="black" points="1060.66,-235.5 1070.66,-232 1060.66,-228.5 1060.66,-235.5"/>
</g>
<!-- 140325814082672&#45;&gt;140325814086944 -->
<g id="edge24" class="edge">
<title>140325814082672&#45;&gt;140325814086944</title>
<path fill="none" stroke="black" d="M644.17,-210.25C651.6,-210.6 660.21,-211.02 669.43,-211.46"/>
<polygon fill="black" stroke="black" points="669.5,-214.96 679.66,-211.94 669.84,-207.97 669.5,-214.96"/>
</g>
<!-- 140325814077488&#45;&gt;140325814076576 -->
<g id="edge25" class="edge">
<title>140325814077488&#45;&gt;140325814076576</title>
<path fill="none" stroke="black" d="M1266.81,-227.6C1277.77,-225.73 1290.85,-223.49 1303.22,-221.38"/>
<polygon fill="black" stroke="black" points="1304.1,-224.78 1313.37,-219.65 1302.93,-217.88 1304.1,-224.78"/>
</g>
<!-- 140325814089152&#45;&gt;140325814084640 -->
<g id="edge26" class="edge">
<title>140325814089152&#45;&gt;140325814084640</title>
<path fill="none" stroke="black" d="M1480.24,-219.15C1496.77,-226.08 1518.94,-235.36 1537.45,-243.11"/>
<polygon fill="black" stroke="black" points="1536.18,-246.37 1546.75,-247.01 1538.88,-239.92 1536.18,-246.37"/>
</g>
<!-- 140325814089152&#45;&gt;140325814088144 -->
<g id="edge27" class="edge">
<title>140325814089152&#45;&gt;140325814088144</title>
<path fill="none" stroke="black" d="M1482.23,-208.52C1549.56,-207.3 1728.65,-204.06 1805.8,-202.66"/>
<polygon fill="black" stroke="black" points="1806.06,-206.15 1815.99,-202.47 1805.93,-199.15 1806.06,-206.15"/>
</g>
</g>
</svg>
