<?xml version="1.0" encoding="UTF-8" standalone="no"?>
<!DOCTYPE svg PUBLIC "-//W3C//DTD SVG 1.1//EN"
 "http://www.w3.org/Graphics/SVG/1.1/DTD/svg11.dtd">
<!-- Generated by graphviz version 2.48.0 (0)
 -->
<!-- Title: imdf_net_1720947015.8794863 Pages: 1 -->
<svg width="2599pt" height="275pt"
 viewBox="0.00 0.00 2599.00 275.00" xmlns="http://www.w3.org/2000/svg" xmlns:xlink="http://www.w3.org/1999/xlink">
<g id="graph0" class="graph" transform="scale(1 1) rotate(0) translate(4 271)">
<title>imdf_net_1720947015.8794863</title>
<polygon fill="white" stroke="transparent" points="-4,4 -4,-271 2595,-271 2595,4 -4,4"/>
<!-- 140325813982592 -->
<g id="node1" class="node">
<title>140325813982592</title>
<polygon fill="black" stroke="black" points="357,-230 303,-230 303,-194 357,-194 357,-230"/>
</g>
<!-- 140325813979520 -->
<g id="node31" class="node">
<title>140325813979520</title>
<ellipse fill="white" stroke="black" cx="420" cy="-185" rx="27" ry="27"/>
</g>
<!-- 140325813982592&#45;&gt;140325813979520 -->
<g id="edge34" class="edge">
<title>140325813982592&#45;&gt;140325813979520</title>
<path fill="none" stroke="black" d="M357.4,-203.9C365.79,-201.33 375.2,-198.44 384.09,-195.71"/>
<polygon fill="black" stroke="black" points="385.29,-199 393.82,-192.72 383.24,-192.31 385.29,-199"/>
</g>
<!-- 140325813978128 -->
<g id="node2" class="node">
<title>140325813978128</title>
<polygon fill="black" stroke="black" points="2193,-155 2139,-155 2139,-119 2193,-119 2193,-155"/>
</g>
<!-- 140325813977360 -->
<g id="node30" class="node">
<title>140325813977360</title>
<ellipse fill="white" stroke="black" cx="2256" cy="-132" rx="27" ry="27"/>
</g>
<!-- 140325813978128&#45;&gt;140325813977360 -->
<g id="edge36" class="edge">
<title>140325813978128&#45;&gt;140325813977360</title>
<path fill="none" stroke="black" d="M2193.4,-135.5C2201.39,-135.05 2210.31,-134.54 2218.82,-134.06"/>
<polygon fill="black" stroke="black" points="2219.13,-137.54 2228.92,-133.48 2218.74,-130.55 2219.13,-137.54"/>
</g>
<!-- 140325813981584 -->
<g id="node3" class="node">
<title>140325813981584</title>
<polygon fill="white" stroke="black" points="555.5,-210 487.5,-210 487.5,-174 555.5,-174 555.5,-210"/>
<text text-anchor="middle" x="521.5" y="-188.9" font-family="Times,serif" font-size="12.00">Payment</text>
</g>
<!-- 140325813980480 -->
<g id="node32" class="node">
<title>140325813980480</title>
<ellipse fill="white" stroke="black" cx="623" cy="-240" rx="27" ry="27"/>
</g>
<!-- 140325813981584&#45;&gt;140325813980480 -->
<g id="edge9" class="edge">
<title>140325813981584&#45;&gt;140325813980480</title>
<path fill="none" stroke="black" d="M555.63,-207.98C566.48,-213.21 578.51,-219.02 589.32,-224.23"/>
<polygon fill="black" stroke="black" points="587.92,-227.44 598.44,-228.64 590.96,-221.14 587.92,-227.44"/>
</g>
<!-- 140325813985808 -->
<g id="node4" class="node">
<title>140325813985808</title>
<polygon fill="black" stroke="black" points="1297,-130 1243,-130 1243,-94 1297,-94 1297,-130"/>
</g>
<!-- 140325813990272 -->
<g id="node24" class="node">
<title>140325813990272</title>
<ellipse fill="white" stroke="black" cx="1360" cy="-174" rx="27" ry="27"/>
</g>
<!-- 140325813985808&#45;&gt;140325813990272 -->
<g id="edge39" class="edge">
<title>140325813985808&#45;&gt;140325813990272</title>
<path fill="none" stroke="black" d="M1296.93,-130.27C1306.99,-137.35 1318.57,-145.52 1328.99,-152.86"/>
<polygon fill="black" stroke="black" points="1327.22,-155.89 1337.41,-158.79 1331.25,-150.17 1327.22,-155.89"/>
</g>
<!-- 140325813991520 -->
<g id="node26" class="node">
<title>140325813991520</title>
<ellipse fill="white" stroke="black" cx="1360" cy="-102" rx="27" ry="27"/>
</g>
<!-- 140325813985808&#45;&gt;140325813991520 -->
<g id="edge40" class="edge">
<title>140325813985808&#45;&gt;140325813991520</title>
<path fill="none" stroke="black" d="M1297.4,-109C1305.39,-108.09 1314.31,-107.08 1322.82,-106.11"/>
<polygon fill="black" stroke="black" points="1323.38,-109.57 1332.92,-104.96 1322.59,-102.62 1323.38,-109.57"/>
</g>
<!-- 140325814273424 -->
<g id="node5" class="node">
<title>140325814273424</title>
<polygon fill="black" stroke="black" points="1933.5,-128 1879.5,-128 1879.5,-92 1933.5,-92 1933.5,-128"/>
</g>
<!-- 140325814274768 -->
<g id="node27" class="node">
<title>140325814274768</title>
<ellipse fill="white" stroke="black" cx="2076" cy="-110" rx="27" ry="27"/>
</g>
<!-- 140325814273424&#45;&gt;140325814274768 -->
<g id="edge32" class="edge">
<title>140325814273424&#45;&gt;140325814274768</title>
<path fill="none" stroke="black" d="M1933.67,-110C1961.86,-110 2006.92,-110 2038.56,-110"/>
<polygon fill="black" stroke="black" points="2038.74,-113.5 2048.74,-110 2038.74,-106.5 2038.74,-113.5"/>
</g>
<!-- 140325813991712 -->
<g id="node6" class="node">
<title>140325813991712</title>
<polygon fill="black" stroke="black" points="1575.5,-228 1521.5,-228 1521.5,-192 1575.5,-192 1575.5,-228"/>
</g>
<!-- 140325813990896 -->
<g id="node25" class="node">
<title>140325813990896</title>
<ellipse fill="white" stroke="black" cx="1737" cy="-165" rx="27" ry="27"/>
</g>
<!-- 140325813991712&#45;&gt;140325813990896 -->
<g id="edge31" class="edge">
<title>140325813991712&#45;&gt;140325813990896</title>
<path fill="none" stroke="black" d="M1575.85,-204.83C1601.14,-199.75 1640.34,-191.53 1674,-183 1682.92,-180.74 1692.5,-178.08 1701.39,-175.51"/>
<polygon fill="black" stroke="black" points="1702.46,-178.84 1711.07,-172.66 1700.49,-172.12 1702.46,-178.84"/>
</g>
<!-- 140325813990176 -->
<g id="node7" class="node">
<title>140325813990176</title>
<polygon fill="black" stroke="black" points="2433,-96 2379,-96 2379,-60 2433,-60 2433,-96"/>
</g>
<!-- 140325816492704 -->
<g id="node33" class="node">
<title>140325816492704</title>
<ellipse fill="white" stroke="black" cx="2560" cy="-78" rx="27" ry="27"/>
<ellipse fill="none" stroke="black" cx="2560" cy="-78" rx="31" ry="31"/>
<text text-anchor="start" x="2544.5" y="-69.9" font-family="Times,serif" font-size="32.00">■</text>
</g>
<!-- 140325813990176&#45;&gt;140325816492704 -->
<g id="edge33" class="edge">
<title>140325813990176&#45;&gt;140325816492704</title>
<path fill="none" stroke="black" d="M2433.13,-78C2456.58,-78 2491.38,-78 2518.45,-78"/>
<polygon fill="black" stroke="black" points="2518.78,-81.5 2528.78,-78 2518.78,-74.5 2518.78,-81.5"/>
</g>
<!-- 140325814272560 -->
<g id="node8" class="node">
<title>140325814272560</title>
<polygon fill="white" stroke="black" points="1655,-78 1442,-78 1442,-42 1655,-42 1655,-78"/>
<text text-anchor="middle" x="1548.5" y="-56.9" font-family="Times,serif" font-size="12.00">Insert Date Appeal to Prefecture</text>
</g>
<!-- 140325814280192 -->
<g id="node28" class="node">
<title>140325814280192</title>
<ellipse fill="white" stroke="black" cx="1737" cy="-55" rx="27" ry="27"/>
</g>
<!-- 140325814272560&#45;&gt;140325814280192 -->
<g id="edge3" class="edge">
<title>140325814272560&#45;&gt;140325814280192</title>
<path fill="none" stroke="black" d="M1655.01,-57.17C1670.98,-56.74 1686.46,-56.33 1699.54,-55.98"/>
<polygon fill="black" stroke="black" points="1700.01,-59.47 1709.91,-55.7 1699.82,-52.47 1700.01,-59.47"/>
</g>
<!-- 140325813986096 -->
<g id="node9" class="node">
<title>140325813986096</title>
<polygon fill="white" stroke="black" points="992,-96 880,-96 880,-60 992,-60 992,-96"/>
<text text-anchor="middle" x="936" y="-74.9" font-family="Times,serif" font-size="12.00">Appeal to Judge</text>
</g>
<!-- 140325813984992 -->
<g id="node21" class="node">
<title>140325813984992</title>
<ellipse fill="white" stroke="black" cx="1180" cy="-112" rx="27" ry="27"/>
</g>
<!-- 140325813986096&#45;&gt;140325813984992 -->
<g id="edge5" class="edge">
<title>140325813986096&#45;&gt;140325813984992</title>
<path fill="none" stroke="black" d="M992.22,-85.76C1038.44,-92.25 1103.08,-101.33 1142.93,-106.93"/>
<polygon fill="black" stroke="black" points="1142.59,-110.42 1152.98,-108.34 1143.57,-103.49 1142.59,-110.42"/>
</g>
<!-- 140325814277552 -->
<g id="node10" class="node">
<title>140325814277552</title>
<polygon fill="white" stroke="black" points="2013,-74 1800,-74 1800,-38 2013,-38 2013,-74"/>
<text text-anchor="middle" x="1906.5" y="-52.9" font-family="Times,serif" font-size="12.00">Notify Result Appeal to Offender</text>
</g>
<!-- 140325814277552&#45;&gt;140325814274768 -->
<g id="edge10" class="edge">
<title>140325814277552&#45;&gt;140325814274768</title>
<path fill="none" stroke="black" d="M1984,-74.03C1993.83,-76.8 2003.7,-79.81 2013,-83 2022.56,-86.28 2032.7,-90.41 2041.95,-94.44"/>
<polygon fill="black" stroke="black" points="2040.65,-97.7 2051.21,-98.57 2043.5,-91.3 2040.65,-97.7"/>
</g>
<!-- 140325814078016 -->
<g id="node11" class="node">
<title>140325814078016</title>
<polygon fill="black" stroke="black" points="792,-50 738,-50 738,-14 792,-14 792,-50"/>
</g>
<!-- 140325814078016&#45;&gt;140325816492704 -->
<g id="edge30" class="edge">
<title>140325814078016&#45;&gt;140325816492704</title>
<path fill="none" stroke="black" d="M792.06,-27.42C844.69,-18.57 967.51,0 1071.5,0 1071.5,0 1071.5,0 2257,0 2355.08,0 2465.55,-39.05 2521.78,-61.89"/>
<polygon fill="black" stroke="black" points="2520.73,-65.24 2531.31,-65.81 2523.4,-58.77 2520.73,-65.24"/>
</g>
<!-- 140325813988928 -->
<g id="node12" class="node">
<title>140325813988928</title>
<polygon fill="white" stroke="black" points="1117,-151 1028,-151 1028,-115 1117,-115 1117,-151"/>
<text text-anchor="middle" x="1072.5" y="-129.9" font-family="Times,serif" font-size="12.00">Add penalty</text>
</g>
<!-- 140325813988928&#45;&gt;140325813984992 -->
<g id="edge7" class="edge">
<title>140325813988928&#45;&gt;140325813984992</title>
<path fill="none" stroke="black" d="M1117.02,-124.34C1125.82,-122.59 1134.97,-120.76 1143.45,-119.08"/>
<polygon fill="black" stroke="black" points="1144.28,-122.48 1153.4,-117.1 1142.91,-115.62 1144.28,-122.48"/>
</g>
<!-- 140325813992912 -->
<g id="node13" class="node">
<title>140325813992912</title>
<polygon fill="white" stroke="black" points="1674,-174 1423,-174 1423,-138 1674,-138 1674,-174"/>
<text text-anchor="middle" x="1548.5" y="-152.9" font-family="Times,serif" font-size="12.00">Receive Result Appeal from Prefecture</text>
</g>
<!-- 140325813992912&#45;&gt;140325813990896 -->
<g id="edge1" class="edge">
<title>140325813992912&#45;&gt;140325813990896</title>
<path fill="none" stroke="black" d="M1674.16,-162.02C1683.31,-162.46 1692.01,-162.88 1699.84,-163.25"/>
<polygon fill="black" stroke="black" points="1699.77,-166.76 1709.93,-163.74 1700.11,-159.76 1699.77,-166.76"/>
</g>
<!-- 140325813977696 -->
<g id="node14" class="node">
<title>140325813977696</title>
<polygon fill="black" stroke="black" points="357,-109 303,-109 303,-73 357,-73 357,-109"/>
</g>
<!-- 140325813984128 -->
<g id="node20" class="node">
<title>140325813984128</title>
<ellipse fill="white" stroke="black" cx="420" cy="-91" rx="27" ry="27"/>
</g>
<!-- 140325813977696&#45;&gt;140325813984128 -->
<g id="edge37" class="edge">
<title>140325813977696&#45;&gt;140325813984128</title>
<path fill="none" stroke="black" d="M357.4,-91C365.39,-91 374.31,-91 382.82,-91"/>
<polygon fill="black" stroke="black" points="382.92,-94.5 392.92,-91 382.92,-87.5 382.92,-94.5"/>
</g>
<!-- 140325813977696&#45;&gt;140325813979520 -->
<g id="edge38" class="edge">
<title>140325813977696&#45;&gt;140325813979520</title>
<path fill="none" stroke="black" d="M347.97,-109.12C361.02,-123.06 379.24,-142.53 393.96,-158.26"/>
<polygon fill="black" stroke="black" points="391.48,-160.73 400.87,-165.64 396.59,-155.94 391.48,-160.73"/>
</g>
<!-- 140325813986912 -->
<g id="node15" class="node">
<title>140325813986912</title>
<polygon fill="white" stroke="black" points="560,-151 483,-151 483,-115 560,-115 560,-151"/>
<text text-anchor="middle" x="521.5" y="-129.9" font-family="Times,serif" font-size="12.00">Send Fine</text>
</g>
<!-- 140325813986192 -->
<g id="node22" class="node">
<title>140325813986192</title>
<ellipse fill="white" stroke="black" cx="623" cy="-138" rx="27" ry="27"/>
</g>
<!-- 140325813986912&#45;&gt;140325813986192 -->
<g id="edge4" class="edge">
<title>140325813986912&#45;&gt;140325813986192</title>
<path fill="none" stroke="black" d="M560.12,-134.89C568.47,-135.31 577.32,-135.75 585.63,-136.17"/>
<polygon fill="black" stroke="black" points="585.62,-139.68 595.78,-136.68 585.97,-132.69 585.62,-139.68"/>
</g>
<!-- 140325814280672 -->
<g id="node16" class="node">
<title>140325814280672</title>
<polygon fill="white" stroke="black" points="2493,-150 2319,-150 2319,-114 2493,-114 2493,-150"/>
<text text-anchor="middle" x="2406" y="-128.9" font-family="Times,serif" font-size="12.00">Send for Credit Collection</text>
</g>
<!-- 140325814280672&#45;&gt;140325816492704 -->
<g id="edge2" class="edge">
<title>140325814280672&#45;&gt;140325816492704</title>
<path fill="none" stroke="black" d="M2466.9,-113.91C2475.69,-111.05 2484.61,-108.03 2493,-105 2502.42,-101.6 2512.48,-97.65 2521.83,-93.84"/>
<polygon fill="black" stroke="black" points="2523.35,-97 2531.26,-89.95 2520.68,-90.53 2523.35,-97"/>
</g>
<!-- 140325814086896 -->
<g id="node17" class="node">
<title>140325814086896</title>
<polygon fill="white" stroke="black" points="177,-81 90,-81 90,-45 177,-45 177,-81"/>
<text text-anchor="middle" x="133.5" y="-59.9" font-family="Times,serif" font-size="12.00">Create Fine</text>
</g>
<!-- 140325816379456 -->
<g id="node29" class="node">
<title>140325816379456</title>
<ellipse fill="white" stroke="black" cx="240" cy="-63" rx="27" ry="27"/>
</g>
<!-- 140325814086896&#45;&gt;140325816379456 -->
<g id="edge6" class="edge">
<title>140325814086896&#45;&gt;140325816379456</title>
<path fill="none" stroke="black" d="M177,-63C185.51,-63 194.37,-63 202.64,-63"/>
<polygon fill="black" stroke="black" points="202.73,-66.5 212.73,-63 202.73,-59.5 202.73,-66.5"/>
</g>
<!-- 140325813988208 -->
<g id="node18" class="node">
<title>140325813988208</title>
<polygon fill="white" stroke="black" points="844,-157 686,-157 686,-121 844,-121 844,-157"/>
<text text-anchor="middle" x="765" y="-135.9" font-family="Times,serif" font-size="12.00">Insert Fine Notification</text>
</g>
<!-- 140325813987248 -->
<g id="node23" class="node">
<title>140325813987248</title>
<ellipse fill="white" stroke="black" cx="936" cy="-141" rx="27" ry="27"/>
</g>
<!-- 140325813988208&#45;&gt;140325813987248 -->
<g id="edge8" class="edge">
<title>140325813988208&#45;&gt;140325813987248</title>
<path fill="none" stroke="black" d="M844.07,-139.92C863.22,-140.15 882.82,-140.38 898.9,-140.57"/>
<polygon fill="black" stroke="black" points="898.87,-144.07 908.91,-140.69 898.95,-137.07 898.87,-144.07"/>
</g>
<!-- 140325818632192 -->
<g id="node19" class="node">
<title>140325818632192</title>
<ellipse fill="white" stroke="black" cx="27" cy="-63" rx="27" ry="27"/>
<text text-anchor="start" x="11.5" y="-54.3" font-family="Times,serif" font-size="34.00">●</text>
</g>
<!-- 140325818632192&#45;&gt;140325814086896 -->
<g id="edge35" class="edge">
<title>140325818632192&#45;&gt;140325814086896</title>
<path fill="none" stroke="black" d="M54.1,-63C61.83,-63 70.6,-63 79.4,-63"/>
<polygon fill="black" stroke="black" points="79.68,-66.5 89.68,-63 79.68,-59.5 79.68,-66.5"/>
</g>
<!-- 140325813984128&#45;&gt;140325813986096 -->
<g id="edge12" class="edge">
<title>140325813984128&#45;&gt;140325813986096</title>
<path fill="none" stroke="black" d="M447.2,-90.34C524.86,-88.37 755.56,-82.54 869.63,-79.65"/>
<polygon fill="black" stroke="black" points="870.06,-83.14 879.97,-79.39 869.88,-76.15 870.06,-83.14"/>
</g>
<!-- 140325813984128&#45;&gt;140325813986912 -->
<g id="edge11" class="edge">
<title>140325813984128&#45;&gt;140325813986912</title>
<path fill="none" stroke="black" d="M445.09,-101.17C453.63,-104.77 463.56,-108.97 473.36,-113.1"/>
<polygon fill="black" stroke="black" points="472.09,-116.36 482.66,-117.03 474.81,-109.91 472.09,-116.36"/>
</g>
<!-- 140325813984992&#45;&gt;140325813985808 -->
<g id="edge13" class="edge">
<title>140325813984992&#45;&gt;140325813985808</title>
<path fill="none" stroke="black" d="M1207.4,-112C1215.39,-112 1224.31,-112 1232.82,-112"/>
<polygon fill="black" stroke="black" points="1232.92,-115.5 1242.92,-112 1232.92,-108.5 1232.92,-115.5"/>
</g>
<!-- 140325813986192&#45;&gt;140325813988208 -->
<g id="edge14" class="edge">
<title>140325813986192&#45;&gt;140325813988208</title>
<path fill="none" stroke="black" d="M650,-138.19C657.61,-138.24 666.39,-138.3 675.62,-138.37"/>
<polygon fill="black" stroke="black" points="675.76,-141.87 685.78,-138.44 675.81,-134.87 675.76,-141.87"/>
</g>
<!-- 140325813987248&#45;&gt;140325813988928 -->
<g id="edge15" class="edge">
<title>140325813987248&#45;&gt;140325813988928</title>
<path fill="none" stroke="black" d="M963.25,-139.44C978.73,-138.52 998.9,-137.32 1017.63,-136.2"/>
<polygon fill="black" stroke="black" points="1018.07,-139.68 1027.84,-135.6 1017.65,-132.7 1018.07,-139.68"/>
</g>
<!-- 140325813990272&#45;&gt;140325813991712 -->
<g id="edge17" class="edge">
<title>140325813990272&#45;&gt;140325813991712</title>
<path fill="none" stroke="black" d="M1386.93,-179.01C1419.27,-185.25 1474.74,-195.96 1511.27,-203.01"/>
<polygon fill="black" stroke="black" points="1511.01,-206.52 1521.49,-204.98 1512.33,-199.65 1511.01,-206.52"/>
</g>
<!-- 140325813990272&#45;&gt;140325813992912 -->
<g id="edge16" class="edge">
<title>140325813990272&#45;&gt;140325813992912</title>
<path fill="none" stroke="black" d="M1386.93,-171.5C1394.43,-170.77 1403.18,-169.93 1412.65,-169.02"/>
<polygon fill="black" stroke="black" points="1413.14,-172.48 1422.75,-168.04 1412.46,-165.52 1413.14,-172.48"/>
</g>
<!-- 140325813990896&#45;&gt;140325813978128 -->
<g id="edge18" class="edge">
<title>140325813990896&#45;&gt;140325813978128</title>
<path fill="none" stroke="black" d="M1764.17,-164.46C1824.21,-163.06 1976.39,-158.46 2103,-146 2111.39,-145.17 2120.38,-144.02 2128.84,-142.82"/>
<polygon fill="black" stroke="black" points="2129.44,-146.27 2138.82,-141.35 2128.42,-139.35 2129.44,-146.27"/>
</g>
<!-- 140325813991520&#45;&gt;140325814273424 -->
<g id="edge20" class="edge">
<title>140325813991520&#45;&gt;140325814273424</title>
<path fill="none" stroke="black" d="M1387.26,-102.39C1476.2,-103.69 1766.23,-107.95 1868.99,-109.46"/>
<polygon fill="black" stroke="black" points="1869.13,-112.97 1879.18,-109.61 1869.24,-105.97 1869.13,-112.97"/>
</g>
<!-- 140325813991520&#45;&gt;140325814272560 -->
<g id="edge19" class="edge">
<title>140325813991520&#45;&gt;140325814272560</title>
<path fill="none" stroke="black" d="M1386.54,-96.25C1405.12,-92.06 1431.47,-86.13 1457.49,-80.27"/>
<polygon fill="black" stroke="black" points="1458.44,-83.64 1467.43,-78.03 1456.9,-76.81 1458.44,-83.64"/>
</g>
<!-- 140325814274768&#45;&gt;140325813978128 -->
<g id="edge21" class="edge">
<title>140325814274768&#45;&gt;140325813978128</title>
<path fill="none" stroke="black" d="M2101.98,-117.66C2110.42,-120.25 2120,-123.19 2129.11,-125.99"/>
<polygon fill="black" stroke="black" points="2128.14,-129.35 2138.73,-128.94 2130.19,-122.66 2128.14,-129.35"/>
</g>
<!-- 140325814280192&#45;&gt;140325814277552 -->
<g id="edge22" class="edge">
<title>140325814280192&#45;&gt;140325814277552</title>
<path fill="none" stroke="black" d="M1764.17,-55.16C1771.6,-55.2 1780.21,-55.25 1789.43,-55.31"/>
<polygon fill="black" stroke="black" points="1789.64,-58.81 1799.66,-55.37 1789.68,-51.81 1789.64,-58.81"/>
</g>
<!-- 140325816379456&#45;&gt;140325814078016 -->
<g id="edge23" class="edge">
<title>140325816379456&#45;&gt;140325814078016</title>
<path fill="none" stroke="black" d="M266.45,-56.44C300.82,-48.16 364.1,-35 419,-35 419,-35 419,-35 522.5,-35 595.4,-35 680.66,-33.62 727.88,-32.73"/>
<polygon fill="black" stroke="black" points="727.98,-36.23 737.91,-32.54 727.85,-29.23 727.98,-36.23"/>
</g>
<!-- 140325816379456&#45;&gt;140325813977696 -->
<g id="edge24" class="edge">
<title>140325816379456&#45;&gt;140325813977696</title>
<path fill="none" stroke="black" d="M265.98,-70.95C274.42,-73.63 284,-76.68 293.11,-79.58"/>
<polygon fill="black" stroke="black" points="292.14,-82.94 302.73,-82.64 294.26,-76.27 292.14,-82.94"/>
</g>
<!-- 140325813977360&#45;&gt;140325813990176 -->
<g id="edge26" class="edge">
<title>140325813977360&#45;&gt;140325813990176</title>
<path fill="none" stroke="black" d="M2280.9,-120.88C2292.32,-115.76 2306.24,-109.77 2319,-105 2335.23,-98.94 2353.52,-93.07 2369.04,-88.36"/>
<polygon fill="black" stroke="black" points="2370.21,-91.66 2378.79,-85.44 2368.2,-84.95 2370.21,-91.66"/>
</g>
<!-- 140325813977360&#45;&gt;140325814280672 -->
<g id="edge25" class="edge">
<title>140325813977360&#45;&gt;140325814280672</title>
<path fill="none" stroke="black" d="M2283.12,-132C2290.68,-132 2299.4,-132 2308.64,-132"/>
<polygon fill="black" stroke="black" points="2308.83,-135.5 2318.83,-132 2308.83,-128.5 2308.83,-135.5"/>
</g>
<!-- 140325813979520&#45;&gt;140325813981584 -->
<g id="edge27" class="edge">
<title>140325813979520&#45;&gt;140325813981584</title>
<path fill="none" stroke="black" d="M447.14,-186.84C456.38,-187.49 467.04,-188.24 477.32,-188.96"/>
<polygon fill="black" stroke="black" points="477.18,-192.46 487.4,-189.67 477.67,-185.48 477.18,-192.46"/>
</g>
<!-- 140325813980480&#45;&gt;140325813982592 -->
<g id="edge28" class="edge">
<title>140325813980480&#45;&gt;140325813982592</title>
<path fill="none" stroke="black" d="M595.85,-238.35C553.27,-235.56 466.33,-229.36 393,-221 384.63,-220.05 375.64,-218.84 367.18,-217.63"/>
<polygon fill="black" stroke="black" points="367.6,-214.16 357.2,-216.17 366.58,-221.08 367.6,-214.16"/>
</g>
<!-- 140325813980480&#45;&gt;140325813978128 -->
<g id="edge29" class="edge">
<title>140325813980480&#45;&gt;140325813978128</title>
<path fill="none" stroke="black" d="M650.19,-242.26C703.67,-246.67 829.3,-256 935,-256 935,-256 935,-256 1907.5,-256 1996.98,-256 2089.15,-196.06 2135.13,-161.26"/>
<polygon fill="black" stroke="black" points="2137.37,-163.95 2143.16,-155.07 2133.1,-158.4 2137.37,-163.95"/>
</g>
</g>
</svg>
