<?xml version="1.0" encoding="UTF-8" standalone="no"?>
<!DOCTYPE svg PUBLIC "-//W3C//DTD SVG 1.1//EN"
 "http://www.w3.org/Graphics/SVG/1.1/DTD/svg11.dtd">
<!-- Generated by graphviz version 2.48.0 (0)
 -->
<!-- Title: imdf_net_1720947016.015739 Pages: 1 -->
<svg width="2036pt" height="285pt"
 viewBox="0.00 0.00 2036.00 285.00" xmlns="http://www.w3.org/2000/svg" xmlns:xlink="http://www.w3.org/1999/xlink">
<g id="graph0" class="graph" transform="scale(1 1) rotate(0) translate(4 281)">
<title>imdf_net_1720947016.015739</title>
<polygon fill="white" stroke="transparent" points="-4,4 -4,-281 2032,-281 2032,4 -4,4"/>
<!-- 140325814075712 -->
<g id="node1" class="node">
<title>140325814075712</title>
<polygon fill="black" stroke="black" points="1720,-277 1666,-277 1666,-241 1720,-241 1720,-277"/>
</g>
<!-- 140325820149168 -->
<g id="node30" class="node">
<title>140325820149168</title>
<ellipse fill="white" stroke="black" cx="1997" cy="-181" rx="27" ry="27"/>
<ellipse fill="none" stroke="black" cx="1997" cy="-181" rx="31" ry="31"/>
<text text-anchor="start" x="1981.5" y="-172.9" font-family="Times,serif" font-size="32.00">■</text>
</g>
<!-- 140325814075712&#45;&gt;140325820149168 -->
<g id="edge28" class="edge">
<title>140325814075712&#45;&gt;140325820149168</title>
<path fill="none" stroke="black" d="M1720.23,-254.88C1764.2,-247.63 1855.33,-231.15 1930,-208 1939.57,-205.03 1949.68,-201.25 1959.03,-197.45"/>
<polygon fill="black" stroke="black" points="1960.57,-200.61 1968.46,-193.53 1957.88,-194.14 1960.57,-200.61"/>
</g>
<!-- 140325814087808 -->
<g id="node2" class="node">
<title>140325814087808</title>
<polygon fill="white" stroke="black" points="893,-50 680,-50 680,-14 893,-14 893,-50"/>
<text text-anchor="middle" x="786.5" y="-28.9" font-family="Times,serif" font-size="12.00">Notify Result Appeal to Offender</text>
</g>
<!-- 140325814076912 -->
<g id="node26" class="node">
<title>140325814076912</title>
<ellipse fill="white" stroke="black" cx="956" cy="-59" rx="27" ry="27"/>
</g>
<!-- 140325814087808&#45;&gt;140325814076912 -->
<g id="edge2" class="edge">
<title>140325814087808&#45;&gt;140325814076912</title>
<path fill="none" stroke="black" d="M893.11,-49.02C902.37,-50.52 911.25,-51.95 919.25,-53.24"/>
<polygon fill="black" stroke="black" points="918.79,-56.71 929.22,-54.84 919.91,-49.8 918.79,-56.71"/>
</g>
<!-- 140325814088000 -->
<g id="node3" class="node">
<title>140325814088000</title>
<polygon fill="black" stroke="black" points="1125,-77 1071,-77 1071,-41 1125,-41 1125,-77"/>
</g>
<!-- 140325814078256 -->
<g id="node28" class="node">
<title>140325814078256</title>
<ellipse fill="white" stroke="black" cx="1240" cy="-59" rx="27" ry="27"/>
</g>
<!-- 140325814088000&#45;&gt;140325814078256 -->
<g id="edge11" class="edge">
<title>140325814088000&#45;&gt;140325814078256</title>
<path fill="none" stroke="black" d="M1125,-59C1146.77,-59 1178.08,-59 1202.38,-59"/>
<polygon fill="black" stroke="black" points="1202.66,-62.5 1212.66,-59 1202.66,-55.5 1202.66,-62.5"/>
</g>
<!-- 140325814076576 -->
<g id="node4" class="node">
<title>140325814076576</title>
<polygon fill="white" stroke="black" points="1381.5,-67 1313.5,-67 1313.5,-31 1381.5,-31 1381.5,-67"/>
<text text-anchor="middle" x="1347.5" y="-45.9" font-family="Times,serif" font-size="12.00">Payment</text>
</g>
<!-- 140325814089632 -->
<g id="node29" class="node">
<title>140325814089632</title>
<ellipse fill="white" stroke="black" cx="1455" cy="-44" rx="27" ry="27"/>
</g>
<!-- 140325814076576&#45;&gt;140325814089632 -->
<g id="edge4" class="edge">
<title>140325814076576&#45;&gt;140325814089632</title>
<path fill="none" stroke="black" d="M1381.59,-47.43C1392.97,-46.89 1405.78,-46.29 1417.42,-45.73"/>
<polygon fill="black" stroke="black" points="1417.89,-49.22 1427.71,-45.25 1417.56,-42.22 1417.89,-49.22"/>
</g>
<!-- 140325814082144 -->
<g id="node5" class="node">
<title>140325814082144</title>
<polygon fill="black" stroke="black" points="455.5,-155 401.5,-155 401.5,-119 455.5,-119 455.5,-155"/>
</g>
<!-- 140325814081088 -->
<g id="node18" class="node">
<title>140325814081088</title>
<ellipse fill="white" stroke="black" cx="617" cy="-209" rx="27" ry="27"/>
</g>
<!-- 140325814082144&#45;&gt;140325814081088 -->
<g id="edge33" class="edge">
<title>140325814082144&#45;&gt;140325814081088</title>
<path fill="none" stroke="black" d="M455.83,-147.16C488.87,-159.92 545.6,-181.82 581.92,-195.84"/>
<polygon fill="black" stroke="black" points="581,-199.24 591.59,-199.58 583.52,-192.71 581,-199.24"/>
</g>
<!-- 140325814088432 -->
<g id="node20" class="node">
<title>140325814088432</title>
<ellipse fill="white" stroke="black" cx="617" cy="-137" rx="27" ry="27"/>
</g>
<!-- 140325814082144&#45;&gt;140325814088432 -->
<g id="edge34" class="edge">
<title>140325814082144&#45;&gt;140325814088432</title>
<path fill="none" stroke="black" d="M455.83,-137C488.18,-137 543.24,-137 579.62,-137"/>
<polygon fill="black" stroke="black" points="579.81,-140.5 589.81,-137 579.81,-133.5 579.81,-140.5"/>
</g>
<!-- 140325814091744 -->
<g id="node6" class="node">
<title>140325814091744</title>
<polygon fill="white" stroke="black" points="893,-227 680,-227 680,-191 893,-191 893,-227"/>
<text text-anchor="middle" x="786.5" y="-205.9" font-family="Times,serif" font-size="12.00">Insert Date Appeal to Prefecture</text>
</g>
<!-- 140325814085696 -->
<g id="node19" class="node">
<title>140325814085696</title>
<ellipse fill="white" stroke="black" cx="1098" cy="-209" rx="27" ry="27"/>
</g>
<!-- 140325814091744&#45;&gt;140325814085696 -->
<g id="edge10" class="edge">
<title>140325814091744&#45;&gt;140325814085696</title>
<path fill="none" stroke="black" d="M893.15,-209C951.3,-209 1019.78,-209 1060.72,-209"/>
<polygon fill="black" stroke="black" points="1060.76,-212.5 1070.76,-209 1060.76,-205.5 1060.76,-212.5"/>
</g>
<!-- 140325813863584 -->
<g id="node7" class="node">
<title>140325813863584</title>
<polygon fill="white" stroke="black" points="825,-156 748,-156 748,-120 825,-120 825,-156"/>
<text text-anchor="middle" x="786.5" y="-134.9" font-family="Times,serif" font-size="12.00">Send Fine</text>
</g>
<!-- 140325813862816 -->
<g id="node22" class="node">
<title>140325813862816</title>
<ellipse fill="white" stroke="black" cx="956" cy="-140" rx="27" ry="27"/>
</g>
<!-- 140325813863584&#45;&gt;140325813862816 -->
<g id="edge7" class="edge">
<title>140325813863584&#45;&gt;140325813862816</title>
<path fill="none" stroke="black" d="M825.09,-138.45C853.14,-138.78 891.25,-139.24 918.93,-139.57"/>
<polygon fill="black" stroke="black" points="918.94,-143.07 928.98,-139.69 919.03,-136.07 918.94,-143.07"/>
</g>
<!-- 140325813866656 -->
<g id="node8" class="node">
<title>140325813866656</title>
<polygon fill="white" stroke="black" points="1630,-172 1518,-172 1518,-136 1630,-136 1630,-172"/>
<text text-anchor="middle" x="1574" y="-150.9" font-family="Times,serif" font-size="12.00">Appeal to Judge</text>
</g>
<!-- 140325814075472 -->
<g id="node21" class="node">
<title>140325814075472</title>
<ellipse fill="white" stroke="black" cx="1693" cy="-154" rx="27" ry="27"/>
</g>
<!-- 140325813866656&#45;&gt;140325814075472 -->
<g id="edge3" class="edge">
<title>140325813866656&#45;&gt;140325814075472</title>
<path fill="none" stroke="black" d="M1630.07,-154C1638.73,-154 1647.48,-154 1655.58,-154"/>
<polygon fill="black" stroke="black" points="1655.77,-157.5 1665.77,-154 1655.77,-150.5 1655.77,-157.5"/>
</g>
<!-- 140325814088960 -->
<g id="node9" class="node">
<title>140325814088960</title>
<polygon fill="white" stroke="black" points="1930,-199 1756,-199 1756,-163 1930,-163 1930,-199"/>
<text text-anchor="middle" x="1843" y="-177.9" font-family="Times,serif" font-size="12.00">Send for Credit Collection</text>
</g>
<!-- 140325814088960&#45;&gt;140325820149168 -->
<g id="edge9" class="edge">
<title>140325814088960&#45;&gt;140325820149168</title>
<path fill="none" stroke="black" d="M1930.21,-181C1939.07,-181 1947.73,-181 1955.71,-181"/>
<polygon fill="black" stroke="black" points="1955.78,-184.5 1965.78,-181 1955.78,-177.5 1955.78,-184.5"/>
</g>
<!-- 140325814081328 -->
<g id="node10" class="node">
<title>140325814081328</title>
<polygon fill="white" stroke="black" points="177,-127 90,-127 90,-91 177,-91 177,-127"/>
<text text-anchor="middle" x="133.5" y="-105.9" font-family="Times,serif" font-size="12.00">Create Fine</text>
</g>
<!-- 140325816379456 -->
<g id="node25" class="node">
<title>140325816379456</title>
<ellipse fill="white" stroke="black" cx="240" cy="-109" rx="27" ry="27"/>
</g>
<!-- 140325814081328&#45;&gt;140325816379456 -->
<g id="edge1" class="edge">
<title>140325814081328&#45;&gt;140325816379456</title>
<path fill="none" stroke="black" d="M177,-109C185.51,-109 194.37,-109 202.64,-109"/>
<polygon fill="black" stroke="black" points="202.73,-112.5 212.73,-109 202.73,-105.5 202.73,-112.5"/>
</g>
<!-- 140325814080560 -->
<g id="node11" class="node">
<title>140325814080560</title>
<polygon fill="black" stroke="black" points="455.5,-100 401.5,-100 401.5,-64 455.5,-64 455.5,-100"/>
</g>
<!-- 140325814080560&#45;&gt;140325814076912 -->
<g id="edge29" class="edge">
<title>140325814080560&#45;&gt;140325814076912</title>
<path fill="none" stroke="black" d="M455.56,-80.86C541.88,-77.08 818.65,-64.97 918.58,-60.59"/>
<polygon fill="black" stroke="black" points="918.95,-64.08 928.78,-60.15 918.64,-57.09 918.95,-64.08"/>
</g>
<!-- 140325814085360 -->
<g id="node12" class="node">
<title>140325814085360</title>
<polygon fill="white" stroke="black" points="554,-46 303,-46 303,-10 554,-10 554,-46"/>
<text text-anchor="middle" x="428.5" y="-24.9" font-family="Times,serif" font-size="12.00">Receive Result Appeal from Prefecture</text>
</g>
<!-- 140325814082528 -->
<g id="node27" class="node">
<title>140325814082528</title>
<ellipse fill="white" stroke="black" cx="617" cy="-27" rx="27" ry="27"/>
</g>
<!-- 140325814085360&#45;&gt;140325814082528 -->
<g id="edge5" class="edge">
<title>140325814085360&#45;&gt;140325814082528</title>
<path fill="none" stroke="black" d="M554.16,-27.33C563.31,-27.28 572.01,-27.24 579.84,-27.19"/>
<polygon fill="black" stroke="black" points="579.95,-30.69 589.93,-27.14 579.91,-23.69 579.95,-30.69"/>
</g>
<!-- 140325814085552 -->
<g id="node13" class="node">
<title>140325814085552</title>
<polygon fill="black" stroke="black" points="1601,-113 1547,-113 1547,-77 1601,-77 1601,-113"/>
</g>
<!-- 140325814085552&#45;&gt;140325814078256 -->
<g id="edge30" class="edge">
<title>140325814085552&#45;&gt;140325814078256</title>
<path fill="none" stroke="black" d="M1546.73,-94.87C1498.23,-94.24 1391.47,-91.09 1303,-76 1294.14,-74.49 1284.73,-72.25 1275.98,-69.88"/>
<polygon fill="black" stroke="black" points="1276.66,-66.44 1266.09,-67.09 1274.76,-73.18 1276.66,-66.44"/>
</g>
<!-- 140325814088144 -->
<g id="node14" class="node">
<title>140325814088144</title>
<polygon fill="black" stroke="black" points="1870,-120 1816,-120 1816,-84 1870,-84 1870,-120"/>
</g>
<!-- 140325814088144&#45;&gt;140325820149168 -->
<g id="edge31" class="edge">
<title>140325814088144&#45;&gt;140325820149168</title>
<path fill="none" stroke="black" d="M1870.13,-115.58C1894.99,-128.5 1932.6,-148.05 1960.23,-162.41"/>
<polygon fill="black" stroke="black" points="1958.7,-165.56 1969.19,-167.07 1961.93,-159.35 1958.7,-165.56"/>
</g>
<!-- 140325813864784 -->
<g id="node15" class="node">
<title>140325813864784</title>
<polygon fill="white" stroke="black" points="1177,-160 1019,-160 1019,-124 1177,-124 1177,-160"/>
<text text-anchor="middle" x="1098" y="-138.9" font-family="Times,serif" font-size="12.00">Insert Fine Notification</text>
</g>
<!-- 140325813864112 -->
<g id="node23" class="node">
<title>140325813864112</title>
<ellipse fill="white" stroke="black" cx="1240" cy="-148" rx="27" ry="27"/>
</g>
<!-- 140325813864784&#45;&gt;140325813864112 -->
<g id="edge8" class="edge">
<title>140325813864784&#45;&gt;140325813864112</title>
<path fill="none" stroke="black" d="M1177.19,-145.35C1186.16,-145.74 1194.95,-146.11 1202.95,-146.46"/>
<polygon fill="black" stroke="black" points="1202.84,-149.95 1212.98,-146.88 1203.14,-142.96 1202.84,-149.95"/>
</g>
<!-- 140325813865936 -->
<g id="node16" class="node">
<title>140325813865936</title>
<polygon fill="white" stroke="black" points="1392,-168 1303,-168 1303,-132 1392,-132 1392,-168"/>
<text text-anchor="middle" x="1347.5" y="-146.9" font-family="Times,serif" font-size="12.00">Add penalty</text>
</g>
<!-- 140325813865072 -->
<g id="node24" class="node">
<title>140325813865072</title>
<ellipse fill="white" stroke="black" cx="1455" cy="-154" rx="27" ry="27"/>
</g>
<!-- 140325813865936&#45;&gt;140325813865072 -->
<g id="edge6" class="edge">
<title>140325813865936&#45;&gt;140325813865072</title>
<path fill="none" stroke="black" d="M1392.02,-151.65C1400.56,-151.97 1409.43,-152.31 1417.71,-152.62"/>
<polygon fill="black" stroke="black" points="1417.67,-156.13 1427.8,-153.01 1417.94,-149.13 1417.67,-156.13"/>
</g>
<!-- 140326895302512 -->
<g id="node17" class="node">
<title>140326895302512</title>
<ellipse fill="white" stroke="black" cx="27" cy="-109" rx="27" ry="27"/>
<text text-anchor="start" x="11.5" y="-100.3" font-family="Times,serif" font-size="34.00">●</text>
</g>
<!-- 140326895302512&#45;&gt;140325814081328 -->
<g id="edge32" class="edge">
<title>140326895302512&#45;&gt;140325814081328</title>
<path fill="none" stroke="black" d="M54.1,-109C61.83,-109 70.6,-109 79.4,-109"/>
<polygon fill="black" stroke="black" points="79.68,-112.5 89.68,-109 79.68,-105.5 79.68,-112.5"/>
</g>
<!-- 140325814081088&#45;&gt;140325814091744 -->
<g id="edge12" class="edge">
<title>140325814081088&#45;&gt;140325814091744</title>
<path fill="none" stroke="black" d="M644.17,-209C651.6,-209 660.21,-209 669.43,-209"/>
<polygon fill="black" stroke="black" points="669.66,-212.5 679.66,-209 669.66,-205.5 669.66,-212.5"/>
</g>
<!-- 140325814085696&#45;&gt;140325814088960 -->
<g id="edge13" class="edge">
<title>140325814085696&#45;&gt;140325814088960</title>
<path fill="none" stroke="black" d="M1125.01,-209C1170.11,-209 1265.72,-209 1346.5,-209 1346.5,-209 1346.5,-209 1575,-209 1631.91,-209 1695.28,-202.63 1745.99,-195.97"/>
<polygon fill="black" stroke="black" points="1746.52,-199.43 1755.96,-194.63 1745.59,-192.49 1746.52,-199.43"/>
</g>
<!-- 140325814088432&#45;&gt;140325813863584 -->
<g id="edge14" class="edge">
<title>140325814088432&#45;&gt;140325813863584</title>
<path fill="none" stroke="black" d="M644.17,-137.16C669.03,-137.3 707,-137.53 737.33,-137.71"/>
<polygon fill="black" stroke="black" points="737.68,-141.21 747.7,-137.77 737.72,-134.21 737.68,-141.21"/>
</g>
<!-- 140325814075472&#45;&gt;140325814088960 -->
<g id="edge15" class="edge">
<title>140325814075472&#45;&gt;140325814088960</title>
<path fill="none" stroke="black" d="M1719.78,-158.7C1727.46,-160.1 1736.37,-161.73 1745.82,-163.45"/>
<polygon fill="black" stroke="black" points="1745.35,-166.93 1755.82,-165.28 1746.61,-160.04 1745.35,-166.93"/>
</g>
<!-- 140325813862816&#45;&gt;140325813864784 -->
<g id="edge16" class="edge">
<title>140325813862816&#45;&gt;140325813864784</title>
<path fill="none" stroke="black" d="M983,-140.37C990.61,-140.48 999.39,-140.61 1008.62,-140.74"/>
<polygon fill="black" stroke="black" points="1008.73,-144.24 1018.78,-140.88 1008.83,-137.24 1008.73,-144.24"/>
</g>
<!-- 140325813864112&#45;&gt;140325813865936 -->
<g id="edge17" class="edge">
<title>140325813864112&#45;&gt;140325813865936</title>
<path fill="none" stroke="black" d="M1267.08,-148.49C1274.88,-148.64 1283.74,-148.81 1292.64,-148.98"/>
<polygon fill="black" stroke="black" points="1292.59,-152.48 1302.66,-149.17 1292.72,-145.48 1292.59,-152.48"/>
</g>
<!-- 140325813865072&#45;&gt;140325813866656 -->
<g id="edge18" class="edge">
<title>140325813865072&#45;&gt;140325813866656</title>
<path fill="none" stroke="black" d="M1482.26,-154C1489.89,-154 1498.6,-154 1507.52,-154"/>
<polygon fill="black" stroke="black" points="1507.64,-157.5 1517.64,-154 1507.64,-150.5 1507.64,-157.5"/>
</g>
<!-- 140325816379456&#45;&gt;140325814075712 -->
<g id="edge20" class="edge">
<title>140325816379456&#45;&gt;140325814075712</title>
<path fill="none" stroke="black" d="M258.93,-128.6C270.53,-140.28 286.49,-154.6 303,-164 429.92,-236.24 469.96,-264 616,-264 616,-264 616,-264 1456,-264 1526.72,-264 1609.33,-261.73 1655.67,-260.25"/>
<polygon fill="black" stroke="black" points="1655.93,-263.74 1665.81,-259.92 1655.7,-256.74 1655.93,-263.74"/>
</g>
<!-- 140325816379456&#45;&gt;140325814082144 -->
<g id="edge22" class="edge">
<title>140325816379456&#45;&gt;140325814082144</title>
<path fill="none" stroke="black" d="M266.93,-112.89C299.27,-117.75 354.74,-126.08 391.27,-131.56"/>
<polygon fill="black" stroke="black" points="391.08,-135.07 401.49,-133.09 392.12,-128.15 391.08,-135.07"/>
</g>
<!-- 140325816379456&#45;&gt;140325814080560 -->
<g id="edge21" class="edge">
<title>140325816379456&#45;&gt;140325814080560</title>
<path fill="none" stroke="black" d="M266.93,-105.25C299.27,-100.56 354.74,-92.53 391.27,-87.25"/>
<polygon fill="black" stroke="black" points="392.09,-90.66 401.49,-85.77 391.09,-83.73 392.09,-90.66"/>
</g>
<!-- 140325816379456&#45;&gt;140325814085360 -->
<g id="edge19" class="edge">
<title>140325816379456&#45;&gt;140325814085360</title>
<path fill="none" stroke="black" d="M258.69,-89.21C270.2,-77.54 286.16,-63.45 303,-55 306.78,-53.1 310.69,-51.34 314.69,-49.7"/>
<polygon fill="black" stroke="black" points="316.07,-52.92 324.17,-46.09 313.58,-46.38 316.07,-52.92"/>
</g>
<!-- 140325814076912&#45;&gt;140325814088000 -->
<g id="edge23" class="edge">
<title>140325814076912&#45;&gt;140325814088000</title>
<path fill="none" stroke="black" d="M983,-59C1004.77,-59 1036.08,-59 1060.38,-59"/>
<polygon fill="black" stroke="black" points="1060.66,-62.5 1070.66,-59 1060.66,-55.5 1060.66,-62.5"/>
</g>
<!-- 140325814082528&#45;&gt;140325814087808 -->
<g id="edge24" class="edge">
<title>140325814082528&#45;&gt;140325814087808</title>
<path fill="none" stroke="black" d="M644.17,-27.78C651.6,-28 660.21,-28.26 669.43,-28.54"/>
<polygon fill="black" stroke="black" points="669.56,-32.04 679.66,-28.84 669.77,-25.04 669.56,-32.04"/>
</g>
<!-- 140325814078256&#45;&gt;140325814076576 -->
<g id="edge25" class="edge">
<title>140325814078256&#45;&gt;140325814076576</title>
<path fill="none" stroke="black" d="M1267.08,-56.53C1277.95,-55.5 1290.87,-54.27 1303.09,-53.11"/>
<polygon fill="black" stroke="black" points="1303.52,-56.59 1313.14,-52.16 1302.86,-49.62 1303.52,-56.59"/>
</g>
<!-- 140325814089632&#45;&gt;140325814085552 -->
<g id="edge26" class="edge">
<title>140325814089632&#45;&gt;140325814085552</title>
<path fill="none" stroke="black" d="M1479.96,-54.44C1496.47,-61.64 1518.7,-71.33 1537.29,-79.43"/>
<polygon fill="black" stroke="black" points="1536.06,-82.72 1546.63,-83.5 1538.86,-76.3 1536.06,-82.72"/>
</g>
<!-- 140325814089632&#45;&gt;140325814088144 -->
<g id="edge27" class="edge">
<title>140325814089632&#45;&gt;140325814088144</title>
<path fill="none" stroke="black" d="M1481.97,-47.4C1516,-51.9 1577.52,-60.17 1630,-68 1691.86,-77.23 1763.7,-88.96 1805.86,-95.96"/>
<polygon fill="black" stroke="black" points="1805.48,-99.44 1815.92,-97.63 1806.63,-92.54 1805.48,-99.44"/>
</g>
</g>
</svg>
