<?xml version="1.0" encoding="UTF-8" standalone="no"?>
<!DOCTYPE svg PUBLIC "-//W3C//DTD SVG 1.1//EN"
 "http://www.w3.org/Graphics/SVG/1.1/DTD/svg11.dtd">
<!-- Generated by graphviz version 2.48.0 (0)
 -->
<!-- Title: imdf_net_1720370178.1112528 Pages: 1 -->
<svg width="2589pt" height="612pt"
 viewBox="0.00 0.00 2588.52 612.00" xmlns="http://www.w3.org/2000/svg" xmlns:xlink="http://www.w3.org/1999/xlink">
<g id="graph0" class="graph" transform="scale(1 1) rotate(0) translate(4 608)">
<title>imdf_net_1720370178.1112528</title>
<polygon fill="white" stroke="transparent" points="-4,4 -4,-608 2584.52,-608 2584.52,4 -4,4"/>
<!-- 139662241449216 -->
<g id="node1" class="node">
<title>139662241449216</title>
<polygon fill="white" stroke="black" points="160.46,-557 90.18,-557 90.18,-521 160.46,-521 160.46,-557"/>
<text text-anchor="middle" x="125.32" y="-535.4" font-family="Times,serif" font-size="12.00">Leucocytes</text>
</g>
<!-- 139662239359840 -->
<g id="node60" class="node">
<title>139662239359840</title>
<ellipse fill="white" stroke="black" cx="223.64" cy="-567" rx="27" ry="27"/>
</g>
<!-- 139662241449216&#45;&gt;139662239359840 -->
<g id="edge10" class="edge">
<title>139662241449216&#45;&gt;139662239359840</title>
<path fill="none" stroke="black" d="M160.55,-548.95C169.43,-551.53 179,-554.31 187.9,-556.9"/>
<polygon fill="black" stroke="black" points="187.02,-560.29 197.6,-559.72 188.98,-553.57 187.02,-560.29"/>
</g>
<!-- 139662239363968 -->
<g id="node2" class="node">
<title>139662239363968</title>
<polygon fill="white" stroke="black" points="540.14,-444 486.14,-444 486.14,-408 540.14,-408 540.14,-444"/>
<text text-anchor="middle" x="513.14" y="-422.4" font-family="Times,serif" font-size="12.00">CRP</text>
</g>
<!-- 139662239363248 -->
<g id="node37" class="node">
<title>139662239363248</title>
<ellipse fill="white" stroke="black" cx="622.63" cy="-430" rx="27" ry="27"/>
</g>
<!-- 139662239363968&#45;&gt;139662239363248 -->
<g id="edge16" class="edge">
<title>139662239363968&#45;&gt;139662239363248</title>
<path fill="none" stroke="black" d="M540.16,-426.97C553.66,-427.47 570.37,-428.09 585.14,-428.64"/>
<polygon fill="black" stroke="black" points="585.35,-432.15 595.48,-429.03 585.61,-425.16 585.35,-432.15"/>
</g>
<!-- 139662239356048 -->
<g id="node3" class="node">
<title>139662239356048</title>
<polygon fill="black" stroke="black" points="152.32,-189 98.32,-189 98.32,-153 152.32,-153 152.32,-189"/>
</g>
<!-- 139662239355760 -->
<g id="node46" class="node">
<title>139662239355760</title>
<ellipse fill="white" stroke="black" cx="223.64" cy="-171" rx="27" ry="27"/>
</g>
<!-- 139662239356048&#45;&gt;139662239355760 -->
<g id="edge79" class="edge">
<title>139662239356048&#45;&gt;139662239355760</title>
<path fill="none" stroke="black" d="M152.39,-171C162.88,-171 175.16,-171 186.49,-171"/>
<polygon fill="black" stroke="black" points="186.55,-174.5 196.55,-171 186.55,-167.5 186.55,-174.5"/>
</g>
<!-- 139662239639952 -->
<g id="node4" class="node">
<title>139662239639952</title>
<polygon fill="white" stroke="black" points="559.63,-301 466.64,-301 466.64,-265 559.63,-265 559.63,-301"/>
<text text-anchor="middle" x="513.14" y="-279.4" font-family="Times,serif" font-size="12.00">ER Registration</text>
</g>
<!-- 139662239639184 -->
<g id="node45" class="node">
<title>139662239639184</title>
<ellipse fill="white" stroke="black" cx="622.63" cy="-281" rx="27" ry="27"/>
</g>
<!-- 139662239639952&#45;&gt;139662239639184 -->
<g id="edge11" class="edge">
<title>139662239639952&#45;&gt;139662239639184</title>
<path fill="none" stroke="black" d="M559.72,-282.15C568.33,-281.99 577.23,-281.83 585.5,-281.67"/>
<polygon fill="black" stroke="black" points="585.64,-285.17 595.57,-281.48 585.51,-278.17 585.64,-285.17"/>
</g>
<!-- 139662239382416 -->
<g id="node5" class="node">
<title>139662239382416</title>
<polygon fill="black" stroke="black" points="2296.02,-170 2242.02,-170 2242.02,-134 2296.02,-134 2296.02,-170"/>
</g>
<!-- 139662239356288 -->
<g id="node53" class="node">
<title>139662239356288</title>
<ellipse fill="white" stroke="black" cx="2365.52" cy="-152" rx="27" ry="27"/>
</g>
<!-- 139662239382416&#45;&gt;139662239356288 -->
<g id="edge69" class="edge">
<title>139662239382416&#45;&gt;139662239356288</title>
<path fill="none" stroke="black" d="M2296.1,-152C2305.93,-152 2317.31,-152 2327.93,-152"/>
<polygon fill="black" stroke="black" points="2328.21,-155.5 2338.21,-152 2328.21,-148.5 2328.21,-155.5"/>
</g>
<!-- 139662239637792 -->
<g id="node6" class="node">
<title>139662239637792</title>
<polygon fill="white" stroke="black" points="544.79,-140 481.48,-140 481.48,-104 544.79,-104 544.79,-140"/>
<text text-anchor="middle" x="513.14" y="-118.4" font-family="Times,serif" font-size="12.00">IV Liquid</text>
</g>
<!-- 139662239636064 -->
<g id="node43" class="node">
<title>139662239636064</title>
<ellipse fill="white" stroke="black" cx="622.63" cy="-122" rx="27" ry="27"/>
</g>
<!-- 139662239637792&#45;&gt;139662239636064 -->
<g id="edge12" class="edge">
<title>139662239637792&#45;&gt;139662239636064</title>
<path fill="none" stroke="black" d="M544.94,-122C557.57,-122 572.28,-122 585.42,-122"/>
<polygon fill="black" stroke="black" points="585.55,-125.5 595.55,-122 585.55,-118.5 585.55,-125.5"/>
</g>
<!-- 139662239371424 -->
<g id="node7" class="node">
<title>139662239371424</title>
<polygon fill="black" stroke="black" points="953.93,-409 899.93,-409 899.93,-373 953.93,-373 953.93,-409"/>
</g>
<!-- 139662239371088 -->
<g id="node51" class="node">
<title>139662239371088</title>
<ellipse fill="white" stroke="black" cx="1039.59" cy="-395" rx="27" ry="27"/>
</g>
<!-- 139662239371424&#45;&gt;139662239371088 -->
<g id="edge17" class="edge">
<title>139662239371424&#45;&gt;139662239371088</title>
<path fill="none" stroke="black" d="M954.16,-391.95C968.49,-392.47 986.47,-393.12 1002.14,-393.68"/>
<polygon fill="black" stroke="black" points="1002.44,-397.2 1012.56,-394.06 1002.69,-390.2 1002.44,-397.2"/>
</g>
<!-- 139662239373728 -->
<g id="node8" class="node">
<title>139662239373728</title>
<polygon fill="black" stroke="black" points="1367.58,-383 1313.58,-383 1313.58,-347 1367.58,-347 1367.58,-383"/>
</g>
<!-- 139662239373728&#45;&gt;139662239371088 -->
<g id="edge63" class="edge">
<title>139662239373728&#45;&gt;139662239371088</title>
<path fill="none" stroke="black" d="M1313.42,-367.63C1259.94,-372.99 1138.03,-385.22 1076.92,-391.35"/>
<polygon fill="black" stroke="black" points="1076.2,-387.91 1066.6,-392.39 1076.9,-394.87 1076.2,-387.91"/>
</g>
<!-- 139662239374496 -->
<g id="node9" class="node">
<title>139662239374496</title>
<polygon fill="black" stroke="black" points="1367.58,-437 1313.58,-437 1313.58,-401 1367.58,-401 1367.58,-437"/>
</g>
<!-- 139662239369552 -->
<g id="node50" class="node">
<title>139662239369552</title>
<ellipse fill="white" stroke="black" cx="1430.58" cy="-318" rx="27" ry="27"/>
</g>
<!-- 139662239374496&#45;&gt;139662239369552 -->
<g id="edge64" class="edge">
<title>139662239374496&#45;&gt;139662239369552</title>
<path fill="none" stroke="black" d="M1359.38,-400.86C1362.16,-397.93 1364.97,-394.9 1367.58,-392 1380.78,-377.3 1394.97,-360.45 1406.44,-346.55"/>
<polygon fill="black" stroke="black" points="1409.21,-348.69 1412.85,-338.74 1403.8,-344.25 1409.21,-348.69"/>
</g>
<!-- 139662239381408 -->
<g id="node10" class="node">
<title>139662239381408</title>
<polygon fill="white" stroke="black" points="2109.52,-197 2044.57,-197 2044.57,-161 2109.52,-161 2109.52,-197"/>
<text text-anchor="middle" x="2077.04" y="-175.4" font-family="Times,serif" font-size="12.00">Release D</text>
</g>
<!-- 139662239358448 -->
<g id="node57" class="node">
<title>139662239358448</title>
<ellipse fill="white" stroke="black" cx="2172.53" cy="-206" rx="27" ry="27"/>
</g>
<!-- 139662239381408&#45;&gt;139662239358448 -->
<g id="edge8" class="edge">
<title>139662239381408&#45;&gt;139662239358448</title>
<path fill="none" stroke="black" d="M2109.69,-188.14C2118.39,-190.65 2127.87,-193.39 2136.73,-195.95"/>
<polygon fill="black" stroke="black" points="2135.83,-199.33 2146.41,-198.74 2137.77,-192.61 2135.83,-199.33"/>
</g>
<!-- 139662239356720 -->
<g id="node11" class="node">
<title>139662239356720</title>
<polygon fill="black" stroke="black" points="2482.52,-170 2428.52,-170 2428.52,-134 2482.52,-134 2482.52,-170"/>
</g>
<!-- 139662239259088 -->
<g id="node61" class="node">
<title>139662239259088</title>
<ellipse fill="white" stroke="black" cx="2549.52" cy="-152" rx="27" ry="27"/>
<ellipse fill="none" stroke="black" cx="2549.52" cy="-152" rx="31" ry="31"/>
<text text-anchor="start" x="2537.52" y="-142.4" font-family="Times,serif" font-size="32.00">■</text>
</g>
<!-- 139662239356720&#45;&gt;139662239259088 -->
<g id="edge80" class="edge">
<title>139662239356720&#45;&gt;139662239259088</title>
<path fill="none" stroke="black" d="M2482.64,-152C2490.66,-152 2499.67,-152 2508.4,-152"/>
<polygon fill="black" stroke="black" points="2508.44,-155.5 2518.44,-152 2508.44,-148.5 2508.44,-155.5"/>
</g>
<!-- 139662239358256 -->
<g id="node12" class="node">
<title>139662239358256</title>
<polygon fill="black" stroke="black" points="1918.55,-492 1864.55,-492 1864.55,-456 1918.55,-456 1918.55,-492"/>
</g>
<!-- 139662239357584 -->
<g id="node58" class="node">
<title>139662239357584</title>
<ellipse fill="white" stroke="black" cx="1981.55" cy="-260" rx="27" ry="27"/>
</g>
<!-- 139662239358256&#45;&gt;139662239357584 -->
<g id="edge73" class="edge">
<title>139662239358256&#45;&gt;139662239357584</title>
<path fill="none" stroke="black" d="M1900.06,-455.75C1914.77,-419.97 1947.62,-340.08 1966.5,-294.19"/>
<polygon fill="black" stroke="black" points="1969.84,-295.25 1970.41,-284.67 1963.37,-292.58 1969.84,-295.25"/>
</g>
<!-- 139662239370416 -->
<g id="node13" class="node">
<title>139662239370416</title>
<polygon fill="black" stroke="black" points="1277.58,-336 1223.58,-336 1223.58,-300 1277.58,-300 1277.58,-336"/>
</g>
<!-- 139662239370416&#45;&gt;139662239369552 -->
<g id="edge61" class="edge">
<title>139662239370416&#45;&gt;139662239369552</title>
<path fill="none" stroke="black" d="M1277.84,-318C1308.43,-318 1359.13,-318 1393.42,-318"/>
<polygon fill="black" stroke="black" points="1393.5,-321.5 1403.5,-318 1393.5,-314.5 1393.5,-321.5"/>
</g>
<!-- 139662239372720 -->
<g id="node14" class="node">
<title>139662239372720</title>
<polygon fill="white" stroke="black" points="1186.58,-442 1103.59,-442 1103.59,-406 1186.58,-406 1186.58,-442"/>
<text text-anchor="middle" x="1145.09" y="-420.4" font-family="Times,serif" font-size="12.00">Admission IC</text>
</g>
<!-- 139662239372000 -->
<g id="node52" class="node">
<title>139662239372000</title>
<ellipse fill="white" stroke="black" cx="1250.58" cy="-419" rx="27" ry="27"/>
</g>
<!-- 139662239372720&#45;&gt;139662239372000 -->
<g id="edge3" class="edge">
<title>139662239372720&#45;&gt;139662239372000</title>
<path fill="none" stroke="black" d="M1186.69,-422.04C1195.47,-421.61 1204.69,-421.17 1213.29,-420.75"/>
<polygon fill="black" stroke="black" points="1213.58,-424.24 1223.4,-420.26 1213.24,-417.25 1213.58,-424.24"/>
</g>
<!-- 139662239381936 -->
<g id="node15" class="node">
<title>139662239381936</title>
<polygon fill="white" stroke="black" points="2109.36,-305 2044.73,-305 2044.73,-269 2109.36,-269 2109.36,-305"/>
<text text-anchor="middle" x="2077.04" y="-283.4" font-family="Times,serif" font-size="12.00">Release C</text>
</g>
<!-- 139662239381936&#45;&gt;139662239358448 -->
<g id="edge9" class="edge">
<title>139662239381936&#45;&gt;139662239358448</title>
<path fill="none" stroke="black" d="M2099.4,-268.72C2102.79,-265.81 2106.26,-262.83 2109.53,-260 2120.8,-250.26 2133.19,-239.48 2143.91,-230.13"/>
<polygon fill="black" stroke="black" points="2146.5,-232.52 2151.74,-223.31 2141.9,-227.24 2146.5,-232.52"/>
</g>
<!-- 139662239379392 -->
<g id="node16" class="node">
<title>139662239379392</title>
<polygon fill="white" stroke="black" points="1187.57,-258 1102.6,-258 1102.6,-222 1187.57,-222 1187.57,-258"/>
<text text-anchor="middle" x="1145.09" y="-236.4" font-family="Times,serif" font-size="12.00">IV Antibiotics</text>
</g>
<!-- 139662239375936 -->
<g id="node55" class="node">
<title>139662239375936</title>
<ellipse fill="white" stroke="black" cx="1250.58" cy="-240" rx="27" ry="27"/>
</g>
<!-- 139662239379392&#45;&gt;139662239375936 -->
<g id="edge6" class="edge">
<title>139662239379392&#45;&gt;139662239375936</title>
<path fill="none" stroke="black" d="M1187.58,-240C1196.13,-240 1205.05,-240 1213.39,-240"/>
<polygon fill="black" stroke="black" points="1213.56,-243.5 1223.56,-240 1213.56,-236.5 1213.56,-243.5"/>
</g>
<!-- 139662239357248 -->
<g id="node17" class="node">
<title>139662239357248</title>
<polygon fill="black" stroke="black" points="1457.58,-36 1403.58,-36 1403.58,0 1457.58,0 1457.58,-36"/>
</g>
<!-- 139662239357248&#45;&gt;139662239356288 -->
<g id="edge62" class="edge">
<title>139662239357248&#45;&gt;139662239356288</title>
<path fill="none" stroke="black" d="M1452.13,-36.02C1483.69,-61.77 1547.01,-106 1609.58,-106 1609.58,-106 1609.58,-106 2173.53,-106 2231.48,-106 2246.81,-109.07 2302.52,-125 2312.32,-127.8 2322.61,-131.81 2331.92,-135.88"/>
<polygon fill="black" stroke="black" points="2330.66,-139.16 2341.22,-140.1 2333.56,-132.78 2330.66,-139.16"/>
</g>
<!-- 139662239631936 -->
<g id="node18" class="node">
<title>139662239631936</title>
<polygon fill="black" stroke="black" points="745.45,-576 691.45,-576 691.45,-540 745.45,-540 745.45,-576"/>
</g>
<!-- 139662239629584 -->
<g id="node38" class="node">
<title>139662239629584</title>
<ellipse fill="white" stroke="black" cx="403.64" cy="-463" rx="27" ry="27"/>
</g>
<!-- 139662239631936&#45;&gt;139662239629584 -->
<g id="edge58" class="edge">
<title>139662239631936&#45;&gt;139662239629584</title>
<path fill="none" stroke="black" d="M691.43,-559.12C644.18,-560.12 542.17,-557.42 466.64,-521 452.08,-513.98 438.61,-502.33 427.98,-491.3"/>
<polygon fill="black" stroke="black" points="430.44,-488.81 421.09,-483.83 425.29,-493.55 430.44,-488.81"/>
</g>
<!-- 139662239636928 -->
<g id="node19" class="node">
<title>139662239636928</title>
<polygon fill="black" stroke="black" points="540.14,-194 486.14,-194 486.14,-158 540.14,-158 540.14,-194"/>
</g>
<!-- 139662239636928&#45;&gt;139662239636064 -->
<g id="edge59" class="edge">
<title>139662239636928&#45;&gt;139662239636064</title>
<path fill="none" stroke="black" d="M540.16,-162.93C554.77,-155.59 573.15,-146.35 588.75,-138.52"/>
<polygon fill="black" stroke="black" points="590.68,-141.46 598.05,-133.85 587.54,-135.21 590.68,-141.46"/>
</g>
<!-- 139662239640768 -->
<g id="node20" class="node">
<title>139662239640768</title>
<polygon fill="white" stroke="black" points="751.1,-297 685.81,-297 685.81,-261 751.1,-261 751.1,-297"/>
<text text-anchor="middle" x="718.45" y="-275.4" font-family="Times,serif" font-size="12.00">ER Triage</text>
</g>
<!-- 139662239643120 -->
<g id="node47" class="node">
<title>139662239643120</title>
<ellipse fill="white" stroke="black" cx="814.28" cy="-157" rx="27" ry="27"/>
</g>
<!-- 139662239640768&#45;&gt;139662239643120 -->
<g id="edge13" class="edge">
<title>139662239640768&#45;&gt;139662239643120</title>
<path fill="none" stroke="black" d="M733.3,-261C748.46,-241.28 773,-209.37 790.91,-186.09"/>
<polygon fill="black" stroke="black" points="793.85,-188 797.17,-177.94 788.3,-183.74 793.85,-188"/>
</g>
<!-- 139662239369024 -->
<g id="node49" class="node">
<title>139662239369024</title>
<ellipse fill="white" stroke="black" cx="814.28" cy="-347" rx="27" ry="27"/>
</g>
<!-- 139662239640768&#45;&gt;139662239369024 -->
<g id="edge14" class="edge">
<title>139662239640768&#45;&gt;139662239369024</title>
<path fill="none" stroke="black" d="M744.6,-297.22C756.59,-305.92 771.03,-316.38 783.56,-325.46"/>
<polygon fill="black" stroke="black" points="781.73,-328.46 791.89,-331.5 785.84,-322.79 781.73,-328.46"/>
</g>
<!-- 139662239370176 -->
<g id="node54" class="node">
<title>139662239370176</title>
<ellipse fill="white" stroke="black" cx="814.28" cy="-275" rx="27" ry="27"/>
</g>
<!-- 139662239640768&#45;&gt;139662239370176 -->
<g id="edge15" class="edge">
<title>139662239640768&#45;&gt;139662239370176</title>
<path fill="none" stroke="black" d="M751.22,-277.65C759.53,-277.29 768.56,-276.91 777.09,-276.54"/>
<polygon fill="black" stroke="black" points="777.32,-280.04 787.16,-276.11 777.02,-273.04 777.32,-280.04"/>
</g>
<!-- 139662239376704 -->
<g id="node21" class="node">
<title>139662239376704</title>
<polygon fill="black" stroke="black" points="1066.59,-238 1012.59,-238 1012.59,-202 1066.59,-202 1066.59,-238"/>
</g>
<!-- 139662239376704&#45;&gt;139662239375936 -->
<g id="edge65" class="edge">
<title>139662239376704&#45;&gt;139662239375936</title>
<path fill="none" stroke="black" d="M1066.66,-214.85C1096.28,-209.9 1145.94,-204.33 1187.58,-213 1197.56,-215.08 1207.9,-218.85 1217.22,-222.94"/>
<polygon fill="black" stroke="black" points="1215.94,-226.2 1226.49,-227.24 1218.89,-219.85 1215.94,-226.2"/>
</g>
<!-- 139662239378624 -->
<g id="node22" class="node">
<title>139662239378624</title>
<polygon fill="black" stroke="black" points="1172.09,-312 1118.09,-312 1118.09,-276 1172.09,-276 1172.09,-312"/>
</g>
<!-- 139662239378624&#45;&gt;139662239375936 -->
<g id="edge66" class="edge">
<title>139662239378624&#45;&gt;139662239375936</title>
<path fill="none" stroke="black" d="M1172.2,-280.37C1185.86,-273.25 1202.7,-264.46 1217.18,-256.91"/>
<polygon fill="black" stroke="black" points="1219.05,-259.88 1226.3,-252.15 1215.81,-253.67 1219.05,-259.88"/>
</g>
<!-- 139662239364688 -->
<g id="node23" class="node">
<title>139662239364688</title>
<polygon fill="black" stroke="black" points="745.45,-420 691.45,-420 691.45,-384 745.45,-384 745.45,-420"/>
</g>
<!-- 139662239362720 -->
<g id="node36" class="node">
<title>139662239362720</title>
<ellipse fill="white" stroke="black" cx="403.64" cy="-375" rx="27" ry="27"/>
</g>
<!-- 139662239364688&#45;&gt;139662239362720 -->
<g id="edge57" class="edge">
<title>139662239364688&#45;&gt;139662239362720</title>
<path fill="none" stroke="black" d="M691.39,-398.68C678.79,-397.14 663.44,-395.35 649.63,-394 575.62,-386.77 488.81,-380.58 440.94,-377.36"/>
<polygon fill="black" stroke="black" points="440.99,-373.85 430.78,-376.68 440.52,-380.84 440.99,-373.85"/>
</g>
<!-- 139662239635152 -->
<g id="node24" class="node">
<title>139662239635152</title>
<polygon fill="black" stroke="black" points="1547.58,-258 1493.58,-258 1493.58,-222 1547.58,-222 1547.58,-258"/>
</g>
<!-- 139662239634432 -->
<g id="node41" class="node">
<title>139662239634432</title>
<ellipse fill="white" stroke="black" cx="1610.58" cy="-303" rx="27" ry="27"/>
</g>
<!-- 139662239635152&#45;&gt;139662239634432 -->
<g id="edge72" class="edge">
<title>139662239635152&#45;&gt;139662239634432</title>
<path fill="none" stroke="black" d="M1547.03,-258.22C1557.29,-265.56 1569.19,-274.08 1579.83,-281.71"/>
<polygon fill="black" stroke="black" points="1577.88,-284.61 1588.05,-287.59 1581.96,-278.92 1577.88,-284.61"/>
</g>
<!-- 139662239378000 -->
<g id="node25" class="node">
<title>139662239378000</title>
<polygon fill="white" stroke="black" points="976.75,-297 877.12,-297 877.12,-261 976.75,-261 976.75,-297"/>
<text text-anchor="middle" x="926.93" y="-275.4" font-family="Times,serif" font-size="12.00">ER Sepsis Triage</text>
</g>
<!-- 139662239377376 -->
<g id="node56" class="node">
<title>139662239377376</title>
<ellipse fill="white" stroke="black" cx="1039.59" cy="-283" rx="27" ry="27"/>
</g>
<!-- 139662239378000&#45;&gt;139662239377376 -->
<g id="edge5" class="edge">
<title>139662239378000&#45;&gt;139662239377376</title>
<path fill="none" stroke="black" d="M976.79,-280.77C985.33,-281.07 994.07,-281.39 1002.19,-281.68"/>
<polygon fill="black" stroke="black" points="1002.33,-285.19 1012.45,-282.05 1002.58,-278.2 1002.33,-285.19"/>
</g>
<!-- 139662239357920 -->
<g id="node26" class="node">
<title>139662239357920</title>
<polygon fill="black" stroke="black" points="340.64,-346 286.64,-346 286.64,-310 340.64,-310 340.64,-346"/>
</g>
<!-- 139662239357920&#45;&gt;139662239362720 -->
<g id="edge74" class="edge">
<title>139662239357920&#45;&gt;139662239362720</title>
<path fill="none" stroke="black" d="M341.04,-342.1C350.33,-347.06 360.86,-352.69 370.56,-357.87"/>
<polygon fill="black" stroke="black" points="369.07,-361.04 379.54,-362.66 372.37,-354.86 369.07,-361.04"/>
</g>
<!-- 139662239357920&#45;&gt;139662239629584 -->
<g id="edge75" class="edge">
<title>139662239357920&#45;&gt;139662239629584</title>
<path fill="none" stroke="black" d="M326.51,-346.21C340.84,-368.19 365.17,-405.52 382.47,-432.05"/>
<polygon fill="black" stroke="black" points="379.64,-434.13 388.04,-440.6 385.51,-430.31 379.64,-434.13"/>
</g>
<!-- 139662239635584 -->
<g id="node42" class="node">
<title>139662239635584</title>
<ellipse fill="white" stroke="black" cx="403.64" cy="-176" rx="27" ry="27"/>
</g>
<!-- 139662239357920&#45;&gt;139662239635584 -->
<g id="edge76" class="edge">
<title>139662239357920&#45;&gt;139662239635584</title>
<path fill="none" stroke="black" d="M325.08,-309.97C339.67,-284.77 366.37,-238.65 384.31,-207.66"/>
<polygon fill="black" stroke="black" points="387.36,-209.37 389.35,-198.96 381.31,-205.86 387.36,-209.37"/>
</g>
<!-- 139662239636736 -->
<g id="node44" class="node">
<title>139662239636736</title>
<ellipse fill="white" stroke="black" cx="403.64" cy="-292" rx="27" ry="27"/>
</g>
<!-- 139662239357920&#45;&gt;139662239636736 -->
<g id="edge77" class="edge">
<title>139662239357920&#45;&gt;139662239636736</title>
<path fill="none" stroke="black" d="M341.04,-317.2C349.83,-313.6 359.75,-309.55 369.01,-305.76"/>
<polygon fill="black" stroke="black" points="370.43,-308.96 378.36,-301.93 367.78,-302.48 370.43,-308.96"/>
</g>
<!-- 139662239359312 -->
<g id="node59" class="node">
<title>139662239359312</title>
<ellipse fill="white" stroke="black" cx="403.64" cy="-535" rx="27" ry="27"/>
</g>
<!-- 139662239357920&#45;&gt;139662239359312 -->
<g id="edge78" class="edge">
<title>139662239357920&#45;&gt;139662239359312</title>
<path fill="none" stroke="black" d="M319.42,-346.17C328.24,-378.18 348.73,-446.25 376.64,-499 377.84,-501.27 379.16,-503.55 380.56,-505.81"/>
<polygon fill="black" stroke="black" points="377.77,-507.93 386.22,-514.32 383.6,-504.05 377.77,-507.93"/>
</g>
<!-- 139662239360992 -->
<g id="node27" class="node">
<title>139662239360992</title>
<polygon fill="black" stroke="black" points="340.64,-576 286.64,-576 286.64,-540 340.64,-540 340.64,-576"/>
</g>
<!-- 139662239360992&#45;&gt;139662239359312 -->
<g id="edge70" class="edge">
<title>139662239360992&#45;&gt;139662239359312</title>
<path fill="none" stroke="black" d="M341.04,-551.1C349.27,-548.95 358.47,-546.54 367.21,-544.26"/>
<polygon fill="black" stroke="black" points="368.37,-547.57 377.16,-541.66 366.6,-540.8 368.37,-547.57"/>
</g>
<!-- 139662239631072 -->
<g id="node28" class="node">
<title>139662239631072</title>
<polygon fill="white" stroke="black" points="547.94,-512 478.33,-512 478.33,-476 547.94,-476 547.94,-512"/>
<text text-anchor="middle" x="513.14" y="-490.4" font-family="Times,serif" font-size="12.00">LacticAcid</text>
</g>
<!-- 139662239630304 -->
<g id="node39" class="node">
<title>139662239630304</title>
<ellipse fill="white" stroke="black" cx="622.63" cy="-503" rx="27" ry="27"/>
</g>
<!-- 139662239631072&#45;&gt;139662239630304 -->
<g id="edge1" class="edge">
<title>139662239631072&#45;&gt;139662239630304</title>
<path fill="none" stroke="black" d="M547.85,-496.82C559.76,-497.82 573.19,-498.94 585.31,-499.96"/>
<polygon fill="black" stroke="black" points="585.28,-503.47 595.54,-500.82 585.86,-496.49 585.28,-503.47"/>
</g>
<!-- 139662239644896 -->
<g id="node29" class="node">
<title>139662239644896</title>
<polygon fill="white" stroke="black" points="970.6,-175 883.27,-175 883.27,-139 970.6,-139 970.6,-175"/>
<text text-anchor="middle" x="926.93" y="-153.4" font-family="Times,serif" font-size="12.00">Admission NC</text>
</g>
<!-- 139662239644032 -->
<g id="node48" class="node">
<title>139662239644032</title>
<ellipse fill="white" stroke="black" cx="1039.59" cy="-157" rx="27" ry="27"/>
</g>
<!-- 139662239644896&#45;&gt;139662239644032 -->
<g id="edge2" class="edge">
<title>139662239644896&#45;&gt;139662239644032</title>
<path fill="none" stroke="black" d="M970.72,-157C981.19,-157 992.29,-157 1002.42,-157"/>
<polygon fill="black" stroke="black" points="1002.56,-160.5 1012.56,-157 1002.56,-153.5 1002.56,-160.5"/>
</g>
<!-- 139662239367392 -->
<g id="node30" class="node">
<title>139662239367392</title>
<polygon fill="black" stroke="black" points="1172.09,-128 1118.09,-128 1118.09,-92 1172.09,-92 1172.09,-128"/>
</g>
<!-- 139662239367392&#45;&gt;139662239643120 -->
<g id="edge60" class="edge">
<title>139662239367392&#45;&gt;139662239643120</title>
<path fill="none" stroke="black" d="M1117.87,-109.09C1069.53,-108.04 963.4,-108.67 877.28,-130 867.38,-132.45 857.07,-136.35 847.75,-140.42"/>
<polygon fill="black" stroke="black" points="846.1,-137.33 838.47,-144.68 849.02,-143.69 846.1,-137.33"/>
</g>
<!-- 139662239641824 -->
<g id="node31" class="node">
<title>139662239641824</title>
<polygon fill="black" stroke="black" points="1733.07,-321 1679.07,-321 1679.07,-285 1733.07,-285 1733.07,-321"/>
</g>
<!-- 139662239634000 -->
<g id="node40" class="node">
<title>139662239634000</title>
<ellipse fill="white" stroke="black" cx="1801.55" cy="-357" rx="27" ry="27"/>
</g>
<!-- 139662239641824&#45;&gt;139662239634000 -->
<g id="edge67" class="edge">
<title>139662239641824&#45;&gt;139662239634000</title>
<path fill="none" stroke="black" d="M1733.11,-318.04C1744.19,-324.44 1757.22,-331.97 1768.86,-338.69"/>
<polygon fill="black" stroke="black" points="1767.42,-341.9 1777.83,-343.87 1770.92,-335.84 1767.42,-341.9"/>
</g>
<!-- 139662239380064 -->
<g id="node32" class="node">
<title>139662239380064</title>
<polygon fill="white" stroke="black" points="1738.54,-375 1673.59,-375 1673.59,-339 1738.54,-339 1738.54,-375"/>
<text text-anchor="middle" x="1706.07" y="-353.4" font-family="Times,serif" font-size="12.00">Release A</text>
</g>
<!-- 139662239380064&#45;&gt;139662239634000 -->
<g id="edge7" class="edge">
<title>139662239380064&#45;&gt;139662239634000</title>
<path fill="none" stroke="black" d="M1738.72,-357C1747,-357 1756,-357 1764.49,-357"/>
<polygon fill="black" stroke="black" points="1764.53,-360.5 1774.53,-357 1764.53,-353.5 1764.53,-360.5"/>
</g>
<!-- 139662239383136 -->
<g id="node33" class="node">
<title>139662239383136</title>
<polygon fill="white" stroke="black" points="2302.52,-224 2235.53,-224 2235.53,-188 2302.52,-188 2302.52,-224"/>
<text text-anchor="middle" x="2269.02" y="-202.4" font-family="Times,serif" font-size="12.00">Return ER</text>
</g>
<!-- 139662239383136&#45;&gt;139662239356288 -->
<g id="edge4" class="edge">
<title>139662239383136&#45;&gt;139662239356288</title>
<path fill="none" stroke="black" d="M2301.75,-187.87C2311.77,-182.14 2322.83,-175.82 2332.85,-170.1"/>
<polygon fill="black" stroke="black" points="2334.74,-173.05 2341.69,-165.05 2331.27,-166.97 2334.74,-173.05"/>
</g>
<!-- 139662239380592 -->
<g id="node34" class="node">
<title>139662239380592</title>
<polygon fill="black" stroke="black" points="2104.04,-251 2050.04,-251 2050.04,-215 2104.04,-215 2104.04,-251"/>
</g>
<!-- 139662239380592&#45;&gt;139662239358448 -->
<g id="edge68" class="edge">
<title>139662239380592&#45;&gt;139662239358448</title>
<path fill="none" stroke="black" d="M2104.08,-225.48C2114.07,-222.59 2125.64,-219.25 2136.35,-216.16"/>
<polygon fill="black" stroke="black" points="2137.64,-219.43 2146.27,-213.29 2135.69,-212.71 2137.64,-219.43"/>
</g>
<!-- 139662239266960 -->
<g id="node35" class="node">
<title>139662239266960</title>
<ellipse fill="white" stroke="black" cx="27" cy="-171" rx="27" ry="27"/>
<text text-anchor="start" x="14.25" y="-160.8" font-family="Times,serif" font-size="34.00">●</text>
</g>
<!-- 139662239266960&#45;&gt;139662239356048 -->
<g id="edge71" class="edge">
<title>139662239266960&#45;&gt;139662239356048</title>
<path fill="none" stroke="black" d="M54.07,-171C64.56,-171 76.84,-171 88.17,-171"/>
<polygon fill="black" stroke="black" points="88.23,-174.5 98.23,-171 88.23,-167.5 88.23,-174.5"/>
</g>
<!-- 139662239362720&#45;&gt;139662239363968 -->
<g id="edge18" class="edge">
<title>139662239362720&#45;&gt;139662239363968</title>
<path fill="none" stroke="black" d="M428.23,-386.19C442.49,-392.96 460.93,-401.71 476.9,-409.28"/>
<polygon fill="black" stroke="black" points="475.43,-412.46 485.96,-413.58 478.43,-406.13 475.43,-412.46"/>
</g>
<!-- 139662239363248&#45;&gt;139662239358256 -->
<g id="edge20" class="edge">
<title>139662239363248&#45;&gt;139662239358256</title>
<path fill="none" stroke="black" d="M648.06,-439.44C683.78,-452.37 752.61,-474 813.28,-474 813.28,-474 813.28,-474 1707.07,-474 1758.1,-474 1817.11,-474 1854.13,-474"/>
<polygon fill="black" stroke="black" points="1854.42,-477.5 1864.42,-474 1854.42,-470.5 1854.42,-477.5"/>
</g>
<!-- 139662239363248&#45;&gt;139662239364688 -->
<g id="edge19" class="edge">
<title>139662239363248&#45;&gt;139662239364688</title>
<path fill="none" stroke="black" d="M648.77,-422.5C658.83,-419.5 670.6,-415.98 681.53,-412.72"/>
<polygon fill="black" stroke="black" points="682.68,-416.03 691.26,-409.82 680.68,-409.32 682.68,-416.03"/>
</g>
<!-- 139662239629584&#45;&gt;139662239631072 -->
<g id="edge21" class="edge">
<title>139662239629584&#45;&gt;139662239631072</title>
<path fill="none" stroke="black" d="M429.84,-470.27C441.32,-473.58 455.23,-477.59 468.33,-481.37"/>
<polygon fill="black" stroke="black" points="467.56,-484.79 478.14,-484.2 469.5,-478.06 467.56,-484.79"/>
</g>
<!-- 139662239630304&#45;&gt;139662239358256 -->
<g id="edge23" class="edge">
<title>139662239630304&#45;&gt;139662239358256</title>
<path fill="none" stroke="black" d="M649.69,-505.02C686.22,-507.67 754.77,-512 813.28,-512 813.28,-512 813.28,-512 1707.07,-512 1759.25,-512 1818.09,-497.08 1854.74,-485.94"/>
<polygon fill="black" stroke="black" points="1855.96,-489.22 1864.47,-482.91 1853.88,-482.54 1855.96,-489.22"/>
</g>
<!-- 139662239630304&#45;&gt;139662239631936 -->
<g id="edge22" class="edge">
<title>139662239630304&#45;&gt;139662239631936</title>
<path fill="none" stroke="black" d="M646.34,-516.31C657.15,-522.65 670.31,-530.36 682.36,-537.43"/>
<polygon fill="black" stroke="black" points="680.9,-540.63 691.3,-542.67 684.44,-534.59 680.9,-540.63"/>
</g>
<!-- 139662239634000&#45;&gt;139662239358256 -->
<g id="edge24" class="edge">
<title>139662239634000&#45;&gt;139662239358256</title>
<path fill="none" stroke="black" d="M1818.49,-378.19C1833.12,-397.63 1854.84,-426.52 1870.62,-447.49"/>
<polygon fill="black" stroke="black" points="1867.95,-449.77 1876.76,-455.66 1873.55,-445.57 1867.95,-449.77"/>
</g>
<!-- 139662239634432&#45;&gt;139662239641824 -->
<g id="edge26" class="edge">
<title>139662239634432&#45;&gt;139662239641824</title>
<path fill="none" stroke="black" d="M1637.62,-303C1647.26,-303 1658.38,-303 1668.77,-303"/>
<polygon fill="black" stroke="black" points="1668.84,-306.5 1678.84,-303 1668.84,-299.5 1668.84,-306.5"/>
</g>
<!-- 139662239634432&#45;&gt;139662239380064 -->
<g id="edge25" class="edge">
<title>139662239634432&#45;&gt;139662239380064</title>
<path fill="none" stroke="black" d="M1634.21,-316.07C1643.5,-321.44 1654.54,-327.81 1665.1,-333.91"/>
<polygon fill="black" stroke="black" points="1663.41,-336.98 1673.82,-338.95 1666.91,-330.92 1663.41,-336.98"/>
</g>
<!-- 139662239635584&#45;&gt;139662239637792 -->
<g id="edge27" class="edge">
<title>139662239635584&#45;&gt;139662239637792</title>
<path fill="none" stroke="black" d="M428.23,-164.15C441.13,-157.67 457.45,-149.47 472.26,-142.03"/>
<polygon fill="black" stroke="black" points="473.88,-145.13 481.25,-137.52 470.74,-138.88 473.88,-145.13"/>
</g>
<!-- 139662239635584&#45;&gt;139662239636928 -->
<g id="edge28" class="edge">
<title>139662239635584&#45;&gt;139662239636928</title>
<path fill="none" stroke="black" d="M430.66,-176C444.16,-176 460.87,-176 475.64,-176"/>
<polygon fill="black" stroke="black" points="475.98,-179.5 485.98,-176 475.98,-172.5 475.98,-179.5"/>
</g>
<!-- 139662239636064&#45;&gt;139662239635152 -->
<g id="edge29" class="edge">
<title>139662239636064&#45;&gt;139662239635152</title>
<path fill="none" stroke="black" d="M646.88,-109.98C681.96,-92.99 750.96,-64 813.28,-64 813.28,-64 813.28,-64 1341.58,-64 1425.1,-64 1483.54,-163.19 1507.48,-212.64"/>
<polygon fill="black" stroke="black" points="1504.38,-214.27 1511.81,-221.83 1510.71,-211.29 1504.38,-214.27"/>
</g>
<!-- 139662239636736&#45;&gt;139662239639952 -->
<g id="edge30" class="edge">
<title>139662239636736&#45;&gt;139662239639952</title>
<path fill="none" stroke="black" d="M430.66,-289.82C438.52,-289.16 447.46,-288.41 456.48,-287.66"/>
<polygon fill="black" stroke="black" points="456.96,-291.13 466.63,-286.81 456.37,-284.16 456.96,-291.13"/>
</g>
<!-- 139662239639184&#45;&gt;139662239640768 -->
<g id="edge31" class="edge">
<title>139662239639184&#45;&gt;139662239640768</title>
<path fill="none" stroke="black" d="M649.77,-280.44C657.79,-280.27 666.84,-280.08 675.64,-279.89"/>
<polygon fill="black" stroke="black" points="675.87,-283.39 685.79,-279.67 675.72,-276.39 675.87,-283.39"/>
</g>
<!-- 139662239355760&#45;&gt;139662239357248 -->
<g id="edge32" class="edge">
<title>139662239355760&#45;&gt;139662239357248</title>
<path fill="none" stroke="black" d="M237.94,-147.72C263.83,-105.81 325.26,-22 402.64,-22 402.64,-22 402.64,-22 1251.58,-22 1300.67,-22 1357.36,-20.46 1393.33,-19.29"/>
<polygon fill="black" stroke="black" points="1393.47,-22.79 1403.34,-18.96 1393.23,-15.79 1393.47,-22.79"/>
</g>
<!-- 139662239355760&#45;&gt;139662239357920 -->
<g id="edge33" class="edge">
<title>139662239355760&#45;&gt;139662239357920</title>
<path fill="none" stroke="black" d="M237.62,-194.17C253.57,-222.61 280.57,-270.78 297.46,-300.91"/>
<polygon fill="black" stroke="black" points="294.41,-302.63 302.35,-309.64 300.51,-299.21 294.41,-302.63"/>
</g>
<!-- 139662239643120&#45;&gt;139662239644896 -->
<g id="edge34" class="edge">
<title>139662239643120&#45;&gt;139662239644896</title>
<path fill="none" stroke="black" d="M841.5,-157C850.9,-157 861.86,-157 872.71,-157"/>
<polygon fill="black" stroke="black" points="873.03,-160.5 883.03,-157 873.03,-153.5 873.03,-160.5"/>
</g>
<!-- 139662239644032&#45;&gt;139662239635152 -->
<g id="edge36" class="edge">
<title>139662239644032&#45;&gt;139662239635152</title>
<path fill="none" stroke="black" d="M1066.66,-156.8C1106.2,-156.5 1183.73,-156 1249.58,-156 1249.58,-156 1249.58,-156 1341.58,-156 1398.12,-156 1455.94,-191.1 1489.76,-215.92"/>
<polygon fill="black" stroke="black" points="1487.73,-218.77 1497.83,-221.98 1491.93,-213.17 1487.73,-218.77"/>
</g>
<!-- 139662239644032&#45;&gt;139662239367392 -->
<g id="edge35" class="edge">
<title>139662239644032&#45;&gt;139662239367392</title>
<path fill="none" stroke="black" d="M1064.6,-146.1C1077.72,-140.14 1094.23,-132.64 1108.8,-126.02"/>
<polygon fill="black" stroke="black" points="1110.38,-129.15 1118.04,-121.83 1107.48,-122.78 1110.38,-129.15"/>
</g>
<!-- 139662239369024&#45;&gt;139662239371424 -->
<g id="edge37" class="edge">
<title>139662239369024&#45;&gt;139662239371424</title>
<path fill="none" stroke="black" d="M839.56,-356.66C854.45,-362.58 873.78,-370.26 890.38,-376.86"/>
<polygon fill="black" stroke="black" points="889.19,-380.16 899.78,-380.6 891.78,-373.65 889.19,-380.16"/>
</g>
<!-- 139662239369024&#45;&gt;139662239370416 -->
<g id="edge38" class="edge">
<title>139662239369024&#45;&gt;139662239370416</title>
<path fill="none" stroke="black" d="M841.47,-345.25C915.76,-340.29 1127.98,-326.12 1213.35,-320.42"/>
<polygon fill="black" stroke="black" points="1213.61,-323.91 1223.36,-319.75 1213.15,-316.93 1213.61,-323.91"/>
</g>
<!-- 139662239369552&#45;&gt;139662239635152 -->
<g id="edge39" class="edge">
<title>139662239369552&#45;&gt;139662239635152</title>
<path fill="none" stroke="black" d="M1451.55,-300.3C1463.31,-289.88 1478.37,-276.53 1491.33,-265.04"/>
<polygon fill="black" stroke="black" points="1493.92,-267.42 1499.08,-258.17 1489.27,-262.18 1493.92,-267.42"/>
</g>
<!-- 139662239371088&#45;&gt;139662239372720 -->
<g id="edge40" class="edge">
<title>139662239371088&#45;&gt;139662239372720</title>
<path fill="none" stroke="black" d="M1065.91,-402.09C1074.26,-404.43 1083.86,-407.13 1093.42,-409.8"/>
<polygon fill="black" stroke="black" points="1092.73,-413.24 1103.31,-412.57 1094.62,-406.5 1092.73,-413.24"/>
</g>
<!-- 139662239372000&#45;&gt;139662239373728 -->
<g id="edge41" class="edge">
<title>139662239372000&#45;&gt;139662239373728</title>
<path fill="none" stroke="black" d="M1274.24,-405.09C1283.54,-399.39 1294.51,-392.66 1304.78,-386.35"/>
<polygon fill="black" stroke="black" points="1306.87,-389.18 1313.57,-380.96 1303.21,-383.21 1306.87,-389.18"/>
</g>
<!-- 139662239372000&#45;&gt;139662239374496 -->
<g id="edge42" class="edge">
<title>139662239372000&#45;&gt;139662239374496</title>
<path fill="none" stroke="black" d="M1277.98,-419C1285.97,-419 1294.89,-419 1303.4,-419"/>
<polygon fill="black" stroke="black" points="1303.5,-422.5 1313.5,-419 1303.5,-415.5 1303.5,-422.5"/>
</g>
<!-- 139662239356288&#45;&gt;139662239356720 -->
<g id="edge43" class="edge">
<title>139662239356288&#45;&gt;139662239356720</title>
<path fill="none" stroke="black" d="M2392.92,-152C2400.91,-152 2409.83,-152 2418.35,-152"/>
<polygon fill="black" stroke="black" points="2418.44,-155.5 2428.44,-152 2418.44,-148.5 2418.44,-155.5"/>
</g>
<!-- 139662239370176&#45;&gt;139662239376704 -->
<g id="edge45" class="edge">
<title>139662239370176&#45;&gt;139662239376704</title>
<path fill="none" stroke="black" d="M839.42,-265.02C850.77,-260.6 864.57,-255.59 877.28,-252 919.67,-240.01 969.56,-230.85 1002.52,-225.46"/>
<polygon fill="black" stroke="black" points="1003.27,-228.89 1012.59,-223.85 1002.16,-221.98 1003.27,-228.89"/>
</g>
<!-- 139662239370176&#45;&gt;139662239378000 -->
<g id="edge44" class="edge">
<title>139662239370176&#45;&gt;139662239378000</title>
<path fill="none" stroke="black" d="M841.5,-275.95C849.21,-276.23 857.97,-276.54 866.86,-276.86"/>
<polygon fill="black" stroke="black" points="866.79,-280.36 876.91,-277.23 867.04,-273.37 866.79,-280.36"/>
</g>
<!-- 139662239375936&#45;&gt;139662239635152 -->
<g id="edge46" class="edge">
<title>139662239375936&#45;&gt;139662239635152</title>
<path fill="none" stroke="black" d="M1277.76,-240C1325.8,-240 1428.09,-240 1482.97,-240"/>
<polygon fill="black" stroke="black" points="1483.29,-243.5 1493.29,-240 1483.29,-236.5 1483.29,-243.5"/>
</g>
<!-- 139662239377376&#45;&gt;139662239379392 -->
<g id="edge47" class="edge">
<title>139662239377376&#45;&gt;139662239379392</title>
<path fill="none" stroke="black" d="M1064.86,-272.92C1073.37,-269.38 1083.28,-265.26 1093.15,-261.16"/>
<polygon fill="black" stroke="black" points="1094.66,-264.33 1102.55,-257.26 1091.97,-257.86 1094.66,-264.33"/>
</g>
<!-- 139662239377376&#45;&gt;139662239378624 -->
<g id="edge48" class="edge">
<title>139662239377376&#45;&gt;139662239378624</title>
<path fill="none" stroke="black" d="M1066.71,-285.78C1079.21,-287.1 1094.38,-288.72 1107.97,-290.16"/>
<polygon fill="black" stroke="black" points="1107.66,-293.65 1117.98,-291.23 1108.4,-286.69 1107.66,-293.65"/>
</g>
<!-- 139662239358448&#45;&gt;139662239382416 -->
<g id="edge50" class="edge">
<title>139662239358448&#45;&gt;139662239382416</title>
<path fill="none" stroke="black" d="M2196.4,-192.93C2207.48,-186.6 2221.02,-178.86 2233.33,-171.83"/>
<polygon fill="black" stroke="black" points="2235.08,-174.86 2242.02,-166.86 2231.6,-168.78 2235.08,-174.86"/>
</g>
<!-- 139662239358448&#45;&gt;139662239383136 -->
<g id="edge49" class="edge">
<title>139662239358448&#45;&gt;139662239383136</title>
<path fill="none" stroke="black" d="M2199.6,-206C2207.53,-206 2216.47,-206 2225.2,-206"/>
<polygon fill="black" stroke="black" points="2225.28,-209.5 2235.28,-206 2225.28,-202.5 2225.28,-209.5"/>
</g>
<!-- 139662239357584&#45;&gt;139662239381408 -->
<g id="edge51" class="edge">
<title>139662239357584&#45;&gt;139662239381408</title>
<path fill="none" stroke="black" d="M2002.34,-242.69C2014.5,-232.08 2030.41,-218.23 2044.55,-206 2045.37,-205.29 2046.2,-204.58 2047.04,-203.85"/>
<polygon fill="black" stroke="black" points="2049.38,-206.45 2054.68,-197.28 2044.82,-201.15 2049.38,-206.45"/>
</g>
<!-- 139662239357584&#45;&gt;139662239381936 -->
<g id="edge52" class="edge">
<title>139662239357584&#45;&gt;139662239381936</title>
<path fill="none" stroke="black" d="M2007.61,-267.24C2015.95,-269.64 2025.47,-272.4 2034.71,-275.06"/>
<polygon fill="black" stroke="black" points="2033.98,-278.49 2044.56,-277.91 2035.92,-271.77 2033.98,-278.49"/>
</g>
<!-- 139662239357584&#45;&gt;139662239380592 -->
<g id="edge53" class="edge">
<title>139662239357584&#45;&gt;139662239380592</title>
<path fill="none" stroke="black" d="M2007.61,-252.76C2017.63,-249.87 2029.36,-246.48 2040.25,-243.34"/>
<polygon fill="black" stroke="black" points="2041.3,-246.68 2049.94,-240.54 2039.36,-239.95 2041.3,-246.68"/>
</g>
<!-- 139662239359312&#45;&gt;139662241449216 -->
<g id="edge54" class="edge">
<title>139662239359312&#45;&gt;139662241449216</title>
<path fill="none" stroke="black" d="M376.72,-532.95C365.61,-532.17 352.5,-531.38 340.64,-531 276.67,-528.94 260.54,-527.38 196.64,-531 188.27,-531.47 179.36,-532.26 170.8,-533.17"/>
<polygon fill="black" stroke="black" points="170.14,-529.72 160.59,-534.31 170.92,-536.68 170.14,-529.72"/>
</g>
<!-- 139662239359840&#45;&gt;139662239358256 -->
<g id="edge56" class="edge">
<title>139662239359840&#45;&gt;139662239358256</title>
<path fill="none" stroke="black" d="M249.36,-575.49C283.43,-586.41 346.93,-604 402.64,-604 402.64,-604 402.64,-604 1707.07,-604 1778.21,-604 1841.04,-538.14 1871.34,-500.17"/>
<polygon fill="black" stroke="black" points="1874.26,-502.12 1877.65,-492.08 1868.74,-497.81 1874.26,-502.12"/>
</g>
<!-- 139662239359840&#45;&gt;139662239360992 -->
<g id="edge55" class="edge">
<title>139662239359840&#45;&gt;139662239360992</title>
<path fill="none" stroke="black" d="M250.57,-564.35C258.73,-563.51 267.9,-562.58 276.63,-561.68"/>
<polygon fill="black" stroke="black" points="277,-565.16 286.59,-560.66 276.29,-558.2 277,-565.16"/>
</g>
</g>
</svg>
