<?xml version="1.0" encoding="UTF-8" standalone="no"?>
<!DOCTYPE svg PUBLIC "-//W3C//DTD SVG 1.1//EN"
 "http://www.w3.org/Graphics/SVG/1.1/DTD/svg11.dtd">
<!-- Generated by graphviz version 2.48.0 (0)
 -->
<!-- Title: imdf_net_1720947015.180813 Pages: 1 -->
<svg width="2599pt" height="293pt"
 viewBox="0.00 0.00 2599.00 293.00" xmlns="http://www.w3.org/2000/svg" xmlns:xlink="http://www.w3.org/1999/xlink">
<g id="graph0" class="graph" transform="scale(1 1) rotate(0) translate(4 289)">
<title>imdf_net_1720947015.180813</title>
<polygon fill="white" stroke="transparent" points="-4,4 -4,-289 2595,-289 2595,4 -4,4"/>
<!-- 140325813981440 -->
<g id="node1" class="node">
<title>140325813981440</title>
<polygon fill="black" stroke="black" points="357,-87 303,-87 303,-51 357,-51 357,-87"/>
</g>
<!-- 140325813978656 -->
<g id="node30" class="node">
<title>140325813978656</title>
<ellipse fill="white" stroke="black" cx="420" cy="-123" rx="27" ry="27"/>
</g>
<!-- 140325813981440&#45;&gt;140325813978656 -->
<g id="edge33" class="edge">
<title>140325813981440&#45;&gt;140325813978656</title>
<path fill="none" stroke="black" d="M357.4,-85.2C366.94,-91.05 377.79,-97.71 387.71,-103.8"/>
<polygon fill="black" stroke="black" points="386.13,-106.94 396.48,-109.18 389.79,-100.97 386.13,-106.94"/>
</g>
<!-- 140325814076048 -->
<g id="node2" class="node">
<title>140325814076048</title>
<polygon fill="black" stroke="black" points="357,-141 303,-141 303,-105 357,-105 357,-141"/>
</g>
<!-- 140325813983024 -->
<g id="node19" class="node">
<title>140325813983024</title>
<ellipse fill="white" stroke="black" cx="420" cy="-198" rx="27" ry="27"/>
</g>
<!-- 140325814076048&#45;&gt;140325813983024 -->
<g id="edge37" class="edge">
<title>140325814076048&#45;&gt;140325813983024</title>
<path fill="none" stroke="black" d="M352.3,-141.16C363.9,-151.04 378.4,-163.4 390.91,-174.06"/>
<polygon fill="black" stroke="black" points="388.92,-176.96 398.8,-180.78 393.46,-171.63 388.92,-176.96"/>
</g>
<!-- 140325814076048&#45;&gt;140325813978656 -->
<g id="edge38" class="edge">
<title>140325814076048&#45;&gt;140325813978656</title>
<path fill="none" stroke="black" d="M357.4,-123C365.39,-123 374.31,-123 382.82,-123"/>
<polygon fill="black" stroke="black" points="382.92,-126.5 392.92,-123 382.92,-119.5 382.92,-126.5"/>
</g>
<!-- 140325813984656 -->
<g id="node3" class="node">
<title>140325813984656</title>
<polygon fill="white" stroke="black" points="992,-285 880,-285 880,-249 992,-249 992,-285"/>
<text text-anchor="middle" x="936" y="-263.9" font-family="Times,serif" font-size="12.00">Appeal to Judge</text>
</g>
<!-- 140325813983552 -->
<g id="node20" class="node">
<title>140325813983552</title>
<ellipse fill="white" stroke="black" cx="2076" cy="-185" rx="27" ry="27"/>
</g>
<!-- 140325813984656&#45;&gt;140325813983552 -->
<g id="edge10" class="edge">
<title>140325813984656&#45;&gt;140325813983552</title>
<path fill="none" stroke="black" d="M992.26,-268.79C1041.3,-270.23 1114.92,-272 1179,-272 1179,-272 1179,-272 1897,-272 1954.87,-272 2013.56,-234.42 2046.99,-208.66"/>
<polygon fill="black" stroke="black" points="2049.25,-211.34 2054.93,-202.4 2044.91,-205.84 2049.25,-211.34"/>
</g>
<!-- 140325813985808 -->
<g id="node4" class="node">
<title>140325813985808</title>
<polygon fill="white" stroke="black" points="560,-216 483,-216 483,-180 560,-180 560,-216"/>
<text text-anchor="middle" x="521.5" y="-194.9" font-family="Times,serif" font-size="12.00">Send Fine</text>
</g>
<!-- 140325813984752 -->
<g id="node21" class="node">
<title>140325813984752</title>
<ellipse fill="white" stroke="black" cx="623" cy="-198" rx="27" ry="27"/>
</g>
<!-- 140325813985808&#45;&gt;140325813984752 -->
<g id="edge2" class="edge">
<title>140325813985808&#45;&gt;140325813984752</title>
<path fill="none" stroke="black" d="M560.12,-198C568.47,-198 577.32,-198 585.63,-198"/>
<polygon fill="black" stroke="black" points="585.78,-201.5 595.78,-198 585.78,-194.5 585.78,-201.5"/>
</g>
<!-- 140325813987728 -->
<g id="node5" class="node">
<title>140325813987728</title>
<polygon fill="white" stroke="black" points="1117,-216 1028,-216 1028,-180 1117,-180 1117,-216"/>
<text text-anchor="middle" x="1072.5" y="-194.9" font-family="Times,serif" font-size="12.00">Add penalty</text>
</g>
<!-- 140325813989456 -->
<g id="node23" class="node">
<title>140325813989456</title>
<ellipse fill="white" stroke="black" cx="1180" cy="-145" rx="27" ry="27"/>
</g>
<!-- 140325813987728&#45;&gt;140325813989456 -->
<g id="edge7" class="edge">
<title>140325813987728&#45;&gt;140325813989456</title>
<path fill="none" stroke="black" d="M1109.51,-179.91C1121.48,-173.9 1134.72,-167.24 1146.41,-161.37"/>
<polygon fill="black" stroke="black" points="1148.03,-164.47 1155.4,-156.86 1144.89,-158.22 1148.03,-164.47"/>
</g>
<!-- 140325813991040 -->
<g id="node25" class="node">
<title>140325813991040</title>
<ellipse fill="white" stroke="black" cx="1180" cy="-217" rx="27" ry="27"/>
</g>
<!-- 140325813987728&#45;&gt;140325813991040 -->
<g id="edge8" class="edge">
<title>140325813987728&#45;&gt;140325813991040</title>
<path fill="none" stroke="black" d="M1117.02,-205.84C1125.74,-207.41 1134.8,-209.04 1143.22,-210.56"/>
<polygon fill="black" stroke="black" points="1142.64,-214.01 1153.1,-212.34 1143.88,-207.12 1142.64,-214.01"/>
</g>
<!-- 140325814284176 -->
<g id="node6" class="node">
<title>140325814284176</title>
<polygon fill="white" stroke="black" points="1475,-240 1262,-240 1262,-204 1475,-204 1475,-240"/>
<text text-anchor="middle" x="1368.5" y="-218.9" font-family="Times,serif" font-size="12.00">Insert Date Appeal to Prefecture</text>
</g>
<!-- 140325814275488 -->
<g id="node27" class="node">
<title>140325814275488</title>
<ellipse fill="white" stroke="black" cx="1557" cy="-217" rx="27" ry="27"/>
</g>
<!-- 140325814284176&#45;&gt;140325814275488 -->
<g id="edge11" class="edge">
<title>140325814284176&#45;&gt;140325814275488</title>
<path fill="none" stroke="black" d="M1475.01,-219.17C1490.98,-218.74 1506.46,-218.33 1519.54,-217.98"/>
<polygon fill="black" stroke="black" points="1520.01,-221.47 1529.91,-217.7 1519.82,-214.47 1520.01,-221.47"/>
</g>
<!-- 140325814085408 -->
<g id="node7" class="node">
<title>140325814085408</title>
<polygon fill="white" stroke="black" points="177,-86 90,-86 90,-50 177,-50 177,-86"/>
<text text-anchor="middle" x="133.5" y="-64.9" font-family="Times,serif" font-size="12.00">Create Fine</text>
</g>
<!-- 140325816379456 -->
<g id="node28" class="node">
<title>140325816379456</title>
<ellipse fill="white" stroke="black" cx="240" cy="-68" rx="27" ry="27"/>
</g>
<!-- 140325814085408&#45;&gt;140325816379456 -->
<g id="edge1" class="edge">
<title>140325814085408&#45;&gt;140325816379456</title>
<path fill="none" stroke="black" d="M177,-68C185.51,-68 194.37,-68 202.64,-68"/>
<polygon fill="black" stroke="black" points="202.73,-71.5 212.73,-68 202.73,-64.5 202.73,-71.5"/>
</g>
<!-- 140325813977264 -->
<g id="node8" class="node">
<title>140325813977264</title>
<polygon fill="black" stroke="black" points="2193,-113 2139,-113 2139,-77 2193,-77 2193,-113"/>
</g>
<!-- 140325814090016 -->
<g id="node29" class="node">
<title>140325814090016</title>
<ellipse fill="white" stroke="black" cx="2256" cy="-95" rx="27" ry="27"/>
</g>
<!-- 140325813977264&#45;&gt;140325814090016 -->
<g id="edge35" class="edge">
<title>140325813977264&#45;&gt;140325814090016</title>
<path fill="none" stroke="black" d="M2193.4,-95C2201.39,-95 2210.31,-95 2218.82,-95"/>
<polygon fill="black" stroke="black" points="2218.92,-98.5 2228.92,-95 2218.92,-91.5 2218.92,-98.5"/>
</g>
<!-- 140325813980720 -->
<g id="node9" class="node">
<title>140325813980720</title>
<polygon fill="white" stroke="black" points="555.5,-137 487.5,-137 487.5,-101 555.5,-101 555.5,-137"/>
<text text-anchor="middle" x="521.5" y="-115.9" font-family="Times,serif" font-size="12.00">Payment</text>
</g>
<!-- 140325813979424 -->
<g id="node31" class="node">
<title>140325813979424</title>
<ellipse fill="white" stroke="black" cx="623" cy="-73" rx="27" ry="27"/>
</g>
<!-- 140325813980720&#45;&gt;140325813979424 -->
<g id="edge6" class="edge">
<title>140325813980720&#45;&gt;140325813979424</title>
<path fill="none" stroke="black" d="M555.63,-103.68C566.28,-98.76 578.07,-93.31 588.73,-88.38"/>
<polygon fill="black" stroke="black" points="590.53,-91.41 598.13,-84.03 587.59,-85.05 590.53,-91.41"/>
</g>
<!-- 140325813991232 -->
<g id="node10" class="node">
<title>140325813991232</title>
<polygon fill="black" stroke="black" points="1395.5,-186 1341.5,-186 1341.5,-150 1395.5,-150 1395.5,-186"/>
</g>
<!-- 140325813990176 -->
<g id="node24" class="node">
<title>140325813990176</title>
<ellipse fill="white" stroke="black" cx="1557" cy="-145" rx="27" ry="27"/>
</g>
<!-- 140325813991232&#45;&gt;140325813990176 -->
<g id="edge31" class="edge">
<title>140325813991232&#45;&gt;140325813990176</title>
<path fill="none" stroke="black" d="M1395.83,-164.75C1428.27,-160.75 1483.55,-153.93 1519.93,-149.45"/>
<polygon fill="black" stroke="black" points="1520.61,-152.89 1530.11,-148.19 1519.76,-145.94 1520.61,-152.89"/>
</g>
<!-- 140325813992144 -->
<g id="node11" class="node">
<title>140325813992144</title>
<polygon fill="white" stroke="black" points="1494,-132 1243,-132 1243,-96 1494,-96 1494,-132"/>
<text text-anchor="middle" x="1368.5" y="-110.9" font-family="Times,serif" font-size="12.00">Receive Result Appeal from Prefecture</text>
</g>
<!-- 140325813992144&#45;&gt;140325813990176 -->
<g id="edge3" class="edge">
<title>140325813992144&#45;&gt;140325813990176</title>
<path fill="none" stroke="black" d="M1477.99,-132.03C1493.26,-134.57 1507.98,-137.02 1520.43,-139.09"/>
<polygon fill="black" stroke="black" points="1519.89,-142.55 1530.32,-140.73 1521.03,-135.64 1519.89,-142.55"/>
</g>
<!-- 140325813984848 -->
<g id="node12" class="node">
<title>140325813984848</title>
<polygon fill="black" stroke="black" points="2433,-82 2379,-82 2379,-46 2433,-46 2433,-82"/>
</g>
<!-- 140325818632192 -->
<g id="node32" class="node">
<title>140325818632192</title>
<ellipse fill="white" stroke="black" cx="2560" cy="-64" rx="27" ry="27"/>
<ellipse fill="none" stroke="black" cx="2560" cy="-64" rx="31" ry="31"/>
<text text-anchor="start" x="2544.5" y="-55.9" font-family="Times,serif" font-size="32.00">■</text>
</g>
<!-- 140325813984848&#45;&gt;140325818632192 -->
<g id="edge32" class="edge">
<title>140325813984848&#45;&gt;140325818632192</title>
<path fill="none" stroke="black" d="M2433.13,-64C2456.58,-64 2491.38,-64 2518.45,-64"/>
<polygon fill="black" stroke="black" points="2518.78,-67.5 2528.78,-64 2518.78,-60.5 2518.78,-67.5"/>
</g>
<!-- 140325813986528 -->
<g id="node13" class="node">
<title>140325813986528</title>
<polygon fill="white" stroke="black" points="844,-216 686,-216 686,-180 844,-180 844,-216"/>
<text text-anchor="middle" x="765" y="-194.9" font-family="Times,serif" font-size="12.00">Insert Fine Notification</text>
</g>
<!-- 140325813986144 -->
<g id="node22" class="node">
<title>140325813986144</title>
<ellipse fill="white" stroke="black" cx="936" cy="-198" rx="27" ry="27"/>
</g>
<!-- 140325813986528&#45;&gt;140325813986144 -->
<g id="edge9" class="edge">
<title>140325813986528&#45;&gt;140325813986144</title>
<path fill="none" stroke="black" d="M844.07,-198C863.22,-198 882.82,-198 898.9,-198"/>
<polygon fill="black" stroke="black" points="898.91,-201.5 908.91,-198 898.91,-194.5 898.91,-201.5"/>
</g>
<!-- 140325813988832 -->
<g id="node14" class="node">
<title>140325813988832</title>
<polygon fill="black" stroke="black" points="2013,-203 1959,-203 1959,-167 2013,-167 2013,-203"/>
</g>
<!-- 140325813988832&#45;&gt;140325813983552 -->
<g id="edge36" class="edge">
<title>140325813988832&#45;&gt;140325813983552</title>
<path fill="none" stroke="black" d="M2013.4,-185C2021.39,-185 2030.31,-185 2038.82,-185"/>
<polygon fill="black" stroke="black" points="2038.92,-188.5 2048.92,-185 2038.92,-181.5 2038.92,-188.5"/>
</g>
<!-- 140325814086128 -->
<g id="node15" class="node">
<title>140325814086128</title>
<polygon fill="black" stroke="black" points="792,-36 738,-36 738,0 792,0 792,-36"/>
</g>
<!-- 140325814086128&#45;&gt;140325818632192 -->
<g id="edge30" class="edge">
<title>140325814086128&#45;&gt;140325818632192</title>
<path fill="none" stroke="black" d="M792.15,-18C844.96,-18 968.08,-18 1071.5,-18 1071.5,-18 1071.5,-18 2257,-18 2362.23,-18 2390.65,-12.57 2493,-37 2502.74,-39.33 2512.92,-42.88 2522.28,-46.65"/>
<polygon fill="black" stroke="black" points="2521.12,-49.96 2531.69,-50.62 2523.83,-43.51 2521.12,-49.96"/>
</g>
<!-- 140325814281200 -->
<g id="node16" class="node">
<title>140325814281200</title>
<polygon fill="white" stroke="black" points="1833,-235 1620,-235 1620,-199 1833,-199 1833,-235"/>
<text text-anchor="middle" x="1726.5" y="-213.9" font-family="Times,serif" font-size="12.00">Notify Result Appeal to Offender</text>
</g>
<!-- 140325813993248 -->
<g id="node26" class="node">
<title>140325813993248</title>
<ellipse fill="white" stroke="black" cx="1896" cy="-209" rx="27" ry="27"/>
</g>
<!-- 140325814281200&#45;&gt;140325813993248 -->
<g id="edge5" class="edge">
<title>140325814281200&#45;&gt;140325813993248</title>
<path fill="none" stroke="black" d="M1833.11,-211.96C1842.18,-211.52 1850.88,-211.11 1858.75,-210.73"/>
<polygon fill="black" stroke="black" points="1859.1,-214.22 1868.92,-210.25 1858.76,-207.23 1859.1,-214.22"/>
</g>
<!-- 140325814273520 -->
<g id="node17" class="node">
<title>140325814273520</title>
<polygon fill="white" stroke="black" points="2493,-136 2319,-136 2319,-100 2493,-100 2493,-136"/>
<text text-anchor="middle" x="2406" y="-114.9" font-family="Times,serif" font-size="12.00">Send for Credit Collection</text>
</g>
<!-- 140325814273520&#45;&gt;140325818632192 -->
<g id="edge4" class="edge">
<title>140325814273520&#45;&gt;140325818632192</title>
<path fill="none" stroke="black" d="M2466.9,-99.91C2475.69,-97.05 2484.61,-94.03 2493,-91 2502.42,-87.6 2512.48,-83.65 2521.83,-79.84"/>
<polygon fill="black" stroke="black" points="2523.35,-83 2531.26,-75.95 2520.68,-76.53 2523.35,-83"/>
</g>
<!-- 140325816263088 -->
<g id="node18" class="node">
<title>140325816263088</title>
<ellipse fill="white" stroke="black" cx="27" cy="-68" rx="27" ry="27"/>
<text text-anchor="start" x="11.5" y="-59.3" font-family="Times,serif" font-size="34.00">●</text>
</g>
<!-- 140325816263088&#45;&gt;140325814085408 -->
<g id="edge34" class="edge">
<title>140325816263088&#45;&gt;140325814085408</title>
<path fill="none" stroke="black" d="M54.1,-68C61.83,-68 70.6,-68 79.4,-68"/>
<polygon fill="black" stroke="black" points="79.68,-71.5 89.68,-68 79.68,-64.5 79.68,-71.5"/>
</g>
<!-- 140325813983024&#45;&gt;140325813984656 -->
<g id="edge13" class="edge">
<title>140325813983024&#45;&gt;140325813984656</title>
<path fill="none" stroke="black" d="M444.22,-210.21C455.6,-215.65 469.7,-221.58 483,-225 617.36,-259.55 780.66,-266.44 869.57,-267.38"/>
<polygon fill="black" stroke="black" points="869.74,-270.88 879.77,-267.46 869.8,-263.88 869.74,-270.88"/>
</g>
<!-- 140325813983024&#45;&gt;140325813985808 -->
<g id="edge12" class="edge">
<title>140325813983024&#45;&gt;140325813985808</title>
<path fill="none" stroke="black" d="M447.14,-198C455.01,-198 463.89,-198 472.7,-198"/>
<polygon fill="black" stroke="black" points="472.93,-201.5 482.93,-198 472.93,-194.5 472.93,-201.5"/>
</g>
<!-- 140325813983552&#45;&gt;140325813977264 -->
<g id="edge14" class="edge">
<title>140325813983552&#45;&gt;140325813977264</title>
<path fill="none" stroke="black" d="M2095.66,-165.91C2108.64,-152.64 2126.07,-134.81 2140.21,-120.35"/>
<polygon fill="black" stroke="black" points="2142.78,-122.74 2147.26,-113.14 2137.77,-117.84 2142.78,-122.74"/>
</g>
<!-- 140325813984752&#45;&gt;140325813986528 -->
<g id="edge15" class="edge">
<title>140325813984752&#45;&gt;140325813986528</title>
<path fill="none" stroke="black" d="M650,-198C657.61,-198 666.39,-198 675.62,-198"/>
<polygon fill="black" stroke="black" points="675.78,-201.5 685.78,-198 675.78,-194.5 675.78,-201.5"/>
</g>
<!-- 140325813986144&#45;&gt;140325813987728 -->
<g id="edge16" class="edge">
<title>140325813986144&#45;&gt;140325813987728</title>
<path fill="none" stroke="black" d="M963.25,-198C978.73,-198 998.9,-198 1017.63,-198"/>
<polygon fill="black" stroke="black" points="1017.84,-201.5 1027.84,-198 1017.84,-194.5 1017.84,-201.5"/>
</g>
<!-- 140325813989456&#45;&gt;140325813991232 -->
<g id="edge18" class="edge">
<title>140325813989456&#45;&gt;140325813991232</title>
<path fill="none" stroke="black" d="M1206.93,-148.2C1239.27,-152.19 1294.74,-159.03 1331.27,-163.53"/>
<polygon fill="black" stroke="black" points="1331.14,-167.04 1341.49,-164.79 1331.99,-160.09 1331.14,-167.04"/>
</g>
<!-- 140325813989456&#45;&gt;140325813992144 -->
<g id="edge17" class="edge">
<title>140325813989456&#45;&gt;140325813992144</title>
<path fill="none" stroke="black" d="M1206.93,-140.69C1218.62,-138.75 1233.33,-136.3 1249.07,-133.69"/>
<polygon fill="black" stroke="black" points="1249.7,-137.13 1258.99,-132.04 1248.55,-130.22 1249.7,-137.13"/>
</g>
<!-- 140325813990176&#45;&gt;140325813988832 -->
<g id="edge19" class="edge">
<title>140325813990176&#45;&gt;140325813988832</title>
<path fill="none" stroke="black" d="M1584.22,-145.98C1644.35,-148.45 1796.71,-155.99 1923,-173 1931.42,-174.13 1940.42,-175.68 1948.89,-177.29"/>
<polygon fill="black" stroke="black" points="1948.38,-180.75 1958.86,-179.25 1949.73,-173.89 1948.38,-180.75"/>
</g>
<!-- 140325813991040&#45;&gt;140325814284176 -->
<g id="edge20" class="edge">
<title>140325813991040&#45;&gt;140325814284176</title>
<path fill="none" stroke="black" d="M1207.33,-217.71C1219.55,-218.03 1235.01,-218.45 1251.49,-218.89"/>
<polygon fill="black" stroke="black" points="1251.77,-222.4 1261.86,-219.17 1251.96,-215.4 1251.77,-222.4"/>
</g>
<!-- 140325813993248&#45;&gt;140325813988832 -->
<g id="edge21" class="edge">
<title>140325813993248&#45;&gt;140325813988832</title>
<path fill="none" stroke="black" d="M1922.45,-202.06C1930.79,-199.78 1940.21,-197.22 1949.16,-194.77"/>
<polygon fill="black" stroke="black" points="1950.27,-198.1 1958.99,-192.09 1948.42,-191.35 1950.27,-198.1"/>
</g>
<!-- 140325814275488&#45;&gt;140325814281200 -->
<g id="edge22" class="edge">
<title>140325814275488&#45;&gt;140325814281200</title>
<path fill="none" stroke="black" d="M1584.17,-217C1591.6,-217 1600.21,-217 1609.43,-217"/>
<polygon fill="black" stroke="black" points="1609.66,-220.5 1619.66,-217 1609.66,-213.5 1609.66,-220.5"/>
</g>
<!-- 140325816379456&#45;&gt;140325814076048 -->
<g id="edge24" class="edge">
<title>140325816379456&#45;&gt;140325814076048</title>
<path fill="none" stroke="black" d="M263.21,-81.88C272.59,-87.75 283.75,-94.72 294.19,-101.24"/>
<polygon fill="black" stroke="black" points="292.4,-104.25 302.73,-106.58 296.11,-98.31 292.4,-104.25"/>
</g>
<!-- 140325816379456&#45;&gt;140325814086128 -->
<g id="edge23" class="edge">
<title>140325816379456&#45;&gt;140325814086128</title>
<path fill="none" stroke="black" d="M264.87,-56.78C298.49,-42.04 362.02,-18 419,-18 419,-18 419,-18 522.5,-18 595.39,-18 680.66,-18 727.87,-18"/>
<polygon fill="black" stroke="black" points="727.91,-21.5 737.91,-18 727.91,-14.5 727.91,-21.5"/>
</g>
<!-- 140325814090016&#45;&gt;140325813984848 -->
<g id="edge26" class="edge">
<title>140325814090016&#45;&gt;140325813984848</title>
<path fill="none" stroke="black" d="M2282.78,-89.6C2306.47,-84.64 2341.83,-77.23 2368.44,-71.66"/>
<polygon fill="black" stroke="black" points="2369.45,-75.02 2378.52,-69.55 2368.01,-68.17 2369.45,-75.02"/>
</g>
<!-- 140325814090016&#45;&gt;140325814273520 -->
<g id="edge25" class="edge">
<title>140325814090016&#45;&gt;140325814273520</title>
<path fill="none" stroke="black" d="M2282.78,-99.01C2290.46,-100.2 2299.37,-101.59 2308.82,-103.05"/>
<polygon fill="black" stroke="black" points="2308.4,-106.53 2318.82,-104.61 2309.48,-99.61 2308.4,-106.53"/>
</g>
<!-- 140325813978656&#45;&gt;140325813980720 -->
<g id="edge27" class="edge">
<title>140325813978656&#45;&gt;140325813980720</title>
<path fill="none" stroke="black" d="M447.14,-121.95C456.38,-121.58 467.04,-121.15 477.32,-120.74"/>
<polygon fill="black" stroke="black" points="477.55,-124.23 487.4,-120.33 477.27,-117.24 477.55,-124.23"/>
</g>
<!-- 140325813979424&#45;&gt;140325813981440 -->
<g id="edge28" class="edge">
<title>140325813979424&#45;&gt;140325813981440</title>
<path fill="none" stroke="black" d="M595.87,-72.64C543.72,-71.92 426.62,-70.31 367.14,-69.5"/>
<polygon fill="black" stroke="black" points="367.13,-66 357.08,-69.36 367.03,-73 367.13,-66"/>
</g>
<!-- 140325813979424&#45;&gt;140325813977264 -->
<g id="edge29" class="edge">
<title>140325813979424&#45;&gt;140325813977264</title>
<path fill="none" stroke="black" d="M650.21,-72.29C703.73,-70.92 829.43,-68 935,-68 935,-68 935,-68 1987,-68 2036.64,-68 2093.2,-78.39 2128.99,-86.28"/>
<polygon fill="black" stroke="black" points="2128.42,-89.74 2138.95,-88.53 2129.97,-82.92 2128.42,-89.74"/>
</g>
</g>
</svg>
