<?xml version="1.0" encoding="UTF-8" standalone="no"?>
<!DOCTYPE svg PUBLIC "-//W3C//DTD SVG 1.1//EN"
 "http://www.w3.org/Graphics/SVG/1.1/DTD/svg11.dtd">
<!-- Generated by graphviz version 2.48.0 (0)
 -->
<!-- Title: imdf_net_1720947015.9198544 Pages: 1 -->
<svg width="2642pt" height="740pt"
 viewBox="0.00 0.00 2642.00 740.00" xmlns="http://www.w3.org/2000/svg" xmlns:xlink="http://www.w3.org/1999/xlink">
<g id="graph0" class="graph" transform="scale(1 1) rotate(0) translate(4 736)">
<title>imdf_net_1720947015.9198544</title>
<polygon fill="white" stroke="transparent" points="-4,4 -4,-736 2638,-736 2638,4 -4,4"/>
<!-- 140325814433408 -->
<g id="node1" class="node">
<title>140325814433408</title>
<polygon fill="black" stroke="black" points="436.5,-90 382.5,-90 382.5,-54 436.5,-54 436.5,-90"/>
</g>
<!-- 140325814432448 -->
<g id="node50" class="node">
<title>140325814432448</title>
<ellipse fill="white" stroke="black" cx="579" cy="-72" rx="27" ry="27"/>
</g>
<!-- 140325814433408&#45;&gt;140325814432448 -->
<g id="edge58" class="edge">
<title>140325814433408&#45;&gt;140325814432448</title>
<path fill="none" stroke="black" d="M436.67,-72C464.86,-72 509.92,-72 541.56,-72"/>
<polygon fill="black" stroke="black" points="541.74,-75.5 551.74,-72 541.74,-68.5 541.74,-75.5"/>
</g>
<!-- 140325788861696 -->
<g id="node2" class="node">
<title>140325788861696</title>
<polygon fill="white" stroke="black" points="1465.5,-490 1353.5,-490 1353.5,-454 1465.5,-454 1465.5,-490"/>
<text text-anchor="middle" x="1409.5" y="-468.9" font-family="Times,serif" font-size="12.00">Appeal to Judge</text>
</g>
<!-- 140325788662576 -->
<g id="node44" class="node">
<title>140325788662576</title>
<ellipse fill="white" stroke="black" cx="1579" cy="-427" rx="27" ry="27"/>
</g>
<!-- 140325788861696&#45;&gt;140325788662576 -->
<g id="edge16" class="edge">
<title>140325788861696&#45;&gt;140325788662576</title>
<path fill="none" stroke="black" d="M1465.62,-458.25C1481.87,-454.1 1499.68,-449.46 1516,-445 1524.88,-442.58 1534.44,-439.86 1543.33,-437.28"/>
<polygon fill="black" stroke="black" points="1544.39,-440.61 1553.01,-434.45 1542.43,-433.89 1544.39,-440.61"/>
</g>
<!-- 140325788479616 -->
<g id="node3" class="node">
<title>140325788479616</title>
<polygon fill="black" stroke="black" points="2296,-307 2242,-307 2242,-271 2296,-271 2296,-307"/>
</g>
<!-- 140325814435232 -->
<g id="node51" class="node">
<title>140325814435232</title>
<ellipse fill="white" stroke="black" cx="2419" cy="-235" rx="27" ry="27"/>
</g>
<!-- 140325788479616&#45;&gt;140325814435232 -->
<g id="edge56" class="edge">
<title>140325788479616&#45;&gt;140325814435232</title>
<path fill="none" stroke="black" d="M2296.21,-281.56C2313.38,-276.5 2336.21,-269.39 2356,-262 2365.47,-258.46 2375.58,-254.25 2384.83,-250.22"/>
<polygon fill="black" stroke="black" points="2386.37,-253.37 2394.1,-246.12 2383.54,-246.96 2386.37,-253.37"/>
</g>
<!-- 140325814430864 -->
<g id="node4" class="node">
<title>140325814430864</title>
<polygon fill="black" stroke="black" points="436.5,-198 382.5,-198 382.5,-162 436.5,-162 436.5,-198"/>
</g>
<!-- 140325814430144 -->
<g id="node48" class="node">
<title>140325814430144</title>
<ellipse fill="white" stroke="black" cx="579" cy="-156" rx="27" ry="27"/>
</g>
<!-- 140325814430864&#45;&gt;140325814430144 -->
<g id="edge57" class="edge">
<title>140325814430864&#45;&gt;140325814430144</title>
<path fill="none" stroke="black" d="M436.67,-176.25C464.94,-172.2 510.18,-165.72 541.84,-161.18"/>
<polygon fill="black" stroke="black" points="542.61,-164.61 552.01,-159.72 541.62,-157.68 542.61,-164.61"/>
</g>
<!-- 140325788473616 -->
<g id="node5" class="node">
<title>140325788473616</title>
<polygon fill="black" stroke="black" points="748,-732 694,-732 694,-696 748,-696 748,-732"/>
</g>
<!-- 140325788470304 -->
<g id="node30" class="node">
<title>140325788470304</title>
<ellipse fill="white" stroke="black" cx="240" cy="-663" rx="27" ry="27"/>
</g>
<!-- 140325788473616&#45;&gt;140325788470304 -->
<g id="edge59" class="edge">
<title>140325788473616&#45;&gt;140325788470304</title>
<path fill="none" stroke="black" d="M693.68,-715.65C627.14,-719.16 447.25,-724.4 303,-690 293.08,-687.64 282.76,-683.77 273.45,-679.69"/>
<polygon fill="black" stroke="black" points="274.72,-676.42 264.17,-675.42 271.79,-682.78 274.72,-676.42"/>
</g>
<!-- 140325788651536 -->
<g id="node6" class="node">
<title>140325788651536</title>
<polygon fill="black" stroke="black" points="1078.5,-583 1024.5,-583 1024.5,-547 1078.5,-547 1078.5,-583"/>
</g>
<!-- 140325788650432 -->
<g id="node38" class="node">
<title>140325788650432</title>
<ellipse fill="white" stroke="black" cx="1240" cy="-556" rx="27" ry="27"/>
</g>
<!-- 140325788651536&#45;&gt;140325788650432 -->
<g id="edge51" class="edge">
<title>140325788651536&#45;&gt;140325788650432</title>
<path fill="none" stroke="black" d="M1078.83,-563.73C1111.18,-562.17 1166.24,-559.51 1202.62,-557.76"/>
<polygon fill="black" stroke="black" points="1202.99,-561.24 1212.81,-557.26 1202.65,-554.25 1202.99,-561.24"/>
</g>
<!-- 140325814429088 -->
<g id="node7" class="node">
<title>140325814429088</title>
<polygon fill="black" stroke="black" points="2536,-174 2482,-174 2482,-138 2536,-138 2536,-174"/>
</g>
<!-- 140326895302560 -->
<g id="node52" class="node">
<title>140326895302560</title>
<ellipse fill="white" stroke="black" cx="2603" cy="-156" rx="27" ry="27"/>
<ellipse fill="none" stroke="black" cx="2603" cy="-156" rx="31" ry="31"/>
<text text-anchor="start" x="2587.5" y="-147.9" font-family="Times,serif" font-size="32.00">■</text>
</g>
<!-- 140325814429088&#45;&gt;140326895302560 -->
<g id="edge62" class="edge">
<title>140325814429088&#45;&gt;140326895302560</title>
<path fill="none" stroke="black" d="M2536.12,-156C2544.14,-156 2553.15,-156 2561.88,-156"/>
<polygon fill="black" stroke="black" points="2561.92,-159.5 2571.92,-156 2561.92,-152.5 2561.92,-159.5"/>
</g>
<!-- 140325788481440 -->
<g id="node8" class="node">
<title>140325788481440</title>
<polygon fill="white" stroke="black" points="759.5,-601 682.5,-601 682.5,-565 759.5,-565 759.5,-601"/>
<text text-anchor="middle" x="721" y="-579.9" font-family="Times,serif" font-size="12.00">Send Fine</text>
</g>
<!-- 140325788480624 -->
<g id="node35" class="node">
<title>140325788480624</title>
<ellipse fill="white" stroke="black" cx="1759" cy="-611" rx="27" ry="27"/>
</g>
<!-- 140325788481440&#45;&gt;140325788480624 -->
<g id="edge8" class="edge">
<title>140325788481440&#45;&gt;140325788480624</title>
<path fill="none" stroke="black" d="M759.85,-588.33C820.88,-596.46 944.9,-611 1050.5,-611 1050.5,-611 1050.5,-611 1580,-611 1629.08,-611 1685.77,-611 1721.74,-611"/>
<polygon fill="black" stroke="black" points="1721.76,-614.5 1731.76,-611 1721.76,-607.5 1721.76,-614.5"/>
</g>
<!-- 140325788655520 -->
<g id="node9" class="node">
<title>140325788655520</title>
<polygon fill="black" stroke="black" points="1078.5,-475 1024.5,-475 1024.5,-439 1078.5,-439 1078.5,-475"/>
</g>
<!-- 140325788653792 -->
<g id="node40" class="node">
<title>140325788653792</title>
<ellipse fill="white" stroke="black" cx="1240" cy="-484" rx="27" ry="27"/>
</g>
<!-- 140325788655520&#45;&gt;140325788653792 -->
<g id="edge52" class="edge">
<title>140325788655520&#45;&gt;140325788653792</title>
<path fill="none" stroke="black" d="M1078.83,-460.81C1111.27,-465.51 1166.55,-473.51 1202.93,-478.78"/>
<polygon fill="black" stroke="black" points="1202.71,-482.28 1213.11,-480.25 1203.71,-475.35 1202.71,-482.28"/>
</g>
<!-- 140325788656672 -->
<g id="node10" class="node">
<title>140325788656672</title>
<polygon fill="white" stroke="black" points="1096,-421 1007,-421 1007,-385 1096,-385 1096,-421"/>
<text text-anchor="middle" x="1051.5" y="-399.9" font-family="Times,serif" font-size="12.00">Add penalty</text>
</g>
<!-- 140325788656672&#45;&gt;140325788653792 -->
<g id="edge10" class="edge">
<title>140325788656672&#45;&gt;140325788653792</title>
<path fill="none" stroke="black" d="M1096.06,-407.02C1120.81,-410.61 1151.8,-417.35 1177,-430 1190.55,-436.8 1203.53,-447.25 1214.08,-457.16"/>
<polygon fill="black" stroke="black" points="1211.71,-459.73 1221.31,-464.21 1216.6,-454.72 1211.71,-459.73"/>
</g>
<!-- 140325788660128 -->
<g id="node11" class="node">
<title>140325788660128</title>
<polygon fill="black" stroke="black" points="1078.5,-363 1024.5,-363 1024.5,-327 1078.5,-327 1078.5,-363"/>
</g>
<!-- 140325788661856 -->
<g id="node43" class="node">
<title>140325788661856</title>
<ellipse fill="white" stroke="black" cx="1240" cy="-412" rx="27" ry="27"/>
</g>
<!-- 140325788660128&#45;&gt;140325788661856 -->
<g id="edge67" class="edge">
<title>140325788660128&#45;&gt;140325788661856</title>
<path fill="none" stroke="black" d="M1078.93,-349.34C1104.6,-354.07 1144.38,-362.78 1177,-376 1187.69,-380.33 1198.76,-386.24 1208.54,-392.02"/>
<polygon fill="black" stroke="black" points="1206.74,-395.03 1217.1,-397.24 1210.39,-389.05 1206.74,-395.03"/>
</g>
<!-- 140325788663296 -->
<g id="node45" class="node">
<title>140325788663296</title>
<ellipse fill="white" stroke="black" cx="1240" cy="-340" rx="27" ry="27"/>
</g>
<!-- 140325788660128&#45;&gt;140325788663296 -->
<g id="edge68" class="edge">
<title>140325788660128&#45;&gt;140325788663296</title>
<path fill="none" stroke="black" d="M1078.83,-344.29C1111.18,-343.43 1166.24,-341.95 1202.62,-340.98"/>
<polygon fill="black" stroke="black" points="1202.91,-344.47 1212.81,-340.7 1202.72,-337.47 1202.91,-344.47"/>
</g>
<!-- 140325788660896 -->
<g id="node12" class="node">
<title>140325788660896</title>
<polygon fill="black" stroke="black" points="1696,-409 1642,-409 1642,-373 1696,-373 1696,-409"/>
</g>
<!-- 140325788657824 -->
<g id="node42" class="node">
<title>140325788657824</title>
<ellipse fill="white" stroke="black" cx="1759" cy="-391" rx="27" ry="27"/>
</g>
<!-- 140325788660896&#45;&gt;140325788657824 -->
<g id="edge63" class="edge">
<title>140325788660896&#45;&gt;140325788657824</title>
<path fill="none" stroke="black" d="M1696.4,-391C1704.39,-391 1713.31,-391 1721.82,-391"/>
<polygon fill="black" stroke="black" points="1721.92,-394.5 1731.92,-391 1721.92,-387.5 1721.92,-394.5"/>
</g>
<!-- 140325788866208 -->
<g id="node13" class="node">
<title>140325788866208</title>
<polygon fill="white" stroke="black" points="2356,-253 2182,-253 2182,-217 2356,-217 2356,-253"/>
<text text-anchor="middle" x="2269" y="-231.9" font-family="Times,serif" font-size="12.00">Send for Credit Collection</text>
</g>
<!-- 140325788866208&#45;&gt;140325814435232 -->
<g id="edge3" class="edge">
<title>140325788866208&#45;&gt;140325814435232</title>
<path fill="none" stroke="black" d="M2356.09,-235C2365.01,-235 2373.69,-235 2381.59,-235"/>
<polygon fill="black" stroke="black" points="2381.83,-238.5 2391.83,-235 2381.83,-231.5 2381.83,-238.5"/>
</g>
<!-- 140325814431920 -->
<g id="node14" class="node">
<title>140325814431920</title>
<polygon fill="white" stroke="black" points="497.5,-144 321.5,-144 321.5,-108 497.5,-108 497.5,-144"/>
<text text-anchor="middle" x="409.5" y="-122.9" font-family="Times,serif" font-size="12.00">Send Appeal to Prefecture</text>
</g>
<!-- 140325814431920&#45;&gt;140325814430144 -->
<g id="edge1" class="edge">
<title>140325814431920&#45;&gt;140325814430144</title>
<path fill="none" stroke="black" d="M497.68,-141.62C513.37,-144.42 528.89,-147.2 542.04,-149.56"/>
<polygon fill="black" stroke="black" points="541.58,-153.03 552.04,-151.35 542.82,-146.14 541.58,-153.03"/>
</g>
<!-- 140325788478512 -->
<g id="node15" class="node">
<title>140325788478512</title>
<polygon fill="black" stroke="black" points="436.5,-446 382.5,-446 382.5,-410 436.5,-410 436.5,-446"/>
</g>
<!-- 140325788479712 -->
<g id="node34" class="node">
<title>140325788479712</title>
<ellipse fill="white" stroke="black" cx="579" cy="-528" rx="27" ry="27"/>
</g>
<!-- 140325788478512&#45;&gt;140325788479712 -->
<g id="edge65" class="edge">
<title>140325788478512&#45;&gt;140325788479712</title>
<path fill="none" stroke="black" d="M436.67,-443.62C466.4,-461.37 514.89,-490.32 546.62,-509.27"/>
<polygon fill="black" stroke="black" points="545.12,-512.44 555.5,-514.57 548.71,-506.43 545.12,-512.44"/>
</g>
<!-- 140325788482016 -->
<g id="node36" class="node">
<title>140325788482016</title>
<ellipse fill="white" stroke="black" cx="579" cy="-428" rx="27" ry="27"/>
</g>
<!-- 140325788478512&#45;&gt;140325788482016 -->
<g id="edge66" class="edge">
<title>140325788478512&#45;&gt;140325788482016</title>
<path fill="none" stroke="black" d="M436.67,-428C464.86,-428 509.92,-428 541.56,-428"/>
<polygon fill="black" stroke="black" points="541.74,-431.5 551.74,-428 541.74,-424.5 541.74,-431.5"/>
</g>
<!-- 140325788864048 -->
<g id="node16" class="node">
<title>140325788864048</title>
<polygon fill="black" stroke="black" points="1436.5,-382 1382.5,-382 1382.5,-346 1436.5,-346 1436.5,-382"/>
</g>
<!-- 140325788863136 -->
<g id="node46" class="node">
<title>140325788863136</title>
<ellipse fill="white" stroke="black" cx="1579" cy="-355" rx="27" ry="27"/>
</g>
<!-- 140325788864048&#45;&gt;140325788863136 -->
<g id="edge55" class="edge">
<title>140325788864048&#45;&gt;140325788863136</title>
<path fill="none" stroke="black" d="M1436.67,-362.59C1464.94,-361.07 1510.18,-358.64 1541.84,-356.94"/>
<polygon fill="black" stroke="black" points="1542.21,-360.43 1552.01,-356.4 1541.84,-353.44 1542.21,-360.43"/>
</g>
<!-- 140325788478800 -->
<g id="node17" class="node">
<title>140325788478800</title>
<polygon fill="black" stroke="black" points="1876,-536 1822,-536 1822,-500 1876,-500 1876,-536"/>
</g>
<!-- 140325788476400 -->
<g id="node33" class="node">
<title>140325788476400</title>
<ellipse fill="white" stroke="black" cx="1939" cy="-337" rx="27" ry="27"/>
</g>
<!-- 140325788478800&#45;&gt;140325788476400 -->
<g id="edge61" class="edge">
<title>140325788478800&#45;&gt;140325788476400</title>
<path fill="none" stroke="black" d="M1858.76,-499.98C1873.47,-469.73 1903.34,-408.29 1921.91,-370.09"/>
<polygon fill="black" stroke="black" points="1925.15,-371.44 1926.37,-360.92 1918.85,-368.38 1925.15,-371.44"/>
</g>
<!-- 140325788659024 -->
<g id="node18" class="node">
<title>140325788659024</title>
<polygon fill="black" stroke="black" points="1606,-305 1552,-305 1552,-269 1606,-269 1606,-305"/>
</g>
<!-- 140325788659024&#45;&gt;140325788657824 -->
<g id="edge53" class="edge">
<title>140325788659024&#45;&gt;140325788657824</title>
<path fill="none" stroke="black" d="M1606.26,-302.35C1638.31,-321.07 1692.44,-352.69 1726.64,-372.68"/>
<polygon fill="black" stroke="black" points="1724.9,-375.71 1735.3,-377.74 1728.43,-369.67 1724.9,-375.71"/>
</g>
<!-- 140325788468576 -->
<g id="node19" class="node">
<title>140325788468576</title>
<polygon fill="black" stroke="black" points="2056,-355 2002,-355 2002,-319 2056,-319 2056,-355"/>
</g>
<!-- 140325788467280 -->
<g id="node29" class="node">
<title>140325788467280</title>
<ellipse fill="white" stroke="black" cx="2119" cy="-289" rx="27" ry="27"/>
</g>
<!-- 140325788468576&#45;&gt;140325788467280 -->
<g id="edge64" class="edge">
<title>140325788468576&#45;&gt;140325788467280</title>
<path fill="none" stroke="black" d="M2056.4,-322.6C2065.69,-317.53 2076.22,-311.79 2085.92,-306.5"/>
<polygon fill="black" stroke="black" points="2087.8,-309.46 2094.9,-301.6 2084.44,-303.32 2087.8,-309.46"/>
</g>
<!-- 140325788472416 -->
<g id="node20" class="node">
<title>140325788472416</title>
<polygon fill="white" stroke="black" points="443.5,-681 375.5,-681 375.5,-645 443.5,-645 443.5,-681"/>
<text text-anchor="middle" x="409.5" y="-659.9" font-family="Times,serif" font-size="12.00">Payment</text>
</g>
<!-- 140325788471072 -->
<g id="node31" class="node">
<title>140325788471072</title>
<ellipse fill="white" stroke="black" cx="579" cy="-663" rx="27" ry="27"/>
</g>
<!-- 140325788472416&#45;&gt;140325788471072 -->
<g id="edge2" class="edge">
<title>140325788472416&#45;&gt;140325788471072</title>
<path fill="none" stroke="black" d="M443.59,-663C471.87,-663 512.49,-663 541.66,-663"/>
<polygon fill="black" stroke="black" points="541.84,-666.5 551.84,-663 541.84,-659.5 541.84,-666.5"/>
</g>
<!-- 140325788477792 -->
<g id="node21" class="node">
<title>140325788477792</title>
<polygon fill="black" stroke="black" points="1696,-251 1642,-251 1642,-215 1696,-215 1696,-251"/>
</g>
<!-- 140325788477792&#45;&gt;140325788476400 -->
<g id="edge50" class="edge">
<title>140325788477792&#45;&gt;140325788476400</title>
<path fill="none" stroke="black" d="M1696.18,-243.16C1745.04,-262.12 1850.02,-302.86 1904.16,-323.87"/>
<polygon fill="black" stroke="black" points="1903.07,-327.2 1913.66,-327.55 1905.6,-320.67 1903.07,-327.2"/>
</g>
<!-- 140325788648032 -->
<g id="node22" class="node">
<title>140325788648032</title>
<polygon fill="white" stroke="black" points="800,-446 642,-446 642,-410 800,-410 800,-446"/>
<text text-anchor="middle" x="721" y="-424.9" font-family="Times,serif" font-size="12.00">Insert Fine Notification</text>
</g>
<!-- 140325788650048 -->
<g id="node37" class="node">
<title>140325788650048</title>
<ellipse fill="white" stroke="black" cx="863" cy="-511" rx="27" ry="27"/>
</g>
<!-- 140325788648032&#45;&gt;140325788650048 -->
<g id="edge12" class="edge">
<title>140325788648032&#45;&gt;140325788650048</title>
<path fill="none" stroke="black" d="M752.38,-446.01C775.52,-459.73 807.28,-478.56 830.66,-492.42"/>
<polygon fill="black" stroke="black" points="829.1,-495.57 839.49,-497.65 832.67,-489.54 829.1,-495.57"/>
</g>
<!-- 140325788651344 -->
<g id="node39" class="node">
<title>140325788651344</title>
<ellipse fill="white" stroke="black" cx="863" cy="-428" rx="27" ry="27"/>
</g>
<!-- 140325788648032&#45;&gt;140325788651344 -->
<g id="edge13" class="edge">
<title>140325788648032&#45;&gt;140325788651344</title>
<path fill="none" stroke="black" d="M800.19,-428C809.16,-428 817.95,-428 825.95,-428"/>
<polygon fill="black" stroke="black" points="825.98,-431.5 835.98,-428 825.98,-424.5 825.98,-431.5"/>
</g>
<!-- 140325788655040 -->
<g id="node41" class="node">
<title>140325788655040</title>
<ellipse fill="white" stroke="black" cx="863" cy="-345" rx="27" ry="27"/>
</g>
<!-- 140325788648032&#45;&gt;140325788655040 -->
<g id="edge14" class="edge">
<title>140325788648032&#45;&gt;140325788655040</title>
<path fill="none" stroke="black" d="M752.38,-409.99C775.52,-396.27 807.28,-377.44 830.66,-363.58"/>
<polygon fill="black" stroke="black" points="832.67,-366.46 839.49,-358.35 829.1,-360.43 832.67,-366.46"/>
</g>
<!-- 140325788653024 -->
<g id="node23" class="node">
<title>140325788653024</title>
<polygon fill="white" stroke="black" points="1177,-529 926,-529 926,-493 1177,-493 1177,-529"/>
<text text-anchor="middle" x="1051.5" y="-507.9" font-family="Times,serif" font-size="12.00">Receive Result Appeal from Prefecture</text>
</g>
<!-- 140325788653024&#45;&gt;140325788650432 -->
<g id="edge11" class="edge">
<title>140325788653024&#45;&gt;140325788650432</title>
<path fill="none" stroke="black" d="M1139.41,-529.05C1152.06,-531.9 1164.89,-534.93 1177,-538 1185.92,-540.26 1195.5,-542.92 1204.39,-545.49"/>
<polygon fill="black" stroke="black" points="1203.49,-548.88 1214.07,-548.34 1205.46,-542.16 1203.49,-548.88"/>
</g>
<!-- 140325788663776 -->
<g id="node24" class="node">
<title>140325788663776</title>
<polygon fill="black" stroke="black" points="1436.5,-436 1382.5,-436 1382.5,-400 1436.5,-400 1436.5,-436"/>
</g>
<!-- 140325788663776&#45;&gt;140325788662576 -->
<g id="edge54" class="edge">
<title>140325788663776&#45;&gt;140325788662576</title>
<path fill="none" stroke="black" d="M1436.67,-419.41C1464.94,-420.93 1510.18,-423.36 1541.84,-425.06"/>
<polygon fill="black" stroke="black" points="1541.84,-428.56 1552.01,-425.6 1542.21,-421.57 1541.84,-428.56"/>
</g>
<!-- 140325788865248 -->
<g id="node25" class="node">
<title>140325788865248</title>
<polygon fill="white" stroke="black" points="1516,-328 1303,-328 1303,-292 1516,-292 1516,-328"/>
<text text-anchor="middle" x="1409.5" y="-306.9" font-family="Times,serif" font-size="12.00">Notify Result Appeal to Offender</text>
</g>
<!-- 140325788865248&#45;&gt;140325788863136 -->
<g id="edge9" class="edge">
<title>140325788865248&#45;&gt;140325788863136</title>
<path fill="none" stroke="black" d="M1482.37,-328.06C1493.64,-330.99 1505.15,-334.04 1516,-337 1524.88,-339.42 1534.44,-342.14 1543.33,-344.72"/>
<polygon fill="black" stroke="black" points="1542.43,-348.11 1553.01,-347.55 1544.39,-341.39 1542.43,-348.11"/>
</g>
<!-- 140325814428656 -->
<g id="node26" class="node">
<title>140325814428656</title>
<polygon fill="white" stroke="black" points="177,-221 90,-221 90,-185 177,-185 177,-221"/>
<text text-anchor="middle" x="133.5" y="-199.9" font-family="Times,serif" font-size="12.00">Create Fine</text>
</g>
<!-- 140325814428656&#45;&gt;140325788470304 -->
<g id="edge4" class="edge">
<title>140325814428656&#45;&gt;140325788470304</title>
<path fill="none" stroke="black" d="M138.6,-221.03C154.15,-289.48 209.7,-534.01 230.79,-626.87"/>
<polygon fill="black" stroke="black" points="227.39,-627.69 233.02,-636.66 234.21,-626.13 227.39,-627.69"/>
</g>
<!-- 140325788475680 -->
<g id="node32" class="node">
<title>140325788475680</title>
<ellipse fill="white" stroke="black" cx="240" cy="-239" rx="27" ry="27"/>
</g>
<!-- 140325814428656&#45;&gt;140325788475680 -->
<g id="edge5" class="edge">
<title>140325814428656&#45;&gt;140325788475680</title>
<path fill="none" stroke="black" d="M177,-217.64C186.2,-220.81 195.81,-224.12 204.65,-227.17"/>
<polygon fill="black" stroke="black" points="203.64,-230.52 214.23,-230.47 205.92,-223.9 203.64,-230.52"/>
</g>
<!-- 140325814429376 -->
<g id="node47" class="node">
<title>140325814429376</title>
<ellipse fill="white" stroke="black" cx="240" cy="-167" rx="27" ry="27"/>
</g>
<!-- 140325814428656&#45;&gt;140325814429376 -->
<g id="edge6" class="edge">
<title>140325814428656&#45;&gt;140325814429376</title>
<path fill="none" stroke="black" d="M177,-188.36C186.2,-185.19 195.81,-181.88 204.65,-178.83"/>
<polygon fill="black" stroke="black" points="205.92,-182.1 214.23,-175.53 203.64,-175.48 205.92,-182.1"/>
</g>
<!-- 140325814430672 -->
<g id="node49" class="node">
<title>140325814430672</title>
<ellipse fill="white" stroke="black" cx="240" cy="-72" rx="27" ry="27"/>
</g>
<!-- 140325814428656&#45;&gt;140325814430672 -->
<g id="edge7" class="edge">
<title>140325814428656&#45;&gt;140325814430672</title>
<path fill="none" stroke="black" d="M149.03,-184.79C166.44,-162.96 195.81,-126.15 216.24,-100.54"/>
<polygon fill="black" stroke="black" points="219.03,-102.65 222.53,-92.65 213.56,-98.28 219.03,-102.65"/>
</g>
<!-- 140325814434416 -->
<g id="node27" class="node">
<title>140325814434416</title>
<polygon fill="white" stroke="black" points="516,-36 303,-36 303,0 516,0 516,-36"/>
<text text-anchor="middle" x="409.5" y="-14.9" font-family="Times,serif" font-size="12.00">Insert Date Appeal to Prefecture</text>
</g>
<!-- 140325814434416&#45;&gt;140325814432448 -->
<g id="edge15" class="edge">
<title>140325814434416&#45;&gt;140325814432448</title>
<path fill="none" stroke="black" d="M487,-36.03C496.83,-38.8 506.7,-41.81 516,-45 525.56,-48.28 535.7,-52.41 544.95,-56.44"/>
<polygon fill="black" stroke="black" points="543.65,-59.7 554.21,-60.57 546.5,-53.3 543.65,-59.7"/>
</g>
<!-- 140326895302512 -->
<g id="node28" class="node">
<title>140326895302512</title>
<ellipse fill="white" stroke="black" cx="27" cy="-203" rx="27" ry="27"/>
<text text-anchor="start" x="11.5" y="-194.3" font-family="Times,serif" font-size="34.00">●</text>
</g>
<!-- 140326895302512&#45;&gt;140325814428656 -->
<g id="edge60" class="edge">
<title>140326895302512&#45;&gt;140325814428656</title>
<path fill="none" stroke="black" d="M54.1,-203C61.83,-203 70.6,-203 79.4,-203"/>
<polygon fill="black" stroke="black" points="79.68,-206.5 89.68,-203 79.68,-199.5 79.68,-206.5"/>
</g>
<!-- 140325788467280&#45;&gt;140325788479616 -->
<g id="edge18" class="edge">
<title>140325788467280&#45;&gt;140325788479616</title>
<path fill="none" stroke="black" d="M2146.12,-289C2169.85,-289 2205.11,-289 2231.6,-289"/>
<polygon fill="black" stroke="black" points="2231.64,-292.5 2241.64,-289 2231.64,-285.5 2231.64,-292.5"/>
</g>
<!-- 140325788467280&#45;&gt;140325788866208 -->
<g id="edge17" class="edge">
<title>140325788467280&#45;&gt;140325788866208</title>
<path fill="none" stroke="black" d="M2143.9,-277.88C2155.32,-272.76 2169.24,-266.77 2182,-262 2187.13,-260.08 2192.47,-258.19 2197.85,-256.34"/>
<polygon fill="black" stroke="black" points="2199.21,-259.58 2207.58,-253.07 2196.98,-252.94 2199.21,-259.58"/>
</g>
<!-- 140325788470304&#45;&gt;140325788472416 -->
<g id="edge19" class="edge">
<title>140325788470304&#45;&gt;140325788472416</title>
<path fill="none" stroke="black" d="M267.17,-663C293.38,-663 334.16,-663 365.19,-663"/>
<polygon fill="black" stroke="black" points="365.31,-666.5 375.31,-663 365.31,-659.5 365.31,-666.5"/>
</g>
<!-- 140325788471072&#45;&gt;140325788473616 -->
<g id="edge20" class="edge">
<title>140325788471072&#45;&gt;140325788473616</title>
<path fill="none" stroke="black" d="M604.71,-672C626.74,-680.03 659.28,-691.88 684.17,-700.95"/>
<polygon fill="black" stroke="black" points="683.04,-704.26 693.64,-704.4 685.44,-697.69 683.04,-704.26"/>
</g>
<!-- 140325788471072&#45;&gt;140325788468576 -->
<g id="edge21" class="edge">
<title>140325788471072&#45;&gt;140325788468576</title>
<path fill="none" stroke="black" d="M606.05,-663.46C655.79,-664.3 767.75,-666 862,-666 862,-666 862,-666 1850,-666 1986.14,-666 2018.68,-445.37 2026,-365.46"/>
<polygon fill="black" stroke="black" points="2029.51,-365.42 2026.87,-355.16 2022.54,-364.83 2029.51,-365.42"/>
</g>
<!-- 140325788475680&#45;&gt;140325788478512 -->
<g id="edge23" class="edge">
<title>140325788475680&#45;&gt;140325788478512</title>
<path fill="none" stroke="black" d="M258.61,-258.87C289.11,-293.29 351.76,-363.97 385.6,-402.16"/>
<polygon fill="black" stroke="black" points="383.11,-404.63 392.36,-409.79 388.35,-399.98 383.11,-404.63"/>
</g>
<!-- 140325788475680&#45;&gt;140325788477792 -->
<g id="edge22" class="edge">
<title>140325788475680&#45;&gt;140325788477792</title>
<path fill="none" stroke="black" d="M267.2,-237.3C323.87,-233.78 462.07,-226 578,-226 578,-226 578,-226 1410.5,-226 1489.25,-226 1581.49,-229.31 1631.4,-231.38"/>
<polygon fill="black" stroke="black" points="1631.55,-234.89 1641.69,-231.81 1631.84,-227.89 1631.55,-234.89"/>
</g>
<!-- 140325788476400&#45;&gt;140325788468576 -->
<g id="edge24" class="edge">
<title>140325788476400&#45;&gt;140325788468576</title>
<path fill="none" stroke="black" d="M1966.4,-337C1974.39,-337 1983.31,-337 1991.82,-337"/>
<polygon fill="black" stroke="black" points="1991.92,-340.5 2001.92,-337 1991.92,-333.5 1991.92,-340.5"/>
</g>
<!-- 140325788479712&#45;&gt;140325788481440 -->
<g id="edge25" class="edge">
<title>140325788479712&#45;&gt;140325788481440</title>
<path fill="none" stroke="black" d="M604.39,-537.58C623.24,-544.99 649.91,-555.46 672.88,-564.49"/>
<polygon fill="black" stroke="black" points="671.88,-567.86 682.47,-568.25 674.44,-561.34 671.88,-567.86"/>
</g>
<!-- 140325788480624&#45;&gt;140325788478800 -->
<g id="edge26" class="edge">
<title>140325788480624&#45;&gt;140325788478800</title>
<path fill="none" stroke="black" d="M1778.23,-591.73C1791.35,-577.87 1809.19,-559.02 1823.54,-543.85"/>
<polygon fill="black" stroke="black" points="1826.36,-545.97 1830.69,-536.3 1821.27,-541.15 1826.36,-545.97"/>
</g>
<!-- 140325788482016&#45;&gt;140325788648032 -->
<g id="edge27" class="edge">
<title>140325788482016&#45;&gt;140325788648032</title>
<path fill="none" stroke="black" d="M606,-428C613.61,-428 622.39,-428 631.62,-428"/>
<polygon fill="black" stroke="black" points="631.78,-431.5 641.78,-428 631.78,-424.5 631.78,-431.5"/>
</g>
<!-- 140325788650048&#45;&gt;140325788651536 -->
<g id="edge29" class="edge">
<title>140325788650048&#45;&gt;140325788651536</title>
<path fill="none" stroke="black" d="M887.72,-522.64C899.09,-527.88 913.04,-533.82 926,-538 955.1,-547.39 989.08,-554.51 1014.18,-559.08"/>
<polygon fill="black" stroke="black" points="1013.9,-562.58 1024.35,-560.88 1015.12,-555.69 1013.9,-562.58"/>
</g>
<!-- 140325788650048&#45;&gt;140325788653024 -->
<g id="edge28" class="edge">
<title>140325788650048&#45;&gt;140325788653024</title>
<path fill="none" stroke="black" d="M890.33,-511C897.7,-511 906.25,-511 915.5,-511"/>
<polygon fill="black" stroke="black" points="915.77,-514.5 925.77,-511 915.77,-507.5 915.77,-514.5"/>
</g>
<!-- 140325788650432&#45;&gt;140325788478800 -->
<g id="edge30" class="edge">
<title>140325788650432&#45;&gt;140325788478800</title>
<path fill="none" stroke="black" d="M1267.22,-556C1323.91,-556 1462.16,-556 1578,-556 1578,-556 1578,-556 1670,-556 1720.04,-556 1776.29,-541.46 1811.91,-530.37"/>
<polygon fill="black" stroke="black" points="1813.37,-533.57 1821.83,-527.2 1811.24,-526.91 1813.37,-533.57"/>
</g>
<!-- 140325788651344&#45;&gt;140325788655520 -->
<g id="edge32" class="edge">
<title>140325788651344&#45;&gt;140325788655520</title>
<path fill="none" stroke="black" d="M889.93,-432.03C922.27,-437.06 977.74,-445.69 1014.27,-451.37"/>
<polygon fill="black" stroke="black" points="1014.07,-454.88 1024.49,-452.96 1015.14,-447.96 1014.07,-454.88"/>
</g>
<!-- 140325788651344&#45;&gt;140325788656672 -->
<g id="edge31" class="edge">
<title>140325788651344&#45;&gt;140325788656672</title>
<path fill="none" stroke="black" d="M889.93,-424.52C917.44,-420.84 961.69,-414.9 996.78,-410.2"/>
<polygon fill="black" stroke="black" points="997.43,-413.65 1006.88,-408.85 996.5,-406.71 997.43,-413.65"/>
</g>
<!-- 140325788653792&#45;&gt;140325788478800 -->
<g id="edge33" class="edge">
<title>140325788653792&#45;&gt;140325788478800</title>
<path fill="none" stroke="black" d="M1266.15,-491.1C1277.34,-494 1290.74,-497.11 1303,-499 1424.08,-517.69 1455.49,-518 1578,-518 1578,-518 1578,-518 1670,-518 1719.08,-518 1775.77,-518 1811.74,-518"/>
<polygon fill="black" stroke="black" points="1811.76,-521.5 1821.76,-518 1811.76,-514.5 1811.76,-521.5"/>
</g>
<!-- 140325788655040&#45;&gt;140325788660128 -->
<g id="edge35" class="edge">
<title>140325788655040&#45;&gt;140325788660128</title>
<path fill="none" stroke="black" d="M890.33,-345C922.68,-345 977.74,-345 1014.12,-345"/>
<polygon fill="black" stroke="black" points="1014.31,-348.5 1024.31,-345 1014.31,-341.5 1014.31,-348.5"/>
</g>
<!-- 140325788655040&#45;&gt;140325788659024 -->
<g id="edge34" class="edge">
<title>140325788655040&#45;&gt;140325788659024</title>
<path fill="none" stroke="black" d="M887.22,-332.79C898.6,-327.35 912.7,-321.42 926,-318 1154.2,-259.33 1441.82,-275.51 1541.8,-283.66"/>
<polygon fill="black" stroke="black" points="1541.71,-287.17 1551.97,-284.52 1542.3,-280.19 1541.71,-287.17"/>
</g>
<!-- 140325788657824&#45;&gt;140325788478800 -->
<g id="edge36" class="edge">
<title>140325788657824&#45;&gt;140325788478800</title>
<path fill="none" stroke="black" d="M1775.13,-412.83C1790.2,-434.59 1813.38,-468.04 1829.53,-491.35"/>
<polygon fill="black" stroke="black" points="1826.78,-493.52 1835.35,-499.74 1832.53,-489.53 1826.78,-493.52"/>
</g>
<!-- 140325788661856&#45;&gt;140325788861696 -->
<g id="edge37" class="edge">
<title>140325788661856&#45;&gt;140325788861696</title>
<path fill="none" stroke="black" d="M1263.35,-425.57C1274.88,-432.13 1289.36,-439.71 1303,-445 1315.84,-449.98 1329.91,-454.31 1343.47,-457.96"/>
<polygon fill="black" stroke="black" points="1342.68,-461.36 1353.23,-460.49 1344.44,-454.59 1342.68,-461.36"/>
</g>
<!-- 140325788661856&#45;&gt;140325788663776 -->
<g id="edge38" class="edge">
<title>140325788661856&#45;&gt;140325788663776</title>
<path fill="none" stroke="black" d="M1267.17,-412.94C1295.36,-413.95 1340.42,-415.56 1372.06,-416.69"/>
<polygon fill="black" stroke="black" points="1372.12,-420.2 1382.24,-417.06 1372.37,-413.2 1372.12,-420.2"/>
</g>
<!-- 140325788662576&#45;&gt;140325788660896 -->
<g id="edge39" class="edge">
<title>140325788662576&#45;&gt;140325788660896</title>
<path fill="none" stroke="black" d="M1604.51,-416.97C1613.12,-413.45 1622.97,-409.42 1632.31,-405.6"/>
<polygon fill="black" stroke="black" points="1633.84,-408.76 1641.77,-401.73 1631.19,-402.28 1633.84,-408.76"/>
</g>
<!-- 140325788663296&#45;&gt;140325788864048 -->
<g id="edge41" class="edge">
<title>140325788663296&#45;&gt;140325788864048</title>
<path fill="none" stroke="black" d="M1266.8,-343.7C1295,-347.74 1340.39,-354.24 1372.18,-358.8"/>
<polygon fill="black" stroke="black" points="1371.99,-362.31 1382.39,-360.26 1372.99,-355.38 1371.99,-362.31"/>
</g>
<!-- 140325788663296&#45;&gt;140325788865248 -->
<g id="edge40" class="edge">
<title>140325788663296&#45;&gt;140325788865248</title>
<path fill="none" stroke="black" d="M1266.8,-335.38C1275.68,-333.79 1286.25,-331.9 1297.57,-329.87"/>
<polygon fill="black" stroke="black" points="1298.45,-333.27 1307.68,-328.06 1297.22,-326.38 1298.45,-333.27"/>
</g>
<!-- 140325788863136&#45;&gt;140325788660896 -->
<g id="edge42" class="edge">
<title>140325788863136&#45;&gt;140325788660896</title>
<path fill="none" stroke="black" d="M1604.51,-365.03C1613.12,-368.55 1622.97,-372.58 1632.31,-376.4"/>
<polygon fill="black" stroke="black" points="1631.19,-379.72 1641.77,-380.27 1633.84,-373.24 1631.19,-379.72"/>
</g>
<!-- 140325814429376&#45;&gt;140325814430864 -->
<g id="edge44" class="edge">
<title>140325814429376&#45;&gt;140325814430864</title>
<path fill="none" stroke="black" d="M267.17,-169.03C295.36,-171.22 340.42,-174.72 372.06,-177.17"/>
<polygon fill="black" stroke="black" points="372,-180.68 382.24,-177.96 372.54,-173.7 372,-180.68"/>
</g>
<!-- 140325814429376&#45;&gt;140325814431920 -->
<g id="edge43" class="edge">
<title>140325814429376&#45;&gt;140325814431920</title>
<path fill="none" stroke="black" d="M266.44,-160.77C282.31,-156.89 303.73,-151.64 325.12,-146.41"/>
<polygon fill="black" stroke="black" points="326.04,-149.79 334.93,-144.01 324.38,-142.99 326.04,-149.79"/>
</g>
<!-- 140325814430144&#45;&gt;140325814429088 -->
<g id="edge45" class="edge">
<title>140325814430144&#45;&gt;140325814429088</title>
<path fill="none" stroke="black" d="M606.05,-156C655.79,-156 767.76,-156 862,-156 862,-156 862,-156 2270,-156 2341.49,-156 2425.06,-156 2471.73,-156"/>
<polygon fill="black" stroke="black" points="2471.94,-159.5 2481.94,-156 2471.94,-152.5 2471.94,-159.5"/>
</g>
<!-- 140325814430672&#45;&gt;140325814433408 -->
<g id="edge47" class="edge">
<title>140325814430672&#45;&gt;140325814433408</title>
<path fill="none" stroke="black" d="M267.17,-72C295.36,-72 340.42,-72 372.06,-72"/>
<polygon fill="black" stroke="black" points="372.24,-75.5 382.24,-72 372.24,-68.5 372.24,-75.5"/>
</g>
<!-- 140325814430672&#45;&gt;140325814434416 -->
<g id="edge46" class="edge">
<title>140325814430672&#45;&gt;140325814434416</title>
<path fill="none" stroke="black" d="M264.79,-60.57C276.18,-55.38 290.12,-49.42 303,-45 309.25,-42.86 315.75,-40.79 322.33,-38.83"/>
<polygon fill="black" stroke="black" points="323.37,-42.17 332,-36.03 321.43,-35.45 323.37,-42.17"/>
</g>
<!-- 140325814432448&#45;&gt;140325814429088 -->
<g id="edge48" class="edge">
<title>140325814432448&#45;&gt;140325814429088</title>
<path fill="none" stroke="black" d="M605.96,-76.47C655.55,-84.6 767.26,-101 862,-101 862,-101 862,-101 2270,-101 2343.29,-101 2426.09,-126.06 2472.16,-142.35"/>
<polygon fill="black" stroke="black" points="2471.1,-145.69 2481.69,-145.78 2473.47,-139.1 2471.1,-145.69"/>
</g>
<!-- 140325814435232&#45;&gt;140325814429088 -->
<g id="edge49" class="edge">
<title>140325814435232&#45;&gt;140325814429088</title>
<path fill="none" stroke="black" d="M2439.97,-217.07C2451.81,-206.44 2467,-192.8 2480.03,-181.11"/>
<polygon fill="black" stroke="black" points="2482.7,-183.41 2487.81,-174.13 2478.03,-178.2 2482.7,-183.41"/>
</g>
</g>
</svg>
