<?xml version="1.0" encoding="UTF-8" standalone="no"?>
<!DOCTYPE svg PUBLIC "-//W3C//DTD SVG 1.1//EN"
 "http://www.w3.org/Graphics/SVG/1.1/DTD/svg11.dtd">
<!-- Generated by graphviz version 2.48.0 (0)
 -->
<!-- Title: imdf_net_1720370177.9758008 Pages: 1 -->
<svg width="1805pt" height="686pt"
 viewBox="0.00 0.00 1805.29 686.00" xmlns="http://www.w3.org/2000/svg" xmlns:xlink="http://www.w3.org/1999/xlink">
<g id="graph0" class="graph" transform="scale(1 1) rotate(0) translate(4 682)">
<title>imdf_net_1720370177.9758008</title>
<polygon fill="white" stroke="transparent" points="-4,4 -4,-682 1801.29,-682 1801.29,4 -4,4"/>
<!-- 139662217091584 -->
<g id="node1" class="node">
<title>139662217091584</title>
<polygon fill="black" stroke="black" points="1429.29,-36 1375.29,-36 1375.29,0 1429.29,0 1429.29,-36"/>
</g>
<!-- 139662217090576 -->
<g id="node48" class="node">
<title>139662217090576</title>
<ellipse fill="white" stroke="black" cx="1582.29" cy="-207" rx="27" ry="27"/>
</g>
<!-- 139662217091584&#45;&gt;139662217090576 -->
<g id="edge52" class="edge">
<title>139662217091584&#45;&gt;139662217090576</title>
<path fill="none" stroke="black" d="M1420.36,-36.12C1451.93,-69.64 1519.57,-141.46 1556.31,-180.47"/>
<polygon fill="black" stroke="black" points="1553.82,-182.93 1563.22,-187.81 1558.91,-178.13 1553.82,-182.93"/>
</g>
<!-- 139662241449216 -->
<g id="node2" class="node">
<title>139662241449216</title>
<polygon fill="white" stroke="black" points="531.64,-446 461.35,-446 461.35,-410 531.64,-410 531.64,-446"/>
<text text-anchor="middle" x="496.5" y="-424.4" font-family="Times,serif" font-size="12.00">Leucocytes</text>
</g>
<!-- 139662217085968 -->
<g id="node52" class="node">
<title>139662217085968</title>
<ellipse fill="white" stroke="black" cx="605.99" cy="-428" rx="27" ry="27"/>
</g>
<!-- 139662241449216&#45;&gt;139662217085968 -->
<g id="edge7" class="edge">
<title>139662241449216&#45;&gt;139662217085968</title>
<path fill="none" stroke="black" d="M531.8,-428C543.59,-428 556.82,-428 568.75,-428"/>
<polygon fill="black" stroke="black" points="568.84,-431.5 578.84,-428 568.84,-424.5 568.84,-431.5"/>
</g>
<!-- 139662217089040 -->
<g id="node3" class="node">
<title>139662217089040</title>
<polygon fill="black" stroke="black" points="144,-203 90,-203 90,-167 144,-167 144,-203"/>
</g>
<!-- 139662217094224 -->
<g id="node40" class="node">
<title>139662217094224</title>
<ellipse fill="white" stroke="black" cx="207" cy="-185" rx="27" ry="27"/>
</g>
<!-- 139662217089040&#45;&gt;139662217094224 -->
<g id="edge69" class="edge">
<title>139662217089040&#45;&gt;139662217094224</title>
<path fill="none" stroke="black" d="M144.4,-185C152.39,-185 161.31,-185 169.82,-185"/>
<polygon fill="black" stroke="black" points="169.92,-188.5 179.92,-185 169.92,-181.5 169.92,-188.5"/>
</g>
<!-- 139662217100944 -->
<g id="node4" class="node">
<title>139662217100944</title>
<polygon fill="white" stroke="black" points="523.5,-650 469.5,-650 469.5,-614 523.5,-614 523.5,-650"/>
<text text-anchor="middle" x="496.5" y="-628.4" font-family="Times,serif" font-size="12.00">CRP</text>
</g>
<!-- 139662217097248 -->
<g id="node31" class="node">
<title>139662217097248</title>
<ellipse fill="white" stroke="black" cx="207" cy="-640" rx="27" ry="27"/>
</g>
<!-- 139662217100944&#45;&gt;139662217097248 -->
<g id="edge4" class="edge">
<title>139662217100944&#45;&gt;139662217097248</title>
<path fill="none" stroke="black" d="M469.33,-632.73C417.81,-634.16 303.14,-637.35 244.32,-638.99"/>
<polygon fill="black" stroke="black" points="243.92,-635.5 234.02,-639.28 244.11,-642.5 243.92,-635.5"/>
</g>
<!-- 139662217179792 -->
<g id="node5" class="node">
<title>139662217179792</title>
<polygon fill="white" stroke="black" points="528.15,-596 464.84,-596 464.84,-560 528.15,-560 528.15,-596"/>
<text text-anchor="middle" x="496.5" y="-574.4" font-family="Times,serif" font-size="12.00">IV Liquid</text>
</g>
<!-- 139662217171920 -->
<g id="node35" class="node">
<title>139662217171920</title>
<ellipse fill="white" stroke="black" cx="605.99" cy="-538" rx="27" ry="27"/>
</g>
<!-- 139662217179792&#45;&gt;139662217171920 -->
<g id="edge3" class="edge">
<title>139662217179792&#45;&gt;139662217171920</title>
<path fill="none" stroke="black" d="M528.3,-566.54C541.58,-561.6 557.16,-555.8 570.79,-550.72"/>
<polygon fill="black" stroke="black" points="572.17,-553.95 580.32,-547.18 569.73,-547.39 572.17,-553.95"/>
</g>
<!-- 139662239358736 -->
<g id="node6" class="node">
<title>139662239358736</title>
<polygon fill="black" stroke="black" points="1339.29,-371 1285.29,-371 1285.29,-335 1339.29,-335 1339.29,-371"/>
</g>
<!-- 139662239356048 -->
<g id="node45" class="node">
<title>139662239356048</title>
<ellipse fill="white" stroke="black" cx="1011.3" cy="-324" rx="27" ry="27"/>
</g>
<!-- 139662239358736&#45;&gt;139662239356048 -->
<g id="edge53" class="edge">
<title>139662239358736&#45;&gt;139662239356048</title>
<path fill="none" stroke="black" d="M1285.13,-353.79C1241.23,-354.67 1150.08,-354.58 1074.3,-342 1065.23,-340.49 1055.59,-338.1 1046.7,-335.55"/>
<polygon fill="black" stroke="black" points="1047.62,-332.17 1037.03,-332.63 1045.6,-338.87 1047.62,-332.17"/>
</g>
<!-- 139662239359504 -->
<g id="node7" class="node">
<title>139662239359504</title>
<polygon fill="black" stroke="black" points="1339.29,-317 1285.29,-317 1285.29,-281 1339.29,-281 1339.29,-317"/>
</g>
<!-- 139662239354656 -->
<g id="node44" class="node">
<title>139662239354656</title>
<ellipse fill="white" stroke="black" cx="1402.29" cy="-299" rx="27" ry="27"/>
</g>
<!-- 139662239359504&#45;&gt;139662239354656 -->
<g id="edge54" class="edge">
<title>139662239359504&#45;&gt;139662239354656</title>
<path fill="none" stroke="black" d="M1339.7,-299C1347.69,-299 1356.6,-299 1365.12,-299"/>
<polygon fill="black" stroke="black" points="1365.21,-302.5 1375.21,-299 1365.21,-295.5 1365.21,-302.5"/>
</g>
<!-- 139662217086880 -->
<g id="node8" class="node">
<title>139662217086880</title>
<polygon fill="black" stroke="black" points="1699.29,-225 1645.29,-225 1645.29,-189 1699.29,-189 1699.29,-225"/>
</g>
<!-- 139662217088992 -->
<g id="node53" class="node">
<title>139662217088992</title>
<ellipse fill="white" stroke="black" cx="1766.29" cy="-207" rx="27" ry="27"/>
<ellipse fill="none" stroke="black" cx="1766.29" cy="-207" rx="31" ry="31"/>
<text text-anchor="start" x="1754.29" y="-197.4" font-family="Times,serif" font-size="32.00">■</text>
</g>
<!-- 139662217086880&#45;&gt;139662217088992 -->
<g id="edge70" class="edge">
<title>139662217086880&#45;&gt;139662217088992</title>
<path fill="none" stroke="black" d="M1699.41,-207C1707.43,-207 1716.44,-207 1725.17,-207"/>
<polygon fill="black" stroke="black" points="1725.21,-210.5 1735.21,-207 1725.21,-203.5 1725.21,-210.5"/>
</g>
<!-- 139662217096480 -->
<g id="node9" class="node">
<title>139662217096480</title>
<polygon fill="black" stroke="black" points="722.99,-501 668.99,-501 668.99,-465 722.99,-465 722.99,-501"/>
</g>
<!-- 139662217099504 -->
<g id="node51" class="node">
<title>139662217099504</title>
<ellipse fill="white" stroke="black" cx="387" cy="-428" rx="27" ry="27"/>
</g>
<!-- 139662217096480&#45;&gt;139662217099504 -->
<g id="edge57" class="edge">
<title>139662217096480&#45;&gt;139662217099504</title>
<path fill="none" stroke="black" d="M668.77,-482.54C623.42,-481.19 527.73,-475.87 450,-455 440.15,-452.36 429.85,-448.4 420.54,-444.33"/>
<polygon fill="black" stroke="black" points="421.8,-441.05 411.25,-440.09 418.9,-447.42 421.8,-441.05"/>
</g>
<!-- 139662239355424 -->
<g id="node10" class="node">
<title>139662239355424</title>
<polygon fill="black" stroke="black" points="1249.29,-261 1195.29,-261 1195.29,-225 1249.29,-225 1249.29,-261"/>
</g>
<!-- 139662239355424&#45;&gt;139662239354656 -->
<g id="edge51" class="edge">
<title>139662239355424&#45;&gt;139662239354656</title>
<path fill="none" stroke="black" d="M1249.45,-248.24C1273.2,-253.3 1309.03,-261.71 1339.29,-272 1348.86,-275.25 1359.01,-279.37 1368.26,-283.41"/>
<polygon fill="black" stroke="black" points="1366.96,-286.66 1377.51,-287.54 1369.81,-280.27 1366.96,-286.66"/>
</g>
<!-- 139662239352496 -->
<g id="node11" class="node">
<title>139662239352496</title>
<polygon fill="black" stroke="black" points="1143.8,-133 1089.8,-133 1089.8,-97 1143.8,-97 1143.8,-133"/>
</g>
<!-- 139662217180896 -->
<g id="node41" class="node">
<title>139662217180896</title>
<ellipse fill="white" stroke="black" cx="785.99" cy="-124" rx="27" ry="27"/>
</g>
<!-- 139662239352496&#45;&gt;139662217180896 -->
<g id="edge50" class="edge">
<title>139662239352496&#45;&gt;139662217180896</title>
<path fill="none" stroke="black" d="M1089.72,-115.71C1031.32,-117.31 889.95,-121.18 823.13,-123.01"/>
<polygon fill="black" stroke="black" points="822.97,-119.51 813.07,-123.29 823.16,-126.51 822.97,-119.51"/>
</g>
<!-- 139662239351488 -->
<g id="node12" class="node">
<title>139662239351488</title>
<polygon fill="white" stroke="black" points="942.31,-91 854.98,-91 854.98,-55 942.31,-55 942.31,-91"/>
<text text-anchor="middle" x="898.65" y="-69.4" font-family="Times,serif" font-size="12.00">Admission NC</text>
</g>
<!-- 139662239350864 -->
<g id="node42" class="node">
<title>139662239350864</title>
<ellipse fill="white" stroke="black" cx="1011.3" cy="-69" rx="27" ry="27"/>
</g>
<!-- 139662239351488&#45;&gt;139662239350864 -->
<g id="edge2" class="edge">
<title>139662239351488&#45;&gt;139662239350864</title>
<path fill="none" stroke="black" d="M942.43,-71.45C952.9,-71.07 964.01,-70.67 974.14,-70.31"/>
<polygon fill="black" stroke="black" points="974.4,-73.8 984.27,-69.94 974.15,-66.8 974.4,-73.8"/>
</g>
<!-- 139662239363008 -->
<g id="node13" class="node">
<title>139662239363008</title>
<polygon fill="white" stroke="black" points="948.46,-188 848.83,-188 848.83,-152 948.46,-152 948.46,-188"/>
<text text-anchor="middle" x="898.65" y="-166.4" font-family="Times,serif" font-size="12.00">ER Sepsis Triage</text>
</g>
<!-- 139662239361424 -->
<g id="node50" class="node">
<title>139662239361424</title>
<ellipse fill="white" stroke="black" cx="1011.3" cy="-197" rx="27" ry="27"/>
</g>
<!-- 139662239363008&#45;&gt;139662239361424 -->
<g id="edge9" class="edge">
<title>139662239363008&#45;&gt;139662239361424</title>
<path fill="none" stroke="black" d="M948.51,-181.92C957.4,-184.09 966.51,-186.32 974.92,-188.37"/>
<polygon fill="black" stroke="black" points="974.22,-191.8 984.76,-190.77 975.88,-185 974.22,-191.8"/>
</g>
<!-- 139662217091152 -->
<g id="node14" class="node">
<title>139662217091152</title>
<polygon fill="black" stroke="black" points="324,-608 270,-608 270,-572 324,-572 324,-608"/>
</g>
<!-- 139662217101232 -->
<g id="node30" class="node">
<title>139662217101232</title>
<ellipse fill="white" stroke="black" cx="387" cy="-585" rx="27" ry="27"/>
</g>
<!-- 139662217091152&#45;&gt;139662217101232 -->
<g id="edge46" class="edge">
<title>139662217091152&#45;&gt;139662217101232</title>
<path fill="none" stroke="black" d="M324.4,-588.5C332.39,-588.05 341.31,-587.54 349.82,-587.06"/>
<polygon fill="black" stroke="black" points="350.13,-590.54 359.92,-586.48 349.74,-583.55 350.13,-590.54"/>
</g>
<!-- 139662217173072 -->
<g id="node15" class="node">
<title>139662217173072</title>
<polygon fill="black" stroke="black" points="722.99,-345 668.99,-345 668.99,-309 722.99,-309 722.99,-345"/>
</g>
<!-- 139662217182528 -->
<g id="node32" class="node">
<title>139662217182528</title>
<ellipse fill="white" stroke="black" cx="387" cy="-342" rx="27" ry="27"/>
</g>
<!-- 139662217173072&#45;&gt;139662217182528 -->
<g id="edge47" class="edge">
<title>139662217173072&#45;&gt;139662217182528</title>
<path fill="none" stroke="black" d="M668.8,-323.38C657.77,-322.03 644.78,-320.66 632.99,-320 551.69,-315.43 530.65,-317.78 450,-329 441.31,-330.21 432.01,-331.93 423.33,-333.72"/>
<polygon fill="black" stroke="black" points="422.54,-330.31 413.5,-335.83 424.01,-337.15 422.54,-330.31"/>
</g>
<!-- 139662217171536 -->
<g id="node16" class="node">
<title>139662217171536</title>
<polygon fill="black" stroke="black" points="523.5,-219 469.5,-219 469.5,-183 523.5,-183 523.5,-219"/>
</g>
<!-- 139662217180704 -->
<g id="node37" class="node">
<title>139662217180704</title>
<ellipse fill="white" stroke="black" cx="605.99" cy="-219" rx="27" ry="27"/>
</g>
<!-- 139662217171536&#45;&gt;139662217180704 -->
<g id="edge49" class="edge">
<title>139662217171536&#45;&gt;139662217180704</title>
<path fill="none" stroke="black" d="M523.52,-205.36C537.25,-207.66 554.31,-210.51 569.26,-213.02"/>
<polygon fill="black" stroke="black" points="568.77,-216.48 579.21,-214.68 569.92,-209.58 568.77,-216.48"/>
</g>
<!-- 139662217174992 -->
<g id="node17" class="node">
<title>139662217174992</title>
<polygon fill="white" stroke="black" points="542.99,-165 450,-165 450,-129 542.99,-129 542.99,-165"/>
<text text-anchor="middle" x="496.5" y="-143.4" font-family="Times,serif" font-size="12.00">ER Registration</text>
</g>
<!-- 139662217169616 -->
<g id="node39" class="node">
<title>139662217169616</title>
<ellipse fill="white" stroke="black" cx="605.99" cy="-147" rx="27" ry="27"/>
</g>
<!-- 139662217174992&#45;&gt;139662217169616 -->
<g id="edge1" class="edge">
<title>139662217174992&#45;&gt;139662217169616</title>
<path fill="none" stroke="black" d="M543.08,-147C551.69,-147 560.59,-147 568.86,-147"/>
<polygon fill="black" stroke="black" points="568.93,-150.5 578.93,-147 568.93,-143.5 568.93,-150.5"/>
</g>
<!-- 139662239357776 -->
<g id="node18" class="node">
<title>139662239357776</title>
<polygon fill="white" stroke="black" points="1158.3,-333 1075.3,-333 1075.3,-297 1158.3,-297 1158.3,-333"/>
<text text-anchor="middle" x="1116.8" y="-311.4" font-family="Times,serif" font-size="12.00">Admission IC</text>
</g>
<!-- 139662239357008 -->
<g id="node46" class="node">
<title>139662239357008</title>
<ellipse fill="white" stroke="black" cx="1222.29" cy="-306" rx="27" ry="27"/>
</g>
<!-- 139662239357776&#45;&gt;139662239357008 -->
<g id="edge8" class="edge">
<title>139662239357776&#45;&gt;139662239357008</title>
<path fill="none" stroke="black" d="M1158.4,-311.47C1167.18,-310.71 1176.41,-309.9 1185.01,-309.16"/>
<polygon fill="black" stroke="black" points="1185.45,-312.63 1195.11,-308.28 1184.85,-305.66 1185.45,-312.63"/>
</g>
<!-- 139662239364304 -->
<g id="node19" class="node">
<title>139662239364304</title>
<polygon fill="white" stroke="black" points="1159.29,-187 1074.31,-187 1074.31,-151 1159.29,-151 1159.29,-187"/>
<text text-anchor="middle" x="1116.8" y="-165.4" font-family="Times,serif" font-size="12.00">IV Antibiotics</text>
</g>
<!-- 139662239360896 -->
<g id="node49" class="node">
<title>139662239360896</title>
<ellipse fill="white" stroke="black" cx="1222.29" cy="-180" rx="27" ry="27"/>
</g>
<!-- 139662239364304&#45;&gt;139662239360896 -->
<g id="edge10" class="edge">
<title>139662239364304&#45;&gt;139662239360896</title>
<path fill="none" stroke="black" d="M1159.3,-173.41C1167.84,-174.32 1176.77,-175.27 1185.1,-176.15"/>
<polygon fill="black" stroke="black" points="1184.95,-179.66 1195.27,-177.23 1185.69,-172.7 1184.95,-179.66"/>
</g>
<!-- 139662217093984 -->
<g id="node20" class="node">
<title>139662217093984</title>
<polygon fill="black" stroke="black" points="324,-360 270,-360 270,-324 324,-324 324,-360"/>
</g>
<!-- 139662217093984&#45;&gt;139662217101232 -->
<g id="edge63" class="edge">
<title>139662217093984&#45;&gt;139662217101232</title>
<path fill="none" stroke="black" d="M301.32,-360.2C308.51,-397.19 327.56,-483.23 360,-549 361.13,-551.3 362.41,-553.61 363.78,-555.89"/>
<polygon fill="black" stroke="black" points="360.96,-557.97 369.36,-564.43 366.82,-554.14 360.96,-557.97"/>
</g>
<!-- 139662217093984&#45;&gt;139662217182528 -->
<g id="edge64" class="edge">
<title>139662217093984&#45;&gt;139662217182528</title>
<path fill="none" stroke="black" d="M324.4,-342C332.39,-342 341.31,-342 349.82,-342"/>
<polygon fill="black" stroke="black" points="349.92,-345.5 359.92,-342 349.92,-338.5 349.92,-345.5"/>
</g>
<!-- 139662217167312 -->
<g id="node34" class="node">
<title>139662217167312</title>
<ellipse fill="white" stroke="black" cx="387" cy="-513" rx="27" ry="27"/>
</g>
<!-- 139662217093984&#45;&gt;139662217167312 -->
<g id="edge65" class="edge">
<title>139662217093984&#45;&gt;139662217167312</title>
<path fill="none" stroke="black" d="M307.14,-360.24C319.15,-384.14 340.95,-427.31 360,-464 362.79,-469.37 365.77,-475.05 368.69,-480.57"/>
<polygon fill="black" stroke="black" points="365.71,-482.42 373.48,-489.62 371.89,-479.14 365.71,-482.42"/>
</g>
<!-- 139662217177632 -->
<g id="node36" class="node">
<title>139662217177632</title>
<ellipse fill="white" stroke="black" cx="387" cy="-255" rx="27" ry="27"/>
</g>
<!-- 139662217093984&#45;&gt;139662217177632 -->
<g id="edge66" class="edge">
<title>139662217093984&#45;&gt;139662217177632</title>
<path fill="none" stroke="black" d="M316.23,-323.97C328.81,-311.54 345.71,-294.83 359.74,-280.97"/>
<polygon fill="black" stroke="black" points="362.53,-283.12 367.18,-273.6 357.61,-278.15 362.53,-283.12"/>
</g>
<!-- 139662217169808 -->
<g id="node38" class="node">
<title>139662217169808</title>
<ellipse fill="white" stroke="black" cx="387" cy="-165" rx="27" ry="27"/>
</g>
<!-- 139662217093984&#45;&gt;139662217169808 -->
<g id="edge67" class="edge">
<title>139662217093984&#45;&gt;139662217169808</title>
<path fill="none" stroke="black" d="M307.09,-323.72C321.8,-294.13 351.05,-235.3 369.51,-198.16"/>
<polygon fill="black" stroke="black" points="372.87,-199.28 374.18,-188.77 366.6,-196.16 372.87,-199.28"/>
</g>
<!-- 139662217093984&#45;&gt;139662217099504 -->
<g id="edge68" class="edge">
<title>139662217093984&#45;&gt;139662217099504</title>
<path fill="none" stroke="black" d="M316.66,-360.24C329.18,-372.47 345.84,-388.75 359.7,-402.29"/>
<polygon fill="black" stroke="black" points="357.46,-405.01 367.06,-409.49 362.36,-400 357.46,-405.01"/>
</g>
<!-- 139662217170528 -->
<g id="node21" class="node">
<title>139662217170528</title>
<polygon fill="white" stroke="black" points="531.3,-374 461.69,-374 461.69,-338 531.3,-338 531.3,-374"/>
<text text-anchor="middle" x="496.5" y="-352.4" font-family="Times,serif" font-size="12.00">LacticAcid</text>
</g>
<!-- 139662217168320 -->
<g id="node33" class="node">
<title>139662217168320</title>
<ellipse fill="white" stroke="black" cx="605.99" cy="-356" rx="27" ry="27"/>
</g>
<!-- 139662217170528&#45;&gt;139662217168320 -->
<g id="edge5" class="edge">
<title>139662217170528&#45;&gt;139662217168320</title>
<path fill="none" stroke="black" d="M531.21,-356C543.12,-356 556.55,-356 568.67,-356"/>
<polygon fill="black" stroke="black" points="568.9,-359.5 578.9,-356 568.9,-352.5 568.9,-359.5"/>
</g>
<!-- 139662217174752 -->
<g id="node22" class="node">
<title>139662217174752</title>
<polygon fill="black" stroke="black" points="722.99,-215 668.99,-215 668.99,-179 722.99,-179 722.99,-215"/>
</g>
<!-- 139662217174752&#45;&gt;139662217180896 -->
<g id="edge59" class="edge">
<title>139662217174752&#45;&gt;139662217180896</title>
<path fill="none" stroke="black" d="M718.74,-178.96C730.27,-169.4 744.55,-157.54 756.91,-147.3"/>
<polygon fill="black" stroke="black" points="759.23,-149.91 764.69,-140.84 754.76,-144.53 759.23,-149.91"/>
</g>
<!-- 139662239354128 -->
<g id="node43" class="node">
<title>139662239354128</title>
<ellipse fill="white" stroke="black" cx="785.99" cy="-270" rx="27" ry="27"/>
</g>
<!-- 139662217174752&#45;&gt;139662239354128 -->
<g id="edge60" class="edge">
<title>139662217174752&#45;&gt;139662239354128</title>
<path fill="none" stroke="black" d="M718.74,-215.04C730.27,-224.6 744.55,-236.46 756.91,-246.7"/>
<polygon fill="black" stroke="black" points="754.76,-249.47 764.69,-253.16 759.23,-244.09 754.76,-249.47"/>
</g>
<!-- 139662239355184 -->
<g id="node47" class="node">
<title>139662239355184</title>
<ellipse fill="white" stroke="black" cx="785.99" cy="-197" rx="27" ry="27"/>
</g>
<!-- 139662217174752&#45;&gt;139662239355184 -->
<g id="edge61" class="edge">
<title>139662217174752&#45;&gt;139662239355184</title>
<path fill="none" stroke="black" d="M723.39,-197C731.38,-197 740.3,-197 748.81,-197"/>
<polygon fill="black" stroke="black" points="748.91,-200.5 758.91,-197 748.91,-193.5 748.91,-200.5"/>
</g>
<!-- 139662217173216 -->
<g id="node23" class="node">
<title>139662217173216</title>
<polygon fill="white" stroke="black" points="529.14,-273 463.85,-273 463.85,-237 529.14,-237 529.14,-273"/>
<text text-anchor="middle" x="496.5" y="-251.4" font-family="Times,serif" font-size="12.00">ER Triage</text>
</g>
<!-- 139662217173216&#45;&gt;139662217180704 -->
<g id="edge6" class="edge">
<title>139662217173216&#45;&gt;139662217180704</title>
<path fill="none" stroke="black" d="M529.17,-244.39C542.1,-240.06 557.09,-235.04 570.31,-230.61"/>
<polygon fill="black" stroke="black" points="571.65,-233.86 580.02,-227.36 569.42,-227.22 571.65,-233.86"/>
</g>
<!-- 139662239356384 -->
<g id="node24" class="node">
<title>139662239356384</title>
<polygon fill="black" stroke="black" points="925.65,-338 871.65,-338 871.65,-302 925.65,-302 925.65,-338"/>
</g>
<!-- 139662239356384&#45;&gt;139662239356048 -->
<g id="edge11" class="edge">
<title>139662239356384&#45;&gt;139662239356048</title>
<path fill="none" stroke="black" d="M925.87,-320.95C940.2,-321.47 958.18,-322.12 973.86,-322.68"/>
<polygon fill="black" stroke="black" points="974.15,-326.2 984.27,-323.06 974.4,-319.2 974.15,-326.2"/>
</g>
<!-- 139662239362144 -->
<g id="node25" class="node">
<title>139662239362144</title>
<polygon fill="black" stroke="black" points="925.65,-242 871.65,-242 871.65,-206 925.65,-206 925.65,-242"/>
</g>
<!-- 139662239362144&#45;&gt;139662239361424 -->
<g id="edge55" class="edge">
<title>139662239362144&#45;&gt;139662239361424</title>
<path fill="none" stroke="black" d="M925.87,-217.6C940.45,-214.05 958.79,-209.57 974.65,-205.7"/>
<polygon fill="black" stroke="black" points="975.76,-209.03 984.65,-203.26 974.11,-202.23 975.76,-209.03"/>
</g>
<!-- 139662217095280 -->
<g id="node26" class="node">
<title>139662217095280</title>
<polygon fill="black" stroke="black" points="1519.29,-367 1465.29,-367 1465.29,-331 1519.29,-331 1519.29,-367"/>
</g>
<!-- 139662217095280&#45;&gt;139662217090576 -->
<g id="edge62" class="edge">
<title>139662217095280&#45;&gt;139662217090576</title>
<path fill="none" stroke="black" d="M1504.62,-330.73C1519.03,-307.48 1544.15,-266.94 1561.69,-238.63"/>
<polygon fill="black" stroke="black" points="1564.81,-240.24 1567.1,-229.9 1558.86,-236.55 1564.81,-240.24"/>
</g>
<!-- 139662217174896 -->
<g id="node27" class="node">
<title>139662217174896</title>
<polygon fill="black" stroke="black" points="523.5,-542 469.5,-542 469.5,-506 523.5,-506 523.5,-542"/>
</g>
<!-- 139662217174896&#45;&gt;139662217171920 -->
<g id="edge48" class="edge">
<title>139662217174896&#45;&gt;139662217171920</title>
<path fill="none" stroke="black" d="M523.52,-527.39C537.02,-529.15 553.73,-531.32 568.5,-533.25"/>
<polygon fill="black" stroke="black" points="568.47,-536.77 578.84,-534.59 569.37,-529.83 568.47,-536.77"/>
</g>
<!-- 139662239363440 -->
<g id="node28" class="node">
<title>139662239363440</title>
<polygon fill="black" stroke="black" points="1143.8,-241 1089.8,-241 1089.8,-205 1143.8,-205 1143.8,-241"/>
</g>
<!-- 139662239363440&#45;&gt;139662239360896 -->
<g id="edge56" class="edge">
<title>139662239363440&#45;&gt;139662239360896</title>
<path fill="none" stroke="black" d="M1143.91,-212.15C1157.15,-206.65 1173.37,-199.91 1187.54,-194.02"/>
<polygon fill="black" stroke="black" points="1189.07,-197.18 1196.96,-190.11 1186.38,-190.71 1189.07,-197.18"/>
</g>
<!-- 139662239254528 -->
<g id="node29" class="node">
<title>139662239254528</title>
<ellipse fill="white" stroke="black" cx="27" cy="-185" rx="27" ry="27"/>
<text text-anchor="start" x="14.25" y="-174.8" font-family="Times,serif" font-size="34.00">●</text>
</g>
<!-- 139662239254528&#45;&gt;139662217089040 -->
<g id="edge58" class="edge">
<title>139662239254528&#45;&gt;139662217089040</title>
<path fill="none" stroke="black" d="M54.4,-185C62.39,-185 71.31,-185 79.82,-185"/>
<polygon fill="black" stroke="black" points="79.92,-188.5 89.92,-185 79.92,-181.5 79.92,-188.5"/>
</g>
<!-- 139662217101232&#45;&gt;139662217100944 -->
<g id="edge12" class="edge">
<title>139662217101232&#45;&gt;139662217100944</title>
<path fill="none" stroke="black" d="M412.12,-595.55C426.17,-601.69 444.14,-609.55 459.8,-616.39"/>
<polygon fill="black" stroke="black" points="458.63,-619.7 469.19,-620.5 461.43,-613.29 458.63,-619.7"/>
</g>
<!-- 139662217097248&#45;&gt;139662217091152 -->
<g id="edge13" class="edge">
<title>139662217097248&#45;&gt;139662217091152</title>
<path fill="none" stroke="black" d="M231.12,-626.86C240.24,-621.68 250.93,-615.61 260.96,-609.91"/>
<polygon fill="black" stroke="black" points="262.96,-612.8 269.93,-604.81 259.5,-606.71 262.96,-612.8"/>
</g>
<!-- 139662217097248&#45;&gt;139662217095280 -->
<g id="edge14" class="edge">
<title>139662217097248&#45;&gt;139662217095280</title>
<path fill="none" stroke="black" d="M232.7,-648.72C266.75,-659.94 330.23,-678 386,-678 386,-678 386,-678 1313.29,-678 1449.44,-678 1481.97,-457.37 1489.29,-377.46"/>
<polygon fill="black" stroke="black" points="1492.8,-377.42 1490.16,-367.16 1485.83,-376.83 1492.8,-377.42"/>
</g>
<!-- 139662217182528&#45;&gt;139662217170528 -->
<g id="edge15" class="edge">
<title>139662217182528&#45;&gt;139662217170528</title>
<path fill="none" stroke="black" d="M414.02,-345.39C425.3,-346.86 438.82,-348.62 451.57,-350.28"/>
<polygon fill="black" stroke="black" points="451.21,-353.76 461.58,-351.58 452.12,-346.82 451.21,-353.76"/>
</g>
<!-- 139662217168320&#45;&gt;139662217173072 -->
<g id="edge16" class="edge">
<title>139662217168320&#45;&gt;139662217173072</title>
<path fill="none" stroke="black" d="M631.97,-347.77C640.41,-344.99 649.99,-341.83 659.1,-338.83"/>
<polygon fill="black" stroke="black" points="660.32,-342.11 668.72,-335.66 658.13,-335.46 660.32,-342.11"/>
</g>
<!-- 139662217168320&#45;&gt;139662217095280 -->
<g id="edge17" class="edge">
<title>139662217168320&#45;&gt;139662217095280</title>
<path fill="none" stroke="black" d="M631.31,-365.76C665.17,-378.44 728.72,-399 784.99,-399 784.99,-399 784.99,-399 1313.29,-399 1364.2,-399 1420.34,-379.81 1455.7,-365.21"/>
<polygon fill="black" stroke="black" points="1457.25,-368.35 1465.1,-361.23 1454.53,-361.91 1457.25,-368.35"/>
</g>
<!-- 139662217167312&#45;&gt;139662217179792 -->
<g id="edge18" class="edge">
<title>139662217167312&#45;&gt;139662217179792</title>
<path fill="none" stroke="black" d="M410.34,-526.8C422.11,-534.04 436.81,-543.05 450,-551 451.92,-552.16 453.88,-553.34 455.87,-554.53"/>
<polygon fill="black" stroke="black" points="454.24,-557.64 464.62,-559.76 457.83,-551.63 454.24,-557.64"/>
</g>
<!-- 139662217167312&#45;&gt;139662217174896 -->
<g id="edge19" class="edge">
<title>139662217167312&#45;&gt;139662217174896</title>
<path fill="none" stroke="black" d="M414.02,-515.66C427.52,-517.04 444.24,-518.75 459,-520.27"/>
<polygon fill="black" stroke="black" points="459.04,-523.79 469.34,-521.32 459.75,-516.82 459.04,-523.79"/>
</g>
<!-- 139662217171920&#45;&gt;139662217095280 -->
<g id="edge20" class="edge">
<title>139662217171920&#45;&gt;139662217095280</title>
<path fill="none" stroke="black" d="M633.23,-537.04C667.94,-535.86 731.05,-534 784.99,-534 784.99,-534 784.99,-534 1313.29,-534 1399.76,-534 1457.4,-427.76 1480.24,-376.3"/>
<polygon fill="black" stroke="black" points="1483.47,-377.64 1484.22,-367.08 1477.05,-374.87 1483.47,-377.64"/>
</g>
<!-- 139662217177632&#45;&gt;139662217171536 -->
<g id="edge22" class="edge">
<title>139662217177632&#45;&gt;139662217171536</title>
<path fill="none" stroke="black" d="M411.59,-243.15C425.85,-235.99 444.3,-226.72 460.26,-218.7"/>
<polygon fill="black" stroke="black" points="461.96,-221.76 469.32,-214.15 458.81,-215.51 461.96,-221.76"/>
</g>
<!-- 139662217177632&#45;&gt;139662217173216 -->
<g id="edge21" class="edge">
<title>139662217177632&#45;&gt;139662217173216</title>
<path fill="none" stroke="black" d="M414.02,-255C425.79,-255 440,-255 453.23,-255"/>
<polygon fill="black" stroke="black" points="453.57,-258.5 463.57,-255 453.57,-251.5 453.57,-258.5"/>
</g>
<!-- 139662217180704&#45;&gt;139662217174752 -->
<g id="edge23" class="edge">
<title>139662217180704&#45;&gt;139662217174752</title>
<path fill="none" stroke="black" d="M632.44,-212.64C640.78,-210.55 650.2,-208.2 659.16,-205.96"/>
<polygon fill="black" stroke="black" points="660.13,-209.32 668.98,-203.5 658.43,-202.53 660.13,-209.32"/>
</g>
<!-- 139662217169808&#45;&gt;139662217174992 -->
<g id="edge24" class="edge">
<title>139662217169808&#45;&gt;139662217174992</title>
<path fill="none" stroke="black" d="M413.75,-160.69C421.68,-159.36 430.75,-157.84 439.89,-156.31"/>
<polygon fill="black" stroke="black" points="440.5,-159.76 449.78,-154.65 439.34,-152.85 440.5,-159.76"/>
</g>
<!-- 139662217169616&#45;&gt;139662217174752 -->
<g id="edge25" class="edge">
<title>139662217169616&#45;&gt;139662217174752</title>
<path fill="none" stroke="black" d="M630.11,-160.14C639.24,-165.32 649.92,-171.39 659.95,-177.09"/>
<polygon fill="black" stroke="black" points="658.5,-180.29 668.92,-182.19 661.95,-174.2 658.5,-180.29"/>
</g>
<!-- 139662217094224&#45;&gt;139662217091584 -->
<g id="edge26" class="edge">
<title>139662217094224&#45;&gt;139662217091584</title>
<path fill="none" stroke="black" d="M219.27,-160.5C242.9,-113.22 302.44,-14 386,-14 386,-14 386,-14 1223.29,-14 1272.39,-14 1329.08,-15.54 1365.04,-16.71"/>
<polygon fill="black" stroke="black" points="1364.95,-20.21 1375.06,-17.04 1365.18,-13.21 1364.95,-20.21"/>
</g>
<!-- 139662217094224&#45;&gt;139662217093984 -->
<g id="edge27" class="edge">
<title>139662217094224&#45;&gt;139662217093984</title>
<path fill="none" stroke="black" d="M220.98,-208.17C236.93,-236.61 263.93,-284.78 280.82,-314.91"/>
<polygon fill="black" stroke="black" points="277.77,-316.63 285.71,-323.64 283.88,-313.21 277.77,-316.63"/>
</g>
<!-- 139662217180896&#45;&gt;139662239351488 -->
<g id="edge28" class="edge">
<title>139662217180896&#45;&gt;139662239351488</title>
<path fill="none" stroke="black" d="M810.73,-113.06C821.98,-107.88 835.85,-101.48 849.17,-95.34"/>
<polygon fill="black" stroke="black" points="850.66,-98.51 858.28,-91.15 847.73,-92.15 850.66,-98.51"/>
</g>
<!-- 139662239350864&#45;&gt;139662239352496 -->
<g id="edge29" class="edge">
<title>139662239350864&#45;&gt;139662239352496</title>
<path fill="none" stroke="black" d="M1036.31,-79.67C1049.44,-85.5 1065.95,-92.84 1080.51,-99.32"/>
<polygon fill="black" stroke="black" points="1079.19,-102.56 1089.75,-103.42 1082.03,-96.16 1079.19,-102.56"/>
</g>
<!-- 139662239350864&#45;&gt;139662217095280 -->
<g id="edge30" class="edge">
<title>139662239350864&#45;&gt;139662217095280</title>
<path fill="none" stroke="black" d="M1038.37,-69C1077.91,-69 1155.44,-69 1221.29,-69 1221.29,-69 1221.29,-69 1313.29,-69 1431.64,-69 1474.67,-249.34 1487.06,-320.56"/>
<polygon fill="black" stroke="black" points="1483.64,-321.34 1488.73,-330.63 1490.54,-320.19 1483.64,-321.34"/>
</g>
<!-- 139662239354128&#45;&gt;139662239355424 -->
<g id="edge32" class="edge">
<title>139662239354128&#45;&gt;139662239355424</title>
<path fill="none" stroke="black" d="M813.21,-269.12C874.07,-266.97 1029.64,-260.79 1159.29,-250 1167.66,-249.3 1176.64,-248.39 1185.1,-247.45"/>
<polygon fill="black" stroke="black" points="1185.54,-250.92 1195.08,-246.3 1184.75,-243.97 1185.54,-250.92"/>
</g>
<!-- 139662239354128&#45;&gt;139662239356384 -->
<g id="edge31" class="edge">
<title>139662239354128&#45;&gt;139662239356384</title>
<path fill="none" stroke="black" d="M811,-280.85C825.88,-287.57 845.26,-296.33 861.92,-303.86"/>
<polygon fill="black" stroke="black" points="860.81,-307.19 871.36,-308.12 863.69,-300.82 860.81,-307.19"/>
</g>
<!-- 139662239354656&#45;&gt;139662217095280 -->
<g id="edge33" class="edge">
<title>139662239354656&#45;&gt;139662217095280</title>
<path fill="none" stroke="black" d="M1426.41,-312.14C1435.54,-317.32 1446.22,-323.39 1456.25,-329.09"/>
<polygon fill="black" stroke="black" points="1454.8,-332.29 1465.22,-334.19 1458.26,-326.2 1454.8,-332.29"/>
</g>
<!-- 139662239356048&#45;&gt;139662239357776 -->
<g id="edge34" class="edge">
<title>139662239356048&#45;&gt;139662239357776</title>
<path fill="none" stroke="black" d="M1038.42,-321.73C1046.6,-321.02 1055.92,-320.21 1065.2,-319.4"/>
<polygon fill="black" stroke="black" points="1065.52,-322.89 1075.18,-318.53 1064.92,-315.91 1065.52,-322.89"/>
</g>
<!-- 139662239357008&#45;&gt;139662239358736 -->
<g id="edge35" class="edge">
<title>139662239357008&#45;&gt;139662239358736</title>
<path fill="none" stroke="black" d="M1246.41,-318.35C1255.54,-323.22 1266.22,-328.93 1276.25,-334.29"/>
<polygon fill="black" stroke="black" points="1274.75,-337.45 1285.22,-339.08 1278.05,-331.28 1274.75,-337.45"/>
</g>
<!-- 139662239357008&#45;&gt;139662239359504 -->
<g id="edge36" class="edge">
<title>139662239357008&#45;&gt;139662239359504</title>
<path fill="none" stroke="black" d="M1249.22,-303.94C1257.29,-303.3 1266.35,-302.57 1275,-301.89"/>
<polygon fill="black" stroke="black" points="1275.56,-305.35 1285.25,-301.07 1275,-298.38 1275.56,-305.35"/>
</g>
<!-- 139662239355184&#45;&gt;139662239363008 -->
<g id="edge37" class="edge">
<title>139662239355184&#45;&gt;139662239363008</title>
<path fill="none" stroke="black" d="M812.38,-190.81C820.43,-188.84 829.69,-186.58 839.08,-184.29"/>
<polygon fill="black" stroke="black" points="839.97,-187.68 848.86,-181.9 838.31,-180.88 839.97,-187.68"/>
</g>
<!-- 139662239355184&#45;&gt;139662239362144 -->
<g id="edge38" class="edge">
<title>139662239355184&#45;&gt;139662239362144</title>
<path fill="none" stroke="black" d="M812.38,-203.19C826.93,-206.74 845.43,-211.26 861.48,-215.18"/>
<polygon fill="black" stroke="black" points="861.07,-218.68 871.61,-217.65 862.73,-211.88 861.07,-218.68"/>
</g>
<!-- 139662217090576&#45;&gt;139662217086880 -->
<g id="edge39" class="edge">
<title>139662217090576&#45;&gt;139662217086880</title>
<path fill="none" stroke="black" d="M1609.7,-207C1617.69,-207 1626.6,-207 1635.12,-207"/>
<polygon fill="black" stroke="black" points="1635.21,-210.5 1645.21,-207 1635.21,-203.5 1635.21,-210.5"/>
</g>
<!-- 139662239360896&#45;&gt;139662217095280 -->
<g id="edge40" class="edge">
<title>139662239360896&#45;&gt;139662217095280</title>
<path fill="none" stroke="black" d="M1249.08,-185.46C1290.57,-195.25 1373.14,-219.01 1429.29,-263 1449.62,-278.93 1466.29,-303.23 1477.2,-321.94"/>
<polygon fill="black" stroke="black" points="1474.28,-323.88 1482.23,-330.88 1480.38,-320.44 1474.28,-323.88"/>
</g>
<!-- 139662239361424&#45;&gt;139662239364304 -->
<g id="edge41" class="edge">
<title>139662239361424&#45;&gt;139662239364304</title>
<path fill="none" stroke="black" d="M1037.62,-190.15C1045.79,-187.94 1055.17,-185.4 1064.52,-182.87"/>
<polygon fill="black" stroke="black" points="1065.47,-186.24 1074.21,-180.25 1063.64,-179.48 1065.47,-186.24"/>
</g>
<!-- 139662239361424&#45;&gt;139662239363440 -->
<g id="edge42" class="edge">
<title>139662239361424&#45;&gt;139662239363440</title>
<path fill="none" stroke="black" d="M1037.62,-203.36C1050.33,-206.55 1065.96,-210.48 1079.88,-213.98"/>
<polygon fill="black" stroke="black" points="1079.11,-217.39 1089.66,-216.43 1080.82,-210.6 1079.11,-217.39"/>
</g>
<!-- 139662217099504&#45;&gt;139662241449216 -->
<g id="edge43" class="edge">
<title>139662217099504&#45;&gt;139662241449216</title>
<path fill="none" stroke="black" d="M414.02,-428C425.09,-428 438.32,-428 450.86,-428"/>
<polygon fill="black" stroke="black" points="451.18,-431.5 461.18,-428 451.18,-424.5 451.18,-431.5"/>
</g>
<!-- 139662217085968&#45;&gt;139662217096480 -->
<g id="edge44" class="edge">
<title>139662217085968&#45;&gt;139662217096480</title>
<path fill="none" stroke="black" d="M629.2,-441.88C638.58,-447.75 649.74,-454.72 660.18,-461.24"/>
<polygon fill="black" stroke="black" points="658.39,-464.25 668.72,-466.58 662.1,-458.31 658.39,-464.25"/>
</g>
<!-- 139662217085968&#45;&gt;139662217095280 -->
<g id="edge45" class="edge">
<title>139662217085968&#45;&gt;139662217095280</title>
<path fill="none" stroke="black" d="M632.91,-430.13C667.55,-432.79 730.84,-437 784.99,-437 784.99,-437 784.99,-437 1313.29,-437 1367.83,-437 1381.31,-422.93 1429.29,-397 1441.29,-390.51 1453.4,-381.75 1463.69,-373.49"/>
<polygon fill="black" stroke="black" points="1466.04,-376.09 1471.52,-367.02 1461.58,-370.69 1466.04,-376.09"/>
</g>
</g>
</svg>
