<?xml version="1.0" encoding="UTF-8" standalone="no"?>
<!DOCTYPE svg PUBLIC "-//W3C//DTD SVG 1.1//EN"
 "http://www.w3.org/Graphics/SVG/1.1/DTD/svg11.dtd">
<!-- Generated by graphviz version 2.48.0 (0)
 -->
<!-- Title: imdf_net_1720370177.9836218 Pages: 1 -->
<svg width="2012pt" height="598pt"
 viewBox="0.00 0.00 2011.91 598.00" xmlns="http://www.w3.org/2000/svg" xmlns:xlink="http://www.w3.org/1999/xlink">
<g id="graph0" class="graph" transform="scale(1 1) rotate(0) translate(4 594)">
<title>imdf_net_1720370177.9836218</title>
<polygon fill="white" stroke="transparent" points="-4,4 -4,-594 2007.91,-594 2007.91,4 -4,4"/>
<!-- 139662241449216 -->
<g id="node1" class="node">
<title>139662241449216</title>
<polygon fill="white" stroke="black" points="160.46,-82 90.18,-82 90.18,-46 160.46,-46 160.46,-82"/>
<text text-anchor="middle" x="125.32" y="-60.4" font-family="Times,serif" font-size="12.00">Leucocytes</text>
</g>
<!-- 139662217085824 -->
<g id="node45" class="node">
<title>139662217085824</title>
<ellipse fill="white" stroke="black" cx="223.64" cy="-37" rx="27" ry="27"/>
</g>
<!-- 139662241449216&#45;&gt;139662217085824 -->
<g id="edge2" class="edge">
<title>139662241449216&#45;&gt;139662217085824</title>
<path fill="none" stroke="black" d="M160.55,-54.4C169.35,-51.94 178.83,-49.28 187.67,-46.8"/>
<polygon fill="black" stroke="black" points="188.62,-50.17 197.3,-44.1 186.73,-43.43 188.62,-50.17"/>
</g>
<!-- 139662240659984 -->
<g id="node2" class="node">
<title>139662240659984</title>
<polygon fill="black" stroke="black" points="1062.25,-590 1008.25,-590 1008.25,-554 1062.25,-554 1062.25,-590"/>
</g>
<!-- 139662241456272 -->
<g id="node43" class="node">
<title>139662241456272</title>
<ellipse fill="white" stroke="black" cx="1788.91" cy="-309" rx="27" ry="27"/>
</g>
<!-- 139662240659984&#45;&gt;139662241456272 -->
<g id="edge44" class="edge">
<title>139662240659984&#45;&gt;139662241456272</title>
<path fill="none" stroke="black" d="M1062.51,-560.5C1096.74,-546.59 1158.79,-525 1214.25,-525 1214.25,-525 1214.25,-525 1609.91,-525 1702.43,-525 1755.79,-405.52 1777.06,-344.28"/>
<polygon fill="black" stroke="black" points="1780.44,-345.22 1780.32,-334.63 1773.81,-342.98 1780.44,-345.22"/>
</g>
<!-- 139662217180560 -->
<g id="node3" class="node">
<title>139662217180560</title>
<polygon fill="white" stroke="black" points="761.42,-483 661.79,-483 661.79,-447 761.42,-447 761.42,-483"/>
<text text-anchor="middle" x="711.6" y="-461.4" font-family="Times,serif" font-size="12.00">ER Sepsis Triage</text>
</g>
<!-- 139662217176480 -->
<g id="node38" class="node">
<title>139662217176480</title>
<ellipse fill="white" stroke="black" cx="824.26" cy="-478" rx="27" ry="27"/>
</g>
<!-- 139662217180560&#45;&gt;139662217176480 -->
<g id="edge1" class="edge">
<title>139662217180560&#45;&gt;139662217176480</title>
<path fill="none" stroke="black" d="M761.46,-470.74C770.17,-471.76 779.1,-472.81 787.37,-473.78"/>
<polygon fill="black" stroke="black" points="787.07,-477.27 797.41,-474.96 787.89,-470.32 787.07,-477.27"/>
</g>
<!-- 139662217177872 -->
<g id="node4" class="node">
<title>139662217177872</title>
<polygon fill="white" stroke="black" points="1545.75,-298 1458.41,-298 1458.41,-262 1545.75,-262 1545.75,-298"/>
<text text-anchor="middle" x="1502.08" y="-276.4" font-family="Times,serif" font-size="12.00">Admission NC</text>
</g>
<!-- 139662217174272 -->
<g id="node42" class="node">
<title>139662217174272</title>
<ellipse fill="white" stroke="black" cx="1608.91" cy="-275" rx="27" ry="27"/>
</g>
<!-- 139662217177872&#45;&gt;139662217174272 -->
<g id="edge8" class="edge">
<title>139662217177872&#45;&gt;139662217174272</title>
<path fill="none" stroke="black" d="M1546.02,-277.95C1554.53,-277.55 1563.38,-277.12 1571.64,-276.73"/>
<polygon fill="black" stroke="black" points="1571.9,-280.22 1581.72,-276.25 1571.56,-273.23 1571.9,-280.22"/>
</g>
<!-- 139662217086880 -->
<g id="node5" class="node">
<title>139662217086880</title>
<polygon fill="white" stroke="black" points="528.29,-95 474.29,-95 474.29,-59 528.29,-59 528.29,-95"/>
<text text-anchor="middle" x="501.29" y="-73.4" font-family="Times,serif" font-size="12.00">CRP</text>
</g>
<!-- 139662217087504 -->
<g id="node26" class="node">
<title>139662217087504</title>
<ellipse fill="white" stroke="black" cx="598.94" cy="-72" rx="27" ry="27"/>
</g>
<!-- 139662217086880&#45;&gt;139662217087504 -->
<g id="edge7" class="edge">
<title>139662217086880&#45;&gt;139662217087504</title>
<path fill="none" stroke="black" d="M528.43,-75.63C538.66,-75.1 550.56,-74.48 561.6,-73.9"/>
<polygon fill="black" stroke="black" points="562.04,-77.38 571.84,-73.36 561.67,-70.39 562.04,-77.38"/>
</g>
<!-- 139662217092256 -->
<g id="node6" class="node">
<title>139662217092256</title>
<polygon fill="black" stroke="black" points="738.6,-137 684.6,-137 684.6,-101 738.6,-101 738.6,-137"/>
</g>
<!-- 139662217098160 -->
<g id="node25" class="node">
<title>139662217098160</title>
<ellipse fill="white" stroke="black" cx="403.64" cy="-127" rx="27" ry="27"/>
</g>
<!-- 139662217092256&#45;&gt;139662217098160 -->
<g id="edge39" class="edge">
<title>139662217092256&#45;&gt;139662217098160</title>
<path fill="none" stroke="black" d="M684.58,-119.68C630,-121.11 503.42,-124.42 440.91,-126.05"/>
<polygon fill="black" stroke="black" points="440.63,-122.56 430.73,-126.32 440.81,-129.56 440.63,-122.56"/>
</g>
<!-- 139662217094944 -->
<g id="node7" class="node">
<title>139662217094944</title>
<polygon fill="white" stroke="black" points="532.95,-192 469.63,-192 469.63,-156 532.95,-156 532.95,-192"/>
<text text-anchor="middle" x="501.29" y="-170.4" font-family="Times,serif" font-size="12.00">IV Liquid</text>
</g>
<!-- 139662217093168 -->
<g id="node30" class="node">
<title>139662217093168</title>
<ellipse fill="white" stroke="black" cx="1215.25" cy="-165" rx="27" ry="27"/>
</g>
<!-- 139662217094944&#45;&gt;139662217093168 -->
<g id="edge5" class="edge">
<title>139662217094944&#45;&gt;139662217093168</title>
<path fill="none" stroke="black" d="M532.98,-171.84C573.59,-169.18 647.44,-165 710.6,-165 710.6,-165 710.6,-165 1036.25,-165 1085.33,-165 1142.02,-165 1177.99,-165"/>
<polygon fill="black" stroke="black" points="1178.01,-168.5 1188.01,-165 1178.01,-161.5 1178.01,-168.5"/>
</g>
<!-- 139662217172256 -->
<g id="node8" class="node">
<title>139662217172256</title>
<polygon fill="black" stroke="black" points="1332.25,-340 1278.25,-340 1278.25,-304 1332.25,-304 1332.25,-340"/>
</g>
<!-- 139662217179360 -->
<g id="node41" class="node">
<title>139662217179360</title>
<ellipse fill="white" stroke="black" cx="1395.25" cy="-322" rx="27" ry="27"/>
</g>
<!-- 139662217172256&#45;&gt;139662217179360 -->
<g id="edge10" class="edge">
<title>139662217172256&#45;&gt;139662217179360</title>
<path fill="none" stroke="black" d="M1332.65,-322C1340.64,-322 1349.56,-322 1358.07,-322"/>
<polygon fill="black" stroke="black" points="1358.17,-325.5 1368.17,-322 1358.17,-318.5 1358.17,-325.5"/>
</g>
<!-- 139662217091248 -->
<g id="node9" class="node">
<title>139662217091248</title>
<polygon fill="white" stroke="black" points="536.1,-247 466.49,-247 466.49,-211 536.1,-211 536.1,-247"/>
<text text-anchor="middle" x="501.29" y="-225.4" font-family="Times,serif" font-size="12.00">LacticAcid</text>
</g>
<!-- 139662217098448 -->
<g id="node28" class="node">
<title>139662217098448</title>
<ellipse fill="white" stroke="black" cx="598.94" cy="-220" rx="27" ry="27"/>
</g>
<!-- 139662217091248&#45;&gt;139662217098448 -->
<g id="edge3" class="edge">
<title>139662217091248&#45;&gt;139662217098448</title>
<path fill="none" stroke="black" d="M536.02,-225.83C544.43,-225.04 553.48,-224.18 562,-223.38"/>
<polygon fill="black" stroke="black" points="562.41,-226.86 572.04,-222.44 561.75,-219.89 562.41,-226.86"/>
</g>
<!-- 139662217101232 -->
<g id="node10" class="node">
<title>139662217101232</title>
<polygon fill="black" stroke="black" points="738.6,-285 684.6,-285 684.6,-249 738.6,-249 738.6,-285"/>
</g>
<!-- 139662217092064 -->
<g id="node27" class="node">
<title>139662217092064</title>
<ellipse fill="white" stroke="black" cx="403.64" cy="-271" rx="27" ry="27"/>
</g>
<!-- 139662217101232&#45;&gt;139662217092064 -->
<g id="edge40" class="edge">
<title>139662217101232&#45;&gt;139662217092064</title>
<path fill="none" stroke="black" d="M684.58,-267.34C630,-268.05 503.42,-269.71 440.91,-270.53"/>
<polygon fill="black" stroke="black" points="440.68,-267.03 430.73,-270.66 440.77,-274.03 440.68,-267.03"/>
</g>
<!-- 139662217173552 -->
<g id="node11" class="node">
<title>139662217173552</title>
<polygon fill="black" stroke="black" points="1152.25,-336 1098.25,-336 1098.25,-300 1152.25,-300 1152.25,-336"/>
</g>
<!-- 139662217174176 -->
<g id="node32" class="node">
<title>139662217174176</title>
<ellipse fill="white" stroke="black" cx="1215.25" cy="-322" rx="27" ry="27"/>
</g>
<!-- 139662217173552&#45;&gt;139662217174176 -->
<g id="edge41" class="edge">
<title>139662217173552&#45;&gt;139662217174176</title>
<path fill="none" stroke="black" d="M1152.65,-319.2C1160.64,-319.56 1169.56,-319.97 1178.07,-320.36"/>
<polygon fill="black" stroke="black" points="1178.02,-323.86 1188.17,-320.81 1178.33,-316.86 1178.02,-323.86"/>
</g>
<!-- 139662217167024 -->
<g id="node12" class="node">
<title>139662217167024</title>
<polygon fill="black" stroke="black" points="528.29,-434 474.29,-434 474.29,-398 528.29,-398 528.29,-434"/>
</g>
<!-- 139662217174800 -->
<g id="node33" class="node">
<title>139662217174800</title>
<ellipse fill="white" stroke="black" cx="598.94" cy="-380" rx="27" ry="27"/>
</g>
<!-- 139662217167024&#45;&gt;139662217174800 -->
<g id="edge49" class="edge">
<title>139662217167024&#45;&gt;139662217174800</title>
<path fill="none" stroke="black" d="M528.43,-406.16C539.41,-402.03 552.32,-397.17 564.01,-392.77"/>
<polygon fill="black" stroke="black" points="565.36,-396 573.48,-389.21 562.89,-389.45 565.36,-396"/>
</g>
<!-- 139662217166928 -->
<g id="node36" class="node">
<title>139662217166928</title>
<ellipse fill="white" stroke="black" cx="598.94" cy="-452" rx="27" ry="27"/>
</g>
<!-- 139662217167024&#45;&gt;139662217166928 -->
<g id="edge50" class="edge">
<title>139662217167024&#45;&gt;139662217166928</title>
<path fill="none" stroke="black" d="M528.43,-425.84C539.41,-429.97 552.32,-434.83 564.01,-439.23"/>
<polygon fill="black" stroke="black" points="562.89,-442.55 573.48,-442.79 565.36,-436 562.89,-442.55"/>
</g>
<!-- 139662217177440 -->
<g id="node39" class="node">
<title>139662217177440</title>
<ellipse fill="white" stroke="black" cx="598.94" cy="-524" rx="27" ry="27"/>
</g>
<!-- 139662217167024&#45;&gt;139662217177440 -->
<g id="edge51" class="edge">
<title>139662217167024&#45;&gt;139662217177440</title>
<path fill="none" stroke="black" d="M518.52,-434.32C533.6,-451.35 556.28,-476.96 573.55,-496.45"/>
<polygon fill="black" stroke="black" points="571.09,-498.96 580.34,-504.12 576.33,-494.32 571.09,-498.96"/>
</g>
<!-- 139662217169856 -->
<g id="node13" class="node">
<title>139662217169856</title>
<polygon fill="white" stroke="black" points="744.25,-420 678.95,-420 678.95,-384 744.25,-384 744.25,-420"/>
<text text-anchor="middle" x="711.6" y="-398.4" font-family="Times,serif" font-size="12.00">ER Triage</text>
</g>
<!-- 139662217167552 -->
<g id="node34" class="node">
<title>139662217167552</title>
<ellipse fill="white" stroke="black" cx="824.26" cy="-406" rx="27" ry="27"/>
</g>
<!-- 139662217169856&#45;&gt;139662217167552 -->
<g id="edge4" class="edge">
<title>139662217169856&#45;&gt;139662217167552</title>
<path fill="none" stroke="black" d="M744.31,-403.15C757.65,-403.63 773.23,-404.19 787.02,-404.69"/>
<polygon fill="black" stroke="black" points="787.02,-408.19 797.14,-405.06 787.27,-401.2 787.02,-408.19"/>
</g>
<!-- 139662217179840 -->
<g id="node14" class="node">
<title>139662217179840</title>
<polygon fill="black" stroke="black" points="1725.91,-321 1671.91,-321 1671.91,-285 1725.91,-285 1725.91,-321"/>
</g>
<!-- 139662217179840&#45;&gt;139662217179360 -->
<g id="edge43" class="edge">
<title>139662217179840&#45;&gt;139662217179360</title>
<path fill="none" stroke="black" d="M1671.72,-306.87C1660.69,-308.37 1647.7,-309.97 1635.91,-311 1563.97,-317.28 1479.54,-320.1 1432.54,-321.27"/>
<polygon fill="black" stroke="black" points="1432.45,-317.77 1422.54,-321.5 1432.62,-324.76 1432.45,-317.77"/>
</g>
<!-- 139662217095136 -->
<g id="node15" class="node">
<title>139662217095136</title>
<polygon fill="black" stroke="black" points="1725.91,-211 1671.91,-211 1671.91,-175 1725.91,-175 1725.91,-211"/>
</g>
<!-- 139662217095136&#45;&gt;139662241456272 -->
<g id="edge48" class="edge">
<title>139662217095136&#45;&gt;139662241456272</title>
<path fill="none" stroke="black" d="M1713.66,-211.12C1727.57,-229.46 1749.31,-258.11 1765.67,-279.68"/>
<polygon fill="black" stroke="black" points="1763.04,-282.01 1771.87,-287.86 1768.62,-277.78 1763.04,-282.01"/>
</g>
<!-- 139662217094752 -->
<g id="node16" class="node">
<title>139662217094752</title>
<polygon fill="black" stroke="black" points="340.64,-253 286.64,-253 286.64,-217 340.64,-217 340.64,-253"/>
</g>
<!-- 139662217094752&#45;&gt;139662217098160 -->
<g id="edge52" class="edge">
<title>139662217094752&#45;&gt;139662217098160</title>
<path fill="none" stroke="black" d="M329.57,-216.68C343.21,-199.93 363.61,-174.9 379.39,-155.54"/>
<polygon fill="black" stroke="black" points="382.23,-157.59 385.83,-147.63 376.8,-153.17 382.23,-157.59"/>
</g>
<!-- 139662217094752&#45;&gt;139662217092064 -->
<g id="edge53" class="edge">
<title>139662217094752&#45;&gt;139662217092064</title>
<path fill="none" stroke="black" d="M341.04,-245.8C349.83,-249.4 359.75,-253.45 369.01,-257.24"/>
<polygon fill="black" stroke="black" points="367.78,-260.52 378.36,-261.07 370.43,-254.04 367.78,-260.52"/>
</g>
<!-- 139662217096432 -->
<g id="node29" class="node">
<title>139662217096432</title>
<ellipse fill="white" stroke="black" cx="403.64" cy="-199" rx="27" ry="27"/>
</g>
<!-- 139662217094752&#45;&gt;139662217096432 -->
<g id="edge54" class="edge">
<title>139662217094752&#45;&gt;139662217096432</title>
<path fill="none" stroke="black" d="M341.04,-224.2C349.83,-220.6 359.75,-216.55 369.01,-212.76"/>
<polygon fill="black" stroke="black" points="370.43,-215.96 378.36,-208.93 367.78,-209.48 370.43,-215.96"/>
</g>
<!-- 139662217100224 -->
<g id="node31" class="node">
<title>139662217100224</title>
<ellipse fill="white" stroke="black" cx="403.64" cy="-343" rx="27" ry="27"/>
</g>
<!-- 139662217094752&#45;&gt;139662217100224 -->
<g id="edge55" class="edge">
<title>139662217094752&#45;&gt;139662217100224</title>
<path fill="none" stroke="black" d="M329.57,-253.32C343.21,-270.07 363.61,-295.1 379.39,-314.46"/>
<polygon fill="black" stroke="black" points="376.8,-316.83 385.83,-322.37 382.23,-312.41 376.8,-316.83"/>
</g>
<!-- 139662217090768 -->
<g id="node44" class="node">
<title>139662217090768</title>
<ellipse fill="white" stroke="black" cx="403.64" cy="-55" rx="27" ry="27"/>
</g>
<!-- 139662217094752&#45;&gt;139662217090768 -->
<g id="edge56" class="edge">
<title>139662217094752&#45;&gt;139662217090768</title>
<path fill="none" stroke="black" d="M321.06,-216.66C331.17,-188.69 352.2,-134.09 376.64,-91 377.78,-88.98 379.02,-86.95 380.3,-84.92"/>
<polygon fill="black" stroke="black" points="383.49,-86.44 386.17,-76.19 377.69,-82.54 383.49,-86.44"/>
</g>
<!-- 139662217091296 -->
<g id="node17" class="node">
<title>139662217091296</title>
<polygon fill="black" stroke="black" points="340.64,-64 286.64,-64 286.64,-28 340.64,-28 340.64,-64"/>
</g>
<!-- 139662217091296&#45;&gt;139662217090768 -->
<g id="edge45" class="edge">
<title>139662217091296&#45;&gt;139662217090768</title>
<path fill="none" stroke="black" d="M341.04,-48.7C349.03,-49.52 357.95,-50.43 366.46,-51.3"/>
<polygon fill="black" stroke="black" points="366.25,-54.8 376.56,-52.33 366.97,-47.83 366.25,-54.8"/>
</g>
<!-- 139662217168224 -->
<g id="node18" class="node">
<title>139662217168224</title>
<polygon fill="black" stroke="black" points="1152.25,-451 1098.25,-451 1098.25,-415 1152.25,-415 1152.25,-451"/>
</g>
<!-- 139662217168224&#45;&gt;139662217174176 -->
<g id="edge47" class="edge">
<title>139662217168224&#45;&gt;139662217174176</title>
<path fill="none" stroke="black" d="M1140.78,-414.67C1154.51,-397.35 1175.32,-371.1 1191.3,-350.95"/>
<polygon fill="black" stroke="black" points="1194.12,-353.02 1197.59,-343.01 1188.64,-348.67 1194.12,-353.02"/>
</g>
<!-- 139662217177824 -->
<g id="node19" class="node">
<title>139662217177824</title>
<polygon fill="black" stroke="black" points="956.75,-378 902.75,-378 902.75,-342 956.75,-342 956.75,-378"/>
</g>
<!-- 139662217177824&#45;&gt;139662217174800 -->
<g id="edge42" class="edge">
<title>139662217177824&#45;&gt;139662217174800</title>
<path fill="none" stroke="black" d="M902.61,-361.26C854.81,-363.61 750.12,-368.97 661.94,-375 653.52,-375.58 644.46,-376.27 635.93,-376.95"/>
<polygon fill="black" stroke="black" points="635.56,-373.47 625.88,-377.77 636.13,-380.44 635.56,-373.47"/>
</g>
<!-- 139662238817008 -->
<g id="node20" class="node">
<title>139662238817008</title>
<polygon fill="black" stroke="black" points="152.32,-425 98.32,-425 98.32,-389 152.32,-389 152.32,-425"/>
</g>
<!-- 139662238822096 -->
<g id="node35" class="node">
<title>139662238822096</title>
<ellipse fill="white" stroke="black" cx="223.64" cy="-407" rx="27" ry="27"/>
</g>
<!-- 139662238817008&#45;&gt;139662238822096 -->
<g id="edge57" class="edge">
<title>139662238817008&#45;&gt;139662238822096</title>
<path fill="none" stroke="black" d="M152.39,-407C162.88,-407 175.16,-407 186.49,-407"/>
<polygon fill="black" stroke="black" points="186.55,-410.5 196.55,-407 186.55,-403.5 186.55,-410.5"/>
</g>
<!-- 139662240656240 -->
<g id="node21" class="node">
<title>139662240656240</title>
<polygon fill="black" stroke="black" points="1905.91,-327 1851.91,-327 1851.91,-291 1905.91,-291 1905.91,-327"/>
</g>
<!-- 139662238821952 -->
<g id="node46" class="node">
<title>139662238821952</title>
<ellipse fill="white" stroke="black" cx="1972.91" cy="-309" rx="27" ry="27"/>
<ellipse fill="none" stroke="black" cx="1972.91" cy="-309" rx="31" ry="31"/>
<text text-anchor="start" x="1960.91" y="-299.4" font-family="Times,serif" font-size="32.00">■</text>
</g>
<!-- 139662240656240&#45;&gt;139662238821952 -->
<g id="edge58" class="edge">
<title>139662240656240&#45;&gt;139662238821952</title>
<path fill="none" stroke="black" d="M1906.03,-309C1914.05,-309 1923.06,-309 1931.79,-309"/>
<polygon fill="black" stroke="black" points="1931.83,-312.5 1941.83,-309 1931.83,-305.5 1931.83,-312.5"/>
</g>
<!-- 139662217167600 -->
<g id="node22" class="node">
<title>139662217167600</title>
<polygon fill="white" stroke="black" points="972.24,-479 887.26,-479 887.26,-443 972.24,-443 972.24,-479"/>
<text text-anchor="middle" x="929.75" y="-457.4" font-family="Times,serif" font-size="12.00">IV Antibiotics</text>
</g>
<!-- 139662217171776 -->
<g id="node37" class="node">
<title>139662217171776</title>
<ellipse fill="white" stroke="black" cx="1035.25" cy="-461" rx="27" ry="27"/>
</g>
<!-- 139662217167600&#45;&gt;139662217171776 -->
<g id="edge6" class="edge">
<title>139662217167600&#45;&gt;139662217171776</title>
<path fill="none" stroke="black" d="M972.25,-461C980.79,-461 989.72,-461 998.06,-461"/>
<polygon fill="black" stroke="black" points="998.22,-464.5 1008.22,-461 998.22,-457.5 998.22,-464.5"/>
</g>
<!-- 139662217169904 -->
<g id="node23" class="node">
<title>139662217169904</title>
<polygon fill="white" stroke="black" points="758.09,-547 665.11,-547 665.11,-511 758.09,-511 758.09,-547"/>
<text text-anchor="middle" x="711.6" y="-525.4" font-family="Times,serif" font-size="12.00">ER Registration</text>
</g>
<!-- 139662217176384 -->
<g id="node40" class="node">
<title>139662217176384</title>
<ellipse fill="white" stroke="black" cx="929.75" cy="-524" rx="27" ry="27"/>
</g>
<!-- 139662217169904&#45;&gt;139662217176384 -->
<g id="edge9" class="edge">
<title>139662217169904&#45;&gt;139662217176384</title>
<path fill="none" stroke="black" d="M758.18,-527.95C798.08,-527.02 855.31,-525.7 892.26,-524.84"/>
<polygon fill="black" stroke="black" points="892.66,-528.34 902.57,-524.61 892.49,-521.34 892.66,-528.34"/>
</g>
<!-- 139662239254528 -->
<g id="node24" class="node">
<title>139662239254528</title>
<ellipse fill="white" stroke="black" cx="27" cy="-407" rx="27" ry="27"/>
<text text-anchor="start" x="14.25" y="-396.8" font-family="Times,serif" font-size="34.00">●</text>
</g>
<!-- 139662239254528&#45;&gt;139662238817008 -->
<g id="edge46" class="edge">
<title>139662239254528&#45;&gt;139662238817008</title>
<path fill="none" stroke="black" d="M54.07,-407C64.56,-407 76.84,-407 88.17,-407"/>
<polygon fill="black" stroke="black" points="88.23,-410.5 98.23,-407 88.23,-403.5 88.23,-410.5"/>
</g>
<!-- 139662217098160&#45;&gt;139662217086880 -->
<g id="edge11" class="edge">
<title>139662217098160&#45;&gt;139662217086880</title>
<path fill="none" stroke="black" d="M427.79,-114.9C438.9,-109.09 452.44,-102.01 464.81,-95.55"/>
<polygon fill="black" stroke="black" points="466.73,-98.49 473.97,-90.76 463.49,-92.29 466.73,-98.49"/>
</g>
<!-- 139662217087504&#45;&gt;139662217092256 -->
<g id="edge12" class="edge">
<title>139662217087504&#45;&gt;139662217092256</title>
<path fill="none" stroke="black" d="M623.96,-82.2C638.83,-88.52 658.22,-96.75 674.88,-103.83"/>
<polygon fill="black" stroke="black" points="673.74,-107.15 684.32,-107.84 676.48,-100.7 673.74,-107.15"/>
</g>
<!-- 139662217087504&#45;&gt;139662217095136 -->
<g id="edge13" class="edge">
<title>139662217087504&#45;&gt;139662217095136</title>
<path fill="none" stroke="black" d="M626.07,-72.19C667.77,-72.48 751.92,-73 823.26,-73 823.26,-73 823.26,-73 1503.08,-73 1574.36,-73 1641.43,-131.95 1675.18,-167.22"/>
<polygon fill="black" stroke="black" points="1672.86,-169.86 1682.25,-174.77 1677.98,-165.08 1672.86,-169.86"/>
</g>
<!-- 139662217092064&#45;&gt;139662217091248 -->
<g id="edge14" class="edge">
<title>139662217092064&#45;&gt;139662217091248</title>
<path fill="none" stroke="black" d="M428.78,-260.4C437.42,-256.61 447.44,-252.21 457.19,-247.93"/>
<polygon fill="black" stroke="black" points="458.66,-251.1 466.41,-243.88 455.85,-244.69 458.66,-251.1"/>
</g>
<!-- 139662217098448&#45;&gt;139662217101232 -->
<g id="edge15" class="edge">
<title>139662217098448&#45;&gt;139662217101232</title>
<path fill="none" stroke="black" d="M623.96,-230.2C638.83,-236.52 658.22,-244.75 674.88,-251.83"/>
<polygon fill="black" stroke="black" points="673.74,-255.15 684.32,-255.84 676.48,-248.7 673.74,-255.15"/>
</g>
<!-- 139662217098448&#45;&gt;139662217095136 -->
<g id="edge16" class="edge">
<title>139662217098448&#45;&gt;139662217095136</title>
<path fill="none" stroke="black" d="M626.07,-220C667.77,-220 751.92,-220 823.26,-220 823.26,-220 823.26,-220 1503.08,-220 1558.88,-220 1622.82,-209 1661.78,-201.04"/>
<polygon fill="black" stroke="black" points="1662.53,-204.46 1671.6,-198.99 1661.1,-197.61 1662.53,-204.46"/>
</g>
<!-- 139662217096432&#45;&gt;139662217094944 -->
<g id="edge17" class="edge">
<title>139662217096432&#45;&gt;139662217094944</title>
<path fill="none" stroke="black" d="M430.02,-192.37C439.07,-190 449.51,-187.27 459.52,-184.66"/>
<polygon fill="black" stroke="black" points="460.54,-188.01 469.33,-182.09 458.77,-181.24 460.54,-188.01"/>
</g>
<!-- 139662217093168&#45;&gt;139662217095136 -->
<g id="edge18" class="edge">
<title>139662217093168&#45;&gt;139662217095136</title>
<path fill="none" stroke="black" d="M1242.47,-166.92C1277.17,-169.28 1340.27,-173 1394.25,-173 1394.25,-173 1394.25,-173 1503.08,-173 1558.56,-173 1622.46,-181.12 1661.52,-187.02"/>
<polygon fill="black" stroke="black" points="1661.43,-190.54 1671.84,-188.61 1662.49,-183.63 1661.43,-190.54"/>
</g>
<!-- 139662217100224&#45;&gt;139662217173552 -->
<g id="edge19" class="edge">
<title>139662217100224&#45;&gt;139662217173552</title>
<path fill="none" stroke="black" d="M430.08,-336.49C466.87,-327.67 537.15,-313 597.94,-313 597.94,-313 597.94,-313 930.75,-313 985.43,-313 1048.76,-315.02 1087.67,-316.49"/>
<polygon fill="black" stroke="black" points="1087.83,-320 1097.96,-316.89 1088.11,-313.01 1087.83,-320"/>
</g>
<!-- 139662217100224&#45;&gt;139662217167024 -->
<g id="edge20" class="edge">
<title>139662217100224&#45;&gt;139662217167024</title>
<path fill="none" stroke="black" d="M425.87,-359.2C438.38,-368.75 454.46,-381.02 468.47,-391.71"/>
<polygon fill="black" stroke="black" points="466.36,-394.51 476.43,-397.79 470.61,-388.94 466.36,-394.51"/>
</g>
<!-- 139662217174176&#45;&gt;139662217172256 -->
<g id="edge21" class="edge">
<title>139662217174176&#45;&gt;139662217172256</title>
<path fill="none" stroke="black" d="M1242.65,-322C1250.64,-322 1259.56,-322 1268.07,-322"/>
<polygon fill="black" stroke="black" points="1268.17,-325.5 1278.17,-322 1268.17,-318.5 1268.17,-325.5"/>
</g>
<!-- 139662217174800&#45;&gt;139662217169856 -->
<g id="edge22" class="edge">
<title>139662217174800&#45;&gt;139662217169856</title>
<path fill="none" stroke="black" d="M625.61,-385.1C638.47,-387.66 654.38,-390.82 668.93,-393.72"/>
<polygon fill="black" stroke="black" points="668.25,-397.15 678.74,-395.67 669.62,-390.28 668.25,-397.15"/>
</g>
<!-- 139662217167552&#45;&gt;139662217168224 -->
<g id="edge24" class="edge">
<title>139662217167552&#45;&gt;139662217168224</title>
<path fill="none" stroke="black" d="M851.25,-407.67C894.9,-410.57 985.68,-417 1062.25,-425 1070.61,-425.87 1079.59,-426.95 1088.05,-428.03"/>
<polygon fill="black" stroke="black" points="1087.66,-431.51 1098.03,-429.33 1088.57,-424.57 1087.66,-431.51"/>
</g>
<!-- 139662217167552&#45;&gt;139662217177824 -->
<g id="edge23" class="edge">
<title>139662217167552&#45;&gt;139662217177824</title>
<path fill="none" stroke="black" d="M849.26,-395.33C862.39,-389.5 878.9,-382.16 893.47,-375.68"/>
<polygon fill="black" stroke="black" points="894.99,-378.84 902.7,-371.58 892.14,-372.44 894.99,-378.84"/>
</g>
<!-- 139662238822096&#45;&gt;139662240659984 -->
<g id="edge25" class="edge">
<title>139662238822096&#45;&gt;139662240659984</title>
<path fill="none" stroke="black" d="M235.69,-431.28C259.12,-478.69 318.63,-579 402.64,-579 402.64,-579 402.64,-579 825.26,-579 885.87,-579 956.32,-576.02 997.99,-573.95"/>
<polygon fill="black" stroke="black" points="998.38,-577.44 1008.19,-573.43 998.03,-570.44 998.38,-577.44"/>
</g>
<!-- 139662238822096&#45;&gt;139662217094752 -->
<g id="edge26" class="edge">
<title>139662238822096&#45;&gt;139662217094752</title>
<path fill="none" stroke="black" d="M236.88,-383.08C253.04,-351.5 281.44,-295.98 298.5,-262.63"/>
<polygon fill="black" stroke="black" points="301.76,-263.94 303.2,-253.45 295.53,-260.76 301.76,-263.94"/>
</g>
<!-- 139662217166928&#45;&gt;139662217180560 -->
<g id="edge27" class="edge">
<title>139662217166928&#45;&gt;139662217180560</title>
<path fill="none" stroke="black" d="M625.89,-455.05C633.69,-455.96 642.58,-457.01 651.61,-458.07"/>
<polygon fill="black" stroke="black" points="651.46,-461.58 661.8,-459.27 652.28,-454.62 651.46,-461.58"/>
</g>
<!-- 139662217171776&#45;&gt;139662217168224 -->
<g id="edge28" class="edge">
<title>139662217171776&#45;&gt;139662217168224</title>
<path fill="none" stroke="black" d="M1061.23,-453.05C1069.66,-450.37 1079.25,-447.32 1088.36,-444.42"/>
<polygon fill="black" stroke="black" points="1089.51,-447.73 1097.97,-441.36 1087.38,-441.06 1089.51,-447.73"/>
</g>
<!-- 139662217176480&#45;&gt;139662217167600 -->
<g id="edge29" class="edge">
<title>139662217176480&#45;&gt;139662217167600</title>
<path fill="none" stroke="black" d="M851.11,-473.75C859.02,-472.45 868.03,-470.97 877.04,-469.49"/>
<polygon fill="black" stroke="black" points="877.85,-472.91 887.15,-467.83 876.71,-466 877.85,-472.91"/>
</g>
<!-- 139662217177440&#45;&gt;139662217169904 -->
<g id="edge30" class="edge">
<title>139662217177440&#45;&gt;139662217169904</title>
<path fill="none" stroke="black" d="M626.17,-525.18C634.89,-525.58 644.97,-526.03 655.05,-526.49"/>
<polygon fill="black" stroke="black" points="654.94,-529.99 665.09,-526.94 655.25,-523 654.94,-529.99"/>
</g>
<!-- 139662217176384&#45;&gt;139662217168224 -->
<g id="edge31" class="edge">
<title>139662217176384&#45;&gt;139662217168224</title>
<path fill="none" stroke="black" d="M956.77,-523.15C984.47,-521.26 1028.84,-515.33 1062.25,-497 1079.09,-487.76 1094.19,-472.41 1105.27,-459.07"/>
<polygon fill="black" stroke="black" points="1108.13,-461.09 1111.62,-451.09 1102.65,-456.73 1108.13,-461.09"/>
</g>
<!-- 139662217179360&#45;&gt;139662217177872 -->
<g id="edge32" class="edge">
<title>139662217179360&#45;&gt;139662217177872</title>
<path fill="none" stroke="black" d="M1420.56,-312.26C1429.09,-308.84 1439.02,-304.86 1448.94,-300.89"/>
<polygon fill="black" stroke="black" points="1450.42,-304.07 1458.4,-297.1 1447.82,-297.57 1450.42,-304.07"/>
</g>
<!-- 139662217174272&#45;&gt;139662217179840 -->
<g id="edge33" class="edge">
<title>139662217174272&#45;&gt;139662217179840</title>
<path fill="none" stroke="black" d="M1634.89,-282.95C1643.33,-285.63 1652.92,-288.68 1662.02,-291.58"/>
<polygon fill="black" stroke="black" points="1661.05,-294.94 1671.64,-294.64 1663.17,-288.27 1661.05,-294.94"/>
</g>
<!-- 139662217174272&#45;&gt;139662217095136 -->
<g id="edge34" class="edge">
<title>139662217174272&#45;&gt;139662217095136</title>
<path fill="none" stroke="black" d="M1629.44,-256.8C1641.63,-245.44 1657.5,-230.66 1670.89,-218.18"/>
<polygon fill="black" stroke="black" points="1673.51,-220.53 1678.44,-211.15 1668.74,-215.4 1673.51,-220.53"/>
</g>
<!-- 139662241456272&#45;&gt;139662240656240 -->
<g id="edge35" class="edge">
<title>139662241456272&#45;&gt;139662240656240</title>
<path fill="none" stroke="black" d="M1816.32,-309C1824.31,-309 1833.22,-309 1841.74,-309"/>
<polygon fill="black" stroke="black" points="1841.83,-312.5 1851.83,-309 1841.83,-305.5 1841.83,-312.5"/>
</g>
<!-- 139662217090768&#45;&gt;139662241449216 -->
<g id="edge36" class="edge">
<title>139662217090768&#45;&gt;139662241449216</title>
<path fill="none" stroke="black" d="M377.95,-63.91C366.73,-67.5 353.18,-71.22 340.64,-73 282.27,-81.3 214.13,-75.89 170.63,-70.56"/>
<polygon fill="black" stroke="black" points="171.02,-67.08 160.66,-69.28 170.14,-74.02 171.02,-67.08"/>
</g>
<!-- 139662217085824&#45;&gt;139662217095136 -->
<g id="edge38" class="edge">
<title>139662217085824&#45;&gt;139662217095136</title>
<path fill="none" stroke="black" d="M249.36,-28.51C283.43,-17.59 346.93,0 402.64,0 402.64,0 402.64,0 1503.08,0 1596.08,0 1660.6,-112.37 1685.95,-165.63"/>
<polygon fill="black" stroke="black" points="1682.84,-167.24 1690.22,-174.84 1689.19,-164.3 1682.84,-167.24"/>
</g>
<!-- 139662217085824&#45;&gt;139662217091296 -->
<g id="edge37" class="edge">
<title>139662217085824&#45;&gt;139662217091296</title>
<path fill="none" stroke="black" d="M250.57,-39.65C258.73,-40.49 267.9,-41.42 276.63,-42.32"/>
<polygon fill="black" stroke="black" points="276.29,-45.8 286.59,-43.34 277,-38.84 276.29,-45.8"/>
</g>
</g>
</svg>
