<?xml version="1.0" encoding="UTF-8" standalone="no"?>
<!DOCTYPE svg PUBLIC "-//W3C//DTD SVG 1.1//EN"
 "http://www.w3.org/Graphics/SVG/1.1/DTD/svg11.dtd">
<!-- Generated by graphviz version 2.48.0 (0)
 -->
<!-- Title: imdf_net_1720370178.0115578 Pages: 1 -->
<svg width="1997pt" height="610pt"
 viewBox="0.00 0.00 1996.61 610.00" xmlns="http://www.w3.org/2000/svg" xmlns:xlink="http://www.w3.org/1999/xlink">
<g id="graph0" class="graph" transform="scale(1 1) rotate(0) translate(4 606)">
<title>imdf_net_1720370178.0115578</title>
<polygon fill="white" stroke="transparent" points="-4,4 -4,-606 1992.61,-606 1992.61,4 -4,4"/>
<!-- 139662217098496 -->
<g id="node1" class="node">
<title>139662217098496</title>
<polygon fill="black" stroke="black" points="1046.94,-588 992.94,-588 992.94,-552 1046.94,-552 1046.94,-588"/>
</g>
<!-- 139662240659984 -->
<g id="node43" class="node">
<title>139662240659984</title>
<ellipse fill="white" stroke="black" cx="1773.61" cy="-337" rx="27" ry="27"/>
</g>
<!-- 139662217098496&#45;&gt;139662240659984 -->
<g id="edge44" class="edge">
<title>139662217098496&#45;&gt;139662240659984</title>
<path fill="none" stroke="black" d="M1047.14,-561.29C1081.57,-550.63 1144.08,-534 1198.94,-534 1198.94,-534 1198.94,-534 1594.61,-534 1655.29,-534 1669.79,-506.9 1710.61,-462 1734.34,-435.9 1751.13,-399.05 1761.2,-372.12"/>
<polygon fill="black" stroke="black" points="1764.5,-373.28 1764.61,-362.69 1757.92,-370.9 1764.5,-373.28"/>
</g>
<!-- 139662241449216 -->
<g id="node2" class="node">
<title>139662241449216</title>
<polygon fill="white" stroke="black" points="520.46,-172 450.18,-172 450.18,-136 520.46,-136 520.46,-172"/>
<text text-anchor="middle" x="485.32" y="-150.4" font-family="Times,serif" font-size="12.00">Leucocytes</text>
</g>
<!-- 139662217090288 -->
<g id="node45" class="node">
<title>139662217090288</title>
<ellipse fill="white" stroke="black" cx="583.64" cy="-145" rx="27" ry="27"/>
</g>
<!-- 139662241449216&#45;&gt;139662217090288 -->
<g id="edge6" class="edge">
<title>139662241449216&#45;&gt;139662217090288</title>
<path fill="none" stroke="black" d="M520.55,-150.8C529.01,-150.01 538.09,-149.16 546.63,-148.36"/>
<polygon fill="black" stroke="black" points="547.07,-151.84 556.7,-147.42 546.41,-144.87 547.07,-151.84"/>
</g>
<!-- 139662217170048 -->
<g id="node3" class="node">
<title>139662217170048</title>
<polygon fill="black" stroke="black" points="512.32,-345 458.32,-345 458.32,-309 512.32,-309 512.32,-345"/>
</g>
<!-- 139662217167168 -->
<g id="node33" class="node">
<title>139662217167168</title>
<ellipse fill="white" stroke="black" cx="583.64" cy="-327" rx="27" ry="27"/>
</g>
<!-- 139662217170048&#45;&gt;139662217167168 -->
<g id="edge49" class="edge">
<title>139662217170048&#45;&gt;139662217167168</title>
<path fill="none" stroke="black" d="M512.39,-327C522.88,-327 535.16,-327 546.49,-327"/>
<polygon fill="black" stroke="black" points="546.55,-330.5 556.55,-327 546.55,-323.5 546.55,-330.5"/>
</g>
<!-- 139662217173120 -->
<g id="node36" class="node">
<title>139662217173120</title>
<ellipse fill="white" stroke="black" cx="583.64" cy="-399" rx="27" ry="27"/>
</g>
<!-- 139662217170048&#45;&gt;139662217173120 -->
<g id="edge50" class="edge">
<title>139662217170048&#45;&gt;139662217173120</title>
<path fill="none" stroke="black" d="M510.63,-345.17C523.64,-354.9 539.76,-366.95 553.45,-377.18"/>
<polygon fill="black" stroke="black" points="551.51,-380.1 561.61,-383.28 555.7,-374.49 551.51,-380.1"/>
</g>
<!-- 139662217180800 -->
<g id="node39" class="node">
<title>139662217180800</title>
<ellipse fill="white" stroke="black" cx="583.64" cy="-255" rx="27" ry="27"/>
</g>
<!-- 139662217170048&#45;&gt;139662217180800 -->
<g id="edge51" class="edge">
<title>139662217170048&#45;&gt;139662217180800</title>
<path fill="none" stroke="black" d="M510.63,-308.83C523.64,-299.1 539.76,-287.05 553.45,-276.82"/>
<polygon fill="black" stroke="black" points="555.7,-279.51 561.61,-270.72 551.51,-273.9 555.7,-279.51"/>
</g>
<!-- 139662217172736 -->
<g id="node4" class="node">
<title>139662217172736</title>
<polygon fill="white" stroke="black" points="746.11,-417 646.48,-417 646.48,-381 746.11,-381 746.11,-417"/>
<text text-anchor="middle" x="696.3" y="-395.4" font-family="Times,serif" font-size="12.00">ER Sepsis Triage</text>
</g>
<!-- 139662217180560 -->
<g id="node38" class="node">
<title>139662217180560</title>
<ellipse fill="white" stroke="black" cx="808.95" cy="-399" rx="27" ry="27"/>
</g>
<!-- 139662217172736&#45;&gt;139662217180560 -->
<g id="edge1" class="edge">
<title>139662217172736&#45;&gt;139662217180560</title>
<path fill="none" stroke="black" d="M746.15,-399C754.69,-399 763.43,-399 771.55,-399"/>
<polygon fill="black" stroke="black" points="771.81,-402.5 781.81,-399 771.81,-395.5 771.81,-402.5"/>
</g>
<!-- 139662217179648 -->
<g id="node5" class="node">
<title>139662217179648</title>
<polygon fill="white" stroke="black" points="1530.44,-403 1443.11,-403 1443.11,-367 1530.44,-367 1530.44,-403"/>
<text text-anchor="middle" x="1486.77" y="-381.4" font-family="Times,serif" font-size="12.00">Admission NC</text>
</g>
<!-- 139662217177776 -->
<g id="node42" class="node">
<title>139662217177776</title>
<ellipse fill="white" stroke="black" cx="1593.61" cy="-361" rx="27" ry="27"/>
</g>
<!-- 139662217179648&#45;&gt;139662217177776 -->
<g id="edge2" class="edge">
<title>139662217179648&#45;&gt;139662217177776</title>
<path fill="none" stroke="black" d="M1530.72,-375.17C1539.48,-373.16 1548.61,-371.07 1557.08,-369.13"/>
<polygon fill="black" stroke="black" points="1558.05,-372.5 1567.02,-366.86 1556.49,-365.68 1558.05,-372.5"/>
</g>
<!-- 139662217171728 -->
<g id="node6" class="node">
<title>139662217171728</title>
<polygon fill="black" stroke="black" points="1136.94,-364 1082.94,-364 1082.94,-328 1136.94,-328 1136.94,-364"/>
</g>
<!-- 139662217180032 -->
<g id="node32" class="node">
<title>139662217180032</title>
<ellipse fill="white" stroke="black" cx="1199.94" cy="-411" rx="27" ry="27"/>
</g>
<!-- 139662217171728&#45;&gt;139662217180032 -->
<g id="edge47" class="edge">
<title>139662217171728&#45;&gt;139662217180032</title>
<path fill="none" stroke="black" d="M1135.45,-364.11C1146.07,-371.95 1158.59,-381.19 1169.69,-389.39"/>
<polygon fill="black" stroke="black" points="1167.72,-392.29 1177.84,-395.42 1171.88,-386.66 1167.72,-392.29"/>
</g>
<!-- 139662217180176 -->
<g id="node7" class="node">
<title>139662217180176</title>
<polygon fill="black" stroke="black" points="941.45,-361 887.45,-361 887.45,-325 941.45,-325 941.45,-361"/>
</g>
<!-- 139662217180176&#45;&gt;139662217167168 -->
<g id="edge42" class="edge">
<title>139662217180176&#45;&gt;139662217167168</title>
<path fill="none" stroke="black" d="M887.37,-341.73C828.97,-338.89 687.6,-332.01 620.78,-328.76"/>
<polygon fill="black" stroke="black" points="620.87,-325.26 610.72,-328.27 620.53,-332.25 620.87,-325.26"/>
</g>
<!-- 139662217170576 -->
<g id="node8" class="node">
<title>139662217170576</title>
<polygon fill="white" stroke="black" points="956.94,-416 871.96,-416 871.96,-380 956.94,-380 956.94,-416"/>
<text text-anchor="middle" x="914.45" y="-394.4" font-family="Times,serif" font-size="12.00">IV Antibiotics</text>
</g>
<!-- 139662217176864 -->
<g id="node37" class="node">
<title>139662217176864</title>
<ellipse fill="white" stroke="black" cx="1019.94" cy="-373" rx="27" ry="27"/>
</g>
<!-- 139662217170576&#45;&gt;139662217176864 -->
<g id="edge7" class="edge">
<title>139662217170576&#45;&gt;139662217176864</title>
<path fill="none" stroke="black" d="M956.95,-387.98C965.84,-385.83 975.15,-383.58 983.78,-381.49"/>
<polygon fill="black" stroke="black" points="984.62,-384.89 993.52,-379.14 982.98,-378.09 984.62,-384.89"/>
</g>
<!-- 139662240659744 -->
<g id="node9" class="node">
<title>139662240659744</title>
<polygon fill="black" stroke="black" points="144,-482 90,-482 90,-446 144,-446 144,-482"/>
</g>
<!-- 139662240660080 -->
<g id="node35" class="node">
<title>139662240660080</title>
<ellipse fill="white" stroke="black" cx="207" cy="-464" rx="27" ry="27"/>
</g>
<!-- 139662240659744&#45;&gt;139662240660080 -->
<g id="edge57" class="edge">
<title>139662240659744&#45;&gt;139662240660080</title>
<path fill="none" stroke="black" d="M144.4,-464C152.39,-464 161.31,-464 169.82,-464"/>
<polygon fill="black" stroke="black" points="169.92,-467.5 179.92,-464 169.92,-460.5 169.92,-467.5"/>
</g>
<!-- 139662217099936 -->
<g id="node10" class="node">
<title>139662217099936</title>
<polygon fill="white" stroke="black" points="516.98,-118 453.66,-118 453.66,-82 516.98,-82 516.98,-118"/>
<text text-anchor="middle" x="485.32" y="-96.4" font-family="Times,serif" font-size="12.00">IV Liquid</text>
</g>
<!-- 139662217094944 -->
<g id="node30" class="node">
<title>139662217094944</title>
<ellipse fill="white" stroke="black" cx="1199.94" cy="-89" rx="27" ry="27"/>
</g>
<!-- 139662217099936&#45;&gt;139662217094944 -->
<g id="edge5" class="edge">
<title>139662217099936&#45;&gt;139662217094944</title>
<path fill="none" stroke="black" d="M517.1,-97.6C557.84,-94.65 631.91,-90 695.3,-90 695.3,-90 695.3,-90 1020.94,-90 1070.02,-90 1126.72,-89.62 1162.68,-89.32"/>
<polygon fill="black" stroke="black" points="1162.73,-92.82 1172.7,-89.24 1162.67,-85.82 1162.73,-92.82"/>
</g>
<!-- 139662217101232 -->
<g id="node11" class="node">
<title>139662217101232</title>
<polygon fill="white" stroke="black" points="520.13,-527 450.51,-527 450.51,-491 520.13,-491 520.13,-527"/>
<text text-anchor="middle" x="485.32" y="-505.4" font-family="Times,serif" font-size="12.00">LacticAcid</text>
</g>
<!-- 139662217091248 -->
<g id="node28" class="node">
<title>139662217091248</title>
<ellipse fill="white" stroke="black" cx="583.64" cy="-509" rx="27" ry="27"/>
</g>
<!-- 139662217101232&#45;&gt;139662217091248 -->
<g id="edge3" class="edge">
<title>139662217101232&#45;&gt;139662217091248</title>
<path fill="none" stroke="black" d="M520.01,-509C528.49,-509 537.64,-509 546.25,-509"/>
<polygon fill="black" stroke="black" points="546.41,-512.5 556.41,-509 546.41,-505.5 546.41,-512.5"/>
</g>
<!-- 139662217087552 -->
<g id="node12" class="node">
<title>139662217087552</title>
<polygon fill="black" stroke="black" points="324,-300 270,-300 270,-264 324,-264 324,-300"/>
</g>
<!-- 139662217089568 -->
<g id="node25" class="node">
<title>139662217089568</title>
<ellipse fill="white" stroke="black" cx="387" cy="-93" rx="27" ry="27"/>
</g>
<!-- 139662217087552&#45;&gt;139662217089568 -->
<g id="edge52" class="edge">
<title>139662217087552&#45;&gt;139662217089568</title>
<path fill="none" stroke="black" d="M303.74,-263.93C313.39,-234.64 334.34,-175.4 360,-129 361.24,-126.76 362.6,-124.49 364.02,-122.24"/>
<polygon fill="black" stroke="black" points="367.05,-124.01 369.72,-113.76 361.24,-120.11 367.05,-124.01"/>
</g>
<!-- 139662217096912 -->
<g id="node27" class="node">
<title>139662217096912</title>
<ellipse fill="white" stroke="black" cx="387" cy="-509" rx="27" ry="27"/>
</g>
<!-- 139662217087552&#45;&gt;139662217096912 -->
<g id="edge53" class="edge">
<title>139662217087552&#45;&gt;139662217096912</title>
<path fill="none" stroke="black" d="M305.05,-300.19C319.7,-337.99 353.65,-425.55 372.6,-474.43"/>
<polygon fill="black" stroke="black" points="369.41,-475.89 376.29,-483.95 375.94,-473.36 369.41,-475.89"/>
</g>
<!-- 139662217088608 -->
<g id="node29" class="node">
<title>139662217088608</title>
<ellipse fill="white" stroke="black" cx="387" cy="-165" rx="27" ry="27"/>
</g>
<!-- 139662217087552&#45;&gt;139662217088608 -->
<g id="edge54" class="edge">
<title>139662217087552&#45;&gt;139662217088608</title>
<path fill="none" stroke="black" d="M311.56,-263.98C325.43,-245.53 347.23,-216.55 363.66,-194.7"/>
<polygon fill="black" stroke="black" points="366.67,-196.52 369.89,-186.42 361.08,-192.31 366.67,-196.52"/>
</g>
<!-- 139662217171584 -->
<g id="node31" class="node">
<title>139662217171584</title>
<ellipse fill="white" stroke="black" cx="387" cy="-327" rx="27" ry="27"/>
</g>
<!-- 139662217087552&#45;&gt;139662217171584 -->
<g id="edge55" class="edge">
<title>139662217087552&#45;&gt;139662217171584</title>
<path fill="none" stroke="black" d="M324.4,-295.5C333.61,-300.21 344.05,-305.55 353.68,-310.47"/>
<polygon fill="black" stroke="black" points="352.11,-313.6 362.61,-315.04 355.3,-307.37 352.11,-313.6"/>
</g>
<!-- 139662217086832 -->
<g id="node44" class="node">
<title>139662217086832</title>
<ellipse fill="white" stroke="black" cx="387" cy="-237" rx="27" ry="27"/>
</g>
<!-- 139662217087552&#45;&gt;139662217086832 -->
<g id="edge56" class="edge">
<title>139662217087552&#45;&gt;139662217086832</title>
<path fill="none" stroke="black" d="M324.4,-268.5C333.61,-263.79 344.05,-258.45 353.68,-253.53"/>
<polygon fill="black" stroke="black" points="355.3,-256.63 362.61,-248.96 352.11,-250.4 355.3,-256.63"/>
</g>
<!-- 139662217094080 -->
<g id="node13" class="node">
<title>139662217094080</title>
<polygon fill="black" stroke="black" points="1890.61,-355 1836.61,-355 1836.61,-319 1890.61,-319 1890.61,-355"/>
</g>
<!-- 139662238824448 -->
<g id="node46" class="node">
<title>139662238824448</title>
<ellipse fill="white" stroke="black" cx="1957.61" cy="-337" rx="27" ry="27"/>
<ellipse fill="none" stroke="black" cx="1957.61" cy="-337" rx="31" ry="31"/>
<text text-anchor="start" x="1945.61" y="-327.4" font-family="Times,serif" font-size="32.00">■</text>
</g>
<!-- 139662217094080&#45;&gt;139662238824448 -->
<g id="edge58" class="edge">
<title>139662217094080&#45;&gt;139662238824448</title>
<path fill="none" stroke="black" d="M1890.73,-337C1898.74,-337 1907.76,-337 1916.49,-337"/>
<polygon fill="black" stroke="black" points="1916.53,-340.5 1926.53,-337 1916.53,-333.5 1916.53,-340.5"/>
</g>
<!-- 139662217091392 -->
<g id="node14" class="node">
<title>139662217091392</title>
<polygon fill="black" stroke="black" points="723.3,-565 669.3,-565 669.3,-529 723.3,-529 723.3,-565"/>
</g>
<!-- 139662217091392&#45;&gt;139662217096912 -->
<g id="edge40" class="edge">
<title>139662217091392&#45;&gt;139662217096912</title>
<path fill="none" stroke="black" d="M669.02,-549.24C623.57,-552.36 527.7,-555.63 450,-536 440.12,-533.5 429.8,-529.59 420.49,-525.52"/>
<polygon fill="black" stroke="black" points="421.76,-522.25 411.21,-521.26 418.84,-528.61 421.76,-522.25"/>
</g>
<!-- 139662217168320 -->
<g id="node15" class="node">
<title>139662217168320</title>
<polygon fill="black" stroke="black" points="1136.94,-447 1082.94,-447 1082.94,-411 1136.94,-411 1136.94,-447"/>
</g>
<!-- 139662217168320&#45;&gt;139662217180032 -->
<g id="edge41" class="edge">
<title>139662217168320&#45;&gt;139662217180032</title>
<path fill="none" stroke="black" d="M1137.34,-423.6C1145.5,-421.93 1154.61,-420.07 1163.28,-418.29"/>
<polygon fill="black" stroke="black" points="1164.07,-421.71 1173.16,-416.27 1162.66,-414.85 1164.07,-421.71"/>
</g>
<!-- 139662217175616 -->
<g id="node16" class="node">
<title>139662217175616</title>
<polygon fill="white" stroke="black" points="728.94,-316 663.65,-316 663.65,-280 728.94,-280 728.94,-316"/>
<text text-anchor="middle" x="696.3" y="-294.4" font-family="Times,serif" font-size="12.00">ER Triage</text>
</g>
<!-- 139662217169856 -->
<g id="node34" class="node">
<title>139662217169856</title>
<ellipse fill="white" stroke="black" cx="808.95" cy="-289" rx="27" ry="27"/>
</g>
<!-- 139662217175616&#45;&gt;139662217169856 -->
<g id="edge9" class="edge">
<title>139662217175616&#45;&gt;139662217169856</title>
<path fill="none" stroke="black" d="M729.01,-295.42C742.34,-294.34 757.93,-293.07 771.71,-291.95"/>
<polygon fill="black" stroke="black" points="772.15,-295.42 781.84,-291.12 771.58,-288.45 772.15,-295.42"/>
</g>
<!-- 139662217094224 -->
<g id="node17" class="node">
<title>139662217094224</title>
<polygon fill="black" stroke="black" points="723.3,-208 669.3,-208 669.3,-172 723.3,-172 723.3,-208"/>
</g>
<!-- 139662217094224&#45;&gt;139662217086832 -->
<g id="edge45" class="edge">
<title>139662217094224&#45;&gt;139662217086832</title>
<path fill="none" stroke="black" d="M669.1,-194.01C614.16,-202.41 486.79,-221.89 424.13,-231.47"/>
<polygon fill="black" stroke="black" points="423.29,-228.06 413.94,-233.03 424.35,-234.98 423.29,-228.06"/>
</g>
<!-- 139662217175760 -->
<g id="node18" class="node">
<title>139662217175760</title>
<polygon fill="black" stroke="black" points="1316.94,-429 1262.94,-429 1262.94,-393 1316.94,-393 1316.94,-429"/>
</g>
<!-- 139662217167456 -->
<g id="node41" class="node">
<title>139662217167456</title>
<ellipse fill="white" stroke="black" cx="1379.94" cy="-411" rx="27" ry="27"/>
</g>
<!-- 139662217175760&#45;&gt;139662217167456 -->
<g id="edge10" class="edge">
<title>139662217175760&#45;&gt;139662217167456</title>
<path fill="none" stroke="black" d="M1317.34,-411C1325.33,-411 1334.25,-411 1342.77,-411"/>
<polygon fill="black" stroke="black" points="1342.86,-414.5 1352.86,-411 1342.86,-407.5 1342.86,-414.5"/>
</g>
<!-- 139662217181520 -->
<g id="node19" class="node">
<title>139662217181520</title>
<polygon fill="black" stroke="black" points="1710.61,-453 1656.61,-453 1656.61,-417 1710.61,-417 1710.61,-453"/>
</g>
<!-- 139662217181520&#45;&gt;139662217167456 -->
<g id="edge43" class="edge">
<title>139662217181520&#45;&gt;139662217167456</title>
<path fill="none" stroke="black" d="M1656.58,-432.93C1602.64,-428.64 1478.54,-418.76 1416.96,-413.87"/>
<polygon fill="black" stroke="black" points="1417.17,-410.37 1406.92,-413.07 1416.61,-417.35 1417.17,-410.37"/>
</g>
<!-- 139662217092832 -->
<g id="node20" class="node">
<title>139662217092832</title>
<polygon fill="white" stroke="black" points="512.32,-64 458.32,-64 458.32,-28 512.32,-28 512.32,-64"/>
<text text-anchor="middle" x="485.32" y="-42.4" font-family="Times,serif" font-size="12.00">CRP</text>
</g>
<!-- 139662217086880 -->
<g id="node26" class="node">
<title>139662217086880</title>
<ellipse fill="white" stroke="black" cx="207" cy="-38" rx="27" ry="27"/>
</g>
<!-- 139662217092832&#45;&gt;139662217086880 -->
<g id="edge8" class="edge">
<title>139662217092832&#45;&gt;139662217086880</title>
<path fill="none" stroke="black" d="M458.19,-45.24C408.61,-43.81 300.8,-40.69 244.26,-39.05"/>
<polygon fill="black" stroke="black" points="244.09,-35.54 234,-38.75 243.89,-42.54 244.09,-35.54"/>
</g>
<!-- 139662217098352 -->
<g id="node21" class="node">
<title>139662217098352</title>
<polygon fill="black" stroke="black" points="1710.61,-271 1656.61,-271 1656.61,-235 1710.61,-235 1710.61,-271"/>
</g>
<!-- 139662217098352&#45;&gt;139662240659984 -->
<g id="edge48" class="edge">
<title>139662217098352&#45;&gt;139662240659984</title>
<path fill="none" stroke="black" d="M1703.7,-271.23C1716.16,-283.11 1732.58,-298.79 1746.27,-311.86"/>
<polygon fill="black" stroke="black" points="1743.9,-314.44 1753.55,-318.81 1748.73,-309.37 1743.9,-314.44"/>
</g>
<!-- 139662217096816 -->
<g id="node22" class="node">
<title>139662217096816</title>
<polygon fill="black" stroke="black" points="324,-106 270,-106 270,-70 324,-70 324,-106"/>
</g>
<!-- 139662217096816&#45;&gt;139662217089568 -->
<g id="edge39" class="edge">
<title>139662217096816&#45;&gt;139662217089568</title>
<path fill="none" stroke="black" d="M324.4,-89.5C332.39,-89.95 341.31,-90.46 349.82,-90.94"/>
<polygon fill="black" stroke="black" points="349.74,-94.45 359.92,-91.52 350.13,-87.46 349.74,-94.45"/>
</g>
<!-- 139662217174128 -->
<g id="node23" class="node">
<title>139662217174128</title>
<polygon fill="white" stroke="black" points="742.79,-262 649.81,-262 649.81,-226 742.79,-226 742.79,-262"/>
<text text-anchor="middle" x="696.3" y="-240.4" font-family="Times,serif" font-size="12.00">ER Registration</text>
</g>
<!-- 139662217169328 -->
<g id="node40" class="node">
<title>139662217169328</title>
<ellipse fill="white" stroke="black" cx="914.45" cy="-236" rx="27" ry="27"/>
</g>
<!-- 139662217174128&#45;&gt;139662217169328 -->
<g id="edge4" class="edge">
<title>139662217174128&#45;&gt;139662217169328</title>
<path fill="none" stroke="black" d="M742.87,-242.31C782.78,-240.84 840.01,-238.72 876.96,-237.35"/>
<polygon fill="black" stroke="black" points="877.4,-240.84 887.27,-236.97 877.14,-233.84 877.4,-240.84"/>
</g>
<!-- 139662239254528 -->
<g id="node24" class="node">
<title>139662239254528</title>
<ellipse fill="white" stroke="black" cx="27" cy="-464" rx="27" ry="27"/>
<text text-anchor="start" x="14.25" y="-453.8" font-family="Times,serif" font-size="34.00">●</text>
</g>
<!-- 139662239254528&#45;&gt;139662240659744 -->
<g id="edge46" class="edge">
<title>139662239254528&#45;&gt;139662240659744</title>
<path fill="none" stroke="black" d="M54.4,-464C62.39,-464 71.31,-464 79.82,-464"/>
<polygon fill="black" stroke="black" points="79.92,-467.5 89.92,-464 79.92,-460.5 79.92,-467.5"/>
</g>
<!-- 139662217089568&#45;&gt;139662217092832 -->
<g id="edge11" class="edge">
<title>139662217089568&#45;&gt;139662217092832</title>
<path fill="none" stroke="black" d="M411.81,-81.38C423,-75.92 436.56,-69.3 448.92,-63.27"/>
<polygon fill="black" stroke="black" points="450.62,-66.34 458.08,-58.81 447.55,-60.05 450.62,-66.34"/>
</g>
<!-- 139662217086880&#45;&gt;139662217098352 -->
<g id="edge13" class="edge">
<title>139662217086880&#45;&gt;139662217098352</title>
<path fill="none" stroke="black" d="M232.7,-29.28C266.75,-18.06 330.23,0 386,0 386,0 386,0 1487.77,0 1600.39,0 1656.96,-159.29 1675.52,-225.09"/>
<polygon fill="black" stroke="black" points="1672.16,-226.08 1678.18,-234.8 1678.92,-224.24 1672.16,-226.08"/>
</g>
<!-- 139662217086880&#45;&gt;139662217096816 -->
<g id="edge12" class="edge">
<title>139662217086880&#45;&gt;139662217096816</title>
<path fill="none" stroke="black" d="M231.12,-51.14C240.24,-56.32 250.93,-62.39 260.96,-68.09"/>
<polygon fill="black" stroke="black" points="259.5,-71.29 269.93,-73.19 262.96,-65.2 259.5,-71.29"/>
</g>
<!-- 139662217096912&#45;&gt;139662217101232 -->
<g id="edge14" class="edge">
<title>139662217096912&#45;&gt;139662217101232</title>
<path fill="none" stroke="black" d="M414.07,-509C422.24,-509 431.5,-509 440.56,-509"/>
<polygon fill="black" stroke="black" points="440.62,-512.5 450.62,-509 440.62,-505.5 440.62,-512.5"/>
</g>
<!-- 139662217091248&#45;&gt;139662217091392 -->
<g id="edge15" class="edge">
<title>139662217091248&#45;&gt;139662217091392</title>
<path fill="none" stroke="black" d="M609.47,-517.53C624.14,-522.57 642.97,-529.03 659.25,-534.62"/>
<polygon fill="black" stroke="black" points="658.41,-538.03 669,-537.97 660.68,-531.41 658.41,-538.03"/>
</g>
<!-- 139662217091248&#45;&gt;139662217098352 -->
<g id="edge16" class="edge">
<title>139662217091248&#45;&gt;139662217098352</title>
<path fill="none" stroke="black" d="M610.72,-505.72C652.35,-500.78 736.41,-492 807.95,-492 807.95,-492 807.95,-492 1380.94,-492 1495.52,-492 1538.41,-476.83 1620.61,-397 1653.41,-365.14 1669.86,-313.08 1677.3,-281.05"/>
<polygon fill="black" stroke="black" points="1680.77,-281.53 1679.48,-271.02 1673.93,-280.04 1680.77,-281.53"/>
</g>
<!-- 139662217088608&#45;&gt;139662217099936 -->
<g id="edge17" class="edge">
<title>139662217088608&#45;&gt;139662217099936</title>
<path fill="none" stroke="black" d="M409.86,-150.25C421.42,-142.45 435.91,-132.67 449.02,-123.82"/>
<polygon fill="black" stroke="black" points="451.06,-126.67 457.39,-118.17 447.14,-120.86 451.06,-126.67"/>
</g>
<!-- 139662217094944&#45;&gt;139662217098352 -->
<g id="edge18" class="edge">
<title>139662217094944&#45;&gt;139662217098352</title>
<path fill="none" stroke="black" d="M1226.86,-91.13C1261.5,-93.79 1324.79,-98 1378.94,-98 1378.94,-98 1378.94,-98 1487.77,-98 1548.5,-98 1573.01,-92.28 1620.61,-130 1650.99,-154.08 1667.75,-196.98 1675.96,-225.21"/>
<polygon fill="black" stroke="black" points="1672.6,-226.16 1678.61,-234.89 1679.35,-224.32 1672.6,-226.16"/>
</g>
<!-- 139662217171584&#45;&gt;139662217170048 -->
<g id="edge20" class="edge">
<title>139662217171584&#45;&gt;139662217170048</title>
<path fill="none" stroke="black" d="M414.07,-327C424.56,-327 436.84,-327 448.17,-327"/>
<polygon fill="black" stroke="black" points="448.23,-330.5 458.23,-327 448.23,-323.5 448.23,-330.5"/>
</g>
<!-- 139662217171584&#45;&gt;139662217168320 -->
<g id="edge19" class="edge">
<title>139662217171584&#45;&gt;139662217168320</title>
<path fill="none" stroke="black" d="M404.61,-347.69C435.53,-383.67 505.78,-454 582.64,-454 582.64,-454 582.64,-454 915.45,-454 970.56,-454 1033.78,-443.9 1072.53,-436.54"/>
<polygon fill="black" stroke="black" points="1073.64,-439.89 1082.79,-434.55 1072.31,-433.02 1073.64,-439.89"/>
</g>
<!-- 139662217180032&#45;&gt;139662217175760 -->
<g id="edge21" class="edge">
<title>139662217180032&#45;&gt;139662217175760</title>
<path fill="none" stroke="black" d="M1227.34,-411C1235.33,-411 1244.25,-411 1252.77,-411"/>
<polygon fill="black" stroke="black" points="1252.86,-414.5 1262.86,-411 1252.86,-407.5 1252.86,-414.5"/>
</g>
<!-- 139662217167168&#45;&gt;139662217175616 -->
<g id="edge22" class="edge">
<title>139662217167168&#45;&gt;139662217175616</title>
<path fill="none" stroke="black" d="M610.03,-320.35C622.88,-316.98 638.83,-312.8 653.44,-308.97"/>
<polygon fill="black" stroke="black" points="654.5,-312.31 663.29,-306.39 652.72,-305.54 654.5,-312.31"/>
</g>
<!-- 139662217169856&#45;&gt;139662217171728 -->
<g id="edge24" class="edge">
<title>139662217169856&#45;&gt;139662217171728</title>
<path fill="none" stroke="black" d="M835.73,-293.63C865.09,-298.93 914.5,-307.92 956.94,-316 996.7,-323.58 1042.24,-332.61 1073.03,-338.77"/>
<polygon fill="black" stroke="black" points="1072.38,-342.21 1082.87,-340.75 1073.75,-335.35 1072.38,-342.21"/>
</g>
<!-- 139662217169856&#45;&gt;139662217180176 -->
<g id="edge23" class="edge">
<title>139662217169856&#45;&gt;139662217180176</title>
<path fill="none" stroke="black" d="M833.18,-301.12C846.5,-308.07 863.5,-316.94 878.42,-324.72"/>
<polygon fill="black" stroke="black" points="876.9,-327.88 887.39,-329.4 880.14,-321.67 876.9,-327.88"/>
</g>
<!-- 139662240660080&#45;&gt;139662217098496 -->
<g id="edge25" class="edge">
<title>139662240660080&#45;&gt;139662217098496</title>
<path fill="none" stroke="black" d="M222.37,-486.48C249.32,-525.58 311.51,-602 386,-602 386,-602 386,-602 809.95,-602 871.2,-602 941.39,-588.41 982.85,-578.94"/>
<polygon fill="black" stroke="black" points="983.8,-582.31 992.75,-576.63 982.21,-575.49 983.8,-582.31"/>
</g>
<!-- 139662240660080&#45;&gt;139662217087552 -->
<g id="edge26" class="edge">
<title>139662240660080&#45;&gt;139662217087552</title>
<path fill="none" stroke="black" d="M219.69,-439.83C236.01,-406.07 265.56,-344.95 282.71,-309.49"/>
<polygon fill="black" stroke="black" points="285.99,-310.74 287.19,-300.21 279.69,-307.69 285.99,-310.74"/>
</g>
<!-- 139662217173120&#45;&gt;139662217172736 -->
<g id="edge27" class="edge">
<title>139662217173120&#45;&gt;139662217172736</title>
<path fill="none" stroke="black" d="M610.86,-399C618.57,-399 627.33,-399 636.23,-399"/>
<polygon fill="black" stroke="black" points="636.27,-402.5 646.27,-399 636.27,-395.5 636.27,-402.5"/>
</g>
<!-- 139662217176864&#45;&gt;139662217171728 -->
<g id="edge28" class="edge">
<title>139662217176864&#45;&gt;139662217171728</title>
<path fill="none" stroke="black" d="M1045.92,-365.34C1054.36,-362.75 1063.94,-359.81 1073.05,-357.01"/>
<polygon fill="black" stroke="black" points="1074.14,-360.34 1082.67,-354.06 1072.08,-353.65 1074.14,-360.34"/>
</g>
<!-- 139662217180560&#45;&gt;139662217170576 -->
<g id="edge29" class="edge">
<title>139662217180560&#45;&gt;139662217170576</title>
<path fill="none" stroke="black" d="M836.07,-398.75C843.82,-398.67 852.59,-398.59 861.37,-398.5"/>
<polygon fill="black" stroke="black" points="861.67,-402 871.63,-398.4 861.6,-395 861.67,-402"/>
</g>
<!-- 139662217180800&#45;&gt;139662217174128 -->
<g id="edge30" class="edge">
<title>139662217180800&#45;&gt;139662217174128</title>
<path fill="none" stroke="black" d="M610.58,-252.42C619.3,-251.55 629.39,-250.55 639.51,-249.55"/>
<polygon fill="black" stroke="black" points="639.97,-253.02 649.58,-248.54 639.28,-246.05 639.97,-253.02"/>
</g>
<!-- 139662217169328&#45;&gt;139662217171728 -->
<g id="edge31" class="edge">
<title>139662217169328&#45;&gt;139662217171728</title>
<path fill="none" stroke="black" d="M941.02,-240.94C968.75,-247.12 1013.51,-259.6 1046.94,-281 1063.15,-291.37 1078.14,-306.85 1089.31,-320.1"/>
<polygon fill="black" stroke="black" points="1086.72,-322.46 1095.76,-327.99 1092.15,-318.03 1086.72,-322.46"/>
</g>
<!-- 139662217167456&#45;&gt;139662217179648 -->
<g id="edge32" class="edge">
<title>139662217167456&#45;&gt;139662217179648</title>
<path fill="none" stroke="black" d="M1406.32,-404.71C1414.5,-402.68 1423.9,-400.35 1433.3,-398.01"/>
<polygon fill="black" stroke="black" points="1434.18,-401.4 1443.04,-395.6 1432.5,-394.61 1434.18,-401.4"/>
</g>
<!-- 139662217177776&#45;&gt;139662217181520 -->
<g id="edge33" class="edge">
<title>139662217177776&#45;&gt;139662217181520</title>
<path fill="none" stroke="black" d="M1615.02,-378.16C1626.35,-387.69 1640.64,-399.71 1653.16,-410.24"/>
<polygon fill="black" stroke="black" points="1651.17,-413.14 1661.08,-416.9 1655.68,-407.78 1651.17,-413.14"/>
</g>
<!-- 139662217177776&#45;&gt;139662217098352 -->
<g id="edge34" class="edge">
<title>139662217177776&#45;&gt;139662217098352</title>
<path fill="none" stroke="black" d="M1611.37,-340.43C1625.53,-323.05 1645.9,-298.05 1661.23,-279.24"/>
<polygon fill="black" stroke="black" points="1664.07,-281.3 1667.67,-271.33 1658.64,-276.87 1664.07,-281.3"/>
</g>
<!-- 139662240659984&#45;&gt;139662217094080 -->
<g id="edge35" class="edge">
<title>139662240659984&#45;&gt;139662217094080</title>
<path fill="none" stroke="black" d="M1801.01,-337C1809,-337 1817.92,-337 1826.43,-337"/>
<polygon fill="black" stroke="black" points="1826.53,-340.5 1836.53,-337 1826.53,-333.5 1826.53,-340.5"/>
</g>
<!-- 139662217086832&#45;&gt;139662241449216 -->
<g id="edge36" class="edge">
<title>139662217086832&#45;&gt;139662241449216</title>
<path fill="none" stroke="black" d="M407.96,-219.8C421.75,-207.91 440.32,-191.92 455.68,-178.68"/>
<polygon fill="black" stroke="black" points="458.1,-181.22 463.39,-172.04 453.53,-175.91 458.1,-181.22"/>
</g>
<!-- 139662217090288&#45;&gt;139662217094224 -->
<g id="edge37" class="edge">
<title>139662217090288&#45;&gt;139662217094224</title>
<path fill="none" stroke="black" d="M608.92,-154.88C623.81,-160.93 643.14,-168.79 659.74,-175.54"/>
<polygon fill="black" stroke="black" points="658.56,-178.84 669.14,-179.36 661.19,-172.35 658.56,-178.84"/>
</g>
<!-- 139662217090288&#45;&gt;139662217098352 -->
<g id="edge38" class="edge">
<title>139662217090288&#45;&gt;139662217098352</title>
<path fill="none" stroke="black" d="M610.77,-144.81C652.46,-144.52 736.62,-144 807.95,-144 807.95,-144 807.95,-144 1487.77,-144 1556.06,-144 1622.63,-195.62 1657.51,-227.82"/>
<polygon fill="black" stroke="black" points="1655.19,-230.44 1664.87,-234.76 1659.99,-225.35 1655.19,-230.44"/>
</g>
</g>
</svg>
