<?xml version="1.0" encoding="UTF-8" standalone="no"?>
<!DOCTYPE svg PUBLIC "-//W3C//DTD SVG 1.1//EN"
 "http://www.w3.org/Graphics/SVG/1.1/DTD/svg11.dtd">
<!-- Generated by graphviz version 2.48.0 (0)
 -->
<!-- Title: imdf_net_1720947015.1096346 Pages: 1 -->
<svg width="2555pt" height="544pt"
 viewBox="0.00 0.00 2555.00 544.00" xmlns="http://www.w3.org/2000/svg" xmlns:xlink="http://www.w3.org/1999/xlink">
<g id="graph0" class="graph" transform="scale(1 1) rotate(0) translate(4 540)">
<title>imdf_net_1720947015.1096346</title>
<polygon fill="white" stroke="transparent" points="-4,4 -4,-540 2551,-540 2551,4 -4,4"/>
<!-- 140325814172416 -->
<g id="node1" class="node">
<title>140325814172416</title>
<polygon fill="white" stroke="black" points="380,-78 303,-78 303,-42 380,-42 380,-78"/>
<text text-anchor="middle" x="341.5" y="-56.9" font-family="Times,serif" font-size="12.00">Send Fine</text>
</g>
<!-- 140325814171408 -->
<g id="node42" class="node">
<title>140325814171408</title>
<ellipse fill="white" stroke="black" cx="1159" cy="-69" rx="27" ry="27"/>
</g>
<!-- 140325814172416&#45;&gt;140325814171408 -->
<g id="edge11" class="edge">
<title>140325814172416&#45;&gt;140325814171408</title>
<path fill="none" stroke="black" d="M380.24,-59.14C435.26,-57.97 540.74,-56 630.5,-56 630.5,-56 630.5,-56 821,-56 930.59,-56 1060.08,-62.95 1121.78,-66.69"/>
<polygon fill="black" stroke="black" points="1121.6,-70.18 1131.8,-67.3 1122.03,-63.19 1121.6,-70.18"/>
</g>
<!-- 140325814170496 -->
<g id="node2" class="node">
<title>140325814170496</title>
<polygon fill="black" stroke="black" points="1470,-36 1416,-36 1416,0 1470,0 1470,-36"/>
</g>
<!-- 140325814169440 -->
<g id="node40" class="node">
<title>140325814169440</title>
<ellipse fill="white" stroke="black" cx="1658" cy="-67" rx="27" ry="27"/>
</g>
<!-- 140325814170496&#45;&gt;140325814169440 -->
<g id="edge43" class="edge">
<title>140325814170496&#45;&gt;140325814169440</title>
<path fill="none" stroke="black" d="M1470.09,-19.69C1500.54,-22.14 1552.2,-27.8 1595,-40 1604.8,-42.79 1615.09,-46.8 1624.4,-50.87"/>
<polygon fill="black" stroke="black" points="1623.14,-54.15 1633.7,-55.09 1626.04,-47.77 1623.14,-54.15"/>
</g>
<!-- 140325814272896 -->
<g id="node3" class="node">
<title>140325814272896</title>
<polygon fill="black" stroke="black" points="1328,-250 1274,-250 1274,-214 1328,-214 1328,-250"/>
</g>
<!-- 140325814171024 -->
<g id="node41" class="node">
<title>140325814171024</title>
<ellipse fill="white" stroke="black" cx="1443" cy="-121" rx="27" ry="27"/>
</g>
<!-- 140325814272896&#45;&gt;140325814171024 -->
<g id="edge58" class="edge">
<title>140325814272896&#45;&gt;140325814171024</title>
<path fill="none" stroke="black" d="M1324.81,-213.92C1348.86,-194.85 1386.82,-164.75 1412.99,-144"/>
<polygon fill="black" stroke="black" points="1415.37,-146.58 1421.04,-137.62 1411.03,-141.09 1415.37,-146.58"/>
</g>
<!-- 140325814276736 -->
<g id="node4" class="node">
<title>140325814276736</title>
<polygon fill="black" stroke="black" points="658.5,-120 604.5,-120 604.5,-84 658.5,-84 658.5,-120"/>
</g>
<!-- 140325814275008 -->
<g id="node30" class="node">
<title>140325814275008</title>
<ellipse fill="white" stroke="black" cx="820" cy="-156" rx="27" ry="27"/>
</g>
<!-- 140325814276736&#45;&gt;140325814275008 -->
<g id="edge53" class="edge">
<title>140325814276736&#45;&gt;140325814275008</title>
<path fill="none" stroke="black" d="M658.65,-106.12C684.11,-110.5 723.74,-118.27 757,-129 766.62,-132.1 776.78,-136.17 786.03,-140.21"/>
<polygon fill="black" stroke="black" points="784.73,-143.46 795.28,-144.36 787.59,-137.07 784.73,-143.46"/>
</g>
<!-- 140325814279424 -->
<g id="node5" class="node">
<title>140325814279424</title>
<polygon fill="white" stroke="black" points="719.5,-174 543.5,-174 543.5,-138 719.5,-138 719.5,-174"/>
<text text-anchor="middle" x="631.5" y="-152.9" font-family="Times,serif" font-size="12.00">Send Appeal to Prefecture</text>
</g>
<!-- 140325814279424&#45;&gt;140325814275008 -->
<g id="edge3" class="edge">
<title>140325814279424&#45;&gt;140325814275008</title>
<path fill="none" stroke="black" d="M719.74,-156C741.93,-156 764.58,-156 782.62,-156"/>
<polygon fill="black" stroke="black" points="782.68,-159.5 792.68,-156 782.68,-152.5 782.68,-159.5"/>
</g>
<!-- 140325814285184 -->
<g id="node6" class="node">
<title>140325814285184</title>
<polygon fill="white" stroke="black" points="1096,-314 883,-314 883,-278 1096,-278 1096,-314"/>
<text text-anchor="middle" x="989.5" y="-292.9" font-family="Times,serif" font-size="12.00">Notify Result Appeal to Offender</text>
</g>
<!-- 140325814278656 -->
<g id="node34" class="node">
<title>140325814278656</title>
<ellipse fill="white" stroke="black" cx="1159" cy="-323" rx="27" ry="27"/>
</g>
<!-- 140325814285184&#45;&gt;140325814278656 -->
<g id="edge7" class="edge">
<title>140325814285184&#45;&gt;140325814278656</title>
<path fill="none" stroke="black" d="M1096.11,-313.02C1105.37,-314.52 1114.25,-315.95 1122.25,-317.24"/>
<polygon fill="black" stroke="black" points="1121.79,-320.71 1132.22,-318.84 1122.91,-313.8 1121.79,-320.71"/>
</g>
<!-- 140325814169872 -->
<g id="node7" class="node">
<title>140325814169872</title>
<polygon fill="white" stroke="black" points="177,-78 90,-78 90,-42 177,-42 177,-78"/>
<text text-anchor="middle" x="133.5" y="-56.9" font-family="Times,serif" font-size="12.00">Create Fine</text>
</g>
<!-- 140325814168000 -->
<g id="node39" class="node">
<title>140325814168000</title>
<ellipse fill="white" stroke="black" cx="240" cy="-60" rx="27" ry="27"/>
</g>
<!-- 140325814169872&#45;&gt;140325814168000 -->
<g id="edge1" class="edge">
<title>140325814169872&#45;&gt;140325814168000</title>
<path fill="none" stroke="black" d="M177,-60C185.51,-60 194.37,-60 202.64,-60"/>
<polygon fill="black" stroke="black" points="202.73,-63.5 212.73,-60 202.73,-56.5 202.73,-63.5"/>
</g>
<!-- 140325814172944 -->
<g id="node8" class="node">
<title>140325814172944</title>
<polygon fill="black" stroke="black" points="1328,-140 1274,-140 1274,-104 1328,-104 1328,-140"/>
</g>
<!-- 140325814172944&#45;&gt;140325814171024 -->
<g id="edge51" class="edge">
<title>140325814172944&#45;&gt;140325814171024</title>
<path fill="none" stroke="black" d="M1328,-121.81C1349.77,-121.66 1381.08,-121.44 1405.38,-121.26"/>
<polygon fill="black" stroke="black" points="1405.68,-124.76 1415.66,-121.19 1405.63,-117.76 1405.68,-124.76"/>
</g>
<!-- 140325814339728 -->
<g id="node9" class="node">
<title>140325814339728</title>
<polygon fill="black" stroke="black" points="1775,-135 1721,-135 1721,-99 1775,-99 1775,-135"/>
</g>
<!-- 140325814339296 -->
<g id="node37" class="node">
<title>140325814339296</title>
<ellipse fill="white" stroke="black" cx="1838" cy="-122" rx="27" ry="27"/>
</g>
<!-- 140325814339728&#45;&gt;140325814339296 -->
<g id="edge12" class="edge">
<title>140325814339728&#45;&gt;140325814339296</title>
<path fill="none" stroke="black" d="M1775.4,-118.5C1783.39,-118.95 1792.31,-119.46 1800.82,-119.94"/>
<polygon fill="black" stroke="black" points="1800.74,-123.45 1810.92,-120.52 1801.13,-116.46 1800.74,-123.45"/>
</g>
<!-- 140325814341264 -->
<g id="node10" class="node">
<title>140325814341264</title>
<polygon fill="white" stroke="black" points="1969,-140 1901,-140 1901,-104 1969,-104 1969,-140"/>
<text text-anchor="middle" x="1935" y="-118.9" font-family="Times,serif" font-size="12.00">Payment</text>
</g>
<!-- 140325814340448 -->
<g id="node38" class="node">
<title>140325814340448</title>
<ellipse fill="white" stroke="black" cx="2032" cy="-122" rx="27" ry="27"/>
</g>
<!-- 140325814341264&#45;&gt;140325814340448 -->
<g id="edge4" class="edge">
<title>140325814341264&#45;&gt;140325814340448</title>
<path fill="none" stroke="black" d="M1969.23,-122C1977.43,-122 1986.26,-122 1994.6,-122"/>
<polygon fill="black" stroke="black" points="1994.82,-125.5 2004.82,-122 1994.82,-118.5 1994.82,-125.5"/>
</g>
<!-- 140325814275104 -->
<g id="node11" class="node">
<title>140325814275104</title>
<polygon fill="white" stroke="black" points="757,-536 506,-536 506,-500 757,-500 757,-536"/>
<text text-anchor="middle" x="631.5" y="-514.9" font-family="Times,serif" font-size="12.00">Receive Result Appeal from Prefecture</text>
</g>
<!-- 140325814281536 -->
<g id="node32" class="node">
<title>140325814281536</title>
<ellipse fill="white" stroke="black" cx="820" cy="-473" rx="27" ry="27"/>
</g>
<!-- 140325814275104&#45;&gt;140325814281536 -->
<g id="edge10" class="edge">
<title>140325814275104&#45;&gt;140325814281536</title>
<path fill="none" stroke="black" d="M719.41,-499.95C732.06,-497.1 744.89,-494.07 757,-491 765.92,-488.74 775.5,-486.08 784.39,-483.51"/>
<polygon fill="black" stroke="black" points="785.46,-486.84 794.07,-480.66 783.49,-480.12 785.46,-486.84"/>
</g>
<!-- 140325814284320 -->
<g id="node12" class="node">
<title>140325814284320</title>
<polygon fill="black" stroke="black" points="1016.5,-431 962.5,-431 962.5,-395 1016.5,-395 1016.5,-431"/>
</g>
<!-- 140325814284320&#45;&gt;140325814278656 -->
<g id="edge55" class="edge">
<title>140325814284320&#45;&gt;140325814278656</title>
<path fill="none" stroke="black" d="M1016.85,-407.05C1038.95,-401.36 1070.85,-391.49 1096,-377 1109.04,-369.49 1121.85,-359.01 1132.41,-349.27"/>
<polygon fill="black" stroke="black" points="1134.84,-351.8 1139.68,-342.37 1130.02,-346.72 1134.84,-351.8"/>
</g>
<!-- 140325814277168 -->
<g id="node13" class="node">
<title>140325814277168</title>
<polygon fill="black" stroke="black" points="658.5,-228 604.5,-228 604.5,-192 658.5,-192 658.5,-228"/>
</g>
<!-- 140325814287152 -->
<g id="node44" class="node">
<title>140325814287152</title>
<ellipse fill="white" stroke="black" cx="820" cy="-232" rx="27" ry="27"/>
</g>
<!-- 140325814277168&#45;&gt;140325814287152 -->
<g id="edge52" class="edge">
<title>140325814277168&#45;&gt;140325814287152</title>
<path fill="none" stroke="black" d="M658.83,-213.11C691.27,-216.93 746.55,-223.45 782.93,-227.74"/>
<polygon fill="black" stroke="black" points="782.77,-231.25 793.11,-228.95 783.59,-224.3 782.77,-231.25"/>
</g>
<!-- 140325814286000 -->
<g id="node14" class="node">
<title>140325814286000</title>
<polygon fill="black" stroke="black" points="658.5,-482 604.5,-482 604.5,-446 658.5,-446 658.5,-482"/>
</g>
<!-- 140325814286000&#45;&gt;140325814281536 -->
<g id="edge54" class="edge">
<title>140325814286000&#45;&gt;140325814281536</title>
<path fill="none" stroke="black" d="M658.83,-465.27C691.18,-466.83 746.24,-469.49 782.62,-471.24"/>
<polygon fill="black" stroke="black" points="782.65,-474.75 792.81,-471.74 782.99,-467.76 782.65,-474.75"/>
</g>
<!-- 140325814171312 -->
<g id="node15" class="node">
<title>140325814171312</title>
<polygon fill="black" stroke="black" points="1865,-39 1811,-39 1811,-3 1865,-3 1865,-39"/>
</g>
<!-- 140325817267504 -->
<g id="node46" class="node">
<title>140325817267504</title>
<ellipse fill="white" stroke="black" cx="2516" cy="-67" rx="27" ry="27"/>
<ellipse fill="none" stroke="black" cx="2516" cy="-67" rx="31" ry="31"/>
<text text-anchor="start" x="2500.5" y="-58.9" font-family="Times,serif" font-size="32.00">■</text>
</g>
<!-- 140325814171312&#45;&gt;140325817267504 -->
<g id="edge46" class="edge">
<title>140325814171312&#45;&gt;140325817267504</title>
<path fill="none" stroke="black" d="M1865.09,-21C1902.02,-21 1971.67,-21 2031,-21 2031,-21 2031,-21 2213,-21 2318.23,-21 2346.65,-15.57 2449,-40 2458.74,-42.33 2468.92,-45.88 2478.28,-49.65"/>
<polygon fill="black" stroke="black" points="2477.12,-52.96 2487.69,-53.62 2479.83,-46.51 2477.12,-52.96"/>
</g>
<!-- 140325814283072 -->
<g id="node16" class="node">
<title>140325814283072</title>
<polygon fill="white" stroke="black" points="687.5,-282 575.5,-282 575.5,-246 687.5,-246 687.5,-282"/>
<text text-anchor="middle" x="631.5" y="-260.9" font-family="Times,serif" font-size="12.00">Appeal to Judge</text>
</g>
<!-- 140325814283072&#45;&gt;140325814287152 -->
<g id="edge2" class="edge">
<title>140325814283072&#45;&gt;140325814287152</title>
<path fill="none" stroke="black" d="M687.7,-254.53C718.52,-249.24 756.03,-242.81 783.05,-238.17"/>
<polygon fill="black" stroke="black" points="783.96,-241.56 793.22,-236.42 782.77,-234.67 783.96,-241.56"/>
</g>
<!-- 140325814281920 -->
<g id="node17" class="node">
<title>140325814281920</title>
<polygon fill="black" stroke="black" points="658.5,-336 604.5,-336 604.5,-300 658.5,-300 658.5,-336"/>
</g>
<!-- 140325814274624 -->
<g id="node35" class="node">
<title>140325814274624</title>
<ellipse fill="white" stroke="black" cx="820" cy="-334" rx="27" ry="27"/>
</g>
<!-- 140325814281920&#45;&gt;140325814274624 -->
<g id="edge56" class="edge">
<title>140325814281920&#45;&gt;140325814274624</title>
<path fill="none" stroke="black" d="M658.83,-320.26C691.18,-323.03 746.24,-327.76 782.62,-330.88"/>
<polygon fill="black" stroke="black" points="782.55,-334.39 792.81,-331.75 783.14,-327.41 782.55,-334.39"/>
</g>
<!-- 140325814285520 -->
<g id="node18" class="node">
<title>140325814285520</title>
<polygon fill="white" stroke="black" points="1595,-85 1506,-85 1506,-49 1595,-49 1595,-85"/>
<text text-anchor="middle" x="1550.5" y="-63.9" font-family="Times,serif" font-size="12.00">Add penalty</text>
</g>
<!-- 140325814285520&#45;&gt;140325814169440 -->
<g id="edge6" class="edge">
<title>140325814285520&#45;&gt;140325814169440</title>
<path fill="none" stroke="black" d="M1595.02,-67C1603.56,-67 1612.43,-67 1620.71,-67"/>
<polygon fill="black" stroke="black" points="1620.8,-70.5 1630.8,-67 1620.8,-63.5 1620.8,-70.5"/>
</g>
<!-- 140325814171744 -->
<g id="node19" class="node">
<title>140325814171744</title>
<polygon fill="black" stroke="black" points="368.5,-264 314.5,-264 314.5,-228 368.5,-228 368.5,-264"/>
</g>
<!-- 140325814275920 -->
<g id="node31" class="node">
<title>140325814275920</title>
<ellipse fill="white" stroke="black" cx="443" cy="-464" rx="27" ry="27"/>
</g>
<!-- 140325814171744&#45;&gt;140325814275920 -->
<g id="edge59" class="edge">
<title>140325814171744&#45;&gt;140325814275920</title>
<path fill="none" stroke="black" d="M350.81,-264.21C367.51,-300.8 405.36,-383.73 426.67,-430.42"/>
<polygon fill="black" stroke="black" points="423.62,-432.16 430.96,-439.81 429.99,-429.26 423.62,-432.16"/>
</g>
<!-- 140325814285136 -->
<g id="node33" class="node">
<title>140325814285136</title>
<ellipse fill="white" stroke="black" cx="443" cy="-345" rx="27" ry="27"/>
</g>
<!-- 140325814171744&#45;&gt;140325814285136 -->
<g id="edge60" class="edge">
<title>140325814171744&#45;&gt;140325814285136</title>
<path fill="none" stroke="black" d="M360.75,-264.16C376.26,-279.59 398.72,-301.93 416.09,-319.22"/>
<polygon fill="black" stroke="black" points="413.63,-321.71 423.19,-326.28 418.57,-316.75 413.63,-321.71"/>
</g>
<!-- 140325814276688 -->
<g id="node43" class="node">
<title>140325814276688</title>
<ellipse fill="white" stroke="black" cx="443" cy="-246" rx="27" ry="27"/>
</g>
<!-- 140325814171744&#45;&gt;140325814276688 -->
<g id="edge61" class="edge">
<title>140325814171744&#45;&gt;140325814276688</title>
<path fill="none" stroke="black" d="M368.64,-246C379.86,-246 393.17,-246 405.35,-246"/>
<polygon fill="black" stroke="black" points="405.69,-249.5 415.69,-246 405.69,-242.5 405.69,-249.5"/>
</g>
<!-- 140325814282544 -->
<g id="node45" class="node">
<title>140325814282544</title>
<ellipse fill="white" stroke="black" cx="443" cy="-156" rx="27" ry="27"/>
</g>
<!-- 140325814171744&#45;&gt;140325814282544 -->
<g id="edge62" class="edge">
<title>140325814171744&#45;&gt;140325814282544</title>
<path fill="none" stroke="black" d="M362.64,-227.79C377.57,-214.28 398.1,-195.71 414.54,-180.84"/>
<polygon fill="black" stroke="black" points="417.17,-183.18 422.23,-173.88 412.47,-177.99 417.17,-183.18"/>
</g>
<!-- 140325814281824 -->
<g id="node20" class="node">
<title>140325814281824</title>
<polygon fill="white" stroke="black" points="738,-390 525,-390 525,-354 738,-354 738,-390"/>
<text text-anchor="middle" x="631.5" y="-368.9" font-family="Times,serif" font-size="12.00">Insert Date Appeal to Prefecture</text>
</g>
<!-- 140325814281824&#45;&gt;140325814274624 -->
<g id="edge8" class="edge">
<title>140325814281824&#45;&gt;140325814274624</title>
<path fill="none" stroke="black" d="M721.11,-353.95C743.11,-349.46 765.45,-344.91 783.23,-341.29"/>
<polygon fill="black" stroke="black" points="784.03,-344.7 793.13,-339.27 782.63,-337.84 784.03,-344.7"/>
</g>
<!-- 140325814338528 -->
<g id="node21" class="node">
<title>140325814338528</title>
<polygon fill="black" stroke="black" points="1962,-85 1908,-85 1908,-49 1962,-49 1962,-85"/>
</g>
<!-- 140325814337808 -->
<g id="node36" class="node">
<title>140325814337808</title>
<ellipse fill="white" stroke="black" cx="2212" cy="-94" rx="27" ry="27"/>
</g>
<!-- 140325814338528&#45;&gt;140325814337808 -->
<g id="edge47" class="edge">
<title>140325814338528&#45;&gt;140325814337808</title>
<path fill="none" stroke="black" d="M1962.37,-69.59C2011.88,-74.45 2118.79,-84.95 2174.92,-90.46"/>
<polygon fill="black" stroke="black" points="2174.82,-93.96 2185.11,-91.46 2175.5,-87 2174.82,-93.96"/>
</g>
<!-- 140325814343904 -->
<g id="node22" class="node">
<title>140325814343904</title>
<polygon fill="black" stroke="black" points="2149,-135 2095,-135 2095,-99 2149,-99 2149,-135"/>
</g>
<!-- 140325814343904&#45;&gt;140325814337808 -->
<g id="edge49" class="edge">
<title>140325814343904&#45;&gt;140325814337808</title>
<path fill="none" stroke="black" d="M2149.4,-110.1C2157.63,-107.95 2166.83,-105.54 2175.57,-103.26"/>
<polygon fill="black" stroke="black" points="2176.73,-106.57 2185.52,-100.66 2174.96,-99.8 2176.73,-106.57"/>
</g>
<!-- 140325814173424 -->
<g id="node23" class="node">
<title>140325814173424</title>
<polygon fill="white" stroke="black" points="1380,-86 1222,-86 1222,-50 1380,-50 1380,-86"/>
<text text-anchor="middle" x="1301" y="-64.9" font-family="Times,serif" font-size="12.00">Insert Fine Notification</text>
</g>
<!-- 140325814173424&#45;&gt;140325814171024 -->
<g id="edge9" class="edge">
<title>140325814173424&#45;&gt;140325814171024</title>
<path fill="none" stroke="black" d="M1355.87,-86.14C1363.99,-89.02 1372.24,-92.03 1380,-95 1389.39,-98.59 1399.47,-102.7 1408.72,-106.59"/>
<polygon fill="black" stroke="black" points="1407.43,-109.84 1418,-110.52 1410.16,-103.39 1407.43,-109.84"/>
</g>
<!-- 140325814272368 -->
<g id="node24" class="node">
<title>140325814272368</title>
<polygon fill="black" stroke="black" points="1016.5,-368 962.5,-368 962.5,-332 1016.5,-332 1016.5,-368"/>
</g>
<!-- 140325814272368&#45;&gt;140325814278656 -->
<g id="edge44" class="edge">
<title>140325814272368&#45;&gt;140325814278656</title>
<path fill="none" stroke="black" d="M1016.67,-345.78C1045.03,-341.21 1090.45,-333.89 1122.12,-328.78"/>
<polygon fill="black" stroke="black" points="1122.97,-332.19 1132.29,-327.14 1121.86,-325.28 1122.97,-332.19"/>
</g>
<!-- 140325814283888 -->
<g id="node25" class="node">
<title>140325814283888</title>
<polygon fill="black" stroke="black" points="1577.5,-139 1523.5,-139 1523.5,-103 1577.5,-103 1577.5,-139"/>
</g>
<!-- 140325814283888&#45;&gt;140325814169440 -->
<g id="edge45" class="edge">
<title>140325814283888&#45;&gt;140325814169440</title>
<path fill="none" stroke="black" d="M1577.58,-107.65C1591.83,-100.36 1609.6,-91.26 1624.72,-83.52"/>
<polygon fill="black" stroke="black" points="1626.43,-86.58 1633.74,-78.91 1623.24,-80.35 1626.43,-86.58"/>
</g>
<!-- 140325814342512 -->
<g id="node26" class="node">
<title>140325814342512</title>
<polygon fill="black" stroke="black" points="2149,-192 2095,-192 2095,-156 2149,-156 2149,-192"/>
</g>
<!-- 140325814342512&#45;&gt;140325814339296 -->
<g id="edge48" class="edge">
<title>140325814342512&#45;&gt;140325814339296</title>
<path fill="none" stroke="black" d="M2094.79,-173.53C2053.08,-172.22 1969.32,-167.32 1901,-149 1891.15,-146.36 1880.85,-142.4 1871.54,-138.33"/>
<polygon fill="black" stroke="black" points="1872.8,-135.06 1862.25,-134.09 1869.9,-141.43 1872.8,-135.06"/>
</g>
<!-- 140325814345584 -->
<g id="node27" class="node">
<title>140325814345584</title>
<polygon fill="black" stroke="black" points="2389,-85 2335,-85 2335,-49 2389,-49 2389,-85"/>
</g>
<!-- 140325814345584&#45;&gt;140325817267504 -->
<g id="edge50" class="edge">
<title>140325814345584&#45;&gt;140325817267504</title>
<path fill="none" stroke="black" d="M2389.13,-67C2412.58,-67 2447.38,-67 2474.45,-67"/>
<polygon fill="black" stroke="black" points="2474.78,-70.5 2484.78,-67 2474.78,-63.5 2474.78,-70.5"/>
</g>
<!-- 140325814346736 -->
<g id="node28" class="node">
<title>140325814346736</title>
<polygon fill="white" stroke="black" points="2449,-139 2275,-139 2275,-103 2449,-103 2449,-139"/>
<text text-anchor="middle" x="2362" y="-117.9" font-family="Times,serif" font-size="12.00">Send for Credit Collection</text>
</g>
<!-- 140325814346736&#45;&gt;140325817267504 -->
<g id="edge5" class="edge">
<title>140325814346736&#45;&gt;140325817267504</title>
<path fill="none" stroke="black" d="M2422.9,-102.91C2431.69,-100.05 2440.61,-97.03 2449,-94 2458.42,-90.6 2468.48,-86.65 2477.83,-82.84"/>
<polygon fill="black" stroke="black" points="2479.35,-86 2487.26,-78.95 2476.68,-79.53 2479.35,-86"/>
</g>
<!-- 140325816263088 -->
<g id="node29" class="node">
<title>140325816263088</title>
<ellipse fill="white" stroke="black" cx="27" cy="-60" rx="27" ry="27"/>
<text text-anchor="start" x="11.5" y="-51.3" font-family="Times,serif" font-size="34.00">●</text>
</g>
<!-- 140325816263088&#45;&gt;140325814169872 -->
<g id="edge57" class="edge">
<title>140325816263088&#45;&gt;140325814169872</title>
<path fill="none" stroke="black" d="M54.1,-60C61.83,-60 70.6,-60 79.4,-60"/>
<polygon fill="black" stroke="black" points="79.68,-63.5 89.68,-60 79.68,-56.5 79.68,-63.5"/>
</g>
<!-- 140325814275008&#45;&gt;140325814272896 -->
<g id="edge13" class="edge">
<title>140325814275008&#45;&gt;140325814272896</title>
<path fill="none" stroke="black" d="M846.75,-160.09C926.74,-172.78 1171.08,-211.55 1263.8,-226.26"/>
<polygon fill="black" stroke="black" points="1263.4,-229.74 1273.83,-227.85 1264.5,-222.82 1263.4,-229.74"/>
</g>
<!-- 140325814275920&#45;&gt;140325814275104 -->
<g id="edge14" class="edge">
<title>140325814275920&#45;&gt;140325814275104</title>
<path fill="none" stroke="black" d="M467.72,-475.64C479.09,-480.88 493.04,-486.82 506,-491 512.95,-493.24 520.17,-495.35 527.48,-497.33"/>
<polygon fill="black" stroke="black" points="526.94,-500.81 537.5,-499.95 528.71,-494.03 526.94,-500.81"/>
</g>
<!-- 140325814275920&#45;&gt;140325814286000 -->
<g id="edge15" class="edge">
<title>140325814275920&#45;&gt;140325814286000</title>
<path fill="none" stroke="black" d="M470.33,-464C502.68,-464 557.74,-464 594.12,-464"/>
<polygon fill="black" stroke="black" points="594.31,-467.5 604.31,-464 594.31,-460.5 594.31,-467.5"/>
</g>
<!-- 140325814281536&#45;&gt;140325814272896 -->
<g id="edge16" class="edge">
<title>140325814281536&#45;&gt;140325814272896</title>
<path fill="none" stroke="black" d="M847.02,-474.94C897.52,-477.63 1011.27,-478.46 1096,-440 1183.22,-400.41 1253.03,-305.57 1283.46,-258.89"/>
<polygon fill="black" stroke="black" points="1286.57,-260.53 1289.02,-250.22 1280.67,-256.75 1286.57,-260.53"/>
</g>
<!-- 140325814285136&#45;&gt;140325814284320 -->
<g id="edge18" class="edge">
<title>140325814285136&#45;&gt;140325814284320</title>
<path fill="none" stroke="black" d="M460.94,-365.63C472.28,-377.78 488.32,-392.09 506,-399 587.06,-430.7 854.23,-420.17 952.13,-415.08"/>
<polygon fill="black" stroke="black" points="952.61,-418.56 962.41,-414.53 952.23,-411.57 952.61,-418.56"/>
</g>
<!-- 140325814285136&#45;&gt;140325814281920 -->
<g id="edge19" class="edge">
<title>140325814285136&#45;&gt;140325814281920</title>
<path fill="none" stroke="black" d="M469.93,-341.25C502.27,-336.56 557.74,-328.53 594.27,-323.25"/>
<polygon fill="black" stroke="black" points="595.09,-326.66 604.49,-321.77 594.09,-319.73 595.09,-326.66"/>
</g>
<!-- 140325814285136&#45;&gt;140325814281824 -->
<g id="edge17" class="edge">
<title>140325814285136&#45;&gt;140325814281824</title>
<path fill="none" stroke="black" d="M469.93,-348.75C482.31,-350.55 498.09,-352.83 514.89,-355.26"/>
<polygon fill="black" stroke="black" points="514.49,-358.74 524.89,-356.71 515.49,-351.81 514.49,-358.74"/>
</g>
<!-- 140325814278656&#45;&gt;140325814272896 -->
<g id="edge20" class="edge">
<title>140325814278656&#45;&gt;140325814272896</title>
<path fill="none" stroke="black" d="M1182.18,-308.58C1204.49,-294.08 1239.2,-271.52 1265.18,-254.63"/>
<polygon fill="black" stroke="black" points="1267.15,-257.53 1273.62,-249.14 1263.33,-251.66 1267.15,-257.53"/>
</g>
<!-- 140325814274624&#45;&gt;140325814285184 -->
<g id="edge21" class="edge">
<title>140325814274624&#45;&gt;140325814285184</title>
<path fill="none" stroke="black" d="M846.44,-328.23C860.85,-324.96 879.82,-320.66 899.19,-316.26"/>
<polygon fill="black" stroke="black" points="900.05,-319.66 909.03,-314.03 898.5,-312.83 900.05,-319.66"/>
</g>
<!-- 140325814274624&#45;&gt;140325814272368 -->
<g id="edge22" class="edge">
<title>140325814274624&#45;&gt;140325814272368</title>
<path fill="none" stroke="black" d="M847.17,-336.5C875.36,-339.19 920.42,-343.5 952.06,-346.52"/>
<polygon fill="black" stroke="black" points="951.95,-350.02 962.24,-347.49 952.61,-343.06 951.95,-350.02"/>
</g>
<!-- 140325814337808&#45;&gt;140325814345584 -->
<g id="edge24" class="edge">
<title>140325814337808&#45;&gt;140325814345584</title>
<path fill="none" stroke="black" d="M2238.78,-89.3C2262.47,-84.98 2297.83,-78.52 2324.44,-73.67"/>
<polygon fill="black" stroke="black" points="2325.31,-77.07 2334.52,-71.83 2324.05,-70.18 2325.31,-77.07"/>
</g>
<!-- 140325814337808&#45;&gt;140325814346736 -->
<g id="edge23" class="edge">
<title>140325814337808&#45;&gt;140325814346736</title>
<path fill="none" stroke="black" d="M2238.78,-98.7C2246.46,-100.1 2255.37,-101.73 2264.82,-103.45"/>
<polygon fill="black" stroke="black" points="2264.35,-106.93 2274.82,-105.28 2265.61,-100.04 2264.35,-106.93"/>
</g>
<!-- 140325814339296&#45;&gt;140325814341264 -->
<g id="edge25" class="edge">
<title>140325814339296&#45;&gt;140325814341264</title>
<path fill="none" stroke="black" d="M1865.21,-122C1873.11,-122 1881.99,-122 1890.69,-122"/>
<polygon fill="black" stroke="black" points="1890.74,-125.5 1900.74,-122 1890.74,-118.5 1890.74,-125.5"/>
</g>
<!-- 140325814340448&#45;&gt;140325814343904 -->
<g id="edge27" class="edge">
<title>140325814340448&#45;&gt;140325814343904</title>
<path fill="none" stroke="black" d="M2059.4,-120.5C2067.39,-120.05 2076.31,-119.54 2084.82,-119.06"/>
<polygon fill="black" stroke="black" points="2085.13,-122.54 2094.92,-118.48 2084.74,-115.55 2085.13,-122.54"/>
</g>
<!-- 140325814340448&#45;&gt;140325814342512 -->
<g id="edge26" class="edge">
<title>140325814340448&#45;&gt;140325814342512</title>
<path fill="none" stroke="black" d="M2055.66,-135.39C2064.96,-140.88 2075.93,-147.37 2086.2,-153.44"/>
<polygon fill="black" stroke="black" points="2084.6,-156.56 2094.99,-158.63 2088.16,-150.53 2084.6,-156.56"/>
</g>
<!-- 140325814168000&#45;&gt;140325814172416 -->
<g id="edge28" class="edge">
<title>140325814168000&#45;&gt;140325814172416</title>
<path fill="none" stroke="black" d="M267.14,-60C275.01,-60 283.89,-60 292.7,-60"/>
<polygon fill="black" stroke="black" points="292.93,-63.5 302.93,-60 292.93,-56.5 292.93,-63.5"/>
</g>
<!-- 140325814168000&#45;&gt;140325814170496 -->
<g id="edge29" class="edge">
<title>140325814168000&#45;&gt;140325814170496</title>
<path fill="none" stroke="black" d="M264.29,-48.04C275.69,-42.67 289.77,-36.71 303,-33 363.04,-16.17 379.65,-14 442,-14 442,-14 442,-14 1160,-14 1248.36,-14 1352.29,-15.99 1405.92,-17.16"/>
<polygon fill="black" stroke="black" points="1405.88,-20.66 1415.95,-17.38 1406.03,-13.66 1405.88,-20.66"/>
</g>
<!-- 140325814168000&#45;&gt;140325814171744 -->
<g id="edge30" class="edge">
<title>140325814168000&#45;&gt;140325814171744</title>
<path fill="none" stroke="black" d="M253.6,-83.56C272.08,-118.11 306.45,-182.36 325.97,-218.85"/>
<polygon fill="black" stroke="black" points="323.03,-220.75 330.83,-227.92 329.2,-217.45 323.03,-220.75"/>
</g>
<!-- 140325814169440&#45;&gt;140325814339728 -->
<g id="edge31" class="edge">
<title>140325814169440&#45;&gt;140325814339728</title>
<path fill="none" stroke="black" d="M1682.12,-80.14C1691.24,-85.32 1701.93,-91.39 1711.96,-97.09"/>
<polygon fill="black" stroke="black" points="1710.5,-100.29 1720.93,-102.19 1713.96,-94.2 1710.5,-100.29"/>
</g>
<!-- 140325814169440&#45;&gt;140325814171312 -->
<g id="edge32" class="edge">
<title>140325814169440&#45;&gt;140325814171312</title>
<path fill="none" stroke="black" d="M1684.5,-60.41C1715.13,-52.5 1766.68,-39.17 1801.26,-30.24"/>
<polygon fill="black" stroke="black" points="1802.16,-33.62 1810.97,-27.73 1800.41,-26.84 1802.16,-33.62"/>
</g>
<!-- 140325814169440&#45;&gt;140325814338528 -->
<g id="edge33" class="edge">
<title>140325814169440&#45;&gt;140325814338528</title>
<path fill="none" stroke="black" d="M1685.37,-67C1734.75,-67 1841.25,-67 1897.49,-67"/>
<polygon fill="black" stroke="black" points="1897.71,-70.5 1907.71,-67 1897.71,-63.5 1897.71,-70.5"/>
</g>
<!-- 140325814171024&#45;&gt;140325814285520 -->
<g id="edge34" class="edge">
<title>140325814171024&#45;&gt;140325814285520</title>
<path fill="none" stroke="black" d="M1467.41,-109.02C1478.45,-103.36 1492.01,-96.43 1504.9,-89.83"/>
<polygon fill="black" stroke="black" points="1506.81,-92.78 1514.12,-85.11 1503.62,-86.55 1506.81,-92.78"/>
</g>
<!-- 140325814171024&#45;&gt;140325814283888 -->
<g id="edge35" class="edge">
<title>140325814171024&#45;&gt;140325814283888</title>
<path fill="none" stroke="black" d="M1470.08,-121C1483.01,-121 1498.85,-121 1512.97,-121"/>
<polygon fill="black" stroke="black" points="1513.36,-124.5 1523.36,-121 1513.36,-117.5 1513.36,-124.5"/>
</g>
<!-- 140325814171408&#45;&gt;140325814172944 -->
<g id="edge37" class="edge">
<title>140325814171408&#45;&gt;140325814172944</title>
<path fill="none" stroke="black" d="M1184,-79.48C1195.44,-84.37 1209.35,-90.17 1222,-95 1235.65,-100.22 1250.81,-105.57 1264.1,-110.11"/>
<polygon fill="black" stroke="black" points="1263.26,-113.52 1273.85,-113.41 1265.5,-106.89 1263.26,-113.52"/>
</g>
<!-- 140325814171408&#45;&gt;140325814173424 -->
<g id="edge36" class="edge">
<title>140325814171408&#45;&gt;140325814173424</title>
<path fill="none" stroke="black" d="M1186,-68.81C1193.61,-68.76 1202.39,-68.7 1211.62,-68.63"/>
<polygon fill="black" stroke="black" points="1211.81,-72.13 1221.78,-68.56 1211.76,-65.13 1211.81,-72.13"/>
</g>
<!-- 140325814276688&#45;&gt;140325814277168 -->
<g id="edge39" class="edge">
<title>140325814276688&#45;&gt;140325814277168</title>
<path fill="none" stroke="black" d="M469.93,-240.99C502.27,-234.75 557.74,-224.04 594.27,-216.99"/>
<polygon fill="black" stroke="black" points="595.33,-220.35 604.49,-215.02 594.01,-213.48 595.33,-220.35"/>
</g>
<!-- 140325814276688&#45;&gt;140325814283072 -->
<g id="edge38" class="edge">
<title>140325814276688&#45;&gt;140325814283072</title>
<path fill="none" stroke="black" d="M469.93,-248.5C494.51,-250.88 532.46,-254.54 565.29,-257.71"/>
<polygon fill="black" stroke="black" points="565,-261.19 575.29,-258.67 565.68,-254.23 565,-261.19"/>
</g>
<!-- 140325814287152&#45;&gt;140325814272896 -->
<g id="edge40" class="edge">
<title>140325814287152&#45;&gt;140325814272896</title>
<path fill="none" stroke="black" d="M847.09,-232C927.46,-232 1171.35,-232 1263.88,-232"/>
<polygon fill="black" stroke="black" points="1263.88,-235.5 1273.88,-232 1263.88,-228.5 1263.88,-235.5"/>
</g>
<!-- 140325814282544&#45;&gt;140325814276736 -->
<g id="edge42" class="edge">
<title>140325814282544&#45;&gt;140325814276736</title>
<path fill="none" stroke="black" d="M467.72,-144.36C479.09,-139.12 493.04,-133.18 506,-129 535.1,-119.61 569.08,-112.49 594.18,-107.92"/>
<polygon fill="black" stroke="black" points="595.12,-111.31 604.35,-106.12 593.9,-104.42 595.12,-111.31"/>
</g>
<!-- 140325814282544&#45;&gt;140325814279424 -->
<g id="edge41" class="edge">
<title>140325814282544&#45;&gt;140325814279424</title>
<path fill="none" stroke="black" d="M470.33,-156C487.03,-156 509.79,-156 532.91,-156"/>
<polygon fill="black" stroke="black" points="533.18,-159.5 543.18,-156 533.18,-152.5 533.18,-159.5"/>
</g>
</g>
</svg>
