<?xml version="1.0" encoding="UTF-8" standalone="no"?>
<!DOCTYPE svg PUBLIC "-//W3C//DTD SVG 1.1//EN"
 "http://www.w3.org/Graphics/SVG/1.1/DTD/svg11.dtd">
<!-- Generated by graphviz version 2.48.0 (0)
 -->
<!-- Title: imdf_net_1720370178.0292664 Pages: 1 -->
<svg width="2012pt" height="674pt"
 viewBox="0.00 0.00 2011.91 674.00" xmlns="http://www.w3.org/2000/svg" xmlns:xlink="http://www.w3.org/1999/xlink">
<g id="graph0" class="graph" transform="scale(1 1) rotate(0) translate(4 670)">
<title>imdf_net_1720370178.0292664</title>
<polygon fill="white" stroke="transparent" points="-4,4 -4,-670 2007.91,-670 2007.91,4 -4,4"/>
<!-- 139662241449216 -->
<g id="node1" class="node">
<title>139662241449216</title>
<polygon fill="white" stroke="black" points="160.46,-666 90.18,-666 90.18,-630 160.46,-630 160.46,-666"/>
<text text-anchor="middle" x="125.32" y="-644.4" font-family="Times,serif" font-size="12.00">Leucocytes</text>
</g>
<!-- 139662217091296 -->
<g id="node45" class="node">
<title>139662217091296</title>
<ellipse fill="white" stroke="black" cx="223.64" cy="-621" rx="27" ry="27"/>
</g>
<!-- 139662241449216&#45;&gt;139662217091296 -->
<g id="edge9" class="edge">
<title>139662241449216&#45;&gt;139662217091296</title>
<path fill="none" stroke="black" d="M160.55,-638.4C169.35,-635.94 178.83,-633.28 187.67,-630.8"/>
<polygon fill="black" stroke="black" points="188.62,-634.17 197.3,-628.1 186.73,-627.43 188.62,-634.17"/>
</g>
<!-- 139662217096192 -->
<g id="node2" class="node">
<title>139662217096192</title>
<polygon fill="black" stroke="black" points="340.64,-648 286.64,-648 286.64,-612 340.64,-612 340.64,-648"/>
</g>
<!-- 139662217088656 -->
<g id="node44" class="node">
<title>139662217088656</title>
<ellipse fill="white" stroke="black" cx="403.64" cy="-639" rx="27" ry="27"/>
</g>
<!-- 139662217096192&#45;&gt;139662217088656 -->
<g id="edge45" class="edge">
<title>139662217096192&#45;&gt;139662217088656</title>
<path fill="none" stroke="black" d="M341.04,-632.7C349.03,-633.52 357.95,-634.43 366.46,-635.3"/>
<polygon fill="black" stroke="black" points="366.25,-638.8 376.56,-636.33 366.97,-631.83 366.25,-638.8"/>
</g>
<!-- 139662217092736 -->
<g id="node3" class="node">
<title>139662217092736</title>
<polygon fill="white" stroke="black" points="536.1,-387 466.49,-387 466.49,-351 536.1,-351 536.1,-387"/>
<text text-anchor="middle" x="501.29" y="-365.4" font-family="Times,serif" font-size="12.00">LacticAcid</text>
</g>
<!-- 139662217095808 -->
<g id="node28" class="node">
<title>139662217095808</title>
<ellipse fill="white" stroke="black" cx="598.94" cy="-373" rx="27" ry="27"/>
</g>
<!-- 139662217092736&#45;&gt;139662217095808 -->
<g id="edge2" class="edge">
<title>139662217092736&#45;&gt;139662217095808</title>
<path fill="none" stroke="black" d="M536.02,-370.41C544.26,-370.76 553.12,-371.13 561.48,-371.48"/>
<polygon fill="black" stroke="black" points="561.6,-374.98 571.74,-371.9 561.89,-367.99 561.6,-374.98"/>
</g>
<!-- 139662217100416 -->
<g id="node4" class="node">
<title>139662217100416</title>
<polygon fill="black" stroke="black" points="738.6,-354 684.6,-354 684.6,-318 738.6,-318 738.6,-354"/>
</g>
<!-- 139662217101088 -->
<g id="node27" class="node">
<title>139662217101088</title>
<ellipse fill="white" stroke="black" cx="403.64" cy="-363" rx="27" ry="27"/>
</g>
<!-- 139662217100416&#45;&gt;139662217101088 -->
<g id="edge40" class="edge">
<title>139662217100416&#45;&gt;139662217101088</title>
<path fill="none" stroke="black" d="M684.31,-333.89C639.28,-330.88 544.69,-327.23 466.64,-342 457.29,-343.77 447.43,-346.63 438.38,-349.67"/>
<polygon fill="black" stroke="black" points="437.22,-346.37 428.96,-353.01 439.55,-352.97 437.22,-346.37"/>
</g>
<!-- 139662217171584 -->
<g id="node5" class="node">
<title>139662217171584</title>
<polygon fill="white" stroke="black" points="532.95,-556 469.63,-556 469.63,-520 532.95,-520 532.95,-556"/>
<text text-anchor="middle" x="501.29" y="-534.4" font-family="Times,serif" font-size="12.00">IV Liquid</text>
</g>
<!-- 139662217089472 -->
<g id="node30" class="node">
<title>139662217089472</title>
<ellipse fill="white" stroke="black" cx="1215.25" cy="-529" rx="27" ry="27"/>
</g>
<!-- 139662217171584&#45;&gt;139662217089472 -->
<g id="edge1" class="edge">
<title>139662217171584&#45;&gt;139662217089472</title>
<path fill="none" stroke="black" d="M533,-538C573.63,-538 647.49,-538 710.6,-538 710.6,-538 710.6,-538 1036.25,-538 1085.53,-538 1142.39,-534.52 1178.32,-531.88"/>
<polygon fill="black" stroke="black" points="1178.62,-535.37 1188.33,-531.13 1178.09,-528.39 1178.62,-535.37"/>
</g>
<!-- 139662240659984 -->
<g id="node6" class="node">
<title>139662240659984</title>
<polygon fill="black" stroke="black" points="152.32,-229 98.32,-229 98.32,-193 152.32,-193 152.32,-229"/>
</g>
<!-- 139662240659600 -->
<g id="node35" class="node">
<title>139662240659600</title>
<ellipse fill="white" stroke="black" cx="223.64" cy="-211" rx="27" ry="27"/>
</g>
<!-- 139662240659984&#45;&gt;139662240659600 -->
<g id="edge57" class="edge">
<title>139662240659984&#45;&gt;139662240659600</title>
<path fill="none" stroke="black" d="M152.39,-211C162.88,-211 175.16,-211 186.49,-211"/>
<polygon fill="black" stroke="black" points="186.55,-214.5 196.55,-211 186.55,-207.5 186.55,-214.5"/>
</g>
<!-- 139662217171728 -->
<g id="node7" class="node">
<title>139662217171728</title>
<polygon fill="black" stroke="black" points="528.29,-209 474.29,-209 474.29,-173 528.29,-173 528.29,-209"/>
</g>
<!-- 139662217168992 -->
<g id="node33" class="node">
<title>139662217168992</title>
<ellipse fill="white" stroke="black" cx="598.94" cy="-263" rx="27" ry="27"/>
</g>
<!-- 139662217171728&#45;&gt;139662217168992 -->
<g id="edge49" class="edge">
<title>139662217171728&#45;&gt;139662217168992</title>
<path fill="none" stroke="black" d="M526.43,-209.17C539.26,-218.83 555.14,-230.78 568.67,-240.97"/>
<polygon fill="black" stroke="black" points="566.65,-243.83 576.75,-247.04 570.86,-238.23 566.65,-243.83"/>
</g>
<!-- 139662217176192 -->
<g id="node36" class="node">
<title>139662217176192</title>
<ellipse fill="white" stroke="black" cx="598.94" cy="-191" rx="27" ry="27"/>
</g>
<!-- 139662217171728&#45;&gt;139662217176192 -->
<g id="edge50" class="edge">
<title>139662217171728&#45;&gt;139662217176192</title>
<path fill="none" stroke="black" d="M528.43,-191C538.66,-191 550.56,-191 561.6,-191"/>
<polygon fill="black" stroke="black" points="561.84,-194.5 571.84,-191 561.84,-187.5 561.84,-194.5"/>
</g>
<!-- 139662217167600 -->
<g id="node39" class="node">
<title>139662217167600</title>
<ellipse fill="white" stroke="black" cx="598.94" cy="-119" rx="27" ry="27"/>
</g>
<!-- 139662217171728&#45;&gt;139662217167600 -->
<g id="edge51" class="edge">
<title>139662217171728&#45;&gt;139662217167600</title>
<path fill="none" stroke="black" d="M526.43,-172.83C539.26,-163.17 555.14,-151.22 568.67,-141.03"/>
<polygon fill="black" stroke="black" points="570.86,-143.77 576.75,-134.96 566.65,-138.17 570.86,-143.77"/>
</g>
<!-- 139662217172496 -->
<g id="node8" class="node">
<title>139662217172496</title>
<polygon fill="black" stroke="black" points="1152.25,-200 1098.25,-200 1098.25,-164 1152.25,-164 1152.25,-200"/>
</g>
<!-- 139662217167456 -->
<g id="node32" class="node">
<title>139662217167456</title>
<ellipse fill="white" stroke="black" cx="1215.25" cy="-182" rx="27" ry="27"/>
</g>
<!-- 139662217172496&#45;&gt;139662217167456 -->
<g id="edge47" class="edge">
<title>139662217172496&#45;&gt;139662217167456</title>
<path fill="none" stroke="black" d="M1152.65,-182C1160.64,-182 1169.56,-182 1178.07,-182"/>
<polygon fill="black" stroke="black" points="1178.17,-185.5 1188.17,-182 1178.17,-178.5 1178.17,-185.5"/>
</g>
<!-- 139662217178256 -->
<g id="node9" class="node">
<title>139662217178256</title>
<polygon fill="white" stroke="black" points="744.25,-300 678.95,-300 678.95,-264 744.25,-264 744.25,-300"/>
<text text-anchor="middle" x="711.6" y="-278.4" font-family="Times,serif" font-size="12.00">ER Triage</text>
</g>
<!-- 139662217172832 -->
<g id="node34" class="node">
<title>139662217172832</title>
<ellipse fill="white" stroke="black" cx="824.26" cy="-291" rx="27" ry="27"/>
</g>
<!-- 139662217178256&#45;&gt;139662217172832 -->
<g id="edge8" class="edge">
<title>139662217178256&#45;&gt;139662217172832</title>
<path fill="none" stroke="black" d="M744.31,-284.58C757.65,-285.66 773.23,-286.93 787.02,-288.05"/>
<polygon fill="black" stroke="black" points="786.89,-291.55 797.14,-288.88 787.46,-284.58 786.89,-291.55"/>
</g>
<!-- 139662217093408 -->
<g id="node10" class="node">
<title>139662217093408</title>
<polygon fill="black" stroke="black" points="340.64,-417 286.64,-417 286.64,-381 340.64,-381 340.64,-417"/>
</g>
<!-- 139662217085392 -->
<g id="node25" class="node">
<title>139662217085392</title>
<ellipse fill="white" stroke="black" cx="403.64" cy="-435" rx="27" ry="27"/>
</g>
<!-- 139662217093408&#45;&gt;139662217085392 -->
<g id="edge52" class="edge">
<title>139662217093408&#45;&gt;139662217085392</title>
<path fill="none" stroke="black" d="M341.04,-409.8C349.83,-413.4 359.75,-417.45 369.01,-421.24"/>
<polygon fill="black" stroke="black" points="367.78,-424.52 378.36,-425.07 370.43,-418.04 367.78,-424.52"/>
</g>
<!-- 139662217093408&#45;&gt;139662217101088 -->
<g id="edge53" class="edge">
<title>139662217093408&#45;&gt;139662217101088</title>
<path fill="none" stroke="black" d="M341.04,-388.2C349.83,-384.6 359.75,-380.55 369.01,-376.76"/>
<polygon fill="black" stroke="black" points="370.43,-379.96 378.36,-372.93 367.78,-373.48 370.43,-379.96"/>
</g>
<!-- 139662217099984 -->
<g id="node29" class="node">
<title>139662217099984</title>
<ellipse fill="white" stroke="black" cx="403.64" cy="-518" rx="27" ry="27"/>
</g>
<!-- 139662217093408&#45;&gt;139662217099984 -->
<g id="edge54" class="edge">
<title>139662217093408&#45;&gt;139662217099984</title>
<path fill="none" stroke="black" d="M328,-417.07C341.99,-435.98 364.17,-465.98 380.72,-488.36"/>
<polygon fill="black" stroke="black" points="378,-490.57 386.76,-496.53 383.63,-486.41 378,-490.57"/>
</g>
<!-- 139662217177152 -->
<g id="node31" class="node">
<title>139662217177152</title>
<ellipse fill="white" stroke="black" cx="403.64" cy="-191" rx="27" ry="27"/>
</g>
<!-- 139662217093408&#45;&gt;139662217177152 -->
<g id="edge55" class="edge">
<title>139662217093408&#45;&gt;139662217177152</title>
<path fill="none" stroke="black" d="M322.3,-380.91C337.02,-346.1 369.5,-269.33 388.34,-224.79"/>
<polygon fill="black" stroke="black" points="391.59,-226.11 392.26,-215.54 385.14,-223.38 391.59,-226.11"/>
</g>
<!-- 139662217093408&#45;&gt;139662217088656 -->
<g id="edge56" class="edge">
<title>139662217093408&#45;&gt;139662217088656</title>
<path fill="none" stroke="black" d="M321.25,-417.04C335.82,-456.78 370.9,-552.43 389.9,-604.25"/>
<polygon fill="black" stroke="black" points="386.63,-605.51 393.36,-613.69 393.2,-603.1 386.63,-605.51"/>
</g>
<!-- 139662217168800 -->
<g id="node11" class="node">
<title>139662217168800</title>
<polygon fill="black" stroke="black" points="1152.25,-130 1098.25,-130 1098.25,-94 1152.25,-94 1152.25,-130"/>
</g>
<!-- 139662217168800&#45;&gt;139662217167456 -->
<g id="edge41" class="edge">
<title>139662217168800&#45;&gt;139662217167456</title>
<path fill="none" stroke="black" d="M1148.91,-130.03C1160.08,-138.91 1173.67,-149.73 1185.56,-159.18"/>
<polygon fill="black" stroke="black" points="1183.47,-161.99 1193.47,-165.47 1187.82,-156.51 1183.47,-161.99"/>
</g>
<!-- 139662217181856 -->
<g id="node12" class="node">
<title>139662217181856</title>
<polygon fill="white" stroke="black" points="761.42,-203 661.79,-203 661.79,-167 761.42,-167 761.42,-203"/>
<text text-anchor="middle" x="711.6" y="-181.4" font-family="Times,serif" font-size="12.00">ER Sepsis Triage</text>
</g>
<!-- 139662217182000 -->
<g id="node38" class="node">
<title>139662217182000</title>
<ellipse fill="white" stroke="black" cx="824.26" cy="-181" rx="27" ry="27"/>
</g>
<!-- 139662217181856&#45;&gt;139662217182000 -->
<g id="edge7" class="edge">
<title>139662217181856&#45;&gt;139662217182000</title>
<path fill="none" stroke="black" d="M761.46,-183.23C769.99,-182.93 778.74,-182.61 786.86,-182.32"/>
<polygon fill="black" stroke="black" points="787.25,-185.8 797.11,-181.95 786.99,-178.81 787.25,-185.8"/>
</g>
<!-- 139662217085872 -->
<g id="node13" class="node">
<title>139662217085872</title>
<polygon fill="black" stroke="black" points="1905.91,-202 1851.91,-202 1851.91,-166 1905.91,-166 1905.91,-202"/>
</g>
<!-- 139662238819168 -->
<g id="node46" class="node">
<title>139662238819168</title>
<ellipse fill="white" stroke="black" cx="1972.91" cy="-184" rx="27" ry="27"/>
<ellipse fill="none" stroke="black" cx="1972.91" cy="-184" rx="31" ry="31"/>
<text text-anchor="start" x="1960.91" y="-174.4" font-family="Times,serif" font-size="32.00">■</text>
</g>
<!-- 139662217085872&#45;&gt;139662238819168 -->
<g id="edge58" class="edge">
<title>139662217085872&#45;&gt;139662238819168</title>
<path fill="none" stroke="black" d="M1906.03,-184C1914.05,-184 1923.06,-184 1931.79,-184"/>
<polygon fill="black" stroke="black" points="1931.83,-187.5 1941.83,-184 1931.83,-180.5 1931.83,-187.5"/>
</g>
<!-- 139662217094704 -->
<g id="node14" class="node">
<title>139662217094704</title>
<polygon fill="white" stroke="black" points="528.29,-497 474.29,-497 474.29,-461 528.29,-461 528.29,-497"/>
<text text-anchor="middle" x="501.29" y="-475.4" font-family="Times,serif" font-size="12.00">CRP</text>
</g>
<!-- 139662217090336 -->
<g id="node26" class="node">
<title>139662217090336</title>
<ellipse fill="white" stroke="black" cx="598.94" cy="-483" rx="27" ry="27"/>
</g>
<!-- 139662217094704&#45;&gt;139662217090336 -->
<g id="edge6" class="edge">
<title>139662217094704&#45;&gt;139662217090336</title>
<path fill="none" stroke="black" d="M528.43,-480.09C538.66,-480.52 550.56,-481.02 561.6,-481.48"/>
<polygon fill="black" stroke="black" points="561.7,-484.99 571.84,-481.91 561.99,-477.99 561.7,-484.99"/>
</g>
<!-- 139662217098544 -->
<g id="node15" class="node">
<title>139662217098544</title>
<polygon fill="black" stroke="black" points="738.6,-446 684.6,-446 684.6,-410 738.6,-410 738.6,-446"/>
</g>
<!-- 139662217098544&#45;&gt;139662217085392 -->
<g id="edge39" class="edge">
<title>139662217098544&#45;&gt;139662217085392</title>
<path fill="none" stroke="black" d="M684.58,-428.6C630,-429.84 503.42,-432.74 440.91,-434.17"/>
<polygon fill="black" stroke="black" points="440.64,-430.68 430.73,-434.4 440.8,-437.67 440.64,-430.68"/>
</g>
<!-- 139662217177008 -->
<g id="node16" class="node">
<title>139662217177008</title>
<polygon fill="black" stroke="black" points="1332.25,-222 1278.25,-222 1278.25,-186 1332.25,-186 1332.25,-222"/>
</g>
<!-- 139662217168224 -->
<g id="node41" class="node">
<title>139662217168224</title>
<ellipse fill="white" stroke="black" cx="1395.25" cy="-227" rx="27" ry="27"/>
</g>
<!-- 139662217177008&#45;&gt;139662217168224 -->
<g id="edge10" class="edge">
<title>139662217177008&#45;&gt;139662217168224</title>
<path fill="none" stroke="black" d="M1332.65,-210.9C1340.87,-213.05 1350.08,-215.46 1358.82,-217.74"/>
<polygon fill="black" stroke="black" points="1358.21,-221.2 1368.77,-220.34 1359.98,-214.43 1358.21,-221.2"/>
</g>
<!-- 139662217087552 -->
<g id="node17" class="node">
<title>139662217087552</title>
<polygon fill="black" stroke="black" points="1062.25,-36 1008.25,-36 1008.25,0 1062.25,0 1062.25,-36"/>
</g>
<!-- 139662217094080 -->
<g id="node43" class="node">
<title>139662217094080</title>
<ellipse fill="white" stroke="black" cx="1788.91" cy="-184" rx="27" ry="27"/>
</g>
<!-- 139662217087552&#45;&gt;139662217094080 -->
<g id="edge44" class="edge">
<title>139662217087552&#45;&gt;139662217094080</title>
<path fill="none" stroke="black" d="M1062.42,-21.83C1097.07,-26.57 1160.1,-34 1214.25,-34 1214.25,-34 1214.25,-34 1609.91,-34 1682.69,-34 1741.16,-108.23 1769.44,-152.26"/>
<polygon fill="black" stroke="black" points="1766.57,-154.27 1774.85,-160.89 1772.51,-150.56 1766.57,-154.27"/>
</g>
<!-- 139662217180368 -->
<g id="node18" class="node">
<title>139662217180368</title>
<polygon fill="white" stroke="black" points="1545.75,-296 1458.41,-296 1458.41,-260 1545.75,-260 1545.75,-296"/>
<text text-anchor="middle" x="1502.08" y="-274.4" font-family="Times,serif" font-size="12.00">Admission NC</text>
</g>
<!-- 139662217178544 -->
<g id="node42" class="node">
<title>139662217178544</title>
<ellipse fill="white" stroke="black" cx="1608.91" cy="-282" rx="27" ry="27"/>
</g>
<!-- 139662217180368&#45;&gt;139662217178544 -->
<g id="edge5" class="edge">
<title>139662217180368&#45;&gt;139662217178544</title>
<path fill="none" stroke="black" d="M1546.02,-279.64C1554.53,-279.96 1563.38,-280.3 1571.64,-280.62"/>
<polygon fill="black" stroke="black" points="1571.59,-284.12 1581.72,-281 1571.86,-277.12 1571.59,-284.12"/>
</g>
<!-- 139662217173216 -->
<g id="node19" class="node">
<title>139662217173216</title>
<polygon fill="white" stroke="black" points="972.24,-200 887.26,-200 887.26,-164 972.24,-164 972.24,-200"/>
<text text-anchor="middle" x="929.75" y="-178.4" font-family="Times,serif" font-size="12.00">IV Antibiotics</text>
</g>
<!-- 139662217179312 -->
<g id="node37" class="node">
<title>139662217179312</title>
<ellipse fill="white" stroke="black" cx="1035.25" cy="-182" rx="27" ry="27"/>
</g>
<!-- 139662217173216&#45;&gt;139662217179312 -->
<g id="edge3" class="edge">
<title>139662217173216&#45;&gt;139662217179312</title>
<path fill="none" stroke="black" d="M972.25,-182C980.79,-182 989.72,-182 998.06,-182"/>
<polygon fill="black" stroke="black" points="998.22,-185.5 1008.22,-182 998.22,-178.5 998.22,-185.5"/>
</g>
<!-- 139662217182432 -->
<g id="node20" class="node">
<title>139662217182432</title>
<polygon fill="black" stroke="black" points="1725.91,-273 1671.91,-273 1671.91,-237 1725.91,-237 1725.91,-273"/>
</g>
<!-- 139662217182432&#45;&gt;139662217168224 -->
<g id="edge43" class="edge">
<title>139662217182432&#45;&gt;139662217168224</title>
<path fill="none" stroke="black" d="M1671.72,-250.81C1660.68,-249.15 1647.69,-247.32 1635.91,-246 1563.99,-237.94 1479.55,-232.08 1432.55,-229.14"/>
<polygon fill="black" stroke="black" points="1432.74,-225.65 1422.54,-228.52 1432.31,-232.63 1432.74,-225.65"/>
</g>
<!-- 139662217099120 -->
<g id="node21" class="node">
<title>139662217099120</title>
<polygon fill="black" stroke="black" points="1725.91,-446 1671.91,-446 1671.91,-410 1725.91,-410 1725.91,-446"/>
</g>
<!-- 139662217099120&#45;&gt;139662217094080 -->
<g id="edge48" class="edge">
<title>139662217099120&#45;&gt;139662217094080</title>
<path fill="none" stroke="black" d="M1706.53,-409.66C1721.13,-369.16 1756.35,-271.51 1775.32,-218.93"/>
<polygon fill="black" stroke="black" points="1778.67,-219.94 1778.77,-209.35 1772.09,-217.57 1778.67,-219.94"/>
</g>
<!-- 139662217181040 -->
<g id="node22" class="node">
<title>139662217181040</title>
<polygon fill="black" stroke="black" points="956.75,-258 902.75,-258 902.75,-222 956.75,-222 956.75,-258"/>
</g>
<!-- 139662217181040&#45;&gt;139662217168992 -->
<g id="edge42" class="edge">
<title>139662217181040&#45;&gt;139662217168992</title>
<path fill="none" stroke="black" d="M902.57,-240.84C854.72,-242.53 749.95,-246.86 661.94,-255 653.49,-255.78 644.42,-256.83 635.89,-257.91"/>
<polygon fill="black" stroke="black" points="635.3,-254.46 625.84,-259.23 636.21,-261.4 635.3,-254.46"/>
</g>
<!-- 139662217175280 -->
<g id="node23" class="node">
<title>139662217175280</title>
<polygon fill="white" stroke="black" points="758.09,-137 665.11,-137 665.11,-101 758.09,-101 758.09,-137"/>
<text text-anchor="middle" x="711.6" y="-115.4" font-family="Times,serif" font-size="12.00">ER Registration</text>
</g>
<!-- 139662217171824 -->
<g id="node40" class="node">
<title>139662217171824</title>
<ellipse fill="white" stroke="black" cx="929.75" cy="-119" rx="27" ry="27"/>
</g>
<!-- 139662217175280&#45;&gt;139662217171824 -->
<g id="edge4" class="edge">
<title>139662217175280&#45;&gt;139662217171824</title>
<path fill="none" stroke="black" d="M758.18,-119C798.08,-119 855.31,-119 892.26,-119"/>
<polygon fill="black" stroke="black" points="892.57,-122.5 902.57,-119 892.57,-115.5 892.57,-122.5"/>
</g>
<!-- 139662239254528 -->
<g id="node24" class="node">
<title>139662239254528</title>
<ellipse fill="white" stroke="black" cx="27" cy="-211" rx="27" ry="27"/>
<text text-anchor="start" x="14.25" y="-200.8" font-family="Times,serif" font-size="34.00">●</text>
</g>
<!-- 139662239254528&#45;&gt;139662240659984 -->
<g id="edge46" class="edge">
<title>139662239254528&#45;&gt;139662240659984</title>
<path fill="none" stroke="black" d="M54.07,-211C64.56,-211 76.84,-211 88.17,-211"/>
<polygon fill="black" stroke="black" points="88.23,-214.5 98.23,-211 88.23,-207.5 88.23,-214.5"/>
</g>
<!-- 139662217085392&#45;&gt;139662217094704 -->
<g id="edge11" class="edge">
<title>139662217085392&#45;&gt;139662217094704</title>
<path fill="none" stroke="black" d="M428.78,-446.1C439.69,-451.13 452.82,-457.16 464.82,-462.68"/>
<polygon fill="black" stroke="black" points="463.6,-465.97 474.15,-466.97 466.52,-459.61 463.6,-465.97"/>
</g>
<!-- 139662217090336&#45;&gt;139662217098544 -->
<g id="edge12" class="edge">
<title>139662217090336&#45;&gt;139662217098544</title>
<path fill="none" stroke="black" d="M623.41,-471.34C638.51,-463.83 658.4,-453.94 675.38,-445.51"/>
<polygon fill="black" stroke="black" points="677.06,-448.58 684.46,-441 673.94,-442.31 677.06,-448.58"/>
</g>
<!-- 139662217090336&#45;&gt;139662217099120 -->
<g id="edge13" class="edge">
<title>139662217090336&#45;&gt;139662217099120</title>
<path fill="none" stroke="black" d="M626.06,-481.26C667.74,-478.65 751.86,-474 823.26,-474 823.26,-474 823.26,-474 1503.08,-474 1559.87,-474 1623.54,-455.26 1662.17,-441.7"/>
<polygon fill="black" stroke="black" points="1663.67,-444.88 1671.9,-438.21 1661.31,-438.29 1663.67,-444.88"/>
</g>
<!-- 139662217101088&#45;&gt;139662217092736 -->
<g id="edge14" class="edge">
<title>139662217101088&#45;&gt;139662217092736</title>
<path fill="none" stroke="black" d="M430.78,-364.64C438.73,-365.14 447.69,-365.7 456.48,-366.25"/>
<polygon fill="black" stroke="black" points="456.44,-369.76 466.64,-366.89 456.87,-362.77 456.44,-369.76"/>
</g>
<!-- 139662217095808&#45;&gt;139662217100416 -->
<g id="edge15" class="edge">
<title>139662217095808&#45;&gt;139662217100416</title>
<path fill="none" stroke="black" d="M624.78,-364.7C639.45,-359.79 658.28,-353.5 674.56,-348.05"/>
<polygon fill="black" stroke="black" points="675.93,-351.28 684.31,-344.79 673.71,-344.64 675.93,-351.28"/>
</g>
<!-- 139662217095808&#45;&gt;139662217099120 -->
<g id="edge16" class="edge">
<title>139662217095808&#45;&gt;139662217099120</title>
<path fill="none" stroke="black" d="M626.06,-374.74C667.74,-377.35 751.86,-382 823.26,-382 823.26,-382 823.26,-382 1503.08,-382 1559.87,-382 1623.54,-400.74 1662.17,-414.3"/>
<polygon fill="black" stroke="black" points="1661.31,-417.71 1671.9,-417.79 1663.67,-411.12 1661.31,-417.71"/>
</g>
<!-- 139662217099984&#45;&gt;139662217171584 -->
<g id="edge17" class="edge">
<title>139662217099984&#45;&gt;139662217171584</title>
<path fill="none" stroke="black" d="M430.27,-523.36C439.23,-525.23 449.51,-527.38 459.4,-529.45"/>
<polygon fill="black" stroke="black" points="458.97,-532.94 469.48,-531.56 460.41,-526.08 458.97,-532.94"/>
</g>
<!-- 139662217089472&#45;&gt;139662217099120 -->
<g id="edge18" class="edge">
<title>139662217089472&#45;&gt;139662217099120</title>
<path fill="none" stroke="black" d="M1242.47,-527.08C1277.17,-524.72 1340.27,-521 1394.25,-521 1394.25,-521 1394.25,-521 1503.08,-521 1563.91,-521 1582.71,-517.5 1635.91,-488 1651.49,-479.36 1665.98,-465.8 1677.03,-453.75"/>
<polygon fill="black" stroke="black" points="1679.77,-455.93 1683.77,-446.12 1674.52,-451.3 1679.77,-455.93"/>
</g>
<!-- 139662217177152&#45;&gt;139662217171728 -->
<g id="edge20" class="edge">
<title>139662217177152&#45;&gt;139662217171728</title>
<path fill="none" stroke="black" d="M430.78,-191C441.01,-191 452.91,-191 463.95,-191"/>
<polygon fill="black" stroke="black" points="464.19,-194.5 474.19,-191 464.19,-187.5 464.19,-194.5"/>
</g>
<!-- 139662217177152&#45;&gt;139662217168800 -->
<g id="edge19" class="edge">
<title>139662217177152&#45;&gt;139662217168800</title>
<path fill="none" stroke="black" d="M421.1,-170.31C451.76,-134.33 521.45,-64 597.94,-64 597.94,-64 597.94,-64 930.75,-64 987.15,-64 1050.14,-83.45 1088.49,-97.58"/>
<polygon fill="black" stroke="black" points="1087.56,-100.97 1098.15,-101.23 1090.03,-94.42 1087.56,-100.97"/>
</g>
<!-- 139662217167456&#45;&gt;139662217177008 -->
<g id="edge21" class="edge">
<title>139662217167456&#45;&gt;139662217177008</title>
<path fill="none" stroke="black" d="M1241.7,-188.36C1250.03,-190.45 1259.46,-192.8 1268.41,-195.04"/>
<polygon fill="black" stroke="black" points="1267.69,-198.47 1278.24,-197.5 1269.39,-191.68 1267.69,-198.47"/>
</g>
<!-- 139662217168992&#45;&gt;139662217178256 -->
<g id="edge22" class="edge">
<title>139662217168992&#45;&gt;139662217178256</title>
<path fill="none" stroke="black" d="M625.61,-267.41C638.35,-269.59 654.07,-272.29 668.51,-274.77"/>
<polygon fill="black" stroke="black" points="668.3,-278.29 678.74,-276.53 669.48,-271.39 668.3,-278.29"/>
</g>
<!-- 139662217172832&#45;&gt;139662217172496 -->
<g id="edge24" class="edge">
<title>139662217172832&#45;&gt;139662217172496</title>
<path fill="none" stroke="black" d="M851.39,-289.39C881.29,-286.95 931.4,-281 972.25,-267 1015.33,-252.23 1022.55,-240.33 1062.25,-218 1071.02,-213.06 1080.44,-207.65 1089.23,-202.56"/>
<polygon fill="black" stroke="black" points="1091.21,-205.45 1098.09,-197.4 1087.69,-199.4 1091.21,-205.45"/>
</g>
<!-- 139662217172832&#45;&gt;139662217181040 -->
<g id="edge23" class="edge">
<title>139662217172832&#45;&gt;139662217181040</title>
<path fill="none" stroke="black" d="M848.74,-279.43C861.85,-272.97 878.46,-264.78 893.14,-257.55"/>
<polygon fill="black" stroke="black" points="895.03,-260.52 902.45,-252.96 891.93,-254.24 895.03,-260.52"/>
</g>
<!-- 139662240659600&#45;&gt;139662217093408 -->
<g id="edge26" class="edge">
<title>139662240659600&#45;&gt;139662217093408</title>
<path fill="none" stroke="black" d="M235.96,-235.19C252.37,-270.24 282.66,-334.95 299.85,-371.68"/>
<polygon fill="black" stroke="black" points="296.72,-373.24 304.13,-380.81 303.06,-370.27 296.72,-373.24"/>
</g>
<!-- 139662240659600&#45;&gt;139662217087552 -->
<g id="edge25" class="edge">
<title>139662240659600&#45;&gt;139662217087552</title>
<path fill="none" stroke="black" d="M234.33,-185.9C256.01,-134.49 313.62,-22 402.64,-22 402.64,-22 402.64,-22 825.26,-22 885.85,-22 956.3,-20.3 997.98,-19.11"/>
<polygon fill="black" stroke="black" points="998.29,-22.61 1008.18,-18.82 998.09,-15.61 998.29,-22.61"/>
</g>
<!-- 139662217176192&#45;&gt;139662217181856 -->
<g id="edge27" class="edge">
<title>139662217176192&#45;&gt;139662217181856</title>
<path fill="none" stroke="black" d="M626.17,-189.58C633.88,-189.16 642.64,-188.69 651.53,-188.2"/>
<polygon fill="black" stroke="black" points="651.78,-191.69 661.58,-187.66 651.4,-184.7 651.78,-191.69"/>
</g>
<!-- 139662217179312&#45;&gt;139662217172496 -->
<g id="edge28" class="edge">
<title>139662217179312&#45;&gt;139662217172496</title>
<path fill="none" stroke="black" d="M1062.65,-182C1070.64,-182 1079.56,-182 1088.07,-182"/>
<polygon fill="black" stroke="black" points="1088.17,-185.5 1098.17,-182 1088.17,-178.5 1088.17,-185.5"/>
</g>
<!-- 139662217182000&#45;&gt;139662217173216 -->
<g id="edge29" class="edge">
<title>139662217182000&#45;&gt;139662217173216</title>
<path fill="none" stroke="black" d="M851.37,-181.25C859.12,-181.33 867.89,-181.41 876.68,-181.5"/>
<polygon fill="black" stroke="black" points="876.9,-185 886.94,-181.6 876.97,-178 876.9,-185"/>
</g>
<!-- 139662217167600&#45;&gt;139662217175280 -->
<g id="edge30" class="edge">
<title>139662217167600&#45;&gt;139662217175280</title>
<path fill="none" stroke="black" d="M626.17,-119C634.89,-119 644.97,-119 655.05,-119"/>
<polygon fill="black" stroke="black" points="655.09,-122.5 665.09,-119 655.09,-115.5 655.09,-122.5"/>
</g>
<!-- 139662217171824&#45;&gt;139662217172496 -->
<g id="edge31" class="edge">
<title>139662217171824&#45;&gt;139662217172496</title>
<path fill="none" stroke="black" d="M956.65,-121.81C983.68,-125.31 1026.97,-132.55 1062.25,-146 1071.4,-149.49 1080.78,-154.23 1089.38,-159.13"/>
<polygon fill="black" stroke="black" points="1087.64,-162.17 1098.03,-164.25 1091.21,-156.14 1087.64,-162.17"/>
</g>
<!-- 139662217168224&#45;&gt;139662217180368 -->
<g id="edge32" class="edge">
<title>139662217168224&#45;&gt;139662217180368</title>
<path fill="none" stroke="black" d="M1419.77,-238.45C1430.16,-243.5 1442.76,-249.63 1454.9,-255.53"/>
<polygon fill="black" stroke="black" points="1453.53,-258.76 1464.05,-259.99 1456.59,-252.46 1453.53,-258.76"/>
</g>
<!-- 139662217178544&#45;&gt;139662217182432 -->
<g id="edge33" class="edge">
<title>139662217178544&#45;&gt;139662217182432</title>
<path fill="none" stroke="black" d="M1634.89,-274.34C1643.33,-271.75 1652.92,-268.81 1662.02,-266.01"/>
<polygon fill="black" stroke="black" points="1663.11,-269.34 1671.64,-263.06 1661.05,-262.65 1663.11,-269.34"/>
</g>
<!-- 139662217178544&#45;&gt;139662217099120 -->
<g id="edge34" class="edge">
<title>139662217178544&#45;&gt;139662217099120</title>
<path fill="none" stroke="black" d="M1623.66,-304.81C1639.38,-330.9 1665.09,-373.55 1681.76,-401.2"/>
<polygon fill="black" stroke="black" points="1678.87,-403.19 1687.03,-409.95 1684.87,-399.58 1678.87,-403.19"/>
</g>
<!-- 139662217094080&#45;&gt;139662217085872 -->
<g id="edge35" class="edge">
<title>139662217094080&#45;&gt;139662217085872</title>
<path fill="none" stroke="black" d="M1816.32,-184C1824.31,-184 1833.22,-184 1841.74,-184"/>
<polygon fill="black" stroke="black" points="1841.83,-187.5 1851.83,-184 1841.83,-180.5 1841.83,-187.5"/>
</g>
<!-- 139662217088656&#45;&gt;139662241449216 -->
<g id="edge36" class="edge">
<title>139662217088656&#45;&gt;139662241449216</title>
<path fill="none" stroke="black" d="M377.95,-647.91C366.73,-651.5 353.18,-655.22 340.64,-657 282.27,-665.3 214.13,-659.89 170.63,-654.56"/>
<polygon fill="black" stroke="black" points="171.02,-651.08 160.66,-653.28 170.14,-658.02 171.02,-651.08"/>
</g>
<!-- 139662217091296&#45;&gt;139662217096192 -->
<g id="edge37" class="edge">
<title>139662217091296&#45;&gt;139662217096192</title>
<path fill="none" stroke="black" d="M250.57,-623.65C258.73,-624.49 267.9,-625.42 276.63,-626.32"/>
<polygon fill="black" stroke="black" points="276.29,-629.8 286.59,-627.34 277,-622.84 276.29,-629.8"/>
</g>
<!-- 139662217091296&#45;&gt;139662217099120 -->
<g id="edge38" class="edge">
<title>139662217091296&#45;&gt;139662217099120</title>
<path fill="none" stroke="black" d="M249.36,-612.51C283.43,-601.59 346.93,-584 402.64,-584 402.64,-584 402.64,-584 1503.08,-584 1569.61,-584 1585.69,-558.63 1635.91,-515 1655.44,-498.04 1672.09,-473.74 1683.2,-455.13"/>
<polygon fill="black" stroke="black" points="1686.36,-456.66 1688.35,-446.25 1680.3,-453.15 1686.36,-456.66"/>
</g>
</g>
</svg>
