<?xml version="1.0" encoding="UTF-8" standalone="no"?>
<!DOCTYPE svg PUBLIC "-//W3C//DTD SVG 1.1//EN"
 "http://www.w3.org/Graphics/SVG/1.1/DTD/svg11.dtd">
<!-- Generated by graphviz version 2.48.0 (0)
 -->
<!-- Title: imdf_net_1720370177.9798422 Pages: 1 -->
<svg width="2245pt" height="538pt"
 viewBox="0.00 0.00 2244.60 538.00" xmlns="http://www.w3.org/2000/svg" xmlns:xlink="http://www.w3.org/1999/xlink">
<g id="graph0" class="graph" transform="scale(1 1) rotate(0) translate(4 534)">
<title>imdf_net_1720370177.9798422</title>
<polygon fill="white" stroke="transparent" points="-4,4 -4,-534 2240.6,-534 2240.6,4 -4,4"/>
<!-- 139662241449216 -->
<g id="node1" class="node">
<title>139662241449216</title>
<polygon fill="white" stroke="black" points="160.46,-82 90.18,-82 90.18,-46 160.46,-46 160.46,-82"/>
<text text-anchor="middle" x="125.32" y="-60.4" font-family="Times,serif" font-size="12.00">Leucocytes</text>
</g>
<!-- 139662217085728 -->
<g id="node48" class="node">
<title>139662217085728</title>
<ellipse fill="white" stroke="black" cx="223.64" cy="-37" rx="27" ry="27"/>
</g>
<!-- 139662241449216&#45;&gt;139662217085728 -->
<g id="edge4" class="edge">
<title>139662241449216&#45;&gt;139662217085728</title>
<path fill="none" stroke="black" d="M160.55,-54.4C169.35,-51.94 178.83,-49.28 187.67,-46.8"/>
<polygon fill="black" stroke="black" points="188.62,-50.17 197.3,-44.1 186.73,-43.43 188.62,-50.17"/>
</g>
<!-- 139662217175040 -->
<g id="node2" class="node">
<title>139662217175040</title>
<polygon fill="white" stroke="black" points="559.63,-497 466.64,-497 466.64,-461 559.63,-461 559.63,-497"/>
<text text-anchor="middle" x="513.14" y="-475.4" font-family="Times,serif" font-size="12.00">ER Registration</text>
</g>
<!-- 139662217168128 -->
<g id="node38" class="node">
<title>139662217168128</title>
<ellipse fill="white" stroke="black" cx="622.63" cy="-470" rx="27" ry="27"/>
</g>
<!-- 139662217175040&#45;&gt;139662217168128 -->
<g id="edge3" class="edge">
<title>139662217175040&#45;&gt;139662217168128</title>
<path fill="none" stroke="black" d="M559.72,-475.18C568.33,-474.46 577.23,-473.72 585.5,-473.03"/>
<polygon fill="black" stroke="black" points="585.9,-476.5 595.57,-472.18 585.32,-469.53 585.9,-476.5"/>
</g>
<!-- 139662241456272 -->
<g id="node3" class="node">
<title>139662241456272</title>
<polygon fill="black" stroke="black" points="2138.6,-334 2084.6,-334 2084.6,-298 2138.6,-298 2138.6,-334"/>
</g>
<!-- 139662238817584 -->
<g id="node49" class="node">
<title>139662238817584</title>
<ellipse fill="white" stroke="black" cx="2205.6" cy="-316" rx="27" ry="27"/>
<ellipse fill="none" stroke="black" cx="2205.6" cy="-316" rx="31" ry="31"/>
<text text-anchor="start" x="2193.6" y="-306.4" font-family="Times,serif" font-size="32.00">■</text>
</g>
<!-- 139662241456272&#45;&gt;139662238817584 -->
<g id="edge62" class="edge">
<title>139662241456272&#45;&gt;139662238817584</title>
<path fill="none" stroke="black" d="M2138.71,-316C2146.73,-316 2155.75,-316 2164.48,-316"/>
<polygon fill="black" stroke="black" points="2164.52,-319.5 2174.52,-316 2164.52,-312.5 2164.52,-319.5"/>
</g>
<!-- 139662217176864 -->
<g id="node4" class="node">
<title>139662217176864</title>
<polygon fill="black" stroke="black" points="1384.93,-323 1330.93,-323 1330.93,-287 1384.93,-287 1384.93,-323"/>
</g>
<!-- 139662217178592 -->
<g id="node41" class="node">
<title>139662217178592</title>
<ellipse fill="white" stroke="black" cx="1027.94" cy="-347" rx="27" ry="27"/>
</g>
<!-- 139662217176864&#45;&gt;139662217178592 -->
<g id="edge47" class="edge">
<title>139662217176864&#45;&gt;139662217178592</title>
<path fill="none" stroke="black" d="M1330.55,-304.68C1282.4,-304.6 1177.26,-306.78 1090.94,-325 1081.51,-326.99 1071.55,-330.06 1062.44,-333.29"/>
<polygon fill="black" stroke="black" points="1061.12,-330.04 1052.95,-336.8 1063.55,-336.61 1061.12,-330.04"/>
</g>
<!-- 139662217178400 -->
<g id="node5" class="node">
<title>139662217178400</title>
<polygon fill="white" stroke="black" points="1778.43,-334 1691.1,-334 1691.1,-298 1778.43,-298 1778.43,-334"/>
<text text-anchor="middle" x="1734.76" y="-312.4" font-family="Times,serif" font-size="12.00">Admission NC</text>
</g>
<!-- 139662217176240 -->
<g id="node45" class="node">
<title>139662217176240</title>
<ellipse fill="white" stroke="black" cx="1841.6" cy="-312" rx="27" ry="27"/>
</g>
<!-- 139662217178400&#45;&gt;139662217176240 -->
<g id="edge5" class="edge">
<title>139662217178400&#45;&gt;139662217176240</title>
<path fill="none" stroke="black" d="M1778.71,-314.36C1787.21,-314.04 1796.07,-313.7 1804.33,-313.38"/>
<polygon fill="black" stroke="black" points="1804.54,-316.88 1814.4,-313 1804.28,-309.88 1804.54,-316.88"/>
</g>
<!-- 139662217180320 -->
<g id="node6" class="node">
<title>139662217180320</title>
<polygon fill="black" stroke="black" points="1958.6,-358 1904.6,-358 1904.6,-322 1958.6,-322 1958.6,-358"/>
</g>
<!-- 139662217178256 -->
<g id="node44" class="node">
<title>139662217178256</title>
<ellipse fill="white" stroke="black" cx="1627.93" cy="-362" rx="27" ry="27"/>
</g>
<!-- 139662217180320&#45;&gt;139662217178256 -->
<g id="edge49" class="edge">
<title>139662217180320&#45;&gt;139662217178256</title>
<path fill="none" stroke="black" d="M1904.4,-343.79C1893.36,-345.28 1880.38,-346.9 1868.6,-348 1796.64,-354.74 1712.22,-358.77 1665.22,-360.67"/>
<polygon fill="black" stroke="black" points="1665.07,-357.17 1655.22,-361.07 1665.35,-364.17 1665.07,-357.17"/>
</g>
<!-- 139662240659888 -->
<g id="node7" class="node">
<title>139662240659888</title>
<polygon fill="black" stroke="black" points="829.63,-530 775.63,-530 775.63,-494 829.63,-494 829.63,-530"/>
</g>
<!-- 139662238816912 -->
<g id="node46" class="node">
<title>139662238816912</title>
<ellipse fill="white" stroke="black" cx="2021.6" cy="-316" rx="27" ry="27"/>
</g>
<!-- 139662240659888&#45;&gt;139662238816912 -->
<g id="edge50" class="edge">
<title>139662240659888&#45;&gt;139662238816912</title>
<path fill="none" stroke="black" d="M829.65,-507.18C871.2,-499.92 955.16,-487 1026.94,-487 1026.94,-487 1026.94,-487 1842.6,-487 1921.1,-487 1978.4,-399.43 2004.64,-349.63"/>
<polygon fill="black" stroke="black" points="2007.87,-350.99 2009.33,-340.5 2001.65,-347.8 2007.87,-350.99"/>
</g>
<!-- 139662217173936 -->
<g id="node8" class="node">
<title>139662217173936</title>
<polygon fill="black" stroke="black" points="540.14,-389 486.14,-389 486.14,-353 540.14,-353 540.14,-389"/>
</g>
<!-- 139662217171248 -->
<g id="node36" class="node">
<title>139662217171248</title>
<ellipse fill="white" stroke="black" cx="622.63" cy="-398" rx="27" ry="27"/>
</g>
<!-- 139662217173936&#45;&gt;139662217171248 -->
<g id="edge46" class="edge">
<title>139662217173936&#45;&gt;139662217171248</title>
<path fill="none" stroke="black" d="M540.16,-377.54C553.99,-381.01 571.2,-385.33 586.23,-389.11"/>
<polygon fill="black" stroke="black" points="585.67,-392.58 596.22,-391.62 587.37,-385.79 585.67,-392.58"/>
</g>
<!-- 139662217089856 -->
<g id="node9" class="node">
<title>139662217089856</title>
<polygon fill="black" stroke="black" points="1958.6,-229 1904.6,-229 1904.6,-193 1958.6,-193 1958.6,-229"/>
</g>
<!-- 139662217089856&#45;&gt;139662238816912 -->
<g id="edge54" class="edge">
<title>139662217089856&#45;&gt;139662238816912</title>
<path fill="none" stroke="black" d="M1947.93,-229.29C1961.48,-245.46 1981.47,-269.31 1997.05,-287.9"/>
<polygon fill="black" stroke="black" points="1994.54,-290.35 2003.64,-295.77 1999.9,-285.86 1994.54,-290.35"/>
</g>
<!-- 139662217090624 -->
<g id="node10" class="node">
<title>139662217090624</title>
<polygon fill="black" stroke="black" points="340.64,-64 286.64,-64 286.64,-28 340.64,-28 340.64,-64"/>
</g>
<!-- 139662217089280 -->
<g id="node47" class="node">
<title>139662217089280</title>
<ellipse fill="white" stroke="black" cx="403.64" cy="-64" rx="27" ry="27"/>
</g>
<!-- 139662217090624&#45;&gt;139662217089280 -->
<g id="edge51" class="edge">
<title>139662217090624&#45;&gt;139662217089280</title>
<path fill="none" stroke="black" d="M341.04,-51.4C349.19,-53.07 358.31,-54.93 366.98,-56.71"/>
<polygon fill="black" stroke="black" points="366.36,-60.15 376.86,-58.73 367.77,-53.29 366.36,-60.15"/>
</g>
<!-- 139662217099072 -->
<g id="node11" class="node">
<title>139662217099072</title>
<polygon fill="black" stroke="black" points="540.14,-335 486.14,-335 486.14,-299 540.14,-299 540.14,-335"/>
</g>
<!-- 139662217100800 -->
<g id="node33" class="node">
<title>139662217100800</title>
<ellipse fill="white" stroke="black" cx="622.63" cy="-275" rx="27" ry="27"/>
</g>
<!-- 139662217099072&#45;&gt;139662217100800 -->
<g id="edge45" class="edge">
<title>139662217099072&#45;&gt;139662217100800</title>
<path fill="none" stroke="black" d="M540.16,-306.83C554.43,-301.26 572.29,-294.28 587.65,-288.28"/>
<polygon fill="black" stroke="black" points="589.28,-291.4 597.32,-284.5 586.73,-284.88 589.28,-291.4"/>
</g>
<!-- 139662217094848 -->
<g id="node12" class="node">
<title>139662217094848</title>
<polygon fill="white" stroke="black" points="544.79,-281 481.48,-281 481.48,-245 544.79,-245 544.79,-281"/>
<text text-anchor="middle" x="513.14" y="-259.4" font-family="Times,serif" font-size="12.00">IV Liquid</text>
</g>
<!-- 139662217094848&#45;&gt;139662217100800 -->
<g id="edge9" class="edge">
<title>139662217094848&#45;&gt;139662217100800</title>
<path fill="none" stroke="black" d="M544.94,-266.44C557.57,-267.85 572.28,-269.49 585.42,-270.96"/>
<polygon fill="black" stroke="black" points="585.23,-274.46 595.55,-272.09 586,-267.5 585.23,-274.46"/>
</g>
<!-- 139662217180608 -->
<g id="node13" class="node">
<title>139662217180608</title>
<polygon fill="black" stroke="black" points="942.29,-371 888.29,-371 888.29,-335 942.29,-335 942.29,-371"/>
</g>
<!-- 139662217180608&#45;&gt;139662217178592 -->
<g id="edge11" class="edge">
<title>139662217180608&#45;&gt;139662217178592</title>
<path fill="none" stroke="black" d="M942.51,-351.58C956.84,-350.8 974.82,-349.83 990.49,-348.98"/>
<polygon fill="black" stroke="black" points="991.11,-352.45 1000.91,-348.41 990.73,-345.46 991.11,-352.45"/>
</g>
<!-- 139662217181760 -->
<g id="node14" class="node">
<title>139662217181760</title>
<polygon fill="black" stroke="black" points="1384.93,-379 1330.93,-379 1330.93,-343 1384.93,-343 1384.93,-379"/>
</g>
<!-- 139662217169184 -->
<g id="node39" class="node">
<title>139662217169184</title>
<ellipse fill="white" stroke="black" cx="1447.93" cy="-362" rx="27" ry="27"/>
</g>
<!-- 139662217181760&#45;&gt;139662217169184 -->
<g id="edge48" class="edge">
<title>139662217181760&#45;&gt;139662217169184</title>
<path fill="none" stroke="black" d="M1385.33,-361.3C1393.32,-361.39 1402.24,-361.49 1410.75,-361.59"/>
<polygon fill="black" stroke="black" points="1410.81,-365.09 1420.85,-361.7 1410.89,-358.09 1410.81,-365.09"/>
</g>
<!-- 139662217174080 -->
<g id="node15" class="node">
<title>139662217174080</title>
<polygon fill="black" stroke="black" points="1564.93,-380 1510.93,-380 1510.93,-344 1564.93,-344 1564.93,-380"/>
</g>
<!-- 139662217174080&#45;&gt;139662217178256 -->
<g id="edge12" class="edge">
<title>139662217174080&#45;&gt;139662217178256</title>
<path fill="none" stroke="black" d="M1565.33,-362C1573.32,-362 1582.24,-362 1590.75,-362"/>
<polygon fill="black" stroke="black" points="1590.85,-365.5 1600.85,-362 1590.85,-358.5 1590.85,-365.5"/>
</g>
<!-- 139662238820944 -->
<g id="node16" class="node">
<title>139662238820944</title>
<polygon fill="black" stroke="black" points="152.32,-427 98.32,-427 98.32,-391 152.32,-391 152.32,-427"/>
</g>
<!-- 139662238819504 -->
<g id="node40" class="node">
<title>139662238819504</title>
<ellipse fill="white" stroke="black" cx="223.64" cy="-409" rx="27" ry="27"/>
</g>
<!-- 139662238820944&#45;&gt;139662238819504 -->
<g id="edge61" class="edge">
<title>139662238820944&#45;&gt;139662238819504</title>
<path fill="none" stroke="black" d="M152.39,-409C162.88,-409 175.16,-409 186.49,-409"/>
<polygon fill="black" stroke="black" points="186.55,-412.5 196.55,-409 186.55,-405.5 186.55,-412.5"/>
</g>
<!-- 139662217170000 -->
<g id="node17" class="node">
<title>139662217170000</title>
<polygon fill="white" stroke="black" points="1173.94,-370 1090.94,-370 1090.94,-334 1173.94,-334 1173.94,-370"/>
<text text-anchor="middle" x="1132.44" y="-348.4" font-family="Times,serif" font-size="12.00">Admission IC</text>
</g>
<!-- 139662217182672 -->
<g id="node42" class="node">
<title>139662217182672</title>
<ellipse fill="white" stroke="black" cx="1252.44" cy="-356" rx="27" ry="27"/>
</g>
<!-- 139662217170000&#45;&gt;139662217182672 -->
<g id="edge10" class="edge">
<title>139662217170000&#45;&gt;139662217182672</title>
<path fill="none" stroke="black" d="M1174.05,-353.38C1187.41,-353.83 1202.17,-354.33 1215.18,-354.77"/>
<polygon fill="black" stroke="black" points="1215.08,-358.27 1225.19,-355.11 1215.31,-351.27 1215.08,-358.27"/>
</g>
<!-- 139662217169616 -->
<g id="node18" class="node">
<title>139662217169616</title>
<polygon fill="white" stroke="black" points="1294.92,-437 1209.95,-437 1209.95,-401 1294.92,-401 1294.92,-437"/>
<text text-anchor="middle" x="1252.44" y="-415.4" font-family="Times,serif" font-size="12.00">IV Antibiotics</text>
</g>
<!-- 139662217169616&#45;&gt;139662217169184 -->
<g id="edge6" class="edge">
<title>139662217169616&#45;&gt;139662217169184</title>
<path fill="none" stroke="black" d="M1295.08,-411.03C1321.19,-405.57 1355.38,-397.61 1384.93,-388 1394.49,-384.89 1404.63,-380.94 1413.88,-377.05"/>
<polygon fill="black" stroke="black" points="1415.33,-380.23 1423.14,-373.07 1412.57,-373.8 1415.33,-380.23"/>
</g>
<!-- 139662217093216 -->
<g id="node19" class="node">
<title>139662217093216</title>
<polygon fill="black" stroke="black" points="340.64,-312 286.64,-312 286.64,-276 340.64,-276 340.64,-312"/>
</g>
<!-- 139662217097872 -->
<g id="node28" class="node">
<title>139662217097872</title>
<ellipse fill="white" stroke="black" cx="403.64" cy="-136" rx="27" ry="27"/>
</g>
<!-- 139662217093216&#45;&gt;139662217097872 -->
<g id="edge55" class="edge">
<title>139662217093216&#45;&gt;139662217097872</title>
<path fill="none" stroke="black" d="M324.4,-275.93C336.51,-253.56 357.86,-214.34 376.64,-181 379.01,-176.8 381.52,-172.39 384.01,-168.05"/>
<polygon fill="black" stroke="black" points="387.09,-169.71 389.05,-159.3 381.02,-166.22 387.09,-169.71"/>
</g>
<!-- 139662217088224 -->
<g id="node30" class="node">
<title>139662217088224</title>
<ellipse fill="white" stroke="black" cx="403.64" cy="-217" rx="27" ry="27"/>
</g>
<!-- 139662217093216&#45;&gt;139662217088224 -->
<g id="edge56" class="edge">
<title>139662217093216&#45;&gt;139662217088224</title>
<path fill="none" stroke="black" d="M335.49,-275.75C347.36,-265.37 362.37,-252.23 375.19,-241.02"/>
<polygon fill="black" stroke="black" points="377.62,-243.54 382.84,-234.32 373.01,-238.27 377.62,-243.54"/>
</g>
<!-- 139662217088416 -->
<g id="node32" class="node">
<title>139662217088416</title>
<ellipse fill="white" stroke="black" cx="403.64" cy="-294" rx="27" ry="27"/>
</g>
<!-- 139662217093216&#45;&gt;139662217088416 -->
<g id="edge57" class="edge">
<title>139662217093216&#45;&gt;139662217088416</title>
<path fill="none" stroke="black" d="M341.04,-294C349.03,-294 357.95,-294 366.46,-294"/>
<polygon fill="black" stroke="black" points="366.56,-297.5 376.56,-294 366.56,-290.5 366.56,-297.5"/>
</g>
<!-- 139662217169088 -->
<g id="node35" class="node">
<title>139662217169088</title>
<ellipse fill="white" stroke="black" cx="403.64" cy="-371" rx="27" ry="27"/>
</g>
<!-- 139662217093216&#45;&gt;139662217169088 -->
<g id="edge58" class="edge">
<title>139662217093216&#45;&gt;139662217169088</title>
<path fill="none" stroke="black" d="M335.49,-312.25C347.36,-322.63 362.37,-335.77 375.19,-346.98"/>
<polygon fill="black" stroke="black" points="373.01,-349.73 382.84,-353.68 377.62,-344.46 373.01,-349.73"/>
</g>
<!-- 139662217173072 -->
<g id="node37" class="node">
<title>139662217173072</title>
<ellipse fill="white" stroke="black" cx="403.64" cy="-457" rx="27" ry="27"/>
</g>
<!-- 139662217093216&#45;&gt;139662217173072 -->
<g id="edge59" class="edge">
<title>139662217093216&#45;&gt;139662217173072</title>
<path fill="none" stroke="black" d="M324.39,-312.07C339.04,-339.19 366.92,-390.85 385.15,-424.6"/>
<polygon fill="black" stroke="black" points="382.18,-426.47 390.01,-433.61 388.34,-423.14 382.18,-426.47"/>
</g>
<!-- 139662217093216&#45;&gt;139662217089280 -->
<g id="edge60" class="edge">
<title>139662217093216&#45;&gt;139662217089280</title>
<path fill="none" stroke="black" d="M318.41,-275.88C326.16,-240.66 345.81,-161.08 376.64,-100 377.79,-97.71 379.09,-95.41 380.46,-93.14"/>
<polygon fill="black" stroke="black" points="383.5,-94.89 386.07,-84.61 377.65,-91.04 383.5,-94.89"/>
</g>
<!-- 139662217085920 -->
<g id="node20" class="node">
<title>139662217085920</title>
<polygon fill="white" stroke="black" points="540.14,-78 486.14,-78 486.14,-42 540.14,-42 540.14,-78"/>
<text text-anchor="middle" x="513.14" y="-56.4" font-family="Times,serif" font-size="12.00">CRP</text>
</g>
<!-- 139662217086304 -->
<g id="node29" class="node">
<title>139662217086304</title>
<ellipse fill="white" stroke="black" cx="622.63" cy="-55" rx="27" ry="27"/>
</g>
<!-- 139662217085920&#45;&gt;139662217086304 -->
<g id="edge8" class="edge">
<title>139662217085920&#45;&gt;139662217086304</title>
<path fill="none" stroke="black" d="M540.16,-58.79C553.66,-58.16 570.37,-57.38 585.14,-56.7"/>
<polygon fill="black" stroke="black" points="585.65,-60.18 595.48,-56.22 585.32,-53.19 585.65,-60.18"/>
</g>
<!-- 139662217167456 -->
<g id="node21" class="node">
<title>139662217167456</title>
<polygon fill="black" stroke="black" points="739.63,-422 685.63,-422 685.63,-386 739.63,-386 739.63,-422"/>
</g>
<!-- 139662217175808 -->
<g id="node34" class="node">
<title>139662217175808</title>
<ellipse fill="white" stroke="black" cx="802.63" cy="-404" rx="27" ry="27"/>
</g>
<!-- 139662217167456&#45;&gt;139662217175808 -->
<g id="edge53" class="edge">
<title>139662217167456&#45;&gt;139662217175808</title>
<path fill="none" stroke="black" d="M740.03,-404C748.02,-404 756.94,-404 765.45,-404"/>
<polygon fill="black" stroke="black" points="765.55,-407.5 775.55,-404 765.55,-400.5 765.55,-407.5"/>
</g>
<!-- 139662217182048 -->
<g id="node22" class="node">
<title>139662217182048</title>
<polygon fill="white" stroke="black" points="965.1,-430 865.47,-430 865.47,-394 965.1,-394 965.1,-430"/>
<text text-anchor="middle" x="915.29" y="-408.4" font-family="Times,serif" font-size="12.00">ER Sepsis Triage</text>
</g>
<!-- 139662217167216 -->
<g id="node43" class="node">
<title>139662217167216</title>
<ellipse fill="white" stroke="black" cx="1027.94" cy="-419" rx="27" ry="27"/>
</g>
<!-- 139662217182048&#45;&gt;139662217167216 -->
<g id="edge2" class="edge">
<title>139662217182048&#45;&gt;139662217167216</title>
<path fill="none" stroke="black" d="M965.14,-415.09C973.68,-415.63 982.42,-416.18 990.55,-416.7"/>
<polygon fill="black" stroke="black" points="990.6,-420.21 1000.8,-417.35 991.04,-413.22 990.6,-420.21"/>
</g>
<!-- 139662217091440 -->
<g id="node23" class="node">
<title>139662217091440</title>
<polygon fill="black" stroke="black" points="739.63,-126 685.63,-126 685.63,-90 739.63,-90 739.63,-126"/>
</g>
<!-- 139662217091440&#45;&gt;139662217097872 -->
<g id="edge43" class="edge">
<title>139662217091440&#45;&gt;139662217097872</title>
<path fill="none" stroke="black" d="M685.46,-110.39C630.58,-115.39 503.33,-127 440.74,-132.71"/>
<polygon fill="black" stroke="black" points="440.19,-129.24 430.55,-133.64 440.83,-136.21 440.19,-129.24"/>
</g>
<!-- 139662217089136 -->
<g id="node24" class="node">
<title>139662217089136</title>
<polygon fill="white" stroke="black" points="547.94,-187 478.33,-187 478.33,-151 547.94,-151 547.94,-187"/>
<text text-anchor="middle" x="513.14" y="-165.4" font-family="Times,serif" font-size="12.00">LacticAcid</text>
</g>
<!-- 139662217097680 -->
<g id="node31" class="node">
<title>139662217097680</title>
<ellipse fill="white" stroke="black" cx="622.63" cy="-165" rx="27" ry="27"/>
</g>
<!-- 139662217089136&#45;&gt;139662217097680 -->
<g id="edge7" class="edge">
<title>139662217089136&#45;&gt;139662217097680</title>
<path fill="none" stroke="black" d="M547.85,-167.75C559.76,-167.3 573.19,-166.8 585.31,-166.35"/>
<polygon fill="black" stroke="black" points="585.67,-169.84 595.54,-165.97 585.41,-162.85 585.67,-169.84"/>
</g>
<!-- 139662217085680 -->
<g id="node25" class="node">
<title>139662217085680</title>
<polygon fill="black" stroke="black" points="739.63,-229 685.63,-229 685.63,-193 739.63,-193 739.63,-229"/>
</g>
<!-- 139662217085680&#45;&gt;139662217088224 -->
<g id="edge44" class="edge">
<title>139662217085680&#45;&gt;139662217088224</title>
<path fill="none" stroke="black" d="M685.52,-211.51C630.75,-212.58 503.75,-215.06 441.03,-216.29"/>
<polygon fill="black" stroke="black" points="440.74,-212.79 430.81,-216.49 440.88,-219.79 440.74,-212.79"/>
</g>
<!-- 139662217177200 -->
<g id="node26" class="node">
<title>139662217177200</title>
<polygon fill="white" stroke="black" points="545.78,-443 480.49,-443 480.49,-407 545.78,-407 545.78,-443"/>
<text text-anchor="middle" x="513.14" y="-421.4" font-family="Times,serif" font-size="12.00">ER Triage</text>
</g>
<!-- 139662217177200&#45;&gt;139662217171248 -->
<g id="edge1" class="edge">
<title>139662217177200&#45;&gt;139662217171248</title>
<path fill="none" stroke="black" d="M545.81,-417.05C558.51,-413.85 573.21,-410.16 586.26,-406.88"/>
<polygon fill="black" stroke="black" points="587.46,-410.19 596.31,-404.36 585.76,-403.4 587.46,-410.19"/>
</g>
<!-- 139662239254528 -->
<g id="node27" class="node">
<title>139662239254528</title>
<ellipse fill="white" stroke="black" cx="27" cy="-409" rx="27" ry="27"/>
<text text-anchor="start" x="14.25" y="-398.8" font-family="Times,serif" font-size="34.00">●</text>
</g>
<!-- 139662239254528&#45;&gt;139662238820944 -->
<g id="edge52" class="edge">
<title>139662239254528&#45;&gt;139662238820944</title>
<path fill="none" stroke="black" d="M54.07,-409C64.56,-409 76.84,-409 88.17,-409"/>
<polygon fill="black" stroke="black" points="88.23,-412.5 98.23,-409 88.23,-405.5 88.23,-412.5"/>
</g>
<!-- 139662217097872&#45;&gt;139662217085920 -->
<g id="edge13" class="edge">
<title>139662217097872&#45;&gt;139662217085920</title>
<path fill="none" stroke="black" d="M426.13,-120.8C440.95,-110.33 460.96,-96.18 477.95,-84.17"/>
<polygon fill="black" stroke="black" points="480.37,-86.75 486.51,-78.11 476.33,-81.03 480.37,-86.75"/>
</g>
<!-- 139662217086304&#45;&gt;139662217089856 -->
<g id="edge15" class="edge">
<title>139662217086304&#45;&gt;139662217089856</title>
<path fill="none" stroke="black" d="M649.87,-55.72C684.59,-56.61 747.7,-58 801.63,-58 801.63,-58 801.63,-58 1735.76,-58 1816.64,-58 1883.83,-140.55 1913.8,-184.38"/>
<polygon fill="black" stroke="black" points="1910.99,-186.48 1919.45,-192.85 1916.81,-182.59 1910.99,-186.48"/>
</g>
<!-- 139662217086304&#45;&gt;139662217091440 -->
<g id="edge14" class="edge">
<title>139662217086304&#45;&gt;139662217091440</title>
<path fill="none" stroke="black" d="M646.29,-68.65C655.59,-74.25 666.56,-80.86 676.83,-87.04"/>
<polygon fill="black" stroke="black" points="675.25,-90.17 685.62,-92.33 678.86,-84.18 675.25,-90.17"/>
</g>
<!-- 139662217088224&#45;&gt;139662217089136 -->
<g id="edge16" class="edge">
<title>139662217088224&#45;&gt;139662217089136</title>
<path fill="none" stroke="black" d="M428.5,-206.35C440.36,-201.05 455.06,-194.48 468.82,-188.34"/>
<polygon fill="black" stroke="black" points="470.45,-191.45 478.15,-184.18 467.59,-185.06 470.45,-191.45"/>
</g>
<!-- 139662217097680&#45;&gt;139662217089856 -->
<g id="edge18" class="edge">
<title>139662217097680&#45;&gt;139662217089856</title>
<path fill="none" stroke="black" d="M649.87,-165C684.59,-165 747.71,-165 801.63,-165 801.63,-165 801.63,-165 1735.76,-165 1792.55,-165 1856.22,-183.74 1894.85,-197.3"/>
<polygon fill="black" stroke="black" points="1893.99,-200.71 1904.59,-200.79 1896.36,-194.12 1893.99,-200.71"/>
</g>
<!-- 139662217097680&#45;&gt;139662217085680 -->
<g id="edge17" class="edge">
<title>139662217097680&#45;&gt;139662217085680</title>
<path fill="none" stroke="black" d="M647.21,-177.33C656.16,-182.01 666.56,-187.44 676.36,-192.56"/>
<polygon fill="black" stroke="black" points="675.02,-195.81 685.5,-197.34 678.26,-189.61 675.02,-195.81"/>
</g>
<!-- 139662217088416&#45;&gt;139662217099072 -->
<g id="edge20" class="edge">
<title>139662217088416&#45;&gt;139662217099072</title>
<path fill="none" stroke="black" d="M430.11,-299.45C443.84,-302.39 460.99,-306.06 476.06,-309.28"/>
<polygon fill="black" stroke="black" points="475.59,-312.76 486.1,-311.43 477.05,-305.91 475.59,-312.76"/>
</g>
<!-- 139662217088416&#45;&gt;139662217094848 -->
<g id="edge19" class="edge">
<title>139662217088416&#45;&gt;139662217094848</title>
<path fill="none" stroke="black" d="M429.84,-286.73C442.23,-283.16 457.46,-278.77 471.44,-274.74"/>
<polygon fill="black" stroke="black" points="472.7,-278.02 481.34,-271.88 470.76,-271.29 472.7,-278.02"/>
</g>
<!-- 139662217100800&#45;&gt;139662217089856 -->
<g id="edge21" class="edge">
<title>139662217100800&#45;&gt;139662217089856</title>
<path fill="none" stroke="black" d="M649.49,-270.73C684.05,-265.41 747.27,-257 801.63,-257 801.63,-257 801.63,-257 1735.76,-257 1792.55,-257 1856.22,-238.26 1894.85,-224.7"/>
<polygon fill="black" stroke="black" points="1896.36,-227.88 1904.59,-221.21 1893.99,-221.29 1896.36,-227.88"/>
</g>
<!-- 139662217175808&#45;&gt;139662217180608 -->
<g id="edge23" class="edge">
<title>139662217175808&#45;&gt;139662217180608</title>
<path fill="none" stroke="black" d="M827.37,-393.06C842.34,-386.16 861.95,-377.12 878.75,-369.38"/>
<polygon fill="black" stroke="black" points="880.65,-372.36 888.27,-364.99 877.72,-366 880.65,-372.36"/>
</g>
<!-- 139662217175808&#45;&gt;139662217182048 -->
<g id="edge22" class="edge">
<title>139662217175808&#45;&gt;139662217182048</title>
<path fill="none" stroke="black" d="M829.57,-405.88C837.37,-406.44 846.27,-407.08 855.29,-407.73"/>
<polygon fill="black" stroke="black" points="855.26,-411.24 865.48,-408.47 855.76,-404.26 855.26,-411.24"/>
</g>
<!-- 139662217169088&#45;&gt;139662217173936 -->
<g id="edge25" class="edge">
<title>139662217169088&#45;&gt;139662217173936</title>
<path fill="none" stroke="black" d="M430.66,-371C444.16,-371 460.87,-371 475.64,-371"/>
<polygon fill="black" stroke="black" points="475.98,-374.5 485.98,-371 475.98,-367.5 475.98,-374.5"/>
</g>
<!-- 139662217169088&#45;&gt;139662217177200 -->
<g id="edge24" class="edge">
<title>139662217169088&#45;&gt;139662217177200</title>
<path fill="none" stroke="black" d="M428.23,-382.85C440.8,-389.17 456.63,-397.12 471.14,-404.41"/>
<polygon fill="black" stroke="black" points="469.93,-407.72 480.44,-409.08 473.08,-401.46 469.93,-407.72"/>
</g>
<!-- 139662217171248&#45;&gt;139662217167456 -->
<g id="edge26" class="edge">
<title>139662217171248&#45;&gt;139662217167456</title>
<path fill="none" stroke="black" d="M650.03,-399.8C658.02,-400.34 666.94,-400.95 675.45,-401.53"/>
<polygon fill="black" stroke="black" points="675.33,-405.03 685.55,-402.22 675.81,-398.05 675.33,-405.03"/>
</g>
<!-- 139662217173072&#45;&gt;139662217175040 -->
<g id="edge27" class="edge">
<title>139662217173072&#45;&gt;139662217175040</title>
<path fill="none" stroke="black" d="M430.39,-462.27C438.32,-463.89 447.39,-465.75 456.53,-467.62"/>
<polygon fill="black" stroke="black" points="455.93,-471.07 466.42,-469.64 457.33,-464.21 455.93,-471.07"/>
</g>
<!-- 139662217168128&#45;&gt;139662217167456 -->
<g id="edge28" class="edge">
<title>139662217168128&#45;&gt;139662217167456</title>
<path fill="none" stroke="black" d="M644.93,-454.02C655.25,-446.29 667.85,-436.83 679.32,-428.23"/>
<polygon fill="black" stroke="black" points="681.52,-430.96 687.42,-422.16 677.32,-425.36 681.52,-430.96"/>
</g>
<!-- 139662217169184&#45;&gt;139662217174080 -->
<g id="edge29" class="edge">
<title>139662217169184&#45;&gt;139662217174080</title>
<path fill="none" stroke="black" d="M1475.33,-362C1483.32,-362 1492.24,-362 1500.75,-362"/>
<polygon fill="black" stroke="black" points="1500.85,-365.5 1510.85,-362 1500.85,-358.5 1500.85,-365.5"/>
</g>
<!-- 139662238819504&#45;&gt;139662240659888 -->
<g id="edge30" class="edge">
<title>139662238819504&#45;&gt;139662240659888</title>
<path fill="none" stroke="black" d="M241.43,-429.74C270.48,-463.1 333.66,-525 402.64,-525 402.64,-525 402.64,-525 623.63,-525 672.84,-525 729.5,-520 765.43,-516.2"/>
<polygon fill="black" stroke="black" points="765.87,-519.67 775.44,-515.11 765.12,-512.71 765.87,-519.67"/>
</g>
<!-- 139662238819504&#45;&gt;139662217093216 -->
<g id="edge31" class="edge">
<title>139662238819504&#45;&gt;139662217093216</title>
<path fill="none" stroke="black" d="M240.78,-387.91C255.35,-368.87 276.83,-340.79 292.51,-320.3"/>
<polygon fill="black" stroke="black" points="295.33,-322.37 298.63,-312.31 289.78,-318.12 295.33,-322.37"/>
</g>
<!-- 139662217178592&#45;&gt;139662217170000 -->
<g id="edge32" class="edge">
<title>139662217178592&#45;&gt;139662217170000</title>
<path fill="none" stroke="black" d="M1055.07,-348.27C1062.83,-348.65 1071.61,-349.08 1080.38,-349.51"/>
<polygon fill="black" stroke="black" points="1080.46,-353.02 1090.62,-350.01 1080.8,-346.03 1080.46,-353.02"/>
</g>
<!-- 139662217182672&#45;&gt;139662217176864 -->
<g id="edge33" class="edge">
<title>139662217182672&#45;&gt;139662217176864</title>
<path fill="none" stroke="black" d="M1276.92,-344.43C1290.03,-337.97 1306.64,-329.78 1321.31,-322.55"/>
<polygon fill="black" stroke="black" points="1323.2,-325.52 1330.63,-317.96 1320.11,-319.24 1323.2,-325.52"/>
</g>
<!-- 139662217182672&#45;&gt;139662217181760 -->
<g id="edge34" class="edge">
<title>139662217182672&#45;&gt;139662217181760</title>
<path fill="none" stroke="black" d="M1279.55,-357.26C1292.05,-357.87 1307.23,-358.6 1320.81,-359.26"/>
<polygon fill="black" stroke="black" points="1320.67,-362.75 1330.82,-359.74 1321,-355.76 1320.67,-362.75"/>
</g>
<!-- 139662217167216&#45;&gt;139662217169616 -->
<g id="edge35" class="edge">
<title>139662217167216&#45;&gt;139662217169616</title>
<path fill="none" stroke="black" d="M1055.34,-419C1090.8,-419 1154.56,-419 1199.74,-419"/>
<polygon fill="black" stroke="black" points="1199.94,-422.5 1209.94,-419 1199.94,-415.5 1199.94,-422.5"/>
</g>
<!-- 139662217178256&#45;&gt;139662217178400 -->
<g id="edge36" class="edge">
<title>139662217178256&#45;&gt;139662217178400</title>
<path fill="none" stroke="black" d="M1652.98,-351.45C1662.05,-347.47 1672.74,-342.78 1683.33,-338.13"/>
<polygon fill="black" stroke="black" points="1684.81,-341.3 1692.56,-334.08 1681.99,-334.89 1684.81,-341.3"/>
</g>
<!-- 139662217176240&#45;&gt;139662217180320 -->
<g id="edge37" class="edge">
<title>139662217176240&#45;&gt;139662217180320</title>
<path fill="none" stroke="black" d="M1867.58,-319.95C1876.01,-322.63 1885.6,-325.68 1894.71,-328.58"/>
<polygon fill="black" stroke="black" points="1893.73,-331.94 1904.32,-331.64 1895.86,-325.27 1893.73,-331.94"/>
</g>
<!-- 139662217176240&#45;&gt;139662217089856 -->
<g id="edge38" class="edge">
<title>139662217176240&#45;&gt;139662217089856</title>
<path fill="none" stroke="black" d="M1859.98,-292.05C1873.67,-276.33 1892.86,-254.31 1907.79,-237.18"/>
<polygon fill="black" stroke="black" points="1910.8,-239.05 1914.73,-229.22 1905.52,-234.46 1910.8,-239.05"/>
</g>
<!-- 139662238816912&#45;&gt;139662241456272 -->
<g id="edge39" class="edge">
<title>139662238816912&#45;&gt;139662241456272</title>
<path fill="none" stroke="black" d="M2049,-316C2056.99,-316 2065.91,-316 2074.42,-316"/>
<polygon fill="black" stroke="black" points="2074.52,-319.5 2084.52,-316 2074.52,-312.5 2074.52,-319.5"/>
</g>
<!-- 139662217089280&#45;&gt;139662241449216 -->
<g id="edge40" class="edge">
<title>139662217089280&#45;&gt;139662241449216</title>
<path fill="none" stroke="black" d="M376.79,-68.6C365.7,-70.36 352.57,-72.14 340.64,-73 276.81,-77.61 260.51,-77.07 196.64,-73 188.16,-72.46 179.15,-71.56 170.5,-70.53"/>
<polygon fill="black" stroke="black" points="170.93,-67.05 160.57,-69.27 170.05,-74 170.93,-67.05"/>
</g>
<!-- 139662217085728&#45;&gt;139662217089856 -->
<g id="edge42" class="edge">
<title>139662217085728&#45;&gt;139662217089856</title>
<path fill="none" stroke="black" d="M249.36,-28.51C283.43,-17.59 346.93,0 402.64,0 402.64,0 402.64,0 1735.76,0 1804.68,0 1822.36,-28.89 1868.6,-80 1895.81,-110.08 1913.33,-154.22 1922.58,-182.79"/>
<polygon fill="black" stroke="black" points="1919.31,-184.04 1925.62,-192.55 1925.99,-181.96 1919.31,-184.04"/>
</g>
<!-- 139662217085728&#45;&gt;139662217090624 -->
<g id="edge41" class="edge">
<title>139662217085728&#45;&gt;139662217090624</title>
<path fill="none" stroke="black" d="M250.57,-39.65C258.73,-40.49 267.9,-41.42 276.63,-42.32"/>
<polygon fill="black" stroke="black" points="276.29,-45.8 286.59,-43.34 277,-38.84 276.29,-45.8"/>
</g>
</g>
</svg>
