<?xml version="1.0" encoding="UTF-8" standalone="no"?>
<!DOCTYPE svg PUBLIC "-//W3C//DTD SVG 1.1//EN"
 "http://www.w3.org/Graphics/SVG/1.1/DTD/svg11.dtd">
<!-- Generated by graphviz version 2.48.0 (0)
 -->
<!-- Title: imdf_net_1720947015.9615555 Pages: 1 -->
<svg width="2036pt" height="289pt"
 viewBox="0.00 0.00 2036.00 289.00" xmlns="http://www.w3.org/2000/svg" xmlns:xlink="http://www.w3.org/1999/xlink">
<g id="graph0" class="graph" transform="scale(1 1) rotate(0) translate(4 285)">
<title>imdf_net_1720947015.9615555</title>
<polygon fill="white" stroke="transparent" points="-4,4 -4,-285 2032,-285 2032,4 -4,4"/>
<!-- 140325814087712 -->
<g id="node1" class="node">
<title>140325814087712</title>
<polygon fill="white" stroke="black" points="893,-267 680,-267 680,-231 893,-231 893,-267"/>
<text text-anchor="middle" x="786.5" y="-245.9" font-family="Times,serif" font-size="12.00">Notify Result Appeal to Offender</text>
</g>
<!-- 140325814076384 -->
<g id="node26" class="node">
<title>140325814076384</title>
<ellipse fill="white" stroke="black" cx="956" cy="-225" rx="27" ry="27"/>
</g>
<!-- 140325814087712&#45;&gt;140325814076384 -->
<g id="edge2" class="edge">
<title>140325814087712&#45;&gt;140325814076384</title>
<path fill="none" stroke="black" d="M893.11,-233.87C902.37,-232.54 911.25,-231.27 919.25,-230.12"/>
<polygon fill="black" stroke="black" points="919.82,-233.58 929.22,-228.69 918.83,-226.65 919.82,-233.58"/>
</g>
<!-- 140325814080128 -->
<g id="node2" class="node">
<title>140325814080128</title>
<polygon fill="black" stroke="black" points="455.5,-218 401.5,-218 401.5,-182 455.5,-182 455.5,-218"/>
</g>
<!-- 140325814080128&#45;&gt;140325814076384 -->
<g id="edge29" class="edge">
<title>140325814080128&#45;&gt;140325814076384</title>
<path fill="none" stroke="black" d="M455.64,-201.23C526.19,-204.56 726.43,-214.02 893,-222 901.25,-222.4 910.12,-222.82 918.49,-223.23"/>
<polygon fill="black" stroke="black" points="918.6,-226.74 928.75,-223.72 918.94,-219.75 918.6,-226.74"/>
</g>
<!-- 140325814088768 -->
<g id="node3" class="node">
<title>140325814088768</title>
<polygon fill="black" stroke="black" points="1125,-243 1071,-243 1071,-207 1125,-207 1125,-243"/>
</g>
<!-- 140325814078592 -->
<g id="node28" class="node">
<title>140325814078592</title>
<ellipse fill="white" stroke="black" cx="1240" cy="-225" rx="27" ry="27"/>
</g>
<!-- 140325814088768&#45;&gt;140325814078592 -->
<g id="edge11" class="edge">
<title>140325814088768&#45;&gt;140325814078592</title>
<path fill="none" stroke="black" d="M1125,-225C1146.77,-225 1178.08,-225 1202.38,-225"/>
<polygon fill="black" stroke="black" points="1202.66,-228.5 1212.66,-225 1202.66,-221.5 1202.66,-228.5"/>
</g>
<!-- 140325814085120 -->
<g id="node4" class="node">
<title>140325814085120</title>
<polygon fill="black" stroke="black" points="1601,-218 1547,-218 1547,-182 1601,-182 1601,-218"/>
</g>
<!-- 140325814085120&#45;&gt;140325814078592 -->
<g id="edge30" class="edge">
<title>140325814085120&#45;&gt;140325814078592</title>
<path fill="none" stroke="black" d="M1546.86,-200.55C1498.57,-201.76 1392.15,-205.36 1303,-215 1294.52,-215.92 1285.44,-217.21 1276.91,-218.56"/>
<polygon fill="black" stroke="black" points="1276.16,-215.13 1266.86,-220.21 1277.3,-222.04 1276.16,-215.13"/>
</g>
<!-- 140325814082624 -->
<g id="node5" class="node">
<title>140325814082624</title>
<polygon fill="black" stroke="black" points="455.5,-117 401.5,-117 401.5,-81 455.5,-81 455.5,-117"/>
</g>
<!-- 140325814082432 -->
<g id="node18" class="node">
<title>140325814082432</title>
<ellipse fill="white" stroke="black" cx="617" cy="-27" rx="27" ry="27"/>
</g>
<!-- 140325814082624&#45;&gt;140325814082432 -->
<g id="edge33" class="edge">
<title>140325814082624&#45;&gt;140325814082432</title>
<path fill="none" stroke="black" d="M455.83,-88.84C488.87,-76.08 545.6,-54.18 581.92,-40.16"/>
<polygon fill="black" stroke="black" points="583.52,-43.29 591.59,-36.42 581,-36.76 583.52,-43.29"/>
</g>
<!-- 140325814084928 -->
<g id="node20" class="node">
<title>140325814084928</title>
<ellipse fill="white" stroke="black" cx="617" cy="-99" rx="27" ry="27"/>
</g>
<!-- 140325814082624&#45;&gt;140325814084928 -->
<g id="edge34" class="edge">
<title>140325814082624&#45;&gt;140325814084928</title>
<path fill="none" stroke="black" d="M455.83,-99C488.18,-99 543.24,-99 579.62,-99"/>
<polygon fill="black" stroke="black" points="579.81,-102.5 589.81,-99 579.81,-95.5 579.81,-102.5"/>
</g>
<!-- 140325813864736 -->
<g id="node6" class="node">
<title>140325813864736</title>
<polygon fill="white" stroke="black" points="1177,-114 1019,-114 1019,-78 1177,-78 1177,-114"/>
<text text-anchor="middle" x="1098" y="-92.9" font-family="Times,serif" font-size="12.00">Insert Fine Notification</text>
</g>
<!-- 140325813864304 -->
<g id="node23" class="node">
<title>140325813864304</title>
<ellipse fill="white" stroke="black" cx="1240" cy="-96" rx="27" ry="27"/>
</g>
<!-- 140325813864736&#45;&gt;140325813864304 -->
<g id="edge7" class="edge">
<title>140325813864736&#45;&gt;140325813864304</title>
<path fill="none" stroke="black" d="M1177.19,-96C1186.16,-96 1194.95,-96 1202.95,-96"/>
<polygon fill="black" stroke="black" points="1202.98,-99.5 1212.98,-96 1202.98,-92.5 1202.98,-99.5"/>
</g>
<!-- 140325813865888 -->
<g id="node7" class="node">
<title>140325813865888</title>
<polygon fill="white" stroke="black" points="1392,-110 1303,-110 1303,-74 1392,-74 1392,-110"/>
<text text-anchor="middle" x="1347.5" y="-88.9" font-family="Times,serif" font-size="12.00">Add penalty</text>
</g>
<!-- 140325813865264 -->
<g id="node24" class="node">
<title>140325813865264</title>
<ellipse fill="white" stroke="black" cx="1455" cy="-92" rx="27" ry="27"/>
</g>
<!-- 140325813865888&#45;&gt;140325813865264 -->
<g id="edge6" class="edge">
<title>140325813865888&#45;&gt;140325813865264</title>
<path fill="none" stroke="black" d="M1392.02,-92C1400.56,-92 1409.43,-92 1417.71,-92"/>
<polygon fill="black" stroke="black" points="1417.8,-95.5 1427.8,-92 1417.8,-88.5 1417.8,-95.5"/>
</g>
<!-- 140325813866848 -->
<g id="node8" class="node">
<title>140325813866848</title>
<polygon fill="white" stroke="black" points="1630,-110 1518,-110 1518,-74 1630,-74 1630,-110"/>
<text text-anchor="middle" x="1574" y="-88.9" font-family="Times,serif" font-size="12.00">Appeal to Judge</text>
</g>
<!-- 140325814076048 -->
<g id="node21" class="node">
<title>140325814076048</title>
<ellipse fill="white" stroke="black" cx="1693" cy="-92" rx="27" ry="27"/>
</g>
<!-- 140325813866848&#45;&gt;140325814076048 -->
<g id="edge3" class="edge">
<title>140325813866848&#45;&gt;140325814076048</title>
<path fill="none" stroke="black" d="M1630.07,-92C1638.73,-92 1647.48,-92 1655.58,-92"/>
<polygon fill="black" stroke="black" points="1655.77,-95.5 1665.77,-92 1655.77,-88.5 1655.77,-95.5"/>
</g>
<!-- 140325814082384 -->
<g id="node9" class="node">
<title>140325814082384</title>
<polygon fill="white" stroke="black" points="177,-195 90,-195 90,-159 177,-159 177,-195"/>
<text text-anchor="middle" x="133.5" y="-173.9" font-family="Times,serif" font-size="12.00">Create Fine</text>
</g>
<!-- 140325816379456 -->
<g id="node25" class="node">
<title>140325816379456</title>
<ellipse fill="white" stroke="black" cx="240" cy="-177" rx="27" ry="27"/>
</g>
<!-- 140325814082384&#45;&gt;140325816379456 -->
<g id="edge10" class="edge">
<title>140325814082384&#45;&gt;140325816379456</title>
<path fill="none" stroke="black" d="M177,-177C185.51,-177 194.37,-177 202.64,-177"/>
<polygon fill="black" stroke="black" points="202.73,-180.5 212.73,-177 202.73,-173.5 202.73,-180.5"/>
</g>
<!-- 140325814086320 -->
<g id="node10" class="node">
<title>140325814086320</title>
<polygon fill="white" stroke="black" points="554,-272 303,-272 303,-236 554,-236 554,-272"/>
<text text-anchor="middle" x="428.5" y="-250.9" font-family="Times,serif" font-size="12.00">Receive Result Appeal from Prefecture</text>
</g>
<!-- 140325814083728 -->
<g id="node27" class="node">
<title>140325814083728</title>
<ellipse fill="white" stroke="black" cx="617" cy="-254" rx="27" ry="27"/>
</g>
<!-- 140325814086320&#45;&gt;140325814083728 -->
<g id="edge4" class="edge">
<title>140325814086320&#45;&gt;140325814083728</title>
<path fill="none" stroke="black" d="M554.16,-254C563.31,-254 572.01,-254 579.84,-254"/>
<polygon fill="black" stroke="black" points="579.93,-257.5 589.93,-254 579.93,-250.5 579.93,-257.5"/>
</g>
<!-- 140325814082960 -->
<g id="node11" class="node">
<title>140325814082960</title>
<polygon fill="black" stroke="black" points="1720,-173 1666,-173 1666,-137 1720,-137 1720,-173"/>
</g>
<!-- 140325817686000 -->
<g id="node30" class="node">
<title>140325817686000</title>
<ellipse fill="white" stroke="black" cx="1997" cy="-155" rx="27" ry="27"/>
<ellipse fill="none" stroke="black" cx="1997" cy="-155" rx="31" ry="31"/>
<text text-anchor="start" x="1981.5" y="-146.9" font-family="Times,serif" font-size="32.00">■</text>
</g>
<!-- 140325814082960&#45;&gt;140325817686000 -->
<g id="edge28" class="edge">
<title>140325814082960&#45;&gt;140325817686000</title>
<path fill="none" stroke="black" d="M1720.01,-155C1772.76,-155 1892.64,-155 1955.63,-155"/>
<polygon fill="black" stroke="black" points="1955.96,-158.5 1965.96,-155 1955.96,-151.5 1955.96,-158.5"/>
</g>
<!-- 140325814078640 -->
<g id="node12" class="node">
<title>140325814078640</title>
<polygon fill="white" stroke="black" points="1381.5,-260 1313.5,-260 1313.5,-224 1381.5,-224 1381.5,-260"/>
<text text-anchor="middle" x="1347.5" y="-238.9" font-family="Times,serif" font-size="12.00">Payment</text>
</g>
<!-- 140325814089344 -->
<g id="node29" class="node">
<title>140325814089344</title>
<ellipse fill="white" stroke="black" cx="1455" cy="-247" rx="27" ry="27"/>
</g>
<!-- 140325814078640&#45;&gt;140325814089344 -->
<g id="edge8" class="edge">
<title>140325814078640&#45;&gt;140325814089344</title>
<path fill="none" stroke="black" d="M1381.59,-243.57C1392.97,-244.11 1405.78,-244.71 1417.42,-245.27"/>
<polygon fill="black" stroke="black" points="1417.56,-248.78 1427.71,-245.75 1417.89,-241.78 1417.56,-248.78"/>
</g>
<!-- 140325814088528 -->
<g id="node13" class="node">
<title>140325814088528</title>
<polygon fill="black" stroke="black" points="1870,-241 1816,-241 1816,-205 1870,-205 1870,-241"/>
</g>
<!-- 140325814088528&#45;&gt;140325817686000 -->
<g id="edge31" class="edge">
<title>140325814088528&#45;&gt;140325817686000</title>
<path fill="none" stroke="black" d="M1870.13,-211.31C1894.65,-200.34 1931.58,-183.82 1959.11,-171.5"/>
<polygon fill="black" stroke="black" points="1960.72,-174.62 1968.42,-167.34 1957.86,-168.23 1960.72,-174.62"/>
</g>
<!-- 140325814081616 -->
<g id="node14" class="node">
<title>140325814081616</title>
<polygon fill="white" stroke="black" points="893,-46 680,-46 680,-10 893,-10 893,-46"/>
<text text-anchor="middle" x="786.5" y="-24.9" font-family="Times,serif" font-size="12.00">Insert Date Appeal to Prefecture</text>
</g>
<!-- 140325814086416 -->
<g id="node19" class="node">
<title>140325814086416</title>
<ellipse fill="white" stroke="black" cx="1098" cy="-33" rx="27" ry="27"/>
</g>
<!-- 140325814081616&#45;&gt;140325814086416 -->
<g id="edge1" class="edge">
<title>140325814081616&#45;&gt;140325814086416</title>
<path fill="none" stroke="black" d="M893.15,-29.71C951.3,-30.65 1019.78,-31.75 1060.72,-32.41"/>
<polygon fill="black" stroke="black" points="1060.71,-35.91 1070.76,-32.58 1060.82,-28.91 1060.71,-35.91"/>
</g>
<!-- 140325813863728 -->
<g id="node15" class="node">
<title>140325813863728</title>
<polygon fill="white" stroke="black" points="825,-115 748,-115 748,-79 825,-79 825,-115"/>
<text text-anchor="middle" x="786.5" y="-93.9" font-family="Times,serif" font-size="12.00">Send Fine</text>
</g>
<!-- 140325813863008 -->
<g id="node22" class="node">
<title>140325813863008</title>
<ellipse fill="white" stroke="black" cx="956" cy="-96" rx="27" ry="27"/>
</g>
<!-- 140325813863728&#45;&gt;140325813863008 -->
<g id="edge9" class="edge">
<title>140325813863728&#45;&gt;140325813863008</title>
<path fill="none" stroke="black" d="M825.09,-96.78C853.14,-96.61 891.25,-96.38 918.93,-96.22"/>
<polygon fill="black" stroke="black" points="919,-99.72 928.98,-96.16 918.96,-92.72 919,-99.72"/>
</g>
<!-- 140325814090160 -->
<g id="node16" class="node">
<title>140325814090160</title>
<polygon fill="white" stroke="black" points="1930,-110 1756,-110 1756,-74 1930,-74 1930,-110"/>
<text text-anchor="middle" x="1843" y="-88.9" font-family="Times,serif" font-size="12.00">Send for Credit Collection</text>
</g>
<!-- 140325814090160&#45;&gt;140325817686000 -->
<g id="edge5" class="edge">
<title>140325814090160&#45;&gt;140325817686000</title>
<path fill="none" stroke="black" d="M1887.56,-110.05C1909.92,-119.32 1936.9,-130.51 1958.36,-139.4"/>
<polygon fill="black" stroke="black" points="1957.21,-142.71 1967.79,-143.31 1959.89,-136.25 1957.21,-142.71"/>
</g>
<!-- 140326895302512 -->
<g id="node17" class="node">
<title>140326895302512</title>
<ellipse fill="white" stroke="black" cx="27" cy="-177" rx="27" ry="27"/>
<text text-anchor="start" x="11.5" y="-168.3" font-family="Times,serif" font-size="34.00">●</text>
</g>
<!-- 140326895302512&#45;&gt;140325814082384 -->
<g id="edge32" class="edge">
<title>140326895302512&#45;&gt;140325814082384</title>
<path fill="none" stroke="black" d="M54.1,-177C61.83,-177 70.6,-177 79.4,-177"/>
<polygon fill="black" stroke="black" points="79.68,-180.5 89.68,-177 79.68,-173.5 79.68,-180.5"/>
</g>
<!-- 140325814082432&#45;&gt;140325814081616 -->
<g id="edge12" class="edge">
<title>140325814082432&#45;&gt;140325814081616</title>
<path fill="none" stroke="black" d="M644.17,-27.16C651.6,-27.2 660.21,-27.25 669.43,-27.31"/>
<polygon fill="black" stroke="black" points="669.64,-30.81 679.66,-27.37 669.68,-23.81 669.64,-30.81"/>
</g>
<!-- 140325814086416&#45;&gt;140325814090160 -->
<g id="edge13" class="edge">
<title>140325814086416&#45;&gt;140325814090160</title>
<path fill="none" stroke="black" d="M1125.01,-33.35C1170.11,-33.92 1265.72,-35 1346.5,-35 1346.5,-35 1346.5,-35 1575,-35 1646.39,-35 1726.21,-54.73 1779.82,-70.98"/>
<polygon fill="black" stroke="black" points="1778.93,-74.37 1789.51,-73.96 1780.99,-67.68 1778.93,-74.37"/>
</g>
<!-- 140325814084928&#45;&gt;140325813863728 -->
<g id="edge14" class="edge">
<title>140325814084928&#45;&gt;140325813863728</title>
<path fill="none" stroke="black" d="M644.17,-98.69C669.03,-98.39 707,-97.94 737.33,-97.58"/>
<polygon fill="black" stroke="black" points="737.74,-101.07 747.7,-97.45 737.66,-94.07 737.74,-101.07"/>
</g>
<!-- 140325814076048&#45;&gt;140325814090160 -->
<g id="edge15" class="edge">
<title>140325814076048&#45;&gt;140325814090160</title>
<path fill="none" stroke="black" d="M1720.12,-92C1727.68,-92 1736.4,-92 1745.64,-92"/>
<polygon fill="black" stroke="black" points="1745.83,-95.5 1755.83,-92 1745.83,-88.5 1745.83,-95.5"/>
</g>
<!-- 140325813863008&#45;&gt;140325813864736 -->
<g id="edge16" class="edge">
<title>140325813863008&#45;&gt;140325813864736</title>
<path fill="none" stroke="black" d="M983,-96C990.61,-96 999.39,-96 1008.62,-96"/>
<polygon fill="black" stroke="black" points="1008.78,-99.5 1018.78,-96 1008.78,-92.5 1008.78,-99.5"/>
</g>
<!-- 140325813864304&#45;&gt;140325813865888 -->
<g id="edge17" class="edge">
<title>140325813864304&#45;&gt;140325813865888</title>
<path fill="none" stroke="black" d="M1267.08,-95.01C1274.88,-94.72 1283.74,-94.38 1292.64,-94.04"/>
<polygon fill="black" stroke="black" points="1292.8,-97.54 1302.66,-93.66 1292.53,-90.54 1292.8,-97.54"/>
</g>
<!-- 140325813865264&#45;&gt;140325813866848 -->
<g id="edge18" class="edge">
<title>140325813865264&#45;&gt;140325813866848</title>
<path fill="none" stroke="black" d="M1482.26,-92C1489.89,-92 1498.6,-92 1507.52,-92"/>
<polygon fill="black" stroke="black" points="1507.64,-95.5 1517.64,-92 1507.64,-88.5 1507.64,-95.5"/>
</g>
<!-- 140325816379456&#45;&gt;140325814080128 -->
<g id="edge21" class="edge">
<title>140325816379456&#45;&gt;140325814080128</title>
<path fill="none" stroke="black" d="M266.93,-180.2C299.27,-184.19 354.74,-191.03 391.27,-195.53"/>
<polygon fill="black" stroke="black" points="391.14,-199.04 401.49,-196.79 391.99,-192.09 391.14,-199.04"/>
</g>
<!-- 140325816379456&#45;&gt;140325814082624 -->
<g id="edge22" class="edge">
<title>140325816379456&#45;&gt;140325814082624</title>
<path fill="none" stroke="black" d="M262.74,-162.42C274.35,-155.05 289.09,-146.35 303,-140 331.75,-126.88 365.94,-115.93 391.21,-108.66"/>
<polygon fill="black" stroke="black" points="392.44,-111.95 401.11,-105.86 390.54,-105.21 392.44,-111.95"/>
</g>
<!-- 140325816379456&#45;&gt;140325814086320 -->
<g id="edge19" class="edge">
<title>140325816379456&#45;&gt;140325814086320</title>
<path fill="none" stroke="black" d="M259.49,-195.78C271.05,-206.47 286.78,-219.24 303,-227 307.09,-228.96 311.33,-230.78 315.67,-232.46"/>
<polygon fill="black" stroke="black" points="314.69,-235.83 325.28,-235.95 317.08,-229.25 314.69,-235.83"/>
</g>
<!-- 140325816379456&#45;&gt;140325814082960 -->
<g id="edge20" class="edge">
<title>140325816379456&#45;&gt;140325814082960</title>
<path fill="none" stroke="black" d="M266.88,-174.32C327.71,-168.25 484.57,-154 616,-154 616,-154 616,-154 1456,-154 1526.7,-154 1609.32,-154.45 1655.66,-154.75"/>
<polygon fill="black" stroke="black" points="1655.79,-158.25 1665.81,-154.82 1655.83,-151.25 1655.79,-158.25"/>
</g>
<!-- 140325814076384&#45;&gt;140325814088768 -->
<g id="edge23" class="edge">
<title>140325814076384&#45;&gt;140325814088768</title>
<path fill="none" stroke="black" d="M983,-225C1004.77,-225 1036.08,-225 1060.38,-225"/>
<polygon fill="black" stroke="black" points="1060.66,-228.5 1070.66,-225 1060.66,-221.5 1060.66,-228.5"/>
</g>
<!-- 140325814083728&#45;&gt;140325814087712 -->
<g id="edge24" class="edge">
<title>140325814083728&#45;&gt;140325814087712</title>
<path fill="none" stroke="black" d="M644.17,-253.22C651.6,-253 660.21,-252.74 669.43,-252.46"/>
<polygon fill="black" stroke="black" points="669.77,-255.96 679.66,-252.16 669.56,-248.96 669.77,-255.96"/>
</g>
<!-- 140325814078592&#45;&gt;140325814078640 -->
<g id="edge25" class="edge">
<title>140325814078592&#45;&gt;140325814078640</title>
<path fill="none" stroke="black" d="M1266.81,-229.16C1277.77,-230.92 1290.85,-233.03 1303.22,-235.03"/>
<polygon fill="black" stroke="black" points="1302.94,-238.53 1313.37,-236.66 1304.06,-231.62 1302.94,-238.53"/>
</g>
<!-- 140325814089344&#45;&gt;140325814085120 -->
<g id="edge26" class="edge">
<title>140325814089344&#45;&gt;140325814085120</title>
<path fill="none" stroke="black" d="M1480.24,-237.26C1496.77,-230.62 1518.94,-221.72 1537.45,-214.28"/>
<polygon fill="black" stroke="black" points="1538.78,-217.52 1546.75,-210.54 1536.17,-211.02 1538.78,-217.52"/>
</g>
<!-- 140325814089344&#45;&gt;140325814088528 -->
<g id="edge27" class="edge">
<title>140325814089344&#45;&gt;140325814088528</title>
<path fill="none" stroke="black" d="M1482.23,-245.37C1549.56,-241.18 1728.65,-230.05 1805.8,-225.25"/>
<polygon fill="black" stroke="black" points="1806.23,-228.73 1815.99,-224.62 1805.79,-221.74 1806.23,-228.73"/>
</g>
</g>
</svg>
